<svg xmlns="http://www.w3.org/2000/svg" viewBox="0 0 1001.61 1001.61"><defs><style>.cls-1{fill:#26193e;}.cls-2{fill:#a38edc;}.cls-3,.cls-4{fill:none;stroke:#fff;stroke-width:16px;}.cls-3{stroke-linecap:round;stroke-linejoin:round;}.cls-4{stroke-miterlimit:10;}</style></defs><g id="Layer_2" data-name="Layer 2"><g id="v2"><circle class="cls-1" cx="500.81" cy="500.81" r="480.52"/><path class="cls-2" d="M695.75,962.25a502.42,502.42,0,1,0-194.94,39.36A499.1,499.1,0,0,0,695.75,962.25ZM20.29,500.81c0-265.39,215.13-480.52,480.52-480.52S981.32,235.42,981.32,500.81,766.19,981.32,500.81,981.32,20.29,766.19,20.29,500.81Z"/><path class="cls-3" d="M639.13,350a53.4,53.4,0,0,0-20.06-102.88,43.49,43.49,0,0,0-13.17,1.64c-31.09,8.4-41.15-17.1-41.15-17.1-4.69-20.21-24.57-35.4-48.37-35.4-25.27,0-46.12,17.12-49.06,39.21l-3.85-.61c-7.11-4.8-14.3-6.71-23.53-6.71a44.6,44.6,0,0,0-44.26,39.19l-2.06-.62c-4.67-1.66-7.95-2-13.19-2A44.58,44.58,0,0,0,346,337.68l-.19,5.89v75.09c0,36.92,16.89,80,34.41,122.12S399,715.16,399,715.16"/><path class="cls-4" d="M492.26,785.24h65.63a28,28,0,0,0,28-28V715.16H399v42.05a28,28,0,0,0,28,28h65.63"/><path class="cls-4" d="M585.91,715.16s1.26-132.24,18.78-174.38,34.41-85.2,34.41-122.12V350s-19.5,4.37-33.9,4.37S592.45,365,592.45,365v21.26a26.68,26.68,0,1,1-53.36,0h0V356.79a24.85,24.85,0,0,0-49.7,0v51.43a26.69,26.69,0,1,1-53.37,0v-34.3s1.17-19.08-23.23-19.08-51.86,4.47-66.76-17.16"/></g></g></svg>