<svg xmlns="http://www.w3.org/2000/svg" viewBox="0 0 1001.61 1001.61"><defs><style>.cls-1{fill:#26193e;}.cls-2{fill:#a38edc;}.cls-3{fill:none;stroke:#fff;stroke-linecap:round;stroke-linejoin:round;stroke-width:14px;}</style></defs><g id="Layer_2" data-name="Layer 2"><g id="Layer_1-2" data-name="Layer 1"><circle class="cls-1" cx="500.81" cy="500.81" r="480.52"/><path class="cls-2" d="M962.25,305.87a502.42,502.42,0,1,0,39.36,194.94A499,499,0,0,0,962.25,305.87ZM500.81,981.32c-265.39,0-480.52-215.13-480.52-480.51S235.42,20.29,500.81,20.29,981.32,235.42,981.32,500.81,766.19,981.32,500.81,981.32Z"/><circle class="cls-3" cx="408.47" cy="706.06" r="15.52"/><circle class="cls-3" cx="546.79" cy="522.47" r="15.52"/><circle class="cls-3" cx="597.6" cy="600.07" r="15.52"/><circle class="cls-3" cx="586.85" cy="697.58" r="15.52"/><circle class="cls-3" cx="496.2" cy="712.01" r="15.52"/><circle class="cls-3" cx="531.27" cy="637.23" r="15.52"/><circle class="cls-3" cx="392.95" cy="522.47" r="15.52"/><circle class="cls-3" cx="474.81" cy="563.94" r="15.52"/><circle class="cls-3" cx="456.74" cy="647.85" r="15.52"/><circle class="cls-3" cx="382.76" cy="614.27" r="15.52"/><path class="cls-3" d="M596.47,332.46c13.3,11.08,24.38,21.06,4.43,47.65s-68.71,11.48-68.71,11.48c-54.31,46.94-98.64-4.67-98.64-4.67-74.25,20.1-83.12-31.19-83.12-31.19s-21.94,10.54-33.24-11.08c0,0-11.31-21.62,12.07-29.65"/><path class="cls-3" d="M342.68,319.16A83.41,83.41,0,0,1,329.26,315c-11.91-4.84-26.34-14.28-18.72-30.2,12.19-25.49,32.14-17.73,32.14-17.73S359.3,193.92,428,237.15c0,0,36.58-38.79,74.26-1.11,0,0,28.81-36.57,57.63,1.11,0,0,51-31,68.71,17.73,0,0,55.41,21.06,17.73,49.87,0,0,49.33,45.94-36.29,59.54"/><path class="cls-3" d="M659.32,339V734.38A49.63,49.63,0,0,1,609.68,784h-240A49.63,49.63,0,0,1,320,734.38V349.17"/><path class="cls-3" d="M320,449.32s81.48,17.74,170.3,4.44,169,4.94,169,4.94"/><path class="cls-3" d="M659.32,438.24H689A36.79,36.79,0,0,1,725.8,475V630.49A36.79,36.79,0,0,1,689,667.28H659.32"/><path class="cls-3" d="M659.32,399.28h50a58.14,58.14,0,0,1,58.14,58.14V653.87A58.14,58.14,0,0,1,709.37,712h-50"/></g></g></svg>