<svg xmlns="http://www.w3.org/2000/svg" viewBox="0 0 1001.61 1001.61"><defs><style>.cls-1{fill:#26193e;}.cls-2{fill:#a38edc;}.cls-3{fill:none;stroke:#fff;stroke-linecap:round;stroke-linejoin:round;stroke-width:20px;}</style></defs><g id="Layer_2" data-name="Layer 2"><g id="v2"><circle class="cls-1" cx="500.81" cy="500.81" r="480.52"/><path class="cls-2" d="M695.75,962.25a502.42,502.42,0,1,0-194.94,39.36A499.1,499.1,0,0,0,695.75,962.25ZM20.29,500.81c0-265.39,215.13-480.52,480.52-480.52S981.32,235.42,981.32,500.81,766.19,981.32,500.81,981.32,20.29,766.19,20.29,500.81Z"/><path class="cls-3" d="M531.65,498.4c52.56,18.61,90.07,67.44,90.07,124.75,0,73.34-61.44,132.8-137.23,132.8s-137.23-59.46-137.23-132.8c0-57.28,37.48-106.09,90-124.72"/><line class="cls-3" x1="377.66" y1="755.95" x2="591.32" y2="755.95"/><line class="cls-3" x1="347.26" y1="635.3" x2="621.15" y2="635.3"/><line class="cls-3" x1="531.64" y1="290.61" x2="531.64" y2="497.94"/><line class="cls-3" x1="437.26" y1="497.94" x2="437.26" y2="290.61"/><path class="cls-3" d="M437.87,290.61h97.67a26.87,26.87,0,0,0,26.86-26.87v-1.21a26.86,26.86,0,0,0-26.86-26.86H443.28a26.86,26.86,0,0,0-26.86,26.86v1.21a26.87,26.87,0,0,0,21.45,26.32"/><line class="cls-3" x1="592.64" y1="541.4" x2="637.44" y2="499.65"/><line class="cls-3" x1="615.47" y1="583.39" x2="670.18" y2="532.39"/><rect class="cls-3" x="627.86" y="472.03" width="90.45" height="49.5" rx="23.44" transform="translate(577.01 -334.25) rotate(46.97)"/></g></g></svg>