<svg xmlns="http://www.w3.org/2000/svg" viewBox="0 0 1001.61 1001.61"><defs><style>.cls-1{fill:#26193e;}.cls-2{fill:#a38edc;}.cls-3{fill:none;stroke:#fff;stroke-linecap:round;stroke-linejoin:round;stroke-width:14px;}</style></defs><g id="Layer_2" data-name="Layer 2"><g id="Layer_1-2" data-name="Layer 1"><circle class="cls-1" cx="500.81" cy="500.81" r="480.52"/><path class="cls-2" d="M962.25,305.87a502.42,502.42,0,1,0,39.36,194.94A499,499,0,0,0,962.25,305.87ZM500.81,981.32c-265.39,0-480.52-215.13-480.52-480.51S235.42,20.29,500.81,20.29,981.32,235.42,981.32,500.81,766.19,981.32,500.81,981.32Z"/><line class="cls-3" x1="336.55" y1="787.18" x2="629.26" y2="787.18"/><path class="cls-3" d="M570,593.71A159.26,159.26,0,0,0,336.13,787.35"/><path class="cls-3" d="M631.29,787.18a159.39,159.39,0,0,0-26.12-162.55"/><ellipse class="cls-3" cx="480.8" cy="239.22" rx="41.92" ry="24.96"/><line class="cls-3" x1="438.88" y1="572.17" x2="438.88" y2="239.22"/><line class="cls-3" x1="522.72" y1="572.17" x2="522.72" y2="239.22"/><ellipse class="cls-3" cx="658.73" cy="537.05" rx="13.91" ry="23.47" transform="translate(-191.16 542.28) rotate(-39.54)"/><path class="cls-3" d="M556.06,674.45c-5.92,4.89-17.42.75-25.67-9.25s-10.14-22.06-4.21-27"/><line class="cls-3" x1="526.04" y1="638.25" x2="643.79" y2="518.95"/><line class="cls-3" x1="556.06" y1="674.45" x2="673.67" y2="555.14"/></g></g></svg>