<svg xmlns="http://www.w3.org/2000/svg" viewBox="0 0 1000.94 1000.94"><defs><style>.cls-1{fill:#26193e;}.cls-2{fill:#a38edc;}.cls-3{fill:none;stroke:#fff;stroke-linecap:round;stroke-linejoin:round;stroke-width:20px;}</style></defs><g id="Layer_2" data-name="Layer 2"><g id="v2"><path class="cls-1" d="M500.47,990.94C229.52,990.77,10,771,10.18,500A490.59,490.59,0,0,1,309.56,48.54C559.37-56.39,846.94,61.06,951.87,310.87,1056.5,560,940,846.76,691.38,952.4A487.38,487.38,0,0,1,500.47,990.94Z"/><path class="cls-2" d="M500.47,20c265.43.18,480.45,215.5,480.28,480.92A480.6,480.6,0,0,1,687.47,943.19c-245,102-526.38-14-628.38-259C-42.15,440.93,71.31,161.54,313.47,57.75A477.62,477.62,0,0,1,500.47,20m0-20C224.07,0,0,224.07,0,500.47s224.07,500.47,500.47,500.47,500.47-224.07,500.47-500.47S776.87,0,500.47,0Z"/><rect class="cls-3" x="440.47" y="355.47" width="120" height="420"/><rect class="cls-3" x="420.47" y="225.47" width="160" height="130"/><line class="cls-3" x1="460.47" y1="355.47" x2="460.47" y2="225.47"/><line class="cls-3" x1="500.47" y1="355.47" x2="500.47" y2="225.47"/><line class="cls-3" x1="540.47" y1="355.47" x2="540.47" y2="225.47"/></g></g></svg>