<svg xmlns="http://www.w3.org/2000/svg" viewBox="0 0 1001.61 1001.61"><defs><style>.cls-1{fill:#26193e;}.cls-2{fill:#a38edc;}.cls-3{fill:none;stroke:#fff;stroke-linecap:round;stroke-linejoin:round;stroke-width:14px;}</style></defs><g id="Layer_2" data-name="Layer 2"><g id="Layer_1-2" data-name="Layer 1"><circle class="cls-1" cx="500.81" cy="500.81" r="480.52"/><path class="cls-2" d="M962.25,305.87a502.42,502.42,0,1,0,39.36,194.94A499,499,0,0,0,962.25,305.87ZM500.81,981.32c-265.39,0-480.52-215.13-480.52-480.51S235.42,20.29,500.81,20.29,981.32,235.42,981.32,500.81,766.19,981.32,500.81,981.32Z"/><rect class="cls-3" x="408.21" y="381.52" width="129.91" height="418.83" rx="12.54"/><rect class="cls-3" x="395.38" y="201.26" width="151.14" height="180.26" rx="37.62"/><line class="cls-3" x1="395.38" y1="262.18" x2="465.89" y2="262.18"/><line class="cls-3" x1="395.38" y1="291.39" x2="465.89" y2="291.39"/><line class="cls-3" x1="395.38" y1="321.85" x2="465.89" y2="321.85"/><path class="cls-3" d="M612.42,402.34a29.81,29.81,0,1,1-29.21,13.58"/><path class="cls-3" d="M614.33,402.74c-18.1-8.67-27.43-32.42-31-42.94h-.15c4.24,10.32,9.07,36.83.07,56.13"/></g></g></svg>