<svg xmlns="http://www.w3.org/2000/svg" viewBox="0 0 1001.61 1001.61"><defs><style>.cls-1{fill:#26193e;}.cls-2{fill:#a38edc;}.cls-3{fill:none;stroke:#fff;stroke-linecap:round;stroke-linejoin:round;stroke-width:14px;}</style></defs><g id="Layer_2" data-name="Layer 2"><g id="Layer_1-2" data-name="Layer 1"><circle class="cls-1" cx="500.81" cy="500.81" r="480.52"/><path class="cls-2" d="M962.25,305.87a502.42,502.42,0,1,0,39.36,194.94A499,499,0,0,0,962.25,305.87ZM500.81,981.32c-265.39,0-480.52-215.13-480.52-480.51S235.42,20.29,500.81,20.29,981.32,235.42,981.32,500.81,766.19,981.32,500.81,981.32Z"/><path class="cls-3" d="M571.63,555.1V742.81a43.34,43.34,0,0,1-43.34,43.35H436.66a43.35,43.35,0,0,1-43.35-43.35V432.14a43.35,43.35,0,0,1,43.35-43.35h91.63a43.34,43.34,0,0,1,43.34,43.35v57.65"/><polyline class="cls-3" points="528.29 388.79 571.63 388.79 537.24 215.45 482.47 215.45 427.7 215.45 393.31 388.79 436.65 388.79"/><rect class="cls-3" x="495.26" y="493.13" width="107" height="56.05"/><rect class="cls-3" x="602.26" y="471.63" width="46.05" height="99.04"/><line class="cls-3" x1="393.31" y1="711.38" x2="571.63" y2="711.38"/></g></g></svg>