<svg xmlns="http://www.w3.org/2000/svg" viewBox="0 0 1001.61 1001.61"><defs><style>.cls-1{fill:#26193e;}.cls-2{fill:#a38edc;}.cls-3{fill:none;stroke:#fff;stroke-linecap:round;stroke-linejoin:round;stroke-width:20px;}</style></defs><g id="Layer_2" data-name="Layer 2"><g id="v2"><circle class="cls-1" cx="500.81" cy="500.81" r="480.52"/><path class="cls-2" d="M962.25,305.87a502.42,502.42,0,1,0,39.36,194.94A499,499,0,0,0,962.25,305.87ZM500.81,981.32c-265.39,0-480.52-215.13-480.52-480.51S235.42,20.29,500.81,20.29,981.32,235.42,981.32,500.81,766.19,981.32,500.81,981.32Z"/><path class="cls-3" d="M558.35,548.52V720.41a39.69,39.69,0,0,1-39.69,39.69H434.75a39.69,39.69,0,0,1-39.69-39.69V435.93a39.69,39.69,0,0,1,39.69-39.69h83.91a39.69,39.69,0,0,1,39.69,39.69v52.79"/><polyline class="cls-3" points="518.65 396.24 558.35 396.24 526.86 237.51 476.7 237.51 426.55 237.51 395.06 396.24 434.75 396.24"/><line class="cls-3" x1="586.39" y1="491.78" x2="586.39" y2="543.1"/><polyline class="cls-3" points="586.39 543.1 488.42 543.1 488.42 491.78 586.39 491.78"/><polyline class="cls-3" points="586.39 491.78 586.39 472.09 628.55 472.09 628.55 562.78 586.39 562.78 586.39 543.1"/><line class="cls-3" x1="395.06" y1="691.62" x2="558.35" y2="691.62"/></g></g></svg>