<svg xmlns="http://www.w3.org/2000/svg" viewBox="0 0 1001.61 1001.61"><defs><style>.cls-1{fill:#26193e;}.cls-2{fill:#a38edc;}.cls-3{fill:none;stroke:#fff;stroke-linecap:round;stroke-linejoin:round;stroke-width:20px;}</style></defs><g id="Layer_2" data-name="Layer 2"><g id="v2"><circle class="cls-1" cx="500.81" cy="500.81" r="480.52"/><path class="cls-2" d="M962.25,305.87a502.42,502.42,0,1,0,39.36,194.94A499,499,0,0,0,962.25,305.87ZM500.81,981.32c-265.39,0-480.52-215.13-480.52-480.51S235.42,20.29,500.81,20.29,981.32,235.42,981.32,500.81,766.19,981.32,500.81,981.32Z"/><path class="cls-3" d="M680.18,394.63,498.54,709.23a102.25,102.25,0,0,1-139.68,37.43h0A102.25,102.25,0,0,1,321.44,607l181.63-314.6A102.26,102.26,0,0,1,642.75,255h0A102.26,102.26,0,0,1,680.18,394.63Z"/><line class="cls-3" x1="412.31" y1="449.66" x2="589.39" y2="551.91"/></g></g></svg>