<svg xmlns="http://www.w3.org/2000/svg" viewBox="0 0 913.98 624.49"><defs><style>.cls-1{fill:#c52254;}.cls-2{fill:#ed2c65;}.cls-3{fill:#26193e;}.cls-4{fill:#f3fafb;}.cls-5{fill:#33bcab;}.cls-6{fill:#bcd;}.cls-7{fill:#fff;}.cls-8{fill:#dbe2f1;}.cls-9{fill:#881e45;}</style></defs><g id="Layer_2" data-name="Layer 2"><g id="Layer_1-2" data-name="Layer 1"><polygon class="cls-1" points="913.98 225.59 913.98 310.79 377.6 624.49 377.6 529.61 913.98 225.59"/><polygon class="cls-2" points="0 310.79 534.45 0 913.98 225.59 377.6 529.61 0 310.79"/><ellipse class="cls-3" cx="466.28" cy="253.97" rx="244.85" ry="135.75"/><ellipse class="cls-4" cx="466.28" cy="254.94" rx="81.47" ry="45.17"/><rect class="cls-5" x="455.94" y="230.39" width="20.67" height="29.81" rx="1.97"/><polygon class="cls-6" points="488.08 79.36 488.08 92.43 462.9 79.36 462.9 66.29 488.08 79.36"/><polyline class="cls-7" points="563.6 38.21 538.42 25.14 462.9 66.29 488.08 79.36 563.6 38.21"/><polygon class="cls-8" points="563.6 38.2 563.6 51.29 488.08 92.44 488.08 79.35 563.6 38.2"/><polygon class="cls-6" points="387.87 489.58 387.87 502.65 369.96 493.37 369.96 480.5 387.87 489.58"/><polygon class="cls-8" points="414.98 474.78 414.98 487.85 387.87 502.65 387.87 489.58 414.98 474.78"/><polyline class="cls-7" points="414.98 474.78 387.87 489.58 369.96 480.5 396.97 465.71"/><line class="cls-7" x1="414.88" y1="474.78" x2="396.97" y2="465.71"/><polygon class="cls-6" points="795 257.94 795 271.01 777.09 261.73 777.09 248.87 795 257.94"/><polygon class="cls-8" points="822.11 243.15 822.11 256.21 795 271.01 795 257.94 822.11 243.15"/><polyline class="cls-7" points="822.11 243.15 795 257.94 777.09 248.87 804.09 234.07"/><line class="cls-7" x1="822" y1="243.14" x2="804.09" y2="234.07"/><polygon class="cls-6" points="355.01 464.81 355.01 477.88 337.1 468.6 337.1 455.73 355.01 464.81"/><polygon class="cls-8" points="382.12 450.01 382.12 463.08 355.01 477.88 355.01 464.81 382.12 450.01"/><polyline class="cls-7" points="382.12 450.01 355.01 464.81 337.1 455.73 364.11 440.94"/><line class="cls-7" x1="382.02" y1="450.01" x2="364.11" y2="440.94"/><path class="cls-3" d="M117,308.57l-7.47-4.38c-16.23,2.93-28,11.8-28,22.29,0,12.88,17.78,23.32,39.73,23.32,17.89,0,33-6.94,38-16.48l-26.73-15.67Z"/><path class="cls-4" d="M84.31,271.33a8,8,0,1,0-11.14,11.49l0,0,.16.1a8.29,8.29,0,0,0,2.57,1.51l33.69,19.74,7.47,4.38,15.5,9.08,26.73,15.67,102.33,60a22.35,22.35,0,0,1,9.81-15.66Z"/><path class="cls-3" d="M326.42,400.55a9.64,9.64,0,0,0-1-.54l.12-.18-41.48-23.24c-3.59-2.27-8.37-1.69-12.65,1a22.35,22.35,0,0,0-9.81,15.66c-.57,5,1,9.45,4.52,11.69,8.05,5.09,31.76,18.23,40.83,22.71l0,0a8.4,8.4,0,0,0,1.51,1.27c5.65,3.58,14.24.11,19.2-7.73S332.07,404.12,326.42,400.55Z"/><polygon class="cls-6" points="432.89 464.14 432.89 477.21 414.98 467.94 414.98 455.07 432.89 464.14"/><polygon class="cls-8" points="460 449.35 460 462.42 432.89 477.21 432.89 464.14 460 449.35"/><polyline class="cls-7" points="460 449.35 432.89 464.14 414.98 455.07 441.99 440.27"/><line class="cls-7" x1="459.9" y1="449.35" x2="441.99" y2="440.28"/><polygon class="cls-6" points="840.02 232.51 840.02 245.58 822.11 236.3 822.11 223.43 840.02 232.51"/><polygon class="cls-8" points="867.13 217.71 867.13 230.78 840.02 245.58 840.02 232.51 867.13 217.71"/><polyline class="cls-7" points="867.13 217.71 840.02 232.51 822.11 223.43 849.11 208.64"/><line class="cls-7" x1="867.02" y1="217.71" x2="849.11" y2="208.64"/><polygon class="cls-6" points="400.03 439.37 400.03 452.44 382.12 443.17 382.12 430.3 400.03 439.37"/><polygon class="cls-8" points="427.14 424.58 427.14 437.65 400.03 452.44 400.03 439.37 427.14 424.58"/><polyline class="cls-7" points="427.14 424.58 400.03 439.37 382.12 430.3 409.13 415.5"/><line class="cls-7" x1="427.04" y1="424.58" x2="409.13" y2="415.5"/><path class="cls-5" d="M117,323.88a1.58,1.58,0,0,0,1.57,1.57H131a1.58,1.58,0,0,0,1.57-1.57v-6.23L117,308.57Z"/><polygon class="cls-9" points="0 310.79 0 405.68 377.6 624.49 377.6 529.61 0 310.79"/></g></g></svg>