<?xml version="1.0" encoding="UTF-8"?>
<svg width="50px" height="50px" viewBox="0 0 50 50" version="1.1" xmlns="http://www.w3.org/2000/svg" xmlns:xlink="http://www.w3.org/1999/xlink">
    <!-- Generator: Sketch 62 (91390) - https://sketch.com -->
    <title>Icon/Dosage</title>
    <desc>Created with Sketch.</desc>
    <g id="Icon/Dosage" stroke="none" stroke-width="1" fill="none" fill-rule="evenodd">
        <rect fill="#FFFFFF" x="0" y="0" width="50" height="50"></rect>
        <g id="Icon/Dose-2" transform="translate(5.000000, 5.000000)" fill="#E61B5B">
            <path d="M23.5789474,14 C26.6293032,14 29.2205038,15.9086108 30.1547048,18.5628819 C32.0032719,18.8686404 33.4775973,20.2385058 33.8866681,22.0002447 L40,22 L40,26 C40,27.6568542 38.6568542,29 37,29 L37,29 L3,29 C1.34314575,29 0,27.6568542 0,26 L0,26 L0,22 L12.0900464,22.0004011 C12.5444794,19.5251029 14.6677897,17.6106919 17.2899357,17.3931262 L17.5583027,17.3770476 C18.7588665,15.3584551 21.0055049,14 23.5789474,14 Z M38,24 L2,24 L2,26 L2.00672773,26.1166211 C2.06449284,26.6139598 2.48716416,27 3,27 L3,27 L37,27 L37.1166211,26.9932723 C37.6139598,26.9355072 38,26.5128358 38,26 L38,26 L38,24 Z M23.5627107,16 C21.7623708,16 20.1269559,16.9488721 19.1924533,18.4703138 L19.0915314,18.6417 L18.6859303,19.3607488 L17.6591875,19.4251811 C16.1031013,19.561314 14.8107577,20.5928781 14.2566379,21.9999272 L31.6315353,22.0000468 C31.2282591,21.3148992 30.5623883,20.8041798 29.7657167,20.6216208 L29.6174203,20.5917229 L28.7352156,20.437869 L28.4437601,19.5647506 C27.7385438,17.4521223 25.7876747,16 23.5627107,16 Z" id="Combined-Shape"></path>
        </g>
    </g>
</svg>