<svg xmlns="http://www.w3.org/2000/svg" viewBox="0 0 1001.61 1001.61"><defs><style>.cls-1{fill:#26193e;}.cls-2{fill:#a38edc;}.cls-3{fill:none;stroke:#fff;stroke-linecap:round;stroke-linejoin:round;stroke-width:20px;}</style></defs><g id="Layer_2" data-name="Layer 2"><g id="v2"><circle class="cls-1" cx="500.81" cy="500.81" r="480.52"/><path class="cls-2" d="M962.25,305.87a502.42,502.42,0,1,0,39.36,194.94A499,499,0,0,0,962.25,305.87ZM500.81,981.32c-265.39,0-480.52-215.13-480.52-480.51S235.42,20.29,500.81,20.29,981.32,235.42,981.32,500.81,766.19,981.32,500.81,981.32Z"/><rect class="cls-3" x="386.47" y="408.68" width="228.68" height="352.85" rx="40.31"/><line class="cls-3" x1="386.47" y1="519.07" x2="615.15" y2="519.07"/><line class="cls-3" x1="386.47" y1="666.66" x2="615.15" y2="666.66"/><rect class="cls-3" x="435.16" y="313.84" width="125.99" height="54.12" rx="13.44"/><line class="cls-3" x1="463.05" y1="408.68" x2="463.05" y2="367.96"/><line class="cls-3" x1="538.56" y1="408.68" x2="538.56" y2="367.96"/><path class="cls-3" d="M532.35,313.84V269.78a29.7,29.7,0,0,0-29.7-29.7h0a29.7,29.7,0,0,0-29.7,29.7v44.06"/></g></g></svg>