<svg xmlns="http://www.w3.org/2000/svg" viewBox="0 0 1001.61 1001.61"><defs><style>.cls-1{fill:#26193e;}.cls-2{fill:#a38edc;}.cls-3{fill:none;stroke:#fff;stroke-linecap:round;stroke-linejoin:round;stroke-width:14px;}</style></defs><g id="Layer_2" data-name="Layer 2"><g id="Layer_1-2" data-name="Layer 1"><circle class="cls-1" cx="500.81" cy="500.81" r="480.52"/><path class="cls-2" d="M962.25,305.87a502.42,502.42,0,1,0,39.36,194.94A499,499,0,0,0,962.25,305.87ZM500.81,981.32c-265.39,0-480.52-215.13-480.52-480.51S235.42,20.29,500.81,20.29,981.32,235.42,981.32,500.81,766.19,981.32,500.81,981.32Z"/><rect class="cls-3" x="361.29" y="388.39" width="279.04" height="430.56" rx="49.19"/><line class="cls-3" x1="361.29" y1="523.09" x2="640.33" y2="523.09"/><line class="cls-3" x1="361.29" y1="703.19" x2="640.33" y2="703.19"/><rect class="cls-3" x="420.7" y="272.66" width="153.74" height="66.04" rx="16.4"/><line class="cls-3" x1="454.74" y1="388.39" x2="454.74" y2="338.7"/><line class="cls-3" x1="546.88" y1="388.39" x2="546.88" y2="338.7"/><path class="cls-3" d="M539.3,272.66V218.91a36.24,36.24,0,0,0-36.24-36.24h0a36.24,36.24,0,0,0-36.24,36.24v53.75"/></g></g></svg>