<?xml version="1.0" encoding="UTF-8"?>
<svg width="50px" height="50px" viewBox="0 0 50 50" version="1.1" xmlns="http://www.w3.org/2000/svg" xmlns:xlink="http://www.w3.org/1999/xlink">
    <!-- Generator: Sketch 62 (91390) - https://sketch.com -->
    <title>Icon/Duration</title>
    <desc>Created with Sketch.</desc>
    <g id="Icon/Duration" stroke="none" stroke-width="1" fill="none" fill-rule="evenodd">
        <rect fill="#FFFFFF" x="0" y="0" width="50" height="50"></rect>
        <g transform="translate(5.000000, 5.000000)" fill="#E61B5B" id="Combined-Shape">
            <path d="M20,2 C29.9411255,2 38,10.0588745 38,20 C38,29.9411255 29.9411255,38 20,38 C10.0588745,38 2,29.9411255 2,20 C2,10.0588745 10.0588745,2 20,2 Z M20,4 C11.163444,4 4,11.163444 4,20 C4,28.836556 11.163444,36 20,36 C28.836556,36 36,28.836556 36,20 C36,11.163444 28.836556,4 20,4 Z M20,5 C28.2842712,5 35,11.7157288 35,20 C35,24.9402443 32.593243,29.4775972 28.6307694,32.2696739 C28.1793043,32.5877897 27.5554356,32.4796887 27.2373199,32.0282235 C26.9192041,31.5767583 27.0273051,30.9528897 27.4787703,30.6347739 C30.915058,28.2134634 33,24.2828142 33,20 C33,12.8202983 27.1797017,7 20,7 C19.4477153,7 19,6.55228475 19,6 C19,5.44771525 19.4477153,5 20,5 Z M20,11 C20.5128358,11 20.9355072,11.3860402 20.9932723,11.8833789 L21,12 L21.0010775,18.2681881 C21.5982846,18.6141507 22,19.2601625 22,20 C22,20.3510523 21.909554,20.6809797 21.7506935,20.9677509 L26.2698447,27.6117695 L26.3294808,27.7122149 C26.5596997,28.1568292 26.4251602,28.7132258 26,29 C25.5748398,29.2867742 25.0085585,29.2030871 24.6825608,28.8230765 L24.6117695,28.7301553 L20.032,21.999 L20,22 C18.9456382,22 18.0818349,21.1841222 18.0054857,20.1492623 L18,20 C18,19.2597476 18.4021661,18.6134261 18.9999275,18.2676063 L19,12 L19.0067277,11.8833789 C19.0644928,11.3860402 19.4871642,11 20,11 Z"></path>
        </g>
    </g>
</svg>