<?xml version="1.0" encoding="UTF-8"?>
<svg width="50px" height="50px" viewBox="0 0 50 50" version="1.1" xmlns="http://www.w3.org/2000/svg" xmlns:xlink="http://www.w3.org/1999/xlink">
    <!-- Generator: Sketch 62 (91390) - https://sketch.com -->
    <title>Icon/Effects</title>
    <desc>Created with Sketch.</desc>
    <g id="Icon/Effects" stroke="none" stroke-width="1" fill="none" fill-rule="evenodd">
        <rect fill="#FFFFFF" x="0" y="0" width="50" height="50"></rect>
        <g id="Icon/Effect-new4" transform="translate(5.000000, 5.000000)" fill="#E61B5B">
            <path d="M31.5695,32.4717 L30.9005,33.0157 C28.4135,32.0367 26.6085,29.2877 25.9225,28.0997 C25.4215,27.2297 24.3485,26.8997 23.4795,27.3477 C23.1525,27.5157 22.7975,27.6007 22.4245,27.6007 C21.4245,27.6007 20.5655,26.9607 20.2475,26.0537 C20.5485,25.8047 20.8655,25.5447 21.2115,25.2687 C25.3815,21.9307 27.7695,24.0897 27.8875,24.2007 C28.2785,24.5837 28.9065,24.5827 29.2945,24.1947 C29.6845,23.8037 29.6845,23.1707 29.2945,22.7807 C29.2575,22.7437 25.5945,19.2007 19.9625,23.7057 C18.7065,24.7107 17.7625,25.5287 17.0045,26.1847 C14.7525,28.1357 14.3455,28.4877 12.0875,28.4877 C10.4575,28.4877 9.0265,27.3267 8.6825,25.7287 C8.4905,24.8377 7.6955,24.2217 6.7965,24.2767 C5.3525,24.3497 4.3075,24.0627 3.6925,23.4067 C2.8545,22.5117 3.0095,21.1407 3.0105,21.1327 L3.0195,20.9997 C3.0195,20.0927 3.3695,19.2507 3.9805,18.6137 C4.1015,18.5067 5.9645,16.8797 7.7785,17.1377 C8.7045,17.2727 9.4845,17.8857 10.1615,19.0147 C10.3495,19.3267 10.6805,19.4997 11.0205,19.4997 C11.1955,19.4997 11.3725,19.4537 11.5335,19.3577 C12.0075,19.0737 12.1605,18.4587 11.8765,17.9857 C10.8815,16.3277 9.5955,15.3757 8.0525,15.1577 C6.9595,15.0007 5.9145,15.2527 5.0345,15.6237 C5.0195,15.0417 5.0975,14.4627 5.2955,13.8937 C5.8685,12.2407 7.2595,10.9867 8.9265,10.6197 C9.9245,10.4017 10.9085,10.4787 11.8535,10.8517 L12.9145,11.2717 L13.1905,10.1637 C13.8025,7.7127 15.9945,5.9997 18.5195,5.9997 C19.5615,5.9997 20.5475,6.3047 21.4085,6.8427 C20.7305,7.3717 20.0555,8.1197 19.5505,9.1107 C18.3805,9.1117 17.3835,9.4337 16.6035,10.1107 C15.1365,11.3817 15.0245,13.3677 15.0205,13.4517 C14.9935,14.0007 15.4155,14.4647 15.9645,14.4947 C15.9835,14.4957 16.0015,14.4967 16.0195,14.4967 C16.5445,14.4967 16.9855,14.0847 17.0175,13.5547 C17.0185,13.5417 17.1025,12.3147 17.9235,11.6137 C18.1805,11.3937 18.4995,11.2467 18.8685,11.1647 C18.6885,12.1527 18.6655,13.2877 18.8825,14.5887 C18.9725,15.1327 19.4815,15.5057 20.0335,15.4107 C20.5775,15.3207 20.9455,14.8057 20.8555,14.2607 C20.1175,9.8307 22.6955,8.2867 23.4305,7.9427 C23.5205,7.9197 23.6025,7.8827 23.6845,7.8347 L23.7175,7.8227 C23.7545,7.8037 27.5475,6.0777 30.6705,7.5667 C32.5305,8.4517 33.8355,10.3337 34.5485,13.1607 L34.6235,13.4557 L34.8495,13.6597 C36.2085,14.8817 37.0195,16.8787 37.0195,18.9997 C37.0195,22.5837 34.7765,25.4997 32.0195,25.4997 C30.6615,25.4997 29.8655,25.7427 29.4405,26.2847 C29.2815,26.4877 29.1875,26.7267 29.1665,26.9657 C28.7655,28.8227 30.4795,31.1927 31.5695,32.4717 M39.0195,18.9997 C39.0195,16.4367 38.0505,13.9897 36.4135,12.3847 C35.5255,9.1027 33.8785,6.8727 31.5165,5.7537 C28.2635,4.2117 24.6895,5.2987 23.3835,5.7977 C22.0275,4.6347 20.3255,3.9997 18.5195,3.9997 C15.4305,3.9997 12.7075,5.8777 11.5755,8.6777 C10.5685,8.4487 9.5205,8.4427 8.4975,8.6667 C6.1565,9.1807 4.2055,10.9327 3.4055,13.2377 C3.0125,14.3727 2.9185,15.5317 3.1245,16.6927 C1.8085,17.7187 1.0365,19.2587 1.0195,20.9447 C0.9795,21.3617 0.8765,23.3047 2.2135,24.7527 C3.2255,25.8467 4.7485,26.3487 6.7565,26.2807 C7.3465,28.7257 9.5665,30.4877 12.0875,30.4877 C15.0915,30.4877 15.9685,29.7277 18.3145,27.6977 C18.4245,27.6017 18.5485,27.4947 18.6675,27.3917 C19.4095,28.7167 20.8205,29.6007 22.4245,29.6007 C23.0535,29.6007 23.6795,29.4617 24.2475,29.1987 C25.3285,31.0447 27.5745,34.1627 30.8255,35.1007 L31.3275,35.2447 L34.4975,32.6697 L33.7365,31.8857 C32.5605,30.6747 31.0835,28.5987 31.1005,27.5697 C31.2665,27.5347 31.5535,27.4997 32.0195,27.4997 C35.8795,27.4997 39.0195,23.6867 39.0195,18.9997" id="Fill-1"></path>
        </g>
    </g>
</svg>