<?xml version="1.0" encoding="UTF-8"?>
<svg width="50px" height="50px" viewBox="0 0 50 50" version="1.1" xmlns="http://www.w3.org/2000/svg" xmlns:xlink="http://www.w3.org/1999/xlink">
    <!-- Generator: Sketch 62 (91390) - https://sketch.com -->
    <title>Icon/FAQ</title>
    <desc>Created with Sketch.</desc>
    <g id="Icon/FAQ" stroke="none" stroke-width="1" fill="none" fill-rule="evenodd">
        <rect fill="#FFFFFF" x="0" y="0" width="50" height="50"></rect>
        <g id="Icon/FAQ-2" transform="translate(5.000000, 5.000000)" fill="#E61B5B">
            <g id="Group-5" transform="translate(8.000000, 1.000000)">
                <path d="M12.4860681,29 C13.8421053,29 14.9334365,29.3700181 15.7600619,30.1100543 C16.5866873,30.8500906 17,31.7966486 17,32.9497283 C17,34.0855978 16.5866873,35.0235507 15.7600619,35.763587 C14.9924812,36.4507635 13.9966592,36.8188937 12.7725959,36.8679778 L12.4860681,36.8736413 C11.1486068,36.8736413 10.0665635,36.5036232 9.23993808,35.763587 C8.41331269,35.0235507 8,34.0855978 8,32.9497283 C8,31.8138587 8.41331269,30.8716033 9.23993808,30.122962 C10.0075188,29.427795 10.9953323,29.0553842 12.2033787,29.0057294 L12.4860681,29 Z M12.4860681,31 C11.6224329,31 11.0213167,31.2079493 10.5824964,31.6053712 C10.1767117,31.972874 10,32.3757351 10,32.9497283 C10,33.5205652 10.1739958,33.9154232 10.5739523,34.2734842 C11.0133015,34.6668115 11.6181334,34.8736413 12.4860681,34.8736413 C13.3740181,34.8736413 13.9883181,34.6653616 14.4260477,34.2734842 C14.8260042,33.9154232 15,33.5205652 15,32.9497283 C15,32.3593158 14.824128,31.9565384 14.4260477,31.6001571 C13.9883181,31.2082797 13.3740181,31 12.4860681,31 Z M12.3477852,0.000703703704 C16.1285443,0.000703703704 19.1106599,0.890240104 21.266662,2.70369995 C23.4625395,4.54886898 24.5620074,7.17243773 24.5620074,10.4866296 C24.5620074,11.9573625 24.2644635,13.3133238 23.6695898,14.5396541 C23.0887175,15.738674 22.1712909,16.94032 20.9110651,18.1637253 L20.9110651,18.1637253 L18.1670696,20.7210381 C17.4864016,21.3711555 17.0271075,22.0229129 16.7802251,22.6671034 C16.5848017,23.1763886 16.451151,23.8135389 16.384117,24.5787227 C16.3005724,25.5514196 15.5042677,26.3150741 14.5194148,26.3150741 L14.5194148,26.3150741 L9.35563704,26.3150741 C8.31842113,26.3150741 7.4737655,25.4532001 7.5046279,24.4131567 C7.56702907,22.3836331 7.84449302,20.724873 8.35079401,19.430478 C8.93911688,17.9219175 9.89376329,16.6145866 11.2035414,15.5168681 C12.3260393,14.5774443 13.1727591,13.7230964 13.7407844,12.9661646 C14.2282479,12.3136105 14.4637852,11.6194096 14.4637852,10.8469259 C14.4637852,8.95580679 13.8376659,8.22848148 12.3477852,8.22848148 C11.6824732,8.22848148 11.1885779,8.45265295 10.7910192,8.92611757 C10.4784227,9.29796444 10.2685531,9.77579718 10.1648079,10.3827788 L10.1648079,10.3827788 L10.131161,10.5401122 C9.89515565,11.4697056 9.05369119,12.1326296 8.08052593,12.1326296 L8.08052593,12.1326296 L1.31652593,12.1326296 C0.574216745,12.1326296 -0.0227785123,11.5104415 0.000200738244,10.7717204 C0.104310488,7.47624072 1.21753865,4.83979199 3.34257119,2.92741912 C5.5206094,0.966255271 8.53719416,0.000703703704 12.3477852,0.000703703704 Z M12.3477852,2.0007037 C8.99801622,2.0007037 6.45762922,2.8138334 4.68064562,4.4138769 C3.12874185,5.8104761 2.2484233,7.69717384 2.04,10.132 L2.04,10.132 L8.08052593,10.1326296 C8.12266941,10.1326296 8.16056164,10.1096808 8.18052425,10.077315 L8.18052425,10.077315 L8.19400371,10.0423114 C8.35481659,9.101385 8.7092491,8.29441022 9.25973718,7.63958152 C10.0417828,6.70821933 11.0987428,6.22848148 12.3477852,6.22848148 C15.0143304,6.22848148 16.4637852,7.91222629 16.4637852,10.8469259 C16.4637852,12.0553497 16.0861418,13.1683811 15.3417692,14.1648484 C14.6699178,15.0601401 13.7187725,16.0198543 12.4876765,17.0501641 C11.4318116,17.9350795 10.6782331,18.9670599 10.2137439,20.1580882 C9.80078664,21.2138444 9.55961002,22.6556683 9.50371559,24.4735494 L9.50955889,24.3147037 L14.4,24.315 L14.4266997,24.0587474 C14.5052837,23.3761312 14.6343531,22.7632769 14.8170148,22.2180035 L14.8170148,22.2180035 L14.9128261,21.9509884 C15.2727558,21.011823 15.9022942,20.1184819 16.7945794,19.2663488 L16.7945794,19.2663488 L19.5326338,16.7147573 C20.6212733,15.6576727 21.3993267,14.6385778 21.8699062,13.6672214 C22.3299803,12.71878 22.5620074,11.6613904 22.5620074,10.4866296 C22.5620074,7.73711836 21.6999932,5.68016548 19.9796456,4.23457831 C18.2207504,2.75513379 15.6915704,2.0007037 12.3477852,2.0007037 Z" id="Combined-Shape"></path>
            </g>
        </g>
    </g>
</svg>