<svg xmlns="http://www.w3.org/2000/svg" viewBox="0 0 909.46 716.75"><defs><style>.cls-1{fill:#32a5de;}.cls-2{fill:#2f9bd2;}.cls-3{fill:#46b6e2;}.cls-4{fill:#2089ca;}</style></defs><g id="Layer_2" data-name="Layer 2"><g id="Layer_1-2" data-name="Layer 1"><path class="cls-1" d="M705.86,262.28,630.24,157.8a52.64,52.64,0,0,1-7.77-15.63L31.35,570a75.77,75.77,0,0,0-17,105.8l7,9.62a75.78,75.78,0,0,0,105.81,17L718.28,274.55A52.52,52.52,0,0,1,705.86,262.28ZM120,685.11a58.94,58.94,0,0,1-82.31-13.19l-5.41-7.48a58.94,58.94,0,0,1,13.19-82.31L611.94,172.19l74.53,103Z"/><path class="cls-2" d="M906.17,135.08,813.41,6.91C808.47.08,799.77-2,794,2.15L771,18.75l-2.28-3.15c-3.83-5.29-10.58-6.94-15.07-3.69L634.93,97.85c-13.23,9.58-17.6,27.34-12.46,44.32a52.64,52.64,0,0,0,7.77,15.63l75.62,104.48a52.52,52.52,0,0,0,12.42,12.27c14.52,10.19,32.76,11.59,46,2L883,190.62c4.49-3.25,5-10.17,1.21-15.46l-2.56-3.52L904.61,155C910.41,150.84,911.11,141.91,906.17,135.08ZM824.2,110l8.38,11.58L703.45,215l-8.39-11.58ZM803.27,81.06l8.38,11.59L682.51,186.11l-8.38-11.59ZM782.34,52.14l8.38,11.59L661.58,157.19,653.2,145.6ZM761.41,23.22l8.38,11.59L640.65,128.27l-8.38-11.59ZM716,232.37l129.14-93.46,8.38,11.58L724.38,244Zm29.07,40.17L736.68,261l129.63-92.79,8.38,11.59Z"/><path class="cls-3" d="M45.51,582.13a58.94,58.94,0,0,0-13.19,82.31l5.41,7.48A58.94,58.94,0,0,0,120,685.11L686.47,275.17l-74.53-103Z"/><rect class="cls-4" x="621.33" y="68.59" width="159.41" height="14.3" transform="translate(88.72 425.39) rotate(-35.89)"/><rect class="cls-4" x="642.26" y="97.52" width="159.41" height="14.3" transform="translate(75.74 443.15) rotate(-35.89)"/><rect class="cls-4" x="663.19" y="126.44" width="159.41" height="14.3" transform="translate(62.75 460.92) rotate(-35.89)"/><rect class="cls-4" x="684.12" y="155.36" width="159.41" height="14.3" transform="translate(49.77 478.68) rotate(-35.89)"/><rect class="cls-4" x="705.05" y="184.28" width="159.41" height="14.3" transform="translate(36.79 496.44) rotate(-35.89)"/><polygon class="cls-4" points="736.68 260.95 745.06 272.54 874.69 179.75 866.3 168.16 736.68 260.95"/></g></g></svg>