<svg xmlns="http://www.w3.org/2000/svg" viewBox="0 0 1001.61 1001.61"><defs><style>.cls-1{fill:#26193e;}.cls-2{fill:#a38edc;}.cls-3{fill:none;stroke:#fff;stroke-linecap:round;stroke-linejoin:round;stroke-width:14px;}</style></defs><g id="Layer_2" data-name="Layer 2"><g id="Layer_1-2" data-name="Layer 1"><circle class="cls-1" cx="500.81" cy="500.81" r="480.52"/><path class="cls-2" d="M962.25,305.87a502.42,502.42,0,1,0,39.36,194.94A499,499,0,0,0,962.25,305.87ZM500.81,981.32c-265.39,0-480.52-215.13-480.52-480.51S235.42,20.29,500.81,20.29,981.32,235.42,981.32,500.81,766.19,981.32,500.81,981.32Z"/><ellipse class="cls-3" cx="537.03" cy="407.11" rx="153.32" ry="134.88" transform="translate(-92.01 648.87) rotate(-58.19)"/><path class="cls-3" d="M411.42,563.54c-65.2-56.34-76.86-161.84-23.62-247.67,58.21-93.83,171.93-128.62,254-77.7s101.45,168.26,43.25,262.09c-53.24,85.82-152.92,122.25-232.36,88.89"/><path class="cls-3" d="M471.49,349.63S527.73,276.35,593,316.85"/><path class="cls-3" d="M452.71,589.15,353.26,776.73s-5.84,23.42-45-.86S287,735.65,287,735.65L410.42,565.16"/></g></g></svg>