<svg xmlns="http://www.w3.org/2000/svg" viewBox="0 0 1001.61 1001.61"><defs><style>.cls-1{fill:#26193e;}.cls-2{fill:#a38edc;}.cls-3{fill:none;stroke:#fff;stroke-linecap:round;stroke-linejoin:round;stroke-width:20px;}</style></defs><g id="Layer_2" data-name="Layer 2"><g id="v2"><circle class="cls-1" cx="500.81" cy="500.81" r="480.52"/><path class="cls-2" d="M962.25,305.87a502.42,502.42,0,1,0,39.36,194.94A499,499,0,0,0,962.25,305.87ZM500.81,981.32c-265.39,0-480.52-215.13-480.52-480.51S235.42,20.29,500.81,20.29,981.32,235.42,981.32,500.81,766.19,981.32,500.81,981.32Z"/><path class="cls-3" d="M348,277.34a162.23,162.23,0,1,0,229.43,0,162.23,162.23,0,0,0-229.43,0Z"/><path class="cls-3" d="M567.29,516.11,688.07,696.63c.31.46.6.92.87,1.39a24.75,24.75,0,0,1-9.06,33.81l-28.73,16.59c-.47.28-.95.53-1.44.78a24.76,24.76,0,0,1-33.14-11.28l-95.8-194.35"/><line class="cls-3" x1="432.96" y1="321.92" x2="431.54" y2="417.35"/><line class="cls-3" x1="489.84" y1="360.1" x2="488.42" y2="455.53"/></g></g></svg>