<svg xmlns="http://www.w3.org/2000/svg" viewBox="0 0 1001.61 1001.61"><defs><style>.cls-1{fill:#26193e;}.cls-2{fill:#a38edc;}.cls-3{fill:none;stroke:#fff;stroke-miterlimit:10;stroke-width:20px;}</style></defs><g id="Layer_2" data-name="Layer 2"><g id="v2"><circle class="cls-1" cx="500.81" cy="500.81" r="480.52"/><path class="cls-2" d="M695.75,962.25a502.42,502.42,0,1,0-194.94,39.36A499.1,499.1,0,0,0,695.75,962.25ZM20.29,500.81c0-265.39,215.13-480.52,480.52-480.52S981.32,235.42,981.32,500.81,766.19,981.32,500.81,981.32,20.29,766.19,20.29,500.81Z"/><path class="cls-3" d="M776.24,320.8c-26.41-40-82.27-21.9-152.47,2.14s-69.63,100.09-68,110.18a12.19,12.19,0,0,1-6.94,13.52L236,631.37S202.38,652,224.14,685s54,10.19,54,10.19L571,480.36a12.2,12.2,0,0,1,15.16-1.06c8.65,5.44,78.34,35.89,128.07-19.18S802.66,360.84,776.24,320.8Z"/><line class="cls-3" x1="236.87" y1="704.3" x2="236.91" y2="704.35"/></g></g></svg>