<svg xmlns="http://www.w3.org/2000/svg" viewBox="0 0 1001.61 1001.61"><defs><style>.cls-1{fill:#26193e;}.cls-2{fill:#a38edc;}.cls-3{fill:none;stroke:#fff;stroke-linecap:round;stroke-linejoin:round;stroke-width:14px;}</style></defs><g id="Layer_2" data-name="Layer 2"><g id="Layer_1-2" data-name="Layer 1"><circle class="cls-1" cx="500.81" cy="500.81" r="480.52"/><path class="cls-2" d="M962.25,305.87a502.42,502.42,0,1,0,39.36,194.94A499,499,0,0,0,962.25,305.87ZM500.81,981.32c-265.39,0-480.52-215.13-480.52-480.51S235.42,20.29,500.81,20.29,981.32,235.42,981.32,500.81,766.19,981.32,500.81,981.32Z"/><rect class="cls-3" x="383.49" y="547.07" width="234.63" height="259.19" rx="45.83"/><line class="cls-3" x1="383.66" y1="587.32" x2="617.95" y2="587.32"/><line class="cls-3" x1="383.49" y1="764.1" x2="618.12" y2="764.1"/><rect class="cls-3" x="412.82" y="459.77" width="175.98" height="87.31" rx="15.28"/><rect class="cls-3" x="383.49" y="360.14" width="234.63" height="43.02" rx="15.28"/><path class="cls-3" d="M552.64,360.14,508.21,204.39h-.14a9.1,9.1,0,0,0-18.19,0H490L449,360.14"/><line class="cls-3" x1="442.52" y1="459.77" x2="442.52" y2="403.16"/><line class="cls-3" x1="559.09" y1="459.77" x2="559.09" y2="403.16"/></g></g></svg>