<svg xmlns="http://www.w3.org/2000/svg" viewBox="0 0 1001.61 1001.61"><defs><style>.cls-1{fill:#26193e;}.cls-2{fill:#a38edc;}.cls-3{fill:none;stroke:#fff;stroke-linecap:round;stroke-linejoin:round;stroke-width:20px;}</style></defs><g id="Layer_2" data-name="Layer 2"><g id="v2"><circle class="cls-1" cx="500.81" cy="500.81" r="480.52"/><path class="cls-2" d="M962.25,305.87a502.42,502.42,0,1,0,39.36,194.94A499,499,0,0,0,962.25,305.87ZM500.81,981.32c-265.39,0-480.52-215.13-480.52-480.51S235.42,20.29,500.81,20.29,981.32,235.42,981.32,500.81,766.19,981.32,500.81,981.32Z"/><rect class="cls-3" x="400.37" y="540.42" width="200.88" height="221.9" rx="39.23"/><line class="cls-3" x1="400.51" y1="586.87" x2="601.1" y2="586.87"/><line class="cls-3" x1="400.37" y1="715.22" x2="601.24" y2="715.22"/><rect class="cls-3" x="425.48" y="465.67" width="150.66" height="74.74" rx="13.08"/><rect class="cls-3" x="400.37" y="380.38" width="200.88" height="36.83" rx="13.08"/><path class="cls-3" d="M545.19,380.38,507.15,247H507a7.79,7.79,0,0,0-15.57,0h.13L456.43,380.38"/><line class="cls-3" x1="450.91" y1="465.67" x2="450.91" y2="417.21"/><line class="cls-3" x1="550.7" y1="465.67" x2="550.7" y2="417.21"/></g></g></svg>