<svg xmlns="http://www.w3.org/2000/svg" viewBox="0 0 1001.61 1001.61"><defs><style>.cls-1{fill:#26193e;}.cls-2{fill:#a38edc;}.cls-3,.cls-4{fill:none;stroke:#fff;stroke-width:14px;}.cls-3{stroke-linecap:round;stroke-linejoin:round;}.cls-4{stroke-miterlimit:10;}</style></defs><g id="Layer_2" data-name="Layer 2"><g id="Layer_1-2" data-name="Layer 1"><circle class="cls-1" cx="500.81" cy="500.81" r="480.52"/><path class="cls-2" d="M962.25,305.87a502.42,502.42,0,1,0,39.36,194.94A499,499,0,0,0,962.25,305.87ZM500.81,981.32c-265.39,0-480.52-215.13-480.52-480.51S235.42,20.29,500.81,20.29,981.32,235.42,981.32,500.81,766.19,981.32,500.81,981.32Z"/><path class="cls-3" d="M341.9,644.85l-77.47-172.2a30.55,30.55,0,0,1,15.33-40.39l380-171a30.56,30.56,0,0,1,40.4,15.33L793.52,484a30.56,30.56,0,0,1-15.33,40.4L518.26,641.35"/><line class="cls-4" x1="706.83" y1="291.32" x2="273.92" y2="486.08"/><line class="cls-4" x1="298.19" y1="543.87" x2="731.11" y2="349.1"/><path class="cls-3" d="M243.17,706.25s-37.78,1.11-37.78-12.22,32.78-15.56,32.78-15.56c30.56-40,97.79-20.56,97.79-20.56s23.89-24.44,73.34-6.66c0,0,32.78-20.37,62.78.09,0,0,29.45-25.65,77.79,2.13,0,0,47.45-4.36,35.51,24"/><path class="cls-3" d="M518.26,691.8s28.83,6.12,25.49,18.34c-16.11,25-80,17.22-80,17.22-52.23,31.67-109.46,5.56-109.46,5.56-57.22,13.89-92.55-5.56-92.55-5.56s-61.53,1.39-45.05-18.33"/><path class="cls-3" d="M574.31,679.58s22.23-7.78,22.23,6.11S571,710.14,543.75,710.14"/></g></g></svg>