<svg xmlns="http://www.w3.org/2000/svg" viewBox="0 0 1000.94 1000.94"><defs><style>.cls-1,.cls-4{fill:#26193e;}.cls-2{fill:#a38edc;}.cls-3{fill:none;stroke-width:20px;}.cls-3,.cls-4{stroke:#fff;stroke-linecap:round;stroke-linejoin:round;}.cls-4{stroke-width:20px;}</style></defs><g id="Layer_2" data-name="Layer 2"><g id="v2"><path class="cls-1" d="M500.47,990.94C229.52,990.77,10,771,10.18,500A490.59,490.59,0,0,1,309.56,48.54C559.37-56.39,846.94,61.06,951.87,310.87,1056.5,560,940,846.76,691.38,952.4A487.38,487.38,0,0,1,500.47,990.94Z"/><path class="cls-2" d="M500.47,20c265.43.18,480.45,215.5,480.28,480.92A480.6,480.6,0,0,1,687.47,943.19c-245,102-526.38-14-628.38-259C-42.15,440.93,71.31,161.54,313.47,57.75A477.62,477.62,0,0,1,500.47,20m0-20C224.07,0,0,224.07,0,500.47s224.07,500.47,500.47,500.47,500.47-224.07,500.47-500.47S776.87,0,500.47,0Z"/><rect class="cls-3" x="277.9" y="292.54" width="444.2" height="287.42" rx="50" transform="translate(-128.89 224.55) rotate(-22.5)"/><rect class="cls-3" x="262.72" y="369.6" width="444.2" height="60" transform="translate(-116.02 215.95) rotate(-22.5)"/><path class="cls-4" d="M744.25,664.23a49.49,49.49,0,0,0-12.87,1.7,65.21,65.21,0,0,0-113.61-4.3,49.39,49.39,0,0,0-76-16.46,83.84,83.84,0,0,0-150-5.27A56.34,56.34,0,0,0,291.5,663.72a69.44,69.44,0,0,0-84.58,42.48H793.08A49.39,49.39,0,0,0,744.25,664.23Z"/></g></g></svg>