<svg xmlns="http://www.w3.org/2000/svg" viewBox="0 0 1001.61 1001.61"><defs><style>.cls-1{fill:#26193e;}.cls-2{fill:#a38edc;}.cls-3,.cls-4{fill:none;stroke:#fff;stroke-width:20px;}.cls-3{stroke-miterlimit:10;}.cls-4{stroke-linecap:round;stroke-linejoin:round;}</style></defs><g id="Layer_2" data-name="Layer 2"><g id="v2"><circle class="cls-1" cx="500.81" cy="500.81" r="480.52"/><path class="cls-2" d="M695.75,962.25a502.42,502.42,0,1,0-194.94,39.36A499.1,499.1,0,0,0,695.75,962.25ZM20.29,500.81c0-265.39,215.13-480.52,480.52-480.52S981.32,235.42,981.32,500.81,766.19,981.32,500.81,981.32,20.29,766.19,20.29,500.81Z"/><rect class="cls-3" x="365.33" y="540.72" width="272.12" height="68.89" rx="33.42"/><path class="cls-4" d="M500.72,761.36h62.91c14.24,0,26.24-10.28,28-24l16.08-127.79H395.1l16.08,127.79c1.73,13.67,13.73,24,28,24h61.57"/><path class="cls-4" d="M393.34,540.73a150.8,150.8,0,0,1-39.85-102.54c0-82.74,65.84-149.81,147.05-149.81s147.05,67.07,147.05,149.81a150.79,150.79,0,0,1-39.88,102.57"/><path class="cls-4" d="M466.41,540.73c-18.12-29.74-28.94-67.4-28.94-108.36,0-59.44,22.79-111.93,57.58-143.34"/><path class="cls-4" d="M535.52,540.73c18.11-29.74,28.94-67.4,28.94-108.36,0-59.44-22.8-111.93-57.59-143.34"/><path class="cls-4" d="M370.87,366.88a63.77,63.77,0,1,1,73.9-71.5"/><path class="cls-4" d="M601.66,323.84a44.55,44.55,0,1,1,42.13,68.25"/></g></g></svg>