<svg xmlns="http://www.w3.org/2000/svg" viewBox="0 0 1001.61 1001.61"><defs><style>.cls-1{fill:#26193e;}.cls-2{fill:#a38edc;}.cls-3{fill:none;stroke:#fff;stroke-linecap:round;stroke-linejoin:round;stroke-width:14px;}</style></defs><g id="Layer_2" data-name="Layer 2"><g id="Layer_1-2" data-name="Layer 1"><circle class="cls-1" cx="500.81" cy="500.81" r="480.52"/><path class="cls-2" d="M962.25,305.87a502.42,502.42,0,1,0,39.36,194.94A499,499,0,0,0,962.25,305.87ZM500.81,981.32c-265.39,0-480.52-215.13-480.52-480.51S235.42,20.29,500.81,20.29,981.32,235.42,981.32,500.81,766.19,981.32,500.81,981.32Z"/><polygon class="cls-3" points="504.4 730.13 629.66 730.13 719.6 543.67 504.4 543.67 289.21 543.67 379.15 730.13 504.4 730.13"/><path class="cls-3" d="M464.26,543.67C426.19,530.57,399,495.86,399,455.09c0-52,44.26-94.15,98.86-94.15s98.87,42.15,98.87,94.15c0,40.77-27.2,75.48-65.26,88.58"/><path class="cls-3" d="M643,543.67c31.93-14.76,53.91-45.71,53.91-81.49,0-50.1-43.1-90.71-96.28-90.71a100.88,100.88,0,0,0-39.92,8.14"/><line class="cls-3" x1="635.74" y1="377.68" x2="643.92" y2="361.2"/><line class="cls-3" x1="714.92" y1="413.07" x2="689.14" y2="426.41"/><line class="cls-3" x1="708.28" y1="492.77" x2="692.63" y2="489.04"/><path class="cls-3" d="M530.43,365.89s15.17-19,0-40.67S498,282.16,498,271.49c0,10.67-17.25,32-32.42,53.73s0,40.67,0,40.67"/><path class="cls-3" d="M456.05,333.09a31.39,31.39,0,0,0-2.25-2.2c-15.08-13.43-31.63-26.21-33.52-34.12,1.89,7.91-7.14,26.78-14.56,45.55s7.17,30.16,7.17,30.16"/><path class="cls-3" d="M539.17,333.09c.69-.74,1.44-1.48,2.25-2.2,15.08-13.43,31.64-26.21,33.52-34.12-1.88,7.91,7.14,26.78,14.56,45.55s-7.17,30.16-7.17,30.16"/><path class="cls-3" d="M353.93,543.67C322,528.91,300,498,300,462.18c0-50.1,43.1-90.71,96.28-90.71a100.88,100.88,0,0,1,39.92,8.14"/><line class="cls-3" x1="361.19" y1="377.68" x2="353.01" y2="361.2"/><line class="cls-3" x1="282.01" y1="413.07" x2="307.79" y2="426.41"/><line class="cls-3" x1="288.65" y1="492.77" x2="304.3" y2="489.04"/></g></g></svg>