<svg xmlns="http://www.w3.org/2000/svg" viewBox="0 0 1001.61 1001.61"><defs><style>.cls-1{fill:#26193e;}.cls-2{fill:#a38edc;}.cls-3{fill:none;stroke:#fff;stroke-miterlimit:10;stroke-width:20px;}</style></defs><g id="Layer_2" data-name="Layer 2"><g id="v2"><circle class="cls-1" cx="500.81" cy="500.81" r="480.52"/><path class="cls-2" d="M695.75,962.25a502.42,502.42,0,1,0-194.94,39.36A499.1,499.1,0,0,0,695.75,962.25ZM20.29,500.81c0-265.39,215.13-480.52,480.52-480.52S981.32,235.42,981.32,500.81,766.19,981.32,500.81,981.32,20.29,766.19,20.29,500.81Z"/><path class="cls-3" d="M697.47,508.34a55.29,55.29,0,0,1,84.2,5.83"/><path class="cls-3" d="M783,577.81a55.3,55.3,0,0,1-85.75,7.37"/><path class="cls-3" d="M478.79,508.34a55.29,55.29,0,0,1,84.2,5.83"/><path class="cls-3" d="M564.27,577.81a55.3,55.3,0,0,1-85.75,7.37"/><rect class="cls-3" x="434.95" y="490.31" width="44.24" height="116.16" rx="22.12"/><rect class="cls-3" x="564.14" y="490.31" width="44.24" height="116.16" rx="22.12"/><rect class="cls-3" x="652.92" y="490.31" width="44.24" height="116.16" rx="22.12"/><rect class="cls-3" x="779.66" y="504.38" width="44.24" height="85.84" rx="22.12"/><path class="cls-3" d="M436.4,504.89h-81s-22.08,1.93-25.08-14.36-6-40.08-6-40.08"/><line class="cls-3" x1="607" y1="504.89" x2="654.3" y2="504.89"/><line class="cls-3" x1="607" y1="589.37" x2="654.3" y2="589.37"/><ellipse class="cls-3" cx="253.72" cy="416.6" rx="64.81" ry="21.47"/><path class="cls-3" d="M188.91,416.6l-4.12,33.85c0,11.85,31.23,21.47,69.76,21.47s69.76-9.62,69.76-21.47l-5.78-33.85"/><path class="cls-3" d="M184.79,450.45l-7.07,59.8S178.36,590,260,590H435"/></g></g></svg>