<svg xmlns="http://www.w3.org/2000/svg" viewBox="0 0 1001.61 1001.61"><defs><style>.cls-1{fill:#26193e;}.cls-2{fill:#a38edc;}.cls-3{fill:none;stroke:#fff;stroke-linecap:round;stroke-linejoin:round;stroke-width:20px;}</style></defs><g id="Layer_2" data-name="Layer 2"><g id="v2"><circle class="cls-1" cx="500.81" cy="500.81" r="480.52"/><path class="cls-2" d="M962.25,305.87a502.42,502.42,0,1,0,39.36,194.94A499,499,0,0,0,962.25,305.87ZM500.81,981.32c-265.39,0-480.52-215.13-480.52-480.51S235.42,20.29,500.81,20.29,981.32,235.42,981.32,500.81,766.19,981.32,500.81,981.32Z"/><path class="cls-3" d="M323.73,486.11c-52.71,0-95.43-16.85-95.43-37.65s42.72-37.65,95.43-37.65"/><path class="cls-3" d="M323.73,486.11c52.71,0,95.44-16.85,95.44-37.65s-42.73-37.65-95.44-37.65"/><path class="cls-3" d="M228.3,448.46l15.92,122.88s4.55,45.87,79.51,45.87"/><path class="cls-3" d="M408.23,532.84l-5,38.5s-4.55,45.87-79.51,45.87"/><line class="cls-3" x1="419.17" y1="448.46" x2="408.23" y2="532.84"/><ellipse class="cls-3" cx="324.71" cy="432.18" rx="48.7" ry="21.38"/><path class="cls-3" d="M334.55,617.12S470.77,621,580.84,510.27C660.06,430.55,742.9,421,773.32,422.34l-17.48-37.79s-98-5.33-171.5,47.79-142.3,99-176.11,100.5"/><line class="cls-3" x1="460.17" y1="514.01" x2="493.43" y2="575.02"/><line class="cls-3" x1="499.7" y1="490.65" x2="534.61" y2="549.59"/></g></g></svg>