<svg xmlns="http://www.w3.org/2000/svg" viewBox="0 0 1001.61 1001.61"><defs><style>.cls-1{fill:#26193e;}.cls-2{fill:#a38edc;}.cls-3{fill:none;stroke:#fff;stroke-linecap:round;stroke-linejoin:round;stroke-width:14px;}</style></defs><g id="Layer_2" data-name="Layer 2"><g id="Layer_1-2" data-name="Layer 1"><circle class="cls-1" cx="500.81" cy="500.81" r="480.52"/><path class="cls-2" d="M962.25,305.87a502.42,502.42,0,1,0,39.36,194.94A499,499,0,0,0,962.25,305.87ZM500.81,981.32c-265.39,0-480.52-215.13-480.52-480.51S235.42,20.29,500.81,20.29,981.32,235.42,981.32,500.81,766.19,981.32,500.81,981.32Z"/><ellipse class="cls-3" cx="269.66" cy="500.81" rx="114.89" ry="101.24"/><line class="cls-3" x1="794.15" y1="472.74" x2="379.83" y2="472.74"/><line class="cls-3" x1="379.83" y1="535.18" x2="794.15" y2="535.18"/><path class="cls-3" d="M794.15,537.53a14.56,14.56,0,0,0,14.57,14.56h23.55a14.57,14.57,0,0,0,14.57-14.56V472.35a14.57,14.57,0,0,0-14.57-14.57H808.72a14.57,14.57,0,0,0-14.57,14.57v65.18"/><ellipse class="cls-3" cx="269.58" cy="456.81" rx="40" ry="19.19"/></g></g></svg>