<svg xmlns="http://www.w3.org/2000/svg" viewBox="0 0 1001.61 1001.61"><defs><style>.cls-1{fill:#26193e;}.cls-2{fill:#a38edc;}.cls-3{fill:none;stroke:#fff;stroke-linecap:round;stroke-linejoin:round;stroke-width:14px;}</style></defs><g id="Layer_2" data-name="Layer 2"><g id="Layer_1-2" data-name="Layer 1"><circle class="cls-1" cx="500.81" cy="500.81" r="480.52"/><path class="cls-2" d="M962.25,305.87a502.42,502.42,0,1,0,39.36,194.94A499,499,0,0,0,962.25,305.87ZM500.81,981.32c-265.39,0-480.52-215.13-480.52-480.51S235.42,20.29,500.81,20.29,981.32,235.42,981.32,500.81,766.19,981.32,500.81,981.32Z"/><path class="cls-3" d="M269.59,468.7c-60.67,0-109.85-19.41-109.85-43.34S208.92,382,269.59,382"/><path class="cls-3" d="M269.59,468.7c60.67,0,109.86-19.41,109.86-43.34S330.26,382,269.59,382"/><path class="cls-3" d="M159.74,425.36,178.07,566.8s5.24,52.8,91.52,52.8"/><path class="cls-3" d="M379.45,425.36,361.12,566.8s-5.25,52.8-91.53,52.8"/><ellipse class="cls-3" cx="270.72" cy="406.62" rx="56.06" ry="24.6"/><line class="cls-3" x1="662.99" y1="532.31" x2="365.59" y2="532.31"/><polyline class="cls-3" points="315.35 613.13 662.99 613.13 797.69 572.72 662.99 532.31"/><line class="cls-3" x1="530.44" y1="532.31" x2="530.44" y2="613.13"/><line class="cls-3" x1="563.85" y1="532.31" x2="563.85" y2="613.13"/><rect class="cls-3" x="797.69" y="532.31" width="44.18" height="80.82"/></g></g></svg>