<svg xmlns="http://www.w3.org/2000/svg" viewBox="0 0 1001.61 1001.61"><defs><style>.cls-1{fill:#26193e;}.cls-2{fill:#a38edc;}.cls-3{fill:none;stroke:#fff;stroke-linecap:round;stroke-linejoin:round;stroke-width:14px;}</style></defs><g id="Layer_2" data-name="Layer 2"><g id="Layer_1-2" data-name="Layer 1"><circle class="cls-1" cx="500.81" cy="500.81" r="480.52"/><path class="cls-2" d="M962.25,305.87a502.42,502.42,0,1,0,39.36,194.94A499,499,0,0,0,962.25,305.87ZM500.81,981.32c-265.39,0-480.52-215.13-480.52-480.51S235.42,20.29,500.81,20.29,981.32,235.42,981.32,500.81,766.19,981.32,500.81,981.32Z"/><rect class="cls-3" x="156.89" y="392.39" width="109.57" height="68.16" rx="12.88"/><polyline class="cls-3" points="179.32 504.11 179.32 460.55 240.15 460.55 240.15 504.11"/><polyline class="cls-3" points="209.74 608.94 237.88 608.94 259.77 504.11 209.74 504.11 211.68 504.11 161.64 504.11 183.53 608.94 211.68 608.94"/><path class="cls-3" d="M255.81,523.09H737.57A12.9,12.9,0,0,1,750.46,536v60a12.9,12.9,0,0,1-12.89,12.9H237.88"/><line class="cls-3" x1="458.63" y1="523.38" x2="458.63" y2="609.23"/><line class="cls-3" x1="494.17" y1="523.38" x2="494.17" y2="609.23"/><path class="cls-3" d="M750.46,540.78h55a12.75,12.75,0,0,1,12.75,12.75v30.28a12.75,12.75,0,0,1-12.75,12.75h-55a0,0,0,0,1,0,0V540.78A0,0,0,0,1,750.46,540.78Z"/><path class="cls-3" d="M832.29,549.73h12.43a0,0,0,0,1,0,0v37.75a0,0,0,0,1,0,0H832.29a14.11,14.11,0,0,1-14.11-14.11v-9.53A14.11,14.11,0,0,1,832.29,549.73Z"/></g></g></svg>