<svg xmlns="http://www.w3.org/2000/svg" viewBox="0 0 1001.61 1001.61"><defs><style>.cls-1{fill:#26193e;}.cls-2{fill:#a38edc;}.cls-3{fill:none;stroke:#fff;stroke-linecap:round;stroke-linejoin:round;stroke-width:20px;}.cls-4{fill:#fff;}</style></defs><g id="Layer_2" data-name="Layer 2"><g id="v2"><circle class="cls-1" cx="500.81" cy="500.81" r="480.52"/><path class="cls-2" d="M962.25,305.87a502.42,502.42,0,1,0,39.36,194.94A499,499,0,0,0,962.25,305.87ZM500.81,981.32c-265.39,0-480.52-215.13-480.52-480.51S235.42,20.29,500.81,20.29,981.32,235.42,981.32,500.81,766.19,981.32,500.81,981.32Z"/><rect class="cls-3" x="324.24" y="434.54" width="353.13" height="325.96" rx="45.44"/><line class="cls-3" x1="324.24" y1="504.87" x2="677.37" y2="504.87"/><line class="cls-3" x1="324.24" y1="688.81" x2="677.37" y2="688.81"/><polygon class="cls-4" points="406.02 649.25 466.88 603.6 456.74 594.47 500.81 571.65 490.21 561 532.82 531.58 585.57 569.62 528.76 588.39 541.95 600.05 486.66 615.27 495.79 627.95 406.02 649.25"/><rect class="cls-3" x="393.85" y="241.12" width="211" height="129.08" rx="15.15"/><line class="cls-3" x1="446.03" y1="370.2" x2="446.03" y2="432.17"/><line class="cls-3" x1="555.58" y1="370.2" x2="555.58" y2="434.54"/></g></g></svg>