<svg xmlns="http://www.w3.org/2000/svg" viewBox="0 0 1001.61 1001.61"><defs><style>.cls-1{fill:#26193e;}.cls-2{fill:#a38edc;}.cls-3{fill:none;stroke:#fff;stroke-linecap:round;stroke-linejoin:round;stroke-width:14px;}.cls-4{fill:#fff;}</style></defs><g id="Layer_2" data-name="Layer 2"><g id="Layer_1-2" data-name="Layer 1"><circle class="cls-1" cx="500.81" cy="500.81" r="480.52"/><path class="cls-2" d="M962.25,305.87a502.42,502.42,0,1,0,39.36,194.94A499,499,0,0,0,962.25,305.87ZM500.81,981.32c-265.39,0-480.52-215.13-480.52-480.51S235.42,20.29,500.81,20.29,981.32,235.42,981.32,500.81,766.19,981.32,500.81,981.32Z"/><rect class="cls-3" x="304.24" y="427.03" width="393.14" height="362.9" rx="50.59"/><line class="cls-3" x1="304.24" y1="505.33" x2="697.38" y2="505.33"/><line class="cls-3" x1="304.24" y1="710.12" x2="697.38" y2="710.12"/><polygon class="cls-4" points="395.28 666.07 463.04 615.25 451.75 605.09 500.81 579.68 489.01 567.82 536.45 535.07 595.17 577.42 531.93 598.31 546.61 611.3 485.06 628.24 495.23 642.36 395.28 666.07"/><rect class="cls-3" x="381.73" y="211.69" width="234.9" height="143.71" rx="16.86"/><line class="cls-3" x1="439.82" y1="355.4" x2="439.82" y2="424.39"/><line class="cls-3" x1="561.79" y1="355.4" x2="561.79" y2="427.03"/></g></g></svg>