<svg xmlns="http://www.w3.org/2000/svg" viewBox="0 0 745.17 843.23"><defs><style>.cls-1{fill:#fff;}.cls-2{fill:#584a98;}</style></defs><g id="Layer_2" data-name="Layer 2"><g id="Layer_1-2" data-name="Layer 1"><path class="cls-1" d="M85,80.77c83.94-27.45,164.72,222.52,149.56,324q12.24-5.43,25.1-9.82C275.54,246.52,182-36.33,59.05,3.87-73.26,47.14,43,372.3,151.44,460a291.62,291.62,0,0,1,27.91-23.22C102.47,382-3.45,109.7,85,80.77Z"/><path class="cls-2" d="M85,80.77C-3.45,109.7,102.47,382,179.35,436.82a298.42,298.42,0,0,1,55.21-32C249.72,303.29,168.94,53.32,85,80.77Z"/><path class="cls-1" d="M531.39,436.82a291.14,291.14,0,0,1,28.14,23.45C588,437.64,617,399,641.86,353.47a148.62,148.62,0,0,1-35.68-19.73C583.08,380.2,555.77,419.43,531.39,436.82Z"/><path class="cls-1" d="M515.47,190.32c-8.72-38.08-7.48-76.72,8.23-109.06.72-1.49,1.55-2.84,2.37-4.2-.06.08-.12.15-.17.23-54.7,86.11-85.25,226.86-75.13,317.6q13,4.41,25.41,9.92C468.45,353.08,485.64,262.81,515.47,190.32Z"/><path class="cls-1" d="M688,117.73a136.41,136.41,0,0,0-13.67-13.79C679.16,108.38,683.75,113,688,117.73Z"/><path class="cls-2" d="M476.18,404.81a298.75,298.75,0,0,1,55.21,32c24.38-17.39,51.69-56.62,74.79-103.08-42.76-31.59-77.76-86.87-90.71-143.42C485.64,262.81,468.45,353.08,476.18,404.81Z"/><path class="cls-1" d="M559.53,460.27a291.14,291.14,0,0,0-28.14-23.45,298.75,298.75,0,0,0-55.21-32q-12.4-5.49-25.41-9.92a296.67,296.67,0,0,0-191.11.1q-12.86,4.36-25.1,9.82a298.42,298.42,0,0,0-55.21,32A291.62,291.62,0,0,0,151.44,460c-50.07,47.28-81,110.29-81,175.39,0,132.37,127.55,207.8,284.9,207.8s284.89-75.43,284.89-207.8C640.26,570.44,609.46,507.52,559.53,460.27ZM362.16,678.67v90.19a6.79,6.79,0,0,1-13.58,0V678.67c-12.34-9.8-30.53-25.83-30.53-44.16,0-22.63,74.64-22.61,74.64,0C392.69,652.84,374.5,668.87,362.16,678.67Z"/><path class="cls-1" d="M709.75,149.18A141.82,141.82,0,0,0,688,117.73c-4.24-4.74-8.83-9.35-13.67-13.79-48-44.1-121.85-70.6-148.25-26.88-.82,1.36-1.65,2.71-2.37,4.2-15.71,32.34-17,71-8.23,109.06,12.95,56.55,47.95,111.83,90.71,143.42a148.62,148.62,0,0,0,35.68,19.73c23.1,8.71,47.16,10,70.38.75C768.35,331.86,742.64,216.38,709.75,149.18Z"/><path class="cls-2" d="M318.05,634.51c0,18.33,18.19,34.36,30.53,44.16v90.19a6.79,6.79,0,0,0,13.58,0V678.67c12.34-9.8,30.53-25.83,30.53-44.16C392.69,611.9,318.05,611.88,318.05,634.51Z"/></g></g></svg>