<?xml version="1.0" encoding="UTF-8"?>
<svg width="50px" height="50px" viewBox="0 0 50 50" version="1.1" xmlns="http://www.w3.org/2000/svg" xmlns:xlink="http://www.w3.org/1999/xlink">
    <!-- Generator: Sketch 62 (91390) - https://sketch.com -->
    <title>Icon/Risks</title>
    <desc>Created with Sketch.</desc>
    <g id="Icon/Risks" stroke="none" stroke-width="1" fill="none" fill-rule="evenodd">
        <rect fill="#FFFFFF" x="0" y="0" width="50" height="50"></rect>
        <g id="Icon/Risico" transform="translate(5.000000, 5.000000)" fill="#E61B5B">
            <g id="Group" transform="translate(15.000000, 1.000000)">
                <path d="M4.85130249,30.1263587 C6.20733964,30.1263587 7.29867091,30.4963768 8.12529629,31.236413 C8.95192168,31.9764493 9.36523438,32.9230072 9.36523438,34.076087 C9.36523438,35.2119565 8.95192168,36.1499094 8.12529629,36.8899457 C7.35771558,37.5771222 6.36189356,37.9452524 5.13783026,37.9943365 L4.85130249,38 C3.51384119,38 2.43179784,37.6299819 1.60517246,36.8899457 C0.778547068,36.1499094 0.365234375,35.2119565 0.365234375,34.076087 C0.365234375,32.9402174 0.778547068,31.997962 1.60517246,31.2493207 C2.37275317,30.5541537 3.36056672,30.1817429 4.56861309,30.1320881 L4.85130249,30.1263587 Z M4.85130249,32.1263587 C3.98766723,32.1263587 3.38655108,32.334308 2.94773077,32.7317299 C2.54194611,33.0992327 2.36523438,33.5020938 2.36523438,34.076087 C2.36523438,34.6469239 2.53923015,35.0417819 2.93918665,35.3998429 C3.37853585,35.7931702 3.98336781,36 4.85130249,36 C5.73925243,36 6.35355246,35.7917203 6.7912821,35.3998429 C7.1912386,35.0417819 7.36523438,34.6469239 7.36523438,34.076087 C7.36523438,33.4856745 7.1893624,33.0828971 6.7912821,32.7265158 C6.35355246,32.3346384 5.73925243,32.1263587 4.85130249,32.1263587 Z M8.47197785,0.00044263426 C8.80809064,0.0126672999 9.07734017,0.270490725 9.11341381,0.595045845 L9.11707431,0.694235465 L8.21843446,25.4020153 C8.20652288,25.7295199 7.96093702,25.9950649 7.64553954,26.0406392 L7.54898982,26.0475543 L2.15361516,26.0475543 C1.82589399,26.0475543 1.55159816,25.8117824 1.49459035,25.4982498 L1.48417051,25.4020153 L0.585088027,0.669887279 C0.585088027,0.333552253 0.832954763,0.0551096057 1.15598427,0.00726329812 L1.25497531,0 L8.47197785,0.00044263426 Z M2.634,1.999 L3.435,24.047 L6.266,24.047 L7.068,2 L2.634,1.999 Z" id="Combined-Shape"></path>
            </g>
        </g>
    </g>
</svg>