<svg xmlns="http://www.w3.org/2000/svg" viewBox="0 0 1001.61 1001.61"><defs><style>.cls-1{fill:#26193e;}.cls-2{fill:#a38edc;}.cls-3{fill:none;stroke:#fff;stroke-linecap:round;stroke-linejoin:round;stroke-width:14px;}</style></defs><g id="Layer_2" data-name="Layer 2"><g id="Layer_1-2" data-name="Layer 1"><circle class="cls-1" cx="500.81" cy="500.81" r="480.52"/><path class="cls-2" d="M962.25,305.87a502.42,502.42,0,1,0,39.36,194.94A499,499,0,0,0,962.25,305.87ZM500.81,981.32c-265.39,0-480.52-215.13-480.52-480.51S235.42,20.29,500.81,20.29,981.32,235.42,981.32,500.81,766.19,981.32,500.81,981.32Z"/><polygon class="cls-3" points="500.81 595.83 383.1 595.83 431.67 798.47 500.81 798.47 569.94 798.47 618.51 595.83 500.81 595.83"/><path class="cls-3" d="M551.47,595.83s20.66-392.69-50.66-392.69-50.66,392.69-50.66,392.69"/><line class="cls-3" x1="517.69" y1="249.51" x2="542.9" y2="218.26"/><line class="cls-3" x1="549" y1="337.13" x2="575.16" y2="321.09"/><line class="cls-3" x1="482.41" y1="308.99" x2="496.52" y2="337.13"/><line class="cls-3" x1="439.06" y1="229.35" x2="463.05" y2="264.37"/><line class="cls-3" x1="426.96" y1="400.49" x2="463.05" y2="434.01"/><line class="cls-3" x1="500.81" y1="410.82" x2="530.3" y2="381.58"/><line class="cls-3" x1="477.37" y1="484.42" x2="500.81" y2="519.7"/><line class="cls-3" x1="534.83" y1="559.02" x2="580.2" y2="536.84"/><line class="cls-3" x1="554.25" y1="464.04" x2="580.2" y2="446.11"/><line class="cls-3" x1="417.88" y1="536.84" x2="448.66" y2="559.02"/></g></g></svg>