<svg xmlns="http://www.w3.org/2000/svg" viewBox="0 0 1001.61 1001.61"><defs><style>.cls-1{fill:#26193e;}.cls-2{fill:#a38edc;}.cls-3{fill:none;stroke:#fff;stroke-linecap:round;stroke-linejoin:round;stroke-width:20px;}</style></defs><g id="Layer_2" data-name="Layer 2"><g id="v2"><circle class="cls-1" cx="500.81" cy="500.81" r="480.52"/><path class="cls-2" d="M695.75,962.25a502.42,502.42,0,1,0-194.94,39.36A499.1,499.1,0,0,0,695.75,962.25ZM20.29,500.81c0-265.39,215.13-480.52,480.52-480.52S981.32,235.42,981.32,500.81,766.19,981.32,500.81,981.32,20.29,766.19,20.29,500.81Z"/><line class="cls-3" x1="352.44" y1="756.41" x2="651.66" y2="756.41"/><path class="cls-3" d="M594.55,756.41V330.3a93.08,93.08,0,0,0-93.08-93.09h0a93.08,93.08,0,0,0-93.09,93.09V756.41"/><path class="cls-3" d="M503.13,237.21h.06a35.31,35.31,0,0,1,35.31,35.31V756.41a0,0,0,0,1,0,0H467.81a0,0,0,0,1,0,0V272.52A35.31,35.31,0,0,1,503.13,237.21Z"/><path class="cls-3" d="M709.06,456.94V376.09a31.91,31.91,0,0,0-31.91-31.91h0a31.91,31.91,0,0,0-31.9,31.91v80.85s1.46,23.55-50.7,23.55"/><path class="cls-3" d="M594.55,543s114.51,16.6,114.51-86.1"/><path class="cls-3" d="M293.87,569.44V447.87A31.91,31.91,0,0,1,325.78,416h0a31.9,31.9,0,0,1,31.9,31.9V569.44S356.22,593,408.38,593"/><path class="cls-3" d="M408.38,655.54s-114.51,16.6-114.51-86.1"/></g></g></svg>