<svg xmlns="http://www.w3.org/2000/svg" viewBox="0 0 1001.61 1001.61"><defs><style>.cls-1{fill:#26193e;}.cls-2{fill:#a38edc;}.cls-3,.cls-4{fill:none;stroke:#fff;stroke-width:14px;}.cls-3{stroke-miterlimit:10;}.cls-4{stroke-linecap:round;stroke-linejoin:round;}</style></defs><g id="Layer_2" data-name="Layer 2"><g id="Layer_1-2" data-name="Layer 1"><circle class="cls-1" cx="500.81" cy="500.81" r="480.52"/><path class="cls-2" d="M962.25,305.87a502.42,502.42,0,1,0,39.36,194.94A499,499,0,0,0,962.25,305.87ZM500.81,981.32c-265.39,0-480.52-215.13-480.52-480.51S235.42,20.29,500.81,20.29,981.32,235.42,981.32,500.81,766.19,981.32,500.81,981.32Z"/><path class="cls-3" d="M680.81,225.37c40.05,26.42,21.9,82.27-2.14,152.47s-100.09,69.63-110.17,68A12.21,12.21,0,0,0,555,452.82L370.24,765.6s-20.64,33.63-53.62,11.87-10.2-54-10.2-54L521.25,430.58a12.21,12.21,0,0,0,1.06-15.17c-5.43-8.64-35.89-78.34,19.18-128.06S640.77,199,680.81,225.37Z"/><path class="cls-3" d="M297.32,764.74l-.06,0"/><path class="cls-4" d="M612.8,260.82s29.52-29.33,56.42-7.54"/></g></g></svg>