<svg xmlns="http://www.w3.org/2000/svg" viewBox="0 0 1001.61 1001.61"><defs><style>.cls-1{fill:#26193e;}.cls-2{fill:#a38edc;}.cls-3,.cls-4{fill:none;stroke:#fff;stroke-width:20px;}.cls-3{stroke-miterlimit:10;}.cls-4{stroke-linecap:round;stroke-linejoin:round;}</style></defs><g id="Layer_2" data-name="Layer 2"><g id="v2"><circle class="cls-1" cx="500.81" cy="500.81" r="480.52"/><path class="cls-2" d="M695.75,962.25a502.42,502.42,0,1,0-194.94,39.36A499.1,499.1,0,0,0,695.75,962.25ZM20.29,500.81c0-265.39,215.13-480.52,480.52-480.52S981.32,235.42,981.32,500.81,766.19,981.32,500.81,981.32,20.29,766.19,20.29,500.81Z"/><path class="cls-3" d="M462.91,492.21a40.69,40.69,0,1,0,40.6-40.77,40.69,40.69,0,0,0-40.6,40.77Z"/><line class="cls-4" x1="532.3" y1="463.29" x2="639.9" y2="355.23"/><line class="cls-4" x1="611.07" y1="326.53" x2="668.73" y2="383.94"/><line class="cls-4" x1="542.88" y1="395.01" x2="600.54" y2="452.42"/><line class="cls-4" x1="474.89" y1="520.95" x2="367.29" y2="629.01"/><line class="cls-4" x1="396.12" y1="657.71" x2="338.47" y2="600.3"/><line class="cls-4" x1="464.31" y1="589.23" x2="406.66" y2="531.82"/><path class="cls-4" d="M617.64,606.28,754.21,469.13a27.07,27.07,0,0,0-.08-38.28l-24.77-24.67,26.57-26.69a26.83,26.83,0,0,0-.08-37.95l-100.45-100a26.83,26.83,0,0,0-37.95.08l-26.58,26.7-27.08-27a27.07,27.07,0,0,0-38.28.08L389,378.57l.6-.61L253,515.11a27.07,27.07,0,0,0,.09,38.28l24.77,24.66-26.58,26.7a26.83,26.83,0,0,0,.08,38l100.45,100a26.85,26.85,0,0,0,38-.09L416.32,716l27.08,27a27.07,27.07,0,0,0,38.28-.08L618.25,605.67"/></g></g></svg>