<svg xmlns="http://www.w3.org/2000/svg" viewBox="0 0 1001.61 1001.61"><defs><style>.cls-1{fill:#26193e;}.cls-2{fill:#a38edc;}.cls-3{fill:none;stroke:#fff;stroke-linecap:round;stroke-linejoin:round;stroke-width:14px;}</style></defs><g id="Layer_2" data-name="Layer 2"><g id="Layer_1-2" data-name="Layer 1"><circle class="cls-1" cx="500.81" cy="500.81" r="480.52"/><path class="cls-2" d="M962.25,305.87a502.42,502.42,0,1,0,39.36,194.94A499,499,0,0,0,962.25,305.87ZM500.81,981.32c-265.39,0-480.52-215.13-480.52-480.51S235.42,20.29,500.81,20.29,981.32,235.42,981.32,500.81,766.19,981.32,500.81,981.32Z"/><line class="cls-3" x1="179.38" y1="610.26" x2="179.38" y2="394.48"/><path class="cls-3" d="M239.45,334.66a59.81,59.81,0,0,1-59.81,59.82"/><line class="cls-3" x1="762.16" y1="331.28" x2="239.45" y2="331.28"/><path class="cls-3" d="M179.64,610.26a59.81,59.81,0,0,1,59.81,59.82"/><line class="cls-3" x1="822.23" y1="610.26" x2="822.23" y2="394.48"/><path class="cls-3" d="M762.16,334.66A59.82,59.82,0,0,0,822,394.48"/><line class="cls-3" x1="239.45" y1="670.33" x2="762.16" y2="670.33"/><path class="cls-3" d="M822,610.26a59.82,59.82,0,0,0-59.82,59.82"/><line class="cls-3" x1="263.27" y1="394.48" x2="739.64" y2="394.48"/><line class="cls-3" x1="263.27" y1="619.47" x2="739.64" y2="619.47"/><polyline class="cls-3" points="676.7 475.02 746.96 475.02 746.96 514.59 676.7 514.59"/><line class="cls-3" x1="536.77" y1="475.02" x2="604.78" y2="475.02"/><line class="cls-3" x1="396.7" y1="475.02" x2="464.84" y2="475.02"/><polyline class="cls-3" points="324.78 514.59 255.94 514.59 255.94 475.02 324.78 475.02"/><line class="cls-3" x1="464.84" y1="514.59" x2="396.7" y2="514.59"/><line class="cls-3" x1="604.77" y1="514.59" x2="536.77" y2="514.59"/><path class="cls-3" d="M396.7,514.59a41,41,0,0,1-71.92,0"/><path class="cls-3" d="M324.78,475a41,41,0,0,1,71.92,0"/><path class="cls-3" d="M536.77,514.59a41.05,41.05,0,0,1-71.93,0"/><path class="cls-3" d="M464.84,475a41.05,41.05,0,0,1,71.93,0"/><path class="cls-3" d="M676.7,514.59a41.05,41.05,0,0,1-71.93,0"/><path class="cls-3" d="M604.77,475a41.05,41.05,0,0,1,71.93,0"/></g></g></svg>