<svg xmlns="http://www.w3.org/2000/svg" viewBox="0 0 1001.61 1001.61"><defs><style>.cls-1{fill:#26193e;}.cls-2{fill:#a38edc;}.cls-3,.cls-4{fill:none;stroke:#fff;stroke-width:14px;}.cls-3{stroke-linecap:round;stroke-linejoin:round;}.cls-4{stroke-miterlimit:10;}</style></defs><g id="Layer_2" data-name="Layer 2"><g id="Layer_1-2" data-name="Layer 1"><circle class="cls-1" cx="500.81" cy="500.81" r="480.52"/><path class="cls-2" d="M962.25,305.87a502.42,502.42,0,1,0,39.36,194.94A499,499,0,0,0,962.25,305.87ZM500.81,981.32c-265.39,0-480.52-215.13-480.52-480.51S235.42,20.29,500.81,20.29,981.32,235.42,981.32,500.81,766.19,981.32,500.81,981.32Z"/><path class="cls-3" d="M479.67,561.3c-18.14,7.91-36.84,11.72-57.9,11.72a148.2,148.2,0,1,1,137-91.37"/><circle class="cls-4" cx="402.37" cy="382.68" r="43.84"/><polyline class="cls-3" points="480.99 562.49 514.47 598.86 563.95 598.86 563.95 646.94 610.53 646.94 610.53 686.24 647.74 725.31 728.2 725.31 728.2 650.96 558.89 481.64"/></g></g></svg>