<svg xmlns="http://www.w3.org/2000/svg" viewBox="0 0 912.7 522.92"><defs><style>.cls-1{fill:none;}.cls-2{fill:#2f9bd2;}.cls-3{fill:#2089ca;}.cls-4{fill:#32a5de;}.cls-5{fill:#46b6e2;}</style></defs><g id="Layer_2" data-name="Layer 2"><g id="Layer_1-2" data-name="Layer 1"><path class="cls-1" d="M433.79,208.61h0l-.12-.15.11.15Z"/><path class="cls-1" d="M428.63,201.9l-1.3-1.83c.22.31.4.63.63,1S428.42,201.6,428.63,201.9Z"/><path class="cls-1" d="M849.33,103.36l-.43-.74c.08.14.16.29.25.43Z"/><rect class="cls-1" x="433.79" y="208.61" height="0.01"/><path class="cls-1" d="M497.74,79.88c.36-.34.74-.66,1.11-1l.18-.16c-.43.39-.87.77-1.29,1.16s-.78.76-1.18,1.13l-.75.72.75-.72C497,80.64,497.34,80.26,497.74,79.88Z"/><path class="cls-1" d="M848,101.26l.43.68.43.68h0c-.27-.44-.55-.9-.84-1.35l-.33-.51.1.16Z"/><path class="cls-1" d="M850.42,105.24l.18.34-.18-.34-.33-.56.21.35Z"/><path class="cls-1" d="M419.08,186.28h0c-.31-.61-.61-1.23-.9-1.84h0Q418.62,185.35,419.08,186.28Z"/><path class="cls-1" d="M505.21,73.45a.27.27,0,0,0-.08.07l0,0Z"/><path class="cls-1" d="M836.76,86.66l.3.31L836.2,86l-.4-.41.39.41Z"/><path class="cls-1" d="M423.2,193.75c-.12-.19-.25-.38-.36-.57l.06.11C423,193.44,423.11,193.59,423.2,193.75Z"/><path class="cls-1" d="M508,71.29l-.47.36-.6.47.61-.47Z"/><path class="cls-1" d="M410.45,161.08c.07.38.16.76.24,1.14C410.61,161.84,410.52,161.46,410.45,161.08Z"/><path class="cls-1" d="M494.61,82.92l-.29.29.21-.21A.6.6,0,0,0,494.61,82.92Z"/><path class="cls-1" d="M828.14,254.88a195.84,195.84,0,0,0,41.91-27.72,203.12,203.12,0,0,1-30.79,21.75C835.66,251,831.9,252.94,828.14,254.88Z"/><path class="cls-1" d="M627.47,290.26c5.25.42,10.51.77,15.77,1a413.73,413.73,0,0,0,94.27-6.48A429.17,429.17,0,0,1,627.47,290.26Z"/><path class="cls-1" d="M483.9,95.36c-.12.17-.24.34-.37.5a3.46,3.46,0,0,1-.22.31l.22-.3Z"/><path class="cls-1" d="M853.87,112.19c-.06-.13-.11-.25-.16-.38h0c.06.12.11.23.16.35Z"/><path class="cls-1" d="M418.18,184.43c.29.61.59,1.23.9,1.84C418.77,185.66,418.47,185,418.18,184.43Z"/><path class="cls-1" d="M494,83.58l-.53.54.24-.25Z"/><path class="cls-1" d="M490.27,87.51l.31-.36.07-.08-.06.07c-.37.4-.7.79-1,1.19l-.44.5.44-.5Z"/><path class="cls-1" d="M412.16,168.39c.17.62.34,1.23.52,1.85C412.5,169.62,412.33,169,412.16,168.39Z"/><path class="cls-1" d="M852.72,109.68a.8.8,0,0,0,.08.16l-.33-.69c-.13-.23-.24-.47-.35-.71.11.24.22.48.34.71Z"/><path class="cls-1" d="M415.44,178.19c-.12-.3-.26-.6-.38-.91,0,.07,0,.14.07.21C415.22,177.72,415.35,178,415.44,178.19Z"/><path class="cls-1" d="M822,73.12l-.19-.15-1.15-.88,1.15.88Z"/><path class="cls-1" d="M818.86,70.67l1,.79-1-.78-.42-.31.07,0C818.62,70.51,818.74,70.59,818.86,70.67Z"/><path class="cls-1" d="M840.52,90.94l-.92-1.12-.43-.47c.14.16.29.32.42.48C839.91,90.2,840.21,90.57,840.52,90.94Z"/><path class="cls-1" d="M813.92,67.15l.59.41-.59-.41-.91-.62.85.58Z"/><path class="cls-1" d="M409,146.05h0c0-.32,0-.65,0-1l-.09,32.38.09-32.38C409,145.4,409,145.73,409,146.05Z"/><polygon class="cls-1" points="17.13 470.48 11.3 467.12 22.99 473.87 17.13 470.48"/><path class="cls-1" d="M833.81,83.58l.79.79c-.26-.26-.52-.53-.79-.79l-1.08-1.09.44.45Z"/><path class="cls-1" d="M832.06,81.85l-.74-.7-.28-.27.27.26Z"/><polygon class="cls-1" points="191.35 485.9 183.37 490.54 183.37 490.54 191.35 485.9"/><path class="cls-1" d="M826.72,77l-.33-.29.22.19Z"/><path class="cls-1" d="M841.33,91.92l-.69-.83.12.15Z"/><path class="cls-1" d="M512.7,300.85,553,277.43h0c5.37,1.48,10.78,2.8,16.21,4-5.46-1.25-10.88-2.57-16.21-4Z"/><path class="cls-1" d="M519,63.6l-.64.4h0l.47-.3Z"/><path class="cls-1" d="M521.75,61.88l1.68-1c.6-.36,1.2-.73,1.81-1.08A218.67,218.67,0,0,1,565,42.15a218.65,218.65,0,0,0-39.77,17.64c-1.17.69-2.35,1.39-3.49,2.08l-.6.38.4-.25Z"/><path class="cls-1" d="M844.55,96.12l.23.31.32.45c-.18-.25-.36-.51-.55-.76l-.61-.84.46.63Z"/><path class="cls-1" d="M515.3,66l-.23.14-.37.27.37-.26Z"/><path class="cls-1" d="M518.36,64l-.35.22.21-.13Z"/><path class="cls-1" d="M409.34,153.23c0-.36,0-.72,0-1.08h0C409.32,152.51,409.3,152.87,409.34,153.23Z"/><path class="cls-1" d="M415.44,178.19h0c-.09-.24-.22-.47-.31-.7C415.22,177.72,415.35,178,415.44,178.19Z"/><path class="cls-1" d="M806,62l.26.16-.42-.27-3.36-2,3.36,2Z"/><path class="cls-1" d="M409.44,154q-.09-.9-.15-1.8c0,.36,0,.72,0,1.08S409.41,153.71,409.44,154Z"/><path class="cls-1" d="M846.68,99.16c-.11-.15-.21-.31-.31-.47l-.66-1c.22.31.43.63.65,1Z"/><path class="cls-1" d="M802.26,59.8h0a217,217,0,0,0-32.51-15.1c.56.21,1.16.37,1.72.59A214.08,214.08,0,0,1,802.26,59.8Z"/><path class="cls-1" d="M422.9,193.29l-.06-.11h0Z"/><path class="cls-1" d="M606.73,288.12q-8.22-1.06-16.32-2.45Q598.54,287.07,606.73,288.12Z"/><polygon class="cls-1" points="353.48 332.25 353.48 332.25 391.25 310.53 450.69 317.93 391.25 310.53 353.48 332.25"/><path class="cls-1" d="M469.53,127.53a2.84,2.84,0,0,0,.06-.31c0,.1,0,.21-.06.31s-.06.41-.1.61c0-.08,0-.16,0-.24Z"/><path class="cls-1" d="M625.22,290.07q-8.69-.72-17.28-1.79C613.69,289,619.45,289.58,625.22,290.07Z"/><path class="cls-1" d="M475.31,109.73c-.07.15-.15.29-.21.43l0,0s0,0,0,0S475.24,109.88,475.31,109.73Z"/><path class="cls-1" d="M664.83,253.43A332.61,332.61,0,0,1,609,248.76a336.45,336.45,0,0,0,93.24,2.59A337.34,337.34,0,0,1,664.83,253.43Z"/><path class="cls-1" d="M471.47,119.65l-.27.87c.08-.27.17-.54.25-.81Z"/><path class="cls-1" d="M858.53,154.16c-.34,1.62-.75,3.23-1.2,4.83a69.12,69.12,0,0,0,2.56-15.22c0-.34,0-.68,0-1,0,.33,0,.67,0,1A66.87,66.87,0,0,1,858.53,154.16Z"/><path class="cls-1" d="M859.51,132.57c0-.16,0-.31,0-.46s0-.16,0-.24c0,.08,0,.16,0,.24S859.49,132.41,859.51,132.57Z"/><path class="cls-1" d="M470.4,123.5c.11-.45.24-.91.36-1.37,0-.17.09-.33.13-.5s.13-.51.2-.76c-.12.42-.23.85-.33,1.26s-.26.92-.37,1.38-.15.66-.22,1c0-.07,0-.13,0-.2C470.27,124,470.33,123.77,470.4,123.5Z"/><path class="cls-1" d="M588.37,285.34q-8.22-1.44-16.3-3.23Q580.18,283.9,588.37,285.34Z"/><path class="cls-1" d="M859.74,134.83c0,.2,0,.38,0,.57,0-.19,0-.37,0-.56l-.06-.58.06.53Z"/><path class="cls-1" d="M855.39,115.87l.21.58-.21-.58c-.11-.3-.24-.6-.36-.9.08.2.16.39.23.58S855.35,115.76,855.39,115.87Z"/><path class="cls-1" d="M749.68,282.29c-2.19.48-4.37,1-6.58,1.4Q746.4,283,749.68,282.29Z"/><path class="cls-1" d="M468.9,131.61c.06-.45.12-.92.19-1.38l.09-.53a2.89,2.89,0,0,1,0-.29c-.05.28-.09.55-.13.82-.06.46-.13.92-.19,1.38,0,.24,0,.5-.07.74v0C468.85,132.08,468.87,131.84,468.9,131.61Z"/><path class="cls-1" d="M479.28,102.27l0,0c-.05.09-.1.19-.16.28l.16-.28Z"/><path class="cls-1" d="M481.4,98.94l.31-.45-.85,1.25-.29.48c.1-.16.19-.32.3-.48S481.22,99.21,481.4,98.94Z"/><path class="cls-1" d="M911.64,157.28c-.07.48-.1.95-.17,1.43C911.54,158.24,911.57,157.76,911.64,157.28Z"/><path class="cls-2" d="M433.79,208.61l-.11-.15c-1.79-2.17-3.45-4.36-5.05-6.56-.21-.3-.46-.59-.67-.88s-.41-.64-.63-1c-1.46-2.1-2.85-4.2-4.13-6.32-.09-.16-.21-.31-.3-.46l-.06-.11c-1.36-2.29-2.6-4.59-3.76-6.9q-.46-.93-.9-1.86c-1-2.07-1.91-4.14-2.74-6.23-.09-.24-.22-.47-.31-.7,0-.07,0-.14-.07-.21-.9-2.34-1.68-4.69-2.38-7-.18-.62-.35-1.23-.52-1.85-.56-2-1.06-4.11-1.47-6.17-.08-.38-.17-.76-.24-1.14-.45-2.38-.77-4.75-1-7.13,0-.24-.08-.48-.1-.72s0-.72,0-1.08c-.17-2-.26-4.07-.28-6.1,0-.32,0-.65,0-1l-.09,32.38A88.27,88.27,0,0,0,415,209.87q1.5,3.85,3.38,7.68l15.37-8.93Z"/><path class="cls-2" d="M912.41,146.49c0,1,0,1.91,0,2.87,0,.55-.12,1.1-.15,1.65q-.18,3.13-.59,6.27c-.07.48-.1,1-.17,1.43-3.53,24-17.34,47.65-41.42,68.45a195.84,195.84,0,0,1-41.91,27.72c-23.63,12.18-50.27,21.3-78.46,27.41q-3.28.73-6.58,1.4c-1.86.37-3.71.76-5.59,1.1a413.73,413.73,0,0,1-94.27,6.48c-5.26-.24-10.52-.59-15.77-1l-2.25-.19c-5.77-.49-11.53-1.07-17.28-1.79l-1.21-.16q-8.19-1-16.32-2.45l-2-.33q-8.18-1.44-16.3-3.23l-2.86-.64c-5.43-1.24-10.84-2.56-16.21-4h0l0,16.19-.05,16.2c0,2.7,39,8.47,42.83,9.07a431.23,431.23,0,0,0,46.06,4.64c60.86,2.83,124.12-6.28,179.36-32.88q8.07-3.88,15.87-8.28c19.28-10.85,37.4-24.26,51.29-41.47a110,110,0,0,0,21.55-42.26C914.05,181.77,912.35,163.73,912.41,146.49Z"/><polygon class="cls-3" points="512.7 300.85 477.56 321.28 477.55 321.28 477.46 353.66 552.91 309.81 552.96 293.62 553 277.43 512.7 300.85"/><polygon class="cls-3" points="553 277.43 552.96 293.62 553 277.43 553 277.43"/><polygon class="cls-2" points="450.69 317.93 391.25 310.53 391.16 342.91 477.46 353.66 477.55 321.28 450.69 317.93"/><polygon class="cls-3" points="353.48 332.25 358.11 361.91 391.16 342.91 391.25 310.53 353.48 332.25"/><polygon class="cls-3" points="361.78 418.35 361.87 385.97 340.97 398.12 340.88 430.5 361.78 418.35"/><polygon class="cls-2" points="340.88 430.5 340.97 398.12 281.13 405.07 281.04 437.45 340.88 430.5"/><polygon class="cls-3" points="238.39 458.56 238.39 458.56 238.39 458.56 238.39 458.57 238.39 458.57 238.38 462.24 281.04 437.45 281.13 405.07 275 408.63 235.18 431.78 238.39 458.56"/><polygon class="cls-3" points="235.1 460.48 191.35 485.9 183.37 490.54 183.28 522.92 238.3 490.94 238.38 462.24 238.39 458.57 235.1 460.48"/><polygon class="cls-3" points="238.39 458.56 238.39 458.56 238.39 458.56 238.39 458.56"/><polygon class="cls-2" points="183.37 490.54 183.37 490.54 51.85 490.54 51.85 490.53 51.76 522.91 183.28 522.92 183.37 490.54 183.37 490.54"/><path class="cls-4" d="M409.29,152.15h0c-.17-2-.26-4.07-.28-6.1h0C409,148.08,409.12,150.12,409.29,152.15Z"/><path class="cls-4" d="M422.84,193.18h0c-1.37-2.29-2.6-4.59-3.76-6.91h0C420.24,188.59,421.48,190.89,422.84,193.18Z"/><path class="cls-4" d="M418.18,184.42h0c-1-2.07-1.91-4.15-2.74-6.24h0C416.27,180.28,417.19,182.35,418.18,184.42Z"/><path class="cls-4" d="M409.44,154c.24,2.38.56,4.75,1,7.13C410,158.7,409.68,156.33,409.44,154Z"/><path class="cls-4" d="M418.18,184.42c-1-2.07-1.91-4.14-2.74-6.23C416.27,180.28,417.19,182.35,418.18,184.42Z"/><path class="cls-4" d="M409.29,152.15c-.17-2-.26-4.07-.28-6.1C409,148.08,409.12,150.12,409.29,152.15Z"/><path class="cls-4" d="M423.2,193.75c1.28,2.12,2.67,4.22,4.13,6.32C425.87,198,424.48,195.87,423.2,193.75Z"/><path class="cls-4" d="M422.84,193.18c-1.36-2.29-2.6-4.59-3.76-6.9C420.24,188.59,421.48,190.89,422.84,193.18Z"/><path class="cls-4" d="M410.69,162.22c.41,2.06.91,4.12,1.47,6.17C411.6,166.34,411.1,164.28,410.69,162.22Z"/><path class="cls-4" d="M412.68,170.24c.7,2.35,1.48,4.7,2.38,7C414.16,174.94,413.38,172.59,412.68,170.24Z"/><path class="cls-4" d="M428.63,201.9c1.6,2.2,3.26,4.39,5.05,6.56C431.89,206.29,430.23,204.1,428.63,201.9Z"/><path class="cls-4" d="M870.05,227.16c24.08-20.8,37.89-44.41,41.42-68.45-3.36,21-15.36,41.12-29.26,56.51A152.22,152.22,0,0,1,870.05,227.16Z"/><path class="cls-4" d="M749.68,282.29c28.19-6.11,54.83-15.23,78.46-27.41-1.93,1-3.85,1.93-5.8,2.85A348.08,348.08,0,0,1,749.68,282.29Z"/><path class="cls-4" d="M627.47,290.26l-2.25-.19Z"/><path class="cls-4" d="M743.1,283.69q-2.79.57-5.59,1.1C739.39,284.45,741.24,284.06,743.1,283.69Z"/><path class="cls-4" d="M912.23,151c-.12,2.09-.3,4.18-.59,6.27Q912,154.14,912.23,151Z"/><path class="cls-4" d="M572.07,282.11l-2.86-.64Z"/><path class="cls-4" d="M607.94,288.28l-1.21-.16Z"/><path class="cls-4" d="M590.41,285.67l-2-.33Z"/><polygon class="cls-4" points="477.55 321.28 477.56 321.28 512.7 300.85 477.55 321.28 477.55 321.28"/><polygon class="cls-4" points="450.69 317.93 477.55 321.28 477.55 321.28 450.69 317.93"/><polygon class="cls-4" points="238.39 458.57 238.39 458.56 238.39 458.57 238.39 458.57"/><path class="cls-4" d="M838.1,42.71c-98.62-56.94-258-56.94-356,0C433,71.24,408.69,108.65,409,146.05c0,2,.11,4.07.28,6.1q.06.9.15,1.8c.24,2.38.56,4.75,1,7.13.07.38.16.76.24,1.14.41,2.06.91,4.12,1.47,6.17.17.62.34,1.23.52,1.85.7,2.35,1.48,4.7,2.38,7,.12.31.26.61.38.91.83,2.09,1.75,4.17,2.74,6.24.29.61.59,1.23.9,1.84,1.16,2.32,2.39,4.62,3.76,6.91.11.19.24.38.36.57,1.28,2.12,2.67,4.22,4.13,6.32l1.3,1.83c1.6,2.2,3.26,4.39,5.05,6.56l.12.15h0l-15.37,8.93L.09,460.65h0l11.21,6.47,5.83,3.36L23,473.87l28.86,16.66H183.37l8-4.64,43.75-25.42,3.29-1.92-3.21-26.78L275,408.63l6.14-3.56,59.83-7L361.87,386l-3.76-24.06-4.63-29.66h0l37.77-21.72,59.43,7.4,26.87,3.35,35.15-20.43L553,277.43c5.33,1.47,10.75,2.79,16.21,4l2.86.64q8.08,1.78,16.3,3.23l2,.33q8.1,1.38,16.32,2.45l1.21.16q8.59,1.08,17.28,1.79l2.25.19a429.17,429.17,0,0,0,110-5.47q2.81-.53,5.59-1.1c2.21-.43,4.39-.92,6.58-1.4a348.08,348.08,0,0,0,72.66-24.56c1.95-.92,3.87-1.89,5.8-2.85,3.76-1.94,7.52-3.88,11.12-6a203.12,203.12,0,0,0,30.79-21.75,152.22,152.22,0,0,0,12.16-11.94c13.9-15.39,25.9-35.53,29.26-56.51.07-.48.1-1,.17-1.43.29-2.09.47-4.18.59-6.27C914.4,112,889.71,72.5,838.1,42.71Zm21.82,100c0,.34,0,.68,0,1A69.12,69.12,0,0,1,857.33,159c-6.4,22.45-24.43,44-54.18,61.25-28.54,16.59-63.86,27-100.9,31.11h0A336.45,336.45,0,0,1,609,248.76c-30.33-5.18-58.92-14.69-82.87-28.51C505,208,489.62,193.66,480.09,178.35c-7.15-11.49-11-23.51-11.61-35.56-.05-1.49-.08-2.95,0-4.42,0-.15,0-.3,0-.45s0-.59,0-.89c0-.46,0-.92.08-1.38a.91.91,0,0,1,0-.17c0-.4,0-.78.07-1.17s.07-.67.1-1c0-.12,0-.24,0-.36l.06-.59c0-.24,0-.5.07-.74.06-.46.13-.92.19-1.38,0-.27.08-.54.13-.82s0-.34.07-.51.09-.51.14-.76.07-.4.1-.61.05-.21.06-.31c.06-.31.11-.62.18-.92,0,0,0-.07,0-.1a.43.43,0,0,1,0,0c.1-.45.2-.89.29-1.32,0-.11.05-.22.08-.33.07-.33.14-.67.22-1s.24-.92.37-1.38.21-.84.33-1.26c0,0,0,0,0-.06l.09-.29.27-.87.06-.2c.14-.44.27-.88.42-1.31s.31-.91.47-1.37.3-.87.47-1.3.27-.7.41-1l.12-.32c.17-.42.35-.86.51-1.29s.4-.89.59-1.35.38-.85.56-1.26l0,0c.06-.14.14-.28.21-.43.14-.3.29-.6.44-.91,0,0,0-.07.05-.1.19-.4.38-.79.58-1.19s.46-.88.7-1.32l.38-.73c.11-.19.2-.38.31-.57l.17-.29.58-1,.35-.61.23-.4c.06-.09.11-.19.16-.28l0,0c.26-.42.54-.85.8-1.28l.49-.77.29-.48.85-1.25,0-.07c.28-.41.55-.83.84-1.24s.48-.67.72-1a3.46,3.46,0,0,0,.22-.31c.13-.16.25-.33.37-.5l.36-.5.16-.23.42-.54.58-.75.09-.11.85-1.12,1-1.25,0,0,0,0c.31-.39.64-.78,1-1.17s.46-.53.69-.79l.44-.5c.35-.4.68-.79,1-1.19l.06-.07,1.11-1.19c.26-.29.52-.57.79-.85.1-.11.2-.23.31-.34l.57-.57.53-.54.13-.14a2.5,2.5,0,0,0,.23-.23l.29-.29.63-.65.57-.54.75-.72c.4-.37.78-.75,1.18-1.13s.86-.77,1.29-1.16l.13-.12,1.19-1.08.69-.59.8-.69.62-.53.62-.53c.49-.41,1-.82,1.52-1.23.17-.15.35-.29.53-.43a.27.27,0,0,1,.08-.07c.23-.19.45-.39.69-.58l1-.75.6-.47.47-.36.63-.48.26-.2c.57-.43,1.16-.85,1.74-1.27s.87-.65,1.32-1l.66-.45,1.17-.82,1-.67.37-.27.23-.14,1.79-1.19.92-.6.35-.22h0l.64-.4,1.71-1.08c.15-.08.29-.18.44-.27l.6-.38c1.14-.69,2.32-1.39,3.49-2.08A218.65,218.65,0,0,1,565,42.15c48-16.24,105.34-19.7,157.42-10.25a277.15,277.15,0,0,1,47.32,12.79,217,217,0,0,1,32.51,15.1h0l.18.1,3.36,2,.42.27.71.44c.77.48,1.55.95,2.3,1.43l1.42.94L812.28,66l.27.18.46.32.91.62.59.41,1.26.87,1.33,1,1.34,1,.42.31,1,.78.13.1.21.16.48.37,1.15.88.19.15,1.12.9.84.69.73.57L826,76.37l.39.33.33.29.76.65c.42.36.81.73,1.22,1.09L830.13,80l.91.86.28.27.74.7.6.58.07.06,1.08,1.09c.27.26.53.53.79.79l.48.49.72.77.4.41.86.93.33.36,1.05,1.18.73.84.43.47.92,1.12.06.08.06.07.69.83.35.41.31.41.63.81c.35.45.7.89,1,1.33l.29.4.61.84c.19.25.37.51.55.76s.28.37.41.56l.2.3.66,1c.1.16.2.32.31.47l.58.86c.16.24.31.49.46.73l.33.51c.29.45.57.91.84,1.35h0l.43.74c.1.17.2.35.31.52l.45.8.33.56.18.34c.17.31.34.62.5.93l.13.23.6,1.13.29.57c.11.24.22.48.35.71l.33.69.33.68c.2.43.38.86.57,1.29h0c0,.13.1.25.16.38.15.33.3.66.44,1s.25.61.37.91c.05.13.1.26.16.39s.12.33.19.49.25.6.36.9l.21.58v0c.09.23.17.47.26.7.16.46.33.92.48,1.38s.28.87.42,1.31.3.92.43,1.38.25.89.37,1.33c.06.24.13.48.19.73s.12.43.19.66c.1.4.18.8.27,1.21l0,.11a1.36,1.36,0,0,0,0,.17c.09.4.19.81.28,1.22s.16.88.25,1.32.17.92.26,1.39c0,.32.09.62.13.93l.06.4c.06.39.11.78.16,1.16,0,.08,0,.16,0,.24s0,.3,0,.46l.09.88c0,.27.06.54.08.81l.06.58c0,.19,0,.37,0,.56l.06.77c0,.48.07.94.08,1.4s0,.89,0,1.34,0,.93,0,1.4C860,141.13,860,141.94,859.92,142.75Z"/><polygon class="cls-4" points="235.1 460.48 191.35 485.9 235.1 460.48 235.1 460.48"/><polygon class="cls-4" points="238.39 458.57 238.39 458.56 238.39 458.56 235.1 460.48 235.1 460.48 238.39 458.57"/><polygon class="cls-4" points="51.85 490.54 183.37 490.54 183.37 490.54 51.85 490.53 51.85 490.53 51.85 490.54"/><path class="cls-3" d="M51.85,490.53l-15.93-9.19L23,473.87,11.3,467.12.09,460.65,0,493c8.65,4.87,35.83,20.13,35.83,20.13l15.93,9.75h0Z"/><polygon class="cls-3" points="51.85 490.53 51.76 522.91 51.76 522.91 51.85 490.53 51.85 490.53"/><polygon class="cls-3" points="0.09 460.65 0.09 460.65 11.3 467.12 0.09 460.65"/><polygon class="cls-3" points="51.85 490.53 51.85 490.53 22.99 473.87 35.92 481.34 51.85 490.53"/><polygon class="cls-3" points="51.85 490.53 51.85 490.53 51.85 490.53 51.85 490.53"/><path class="cls-5" d="M859.74,134.79v.05c0,.44.06.89.09,1.34s.06.93.08,1.39,0,.89,0,1.34,0,.93,0,1.39c0,1.16,0,2.32-.09,3.47a67.94,67.94,0,0,1-1.35,10.39,66.87,66.87,0,0,0,1.36-10.4c0-.34,0-.68,0-1,0-.82.06-1.63.06-2.45,0-.46,0-.93,0-1.39s0-.89,0-1.34-.06-.92-.08-1.4l-.06-.77c0-.19,0-.37,0-.57Z"/><path class="cls-5" d="M848.47,101.94l-.43-.68-.22-.35c.07.12.15.24.23.36Z"/><path class="cls-5" d="M855.26,115.55c0,.11.09.21.12.31s.15.4.22.6h0l-.21-.58C855.35,115.76,855.3,115.66,855.26,115.55Z"/><polygon class="cls-5" points="473.94 112.82 473.94 112.82 473.94 112.82 473.94 112.82"/><path class="cls-5" d="M663.56,26.62c7.31,0,14.62.3,21.9.77C678.18,26.92,670.87,26.62,663.56,26.62Z"/><path class="cls-5" d="M851.34,107l.49.92c.22.43.42.86.63,1.28.09.18.17.36.26.53l-.26-.53c-.12-.23-.23-.47-.34-.71l-.29-.57Z"/><path class="cls-5" d="M858.8,128c.09.46.18.93.26,1.4v.07a.15.15,0,0,0,0-.07c-.08-.48-.17-.94-.25-1.4s-.16-.89-.26-1.32c0-.24-.11-.49-.17-.73.06.24.12.48.17.73C858.64,127.11,858.72,127.55,858.8,128Z"/><path class="cls-5" d="M854.31,113.19l0,.09,0-.1c-.14-.33-.29-.66-.44-1v0C854,112.5,854.17,112.84,854.31,113.19Z"/><path class="cls-5" d="M858.18,125c-.08-.36-.16-.71-.25-1.07,0-.19-.11-.39-.16-.59.05.2.11.39.16.59S858.09,124.66,858.18,125Z"/><path class="cls-5" d="M844.78,96.43l-.23-.31-.15-.21.15.21Z"/><path class="cls-5" d="M664.83,253.43a337.34,337.34,0,0,0,37.42-2.08h0A337.34,337.34,0,0,1,664.83,253.43Z"/><path class="cls-5" d="M841.68,92.34l.3.39-.3-.4-.35-.41-.57-.68C841.07,91.61,841.38,92,841.68,92.34Z"/><path class="cls-5" d="M469.1,130.24c0-.18,0-.36.08-.54l-.09.53c-.07.46-.13.93-.19,1.38,0,.23,0,.47-.07.71,0-.24.05-.48.08-.71C469,131.15,469,130.69,469.1,130.24Z"/><path class="cls-5" d="M468.44,138.37c0,1.47,0,2.94.05,4.41.53,11.46,4.1,22.87,10.58,33.83a73,73,0,0,1-10.58-33.83C468.42,141.31,468.41,139.84,468.44,138.37Z"/><path class="cls-5" d="M849.63,103.88l.67,1.15-.21-.35-.45-.79-.31-.53-.18-.31Z"/><path class="cls-5" d="M487,91.3l-.68.81c-.2.26-.39.52-.59.77l.59-.76C486.58,91.84,486.81,91.57,487,91.3Z"/><path class="cls-5" d="M502.41,75.75l-.57.49-.5.43.5-.42Z"/><path class="cls-5" d="M505.91,72.88l1.59-1.23.72-.55-.26.19-.46.36-.61.47-1,.75-.7.58-.06,0Z"/><path class="cls-5" d="M520.71,62.53l.84-.53-.4.25-.44.28L519,63.6l-.17.11Z"/><path class="cls-5" d="M513.65,67.16l.09-.06,1.34-.93c.66-.45,1.34-.89,2-1.33.37-.25.74-.5,1.12-.74l-.21.13-.92.6L515.3,66l-.23.15-.37.26-1,.67Z"/><path class="cls-5" d="M487.74,90.44l.68-.82c.36-.43.74-.86,1.12-1.28s.48-.56.73-.83l-.73.82-.44.5-.69.79C488.18,89.89,488,90.17,487.74,90.44Z"/><path class="cls-5" d="M469.9,125.69c.06-.29.13-.58.19-.87l.12-.52c0,.07,0,.13,0,.2s-.06.22-.08.33C470,125.11,470,125.4,469.9,125.69Z"/><path class="cls-5" d="M492.59,85l.27-.28c.26-.28.54-.55.81-.83l-.24.25-.57.57Z"/><path class="cls-5" d="M523.43,60.88c.6-.36,1.2-.73,1.82-1.09,38-22.07,88-33.13,138-33.17-34.09,0-68,5.28-98.29,15.53A218.67,218.67,0,0,0,525.24,59.8C524.63,60.15,524,60.52,523.43,60.88Z"/><path class="cls-5" d="M474,112.72c.18-.42.36-.84.55-1.26s.37-.86.57-1.29.42-.87.63-1.3c-.15.29-.28.58-.42.86s-.15.29-.22.44,0,0,0,0c-.19.42-.37.85-.56,1.27S474.16,112.29,474,112.72Z"/><path class="cls-5" d="M471.11,120.81c.11-.36.23-.73.34-1.1-.08.27-.17.54-.25.81l-.09.29s0,0,0,.06c-.07.25-.13.51-.2.76C471,121.36,471,121.09,471.11,120.81Z"/><path class="cls-5" d="M468.69,133.75l-.06.56c0,.26,0,.51-.05.76,0-.25,0-.5.05-.75Z"/><path class="cls-5" d="M469.47,127.9c0-.13,0-.25.07-.37.06-.36.13-.72.2-1.07l-.15.76a2.84,2.84,0,0,1-.06.31Z"/><path class="cls-5" d="M813.86,67.11l-.85-.58-.21-.15Z"/><path class="cls-5" d="M818.51,70.42l.35.26,1.07.82,0,0-1-.79C818.74,70.59,818.62,70.51,818.51,70.42Z"/><path class="cls-5" d="M480.87,99.74c.17-.27.35-.53.53-.8-.18.27-.36.53-.53.8s-.2.32-.3.48-.27.43-.4.64C480.4,100.49,480.63,100.11,480.87,99.74Z"/><path class="cls-5" d="M824.72,75.29l-.43-.35.43.35c.43.35.85.72,1.27,1.08l.62.52-.22-.19-.4-.33C825.57,76,825.15,75.65,824.72,75.29Z"/><path class="cls-5" d="M833.17,82.94l.64.65c.43.42.86.85,1.27,1.28s.74.78,1.11,1.18l.57.61-.57-.62-.39-.41c-.23-.25-.47-.51-.72-.76s-.32-.33-.48-.5l-.79-.79Z"/><path class="cls-5" d="M802.25,59.79l3.55,2.1L806,62l-.16-.11-3.36-2-.18-.1a214.08,214.08,0,0,0-30.79-14.52A214.43,214.43,0,0,1,802.25,59.79Z"/><path class="cls-5" d="M479.26,102.32c.24-.4.5-.8.75-1.2-.24.39-.49.78-.73,1.15l0,0-.16.28-.21.37Z"/><path class="cls-5" d="M495.25,82.27,496.57,81l1.17-1.13,1.11-1c-.37.34-.75.66-1.11,1s-.78.76-1.18,1.13l-.75.72-.57.55c-.22.21-.42.42-.63.64a.6.6,0,0,1-.08.08Z"/><path class="cls-5" d="M477.94,104.62l-.17.29c-.11.19-.2.38-.31.57l.3-.56Z"/><path class="cls-5" d="M479.1,102.59l-.23.4,0,0Z"/><path class="cls-5" d="M480.08,101l.09-.14c.13-.21.26-.43.4-.64l-.49.77c-.26.43-.54.86-.8,1.28.24-.37.49-.76.73-1.15Z"/><path class="cls-5" d="M855.6,116.47v0h0Z"/><path class="cls-5" d="M475.74,108.83l.06-.11s0,.07-.05.1c-.15.31-.3.61-.44.91.14-.28.27-.57.42-.86Z"/><path class="cls-5" d="M859.92,137.57c0,.45,0,.89,0,1.34s0,.93,0,1.39c0,.82,0,1.63-.06,2.45,0-.81.07-1.62.07-2.44,0-.47,0-.95,0-1.4s0-.9,0-1.34-.07-.92-.08-1.4l-.06-.77.06.77C859.86,136.65,859.9,137.11,859.92,137.57Z"/><path class="cls-5" d="M470.09,124.83c0-.11.05-.22.08-.33,0,.11-.06.22-.08.33-.09.43-.19.87-.29,1.32,0-.15.07-.31.1-.46S470,125.11,470.09,124.83Z"/><path class="cls-5" d="M857.93,124c.09.36.17.71.25,1.07l0,.15c-.09-.41-.17-.81-.27-1.21-.07-.23-.13-.45-.19-.66l0,.06C857.82,123.56,857.88,123.76,857.93,124Z"/><polygon class="cls-5" points="702.25 251.35 702.25 251.35 702.25 251.35 702.25 251.35"/><path class="cls-5" d="M468.48,142.79c.57,12.05,4.46,24.07,11.61,35.56-.36-.58-.68-1.16-1-1.74-6.48-11-10.05-22.37-10.58-33.83-.07-1.47-.08-2.94-.05-4.41,0-.15,0-.3,0-.45,0,.15,0,.3,0,.45C468.4,139.84,468.43,141.3,468.48,142.79Z"/><path class="cls-5" d="M468.63,134.31l.06-.56c0-.15,0-.3,0-.45,0,.34-.06.67-.1,1s-.05.77-.07,1.17c0-.14,0-.28,0-.41S468.61,134.57,468.63,134.31Z"/><path class="cls-5" d="M469.77,126.3c-.07.3-.12.61-.18.92l.15-.76Z"/><path class="cls-5" d="M858.55,126.67c.1.43.18.88.26,1.32s.17.92.25,1.4a.15.15,0,0,1,0,.07c0,.28.09.56.13.85,0-.31-.08-.61-.13-.93-.09-.47-.18-.93-.26-1.39s-.16-.89-.25-1.32-.19-.82-.28-1.22c0,.16.07.32.1.49S858.5,126.43,858.55,126.67Z"/><path class="cls-5" d="M854.35,113.28l.33.81c-.12-.3-.23-.61-.37-.91s-.29-.66-.44-1c.15.33.3.66.44,1Z"/><path class="cls-5" d="M835.8,85.63l-.72-.77-.48-.49c.16.17.33.33.48.5S835.57,85.38,835.8,85.63Z"/><path class="cls-5" d="M471.2,120.52l-.09.29s0,0,0,.06,0,0,0-.06Z"/><path class="cls-5" d="M473.94,112.82h0l0-.09c.18-.43.37-.84.54-1.25s.37-.85.56-1.27c-.18.41-.37.85-.56,1.26s-.39.9-.59,1.35-.34.87-.51,1.29l-.12.32.12-.31C473.59,113.68,473.76,113.25,473.94,112.82Z"/><path class="cls-5" d="M802.26,59.8h0l.18.1Z"/><path class="cls-5" d="M506.89,72.12l-1,.75c-.24.19-.46.39-.69.58l.7-.58Z"/><path class="cls-5" d="M484.84,94.09l-.42.54-.16.23.16-.22Z"/><path class="cls-5" d="M501.84,76.24l.57-.49,0,0-.62.53-.8.69.3-.26Z"/><path class="cls-5" d="M508.59,70.81l-.63.48.26-.19Z"/><path class="cls-5" d="M842,92.73h0l-.31-.41-.35-.41.35.41Z"/><path class="cls-5" d="M812.8,66.38l.21.15-.46-.32-.27-.18.27.18Z"/><path class="cls-5" d="M663.56,26.62c7.31,0,14.62.3,21.9.77a324.28,324.28,0,0,1,37,4.51C670.35,22.45,613,25.91,565,42.15c30.25-10.25,64.2-15.5,98.29-15.53Z"/><path class="cls-5" d="M518,64.23l-.92.6L515.3,66l1.79-1.19Z"/><path class="cls-5" d="M513.74,67.1l1-.67-1,.67-1.17.82,1.08-.76Z"/><path class="cls-5" d="M521.15,62.25c-.15.09-.29.19-.44.27L519,63.6l1.71-1.07Z"/><path class="cls-5" d="M495.81,81.73l-.57.54-.63.65c.21-.22.41-.43.63-.64Z"/><path class="cls-5" d="M851.83,107.87l.29.57-.29-.57-.6-1.13a2.12,2.12,0,0,0,.11.21Z"/><path class="cls-5" d="M820,71.56l-.13-.1,0,0Z"/><path class="cls-5" d="M488.41,89.62l.69-.79c-.23.26-.47.52-.69.79s-.65.78-1,1.17c.1-.11.19-.23.29-.35S488.18,89.89,488.41,89.62Z"/><path class="cls-5" d="M824.72,75.29c.43.36.85.71,1.27,1.08l.4.33-.39-.33-1.27-1.09-.73-.57.29.23Z"/><path class="cls-5" d="M850.09,104.68l-.45-.8c-.11-.17-.21-.35-.31-.52l.31.53Z"/><path class="cls-5" d="M486.36,92.11l.68-.81.35-.44-1,1.25-.85,1.12c.08-.12.17-.23.26-.35S486.16,92.37,486.36,92.11Z"/><path class="cls-5" d="M492.86,84.69l.57-.57-.57.57c-.11.11-.21.23-.31.34l0,0Z"/><path class="cls-1" d="M747.33,242.76c20.21-5.44,39.2-12.86,55.82-22.52q6.83-4,12.83-8.22-6,4.24-12.83,8.22C786.53,229.9,767.54,237.32,747.33,242.76Z"/><path class="cls-1" d="M851.75,172.92A76.16,76.16,0,0,0,857.33,159c.45-1.6.86-3.21,1.2-4.83A74.73,74.73,0,0,1,851.75,172.92Z"/><path class="cls-1" d="M664.83,253.43c-50.15,0-100.37-11.06-138.68-33.19-20.32-11.73-35.25-25.41-44.84-40,9.59,14.6,24.52,28.28,44.84,40,23.94,13.83,52.54,23.34,82.86,28.52A332.61,332.61,0,0,0,664.83,253.43Z"/><path class="cls-1" d="M757.12,99.3a105.24,105.24,0,0,0-64.4,5.55c-6.59,2.82-13,6.4-18,11.53a30.57,30.57,0,0,0-2.53,3A47.44,47.44,0,0,0,686.17,131c26.45,15.29,69.2,15.29,95.48,0a46.87,46.87,0,0,0,13.71-11.52C786.6,108.32,769.71,102.18,757.12,99.3Z"/><path class="cls-3" d="M674.75,116.38c5-5.13,11.38-8.71,18-11.53a105.24,105.24,0,0,1,64.4-5.55c12.59,2.88,29.48,9,38.24,20.17a26.05,26.05,0,0,0,5.91-15.92c0-.33,0-.67,0-1-.4-9.73-7-19.4-19.91-26.83-26.46-15.27-69.19-15.27-95.47,0C665.56,87.5,661,105,672.22,119.33A30.57,30.57,0,0,1,674.75,116.38Z"/><path class="cls-4" d="M481.31,180.23c-.41-.63-.83-1.25-1.22-1.88,9.53,15.31,24.86,29.67,46.05,41.9,24,13.82,52.54,23.33,82.87,28.51-30.32-5.18-58.92-14.69-82.86-28.52C505.83,208.51,490.9,194.83,481.31,180.23Z"/><path class="cls-4" d="M816,212q-6,4.24-12.83,8.22c-16.62,9.66-35.61,17.08-55.82,22.52a302.6,302.6,0,0,1-45.08,8.59c37-4.15,72.36-14.52,100.9-31.11C832.9,203,850.93,181.44,857.33,159a76.16,76.16,0,0,1-5.58,13.93C844.56,186.89,832.67,200.22,816,212Z"/><path class="cls-5" d="M526.15,220.24c38.31,22.13,88.53,33.19,138.68,33.19a337.34,337.34,0,0,0,37.42-2.08,302.6,302.6,0,0,0,45.08-8.59c20.21-5.44,39.2-12.86,55.82-22.52q6.83-4,12.83-8.22c16.69-11.8,28.58-25.13,35.77-39.1a74.73,74.73,0,0,0,6.78-18.76,67.94,67.94,0,0,0,1.35-10.39c-1.31-28.14-20.53-56.07-57.65-77.5-76.62-44.24-200.89-44.23-277,0-36.44,21.18-55.34,48.71-56.74,76.51a73,73,0,0,0,10.58,33.83c.71,1.21,1.45,2.42,2.24,3.62C490.9,194.83,505.83,208.51,526.15,220.24ZM685.86,75.7c26.28-15.27,69-15.27,95.47,0,12.88,7.43,19.51,17.1,19.91,26.83,0,.35,0,.69,0,1a26.05,26.05,0,0,1-5.91,15.92A46.87,46.87,0,0,1,781.65,131c-26.28,15.29-69,15.29-95.48,0a47.44,47.44,0,0,1-13.95-11.66C661,105,665.56,87.5,685.86,75.7Z"/><path class="cls-5" d="M479.07,176.61c.34.58.66,1.16,1,1.74s.81,1.25,1.22,1.88C480.52,179,479.78,177.82,479.07,176.61Z"/><path class="cls-5" d="M702.25,251.35h0a302.6,302.6,0,0,0,45.08-8.59A302.6,302.6,0,0,1,702.25,251.35Z"/><path class="cls-5" d="M816,212c16.69-11.8,28.58-25.13,35.77-39.1C844.56,186.89,832.67,200.22,816,212Z"/><path class="cls-3" d="M857.55,122.57c.06.21.11.41.17.61l-.17-.61c-.11-.44-.22-.89-.36-1.33l-.18-.55c.06.18.12.36.17.55C857.33,121.69,857.44,122.13,857.55,122.57Z"/><path class="cls-3" d="M751.91,38.81c.94.28,1.92.48,2.85.77C753.83,39.29,752.85,39.09,751.91,38.81Z"/><path class="cls-3" d="M856.45,118.9c0-.12-.07-.24-.11-.35l-.18-.51.18.51C856.38,118.66,856.41,118.78,856.45,118.9Z"/><path class="cls-3" d="M473.08,115c-.06.17-.13.33-.19.5s-.17.47-.25.71c.08-.24.16-.47.25-.71S473,115.14,473.08,115Z"/><path class="cls-3" d="M470.76,122.13c.05-.16.09-.33.13-.5,0,.17-.09.33-.13.5-.12.46-.25.92-.36,1.37-.07.27-.13.53-.19.8.06-.27.12-.54.19-.79C470.51,123.05,470.63,122.58,470.76,122.13Z"/><path class="cls-3" d="M523.43,60.88l-1.68,1-.2.12.2-.12Z"/><path class="cls-3" d="M511.92,68.37l.12-.08-.13.08c-.44.32-.87.65-1.32,1l-.82.6c.28-.2.54-.4.83-.59S511.46,68.69,511.92,68.37Z"/><path class="cls-3" d="M818.51,70.42l-.07,0-.1-.07Z"/><path class="cls-3" d="M837.39,87.34c.17.17.32.36.48.54-.16-.18-.31-.37-.48-.55l-.33-.36-.3-.31C837,86.88,837.19,87.11,837.39,87.34Z"/><path class="cls-3" d="M827.47,77.64c.44.37.83.73,1.22,1.1s1,.85,1.43,1.28l1.2,1.13c.44.42.91.85,1.35,1.29l.5.5-.44-.45-.06,0c-.2-.21-.41-.4-.61-.59l-.75-.71-.27-.26-.91-.86c-.46-.43-1-.86-1.43-1.29s-.8-.73-1.23-1.09c-.24-.22-.5-.44-.75-.65l-.11-.1Z"/><path class="cls-3" d="M821.85,73c.3.23.6.48.9.73l-.71-.58-.19-.15-1.15-.88-.2-.16C821,72.28,821.39,72.63,821.85,73Z"/><path class="cls-3" d="M806.93,62.61l2.3,1.43.77.5-.77-.5c-.76-.48-1.52-1-2.3-1.43l-.71-.45L806,62Z"/><path class="cls-3" d="M813.86,67.11l0,0,1.25.86-.65-.45-.59-.41Z"/><path class="cls-3" d="M845.51,97.44c.29.41.57.84.85,1.25s.61.88.9,1.34h0l-.58-.87-.32-.47c-.22-.32-.43-.64-.65-1l-.2-.3c-.13-.19-.27-.38-.41-.56l-.32-.45C845,96.77,845.28,97.1,845.51,97.44Z"/><path class="cls-3" d="M850.3,105l.12.21c.22.4.43.79.63,1.18l-.45-.84-.18-.34Z"/><path class="cls-3" d="M847.82,100.91l-.1-.16-.42-.66Z"/><path class="cls-3" d="M839.59,89.83l1,1.18.18.23-.12-.15-.06-.07-.06-.08c-.31-.37-.61-.74-.93-1.11-.13-.16-.28-.32-.42-.48l-.2-.23C839.18,89.36,839.39,89.59,839.59,89.83Z"/><path class="cls-3" d="M842.62,93.56l-.55-.72c.18.24.37.47.55.72l1,1.32c.26.34.5.68.75,1l-.46-.63-.29-.4C843.31,94.43,843,94,842.62,93.56Z"/><path class="cls-3" d="M771.47,45.28c-.56-.22-1.16-.38-1.72-.59-4.78-1.78-9.62-3.46-14.59-5C760.71,41.41,766.16,43.26,771.47,45.28Z"/><path class="cls-3" d="M848.89,102.61c.08.15.17.29.26.44-.09-.14-.17-.29-.25-.43h0l-.43-.68C848.61,102.17,848.76,102.39,848.89,102.61Z"/><path class="cls-3" d="M481.75,98.42c.23-.36.49-.72.74-1.08l-.74,1.08a.43.43,0,0,0,0,.07l-.31.45Z"/><path class="cls-3" d="M471.54,119.44c.09-.34.21-.68.32-1-.11.35-.22.69-.32,1,0,.07-.05.14-.07.21l0,.06Z"/><path class="cls-3" d="M468.48,136.9s0,.09,0,.13,0,.26,0,.38c0-.13,0-.25,0-.38S468.48,136.94,468.48,136.9Z"/><path class="cls-3" d="M469.3,128.9c0-.34.11-.67.17-1,0,.08,0,.16,0,.24-.05.25-.1.5-.13.76s-.06.34-.08.51a2.89,2.89,0,0,0,0,.29C469.21,129.43,469.25,129.16,469.3,128.9Z"/><path class="cls-3" d="M483.54,95.86l.48-.66-.12.16-.37.51-.22.3c-.23.32-.46.64-.68,1C482.92,96.71,483.23,96.29,483.54,95.86Z"/><path class="cls-3" d="M518.36,64l.47-.3-.47.3h0l-.14.09Z"/><path class="cls-3" d="M499.15,78.61l.44-.4-.44.4-.12.11-.18.16Z"/><path class="cls-3" d="M503.08,75.19l-.54.45.54-.45c.49-.43,1-.83,1.52-1.24l.55-.46,0,0c-.18.14-.36.28-.53.43C504.09,74.36,503.57,74.76,503.08,75.19Z"/><path class="cls-3" d="M490.27,87.51l.32-.37c.38-.41.78-.85,1.18-1.26.21-.23.43-.46.64-.7-.21.24-.43.47-.65.7l-1.11,1.19-.07.08Z"/><path class="cls-3" d="M494.1,83.44l.43-.44-.21.21-.22.23-.14.14-.29.29Z"/><path class="cls-3" d="M468.83,132.32v.07A.2.2,0,0,0,468.83,132.32Z"/><path class="cls-3" d="M859.45,132.11c.06.44.1.89.15,1.35s.09.89.14,1.33l-.06-.53c0-.27,0-.53-.08-.8s-.06-.6-.09-.89,0-.31,0-.46,0-.16,0-.24,0-.34-.07-.51C859.38,131.61,859.42,131.86,859.45,132.11Z"/><path class="cls-3" d="M853.12,110.53c.21.42.4.85.58,1.29.06.11.11.23.16.34-.05-.12-.1-.23-.16-.35-.19-.43-.38-.85-.58-1.28-.1-.23-.22-.46-.32-.69a.8.8,0,0,1-.08-.16Z"/><path class="cls-3" d="M854.83,114.46v0l.42,1.06c-.07-.19-.15-.38-.23-.58s-.13-.32-.2-.49Z"/><path class="cls-3" d="M478.87,103l-.35.61-.58,1c.19-.34.39-.68.59-1Z"/><path class="cls-3" d="M823.15,74l.85.68-.84-.69-1.12-.9.71.58Z"/><path class="cls-3" d="M809.23,64l.77.5c.21.15.43.29.65.43L812.28,66,810.65,65,809.23,64c-.75-.48-1.53-1-2.3-1.43l-.71-.44.71.45C807.71,63.08,808.47,63.56,809.23,64Z"/><path class="cls-3" d="M754.76,39.58l.4.13c5,1.52,9.81,3.2,14.59,5A277.15,277.15,0,0,0,722.43,31.9a291.58,291.58,0,0,1,29.48,6.91C752.85,39.09,753.83,39.29,754.76,39.58Z"/><path class="cls-3" d="M477.08,106.21l.38-.73-.38.73c-.24.44-.48.88-.7,1.32s-.39.79-.58,1.19l.58-1.18C476.6,107.1,476.85,106.65,477.08,106.21Z"/><path class="cls-3" d="M471.86,118.41l.09-.27c.14-.46.32-.91.48-1.37.06-.19.14-.39.21-.59s.16-.48.25-.71.13-.33.19-.5l.22-.55c-.14.35-.28.7-.41,1s-.31.87-.47,1.3-.32.91-.47,1.37-.28.87-.42,1.31l-.06.2c0-.07,0-.14.07-.21C471.64,119.1,471.75,118.76,471.86,118.41Z"/><path class="cls-3" d="M815.77,68.44l1.32,1,1.25.9.1.07-1.34-1-1.33-1-1.26-.87.65.45Z"/><path class="cls-3" d="M820.5,71.93l.2.16-.48-.37-.21-.16.22.17Z"/><path class="cls-3" d="M856.16,118l.18.51c0,.11.07.23.11.35.11.32.21.64.31,1s.17.55.25.82l.18.55c.14.44.25.89.36,1.33l.17.61,0,.12c-.06-.25-.13-.49-.19-.73-.12-.44-.24-.88-.37-1.33s-.28-.92-.43-1.38-.27-.87-.42-1.31-.32-.92-.48-1.38c-.09-.23-.17-.47-.26-.7.08.24.16.47.25.7S856.06,117.75,856.16,118Z"/><path class="cls-3" d="M469.8,126.15a.43.43,0,0,0,0,0s0,.06,0,.1,0-.07,0-.11Z"/><path class="cls-3" d="M484.26,94.86l-.36.5.12-.16Z"/><path class="cls-3" d="M492.41,85.18l.14-.15c-.27.28-.53.56-.79.85l-1.11,1.19,1.11-1.19C492,85.65,492.2,85.42,492.41,85.18Z"/><path class="cls-3" d="M485.51,93.23l-.09.11-.58.75.58-.75Z"/><path class="cls-3" d="M499.59,78.21l.77-.69.68-.59-.69.59-1.19,1.08-.13.12.12-.11Z"/><path class="cls-3" d="M494.32,83.21a2.5,2.5,0,0,1-.23.23l-.13.14.14-.14Z"/><path class="cls-3" d="M859.35,131.36c0,.17,0,.34.07.51,0-.38-.1-.77-.16-1.16l-.06-.4c0,.13,0,.27.06.39Z"/><path class="cls-3" d="M487.45,90.79l0,0,0,0,0,0Z"/><path class="cls-3" d="M509.77,69.94l.82-.6c.45-.32.88-.65,1.32-1l.13-.08c.17-.13.35-.25.53-.37l-.66.45c-.45.32-.88.65-1.32,1s-1.17.84-1.74,1.27l-.26.2.27-.2Z"/><path class="cls-3" d="M858.28,125.45a1.36,1.36,0,0,1,0-.17l0-.11,0,.1A1.16,1.16,0,0,0,858.28,125.45Z"/><path class="cls-3" d="M503.08,75.19c.49-.43,1-.83,1.52-1.24.17-.15.35-.29.53-.43-.18.14-.36.28-.53.43-.51.41-1,.82-1.52,1.23l-.62.53.08-.07Z"/><path class="cls-3" d="M482.49,97.34s.07-.1.1-.16,0,0,0,0c.22-.33.45-.65.68-1-.24.34-.49.67-.72,1s-.56.83-.84,1.24l0,.07a.43.43,0,0,1,0-.07Z"/><polygon class="cls-3" points="518.36 64.01 518.36 64.01 518.36 64.01 518.36 64.01"/><path class="cls-3" d="M853.7,111.81h0c-.19-.43-.37-.86-.57-1.29l-.33-.68c.1.23.22.46.32.69C853.32,111,853.51,111.38,853.7,111.81Z"/><path class="cls-3" d="M468.47,137s0-.09,0-.13c0-.41,0-.83.07-1.25a1,1,0,0,1,0-.17.91.91,0,0,0,0,.17c0,.46-.06.92-.08,1.38,0,.3,0,.6,0,.89,0-.17,0-.34,0-.51S468.47,137.16,468.47,137Z"/><polygon class="cls-3" points="848.89 102.62 848.89 102.62 848.9 102.62 848.89 102.62"/><path class="cls-3" d="M854.83,114.48c.07.17.13.33.2.49-.07-.16-.13-.33-.19-.49s-.11-.26-.16-.39l.15.37Z"/><path class="cls-3" d="M468.82,132.39v0l-.06.59c0,.12,0,.24,0,.36,0-.12,0-.25,0-.37S468.81,132.57,468.82,132.39Z"/><path class="cls-3" d="M847.26,100h0l0,.06.42.66c-.15-.24-.3-.49-.46-.73l-.58-.86.58.87Z"/><path class="cls-3" d="M845.71,97.74l-.2-.3c-.13-.19-.27-.37-.41-.56.14.18.28.37.41.56Z"/><path class="cls-3" d="M842.62,93.56c.34.44.69.87,1,1.32l.29.4-.29-.4c-.33-.44-.68-.88-1-1.33l-.63-.81.08.1Z"/><path class="cls-3" d="M840.64,91.09l-.06-.07-.06-.08.06.08Z"/><path class="cls-3" d="M832.73,82.49l-.07-.06-.6-.58c.2.19.41.38.61.59Z"/><path class="cls-3" d="M469.43,128.14c-.05.25-.1.51-.14.76s-.05.34-.07.51c0-.17,0-.34.08-.51S469.38,128.39,469.43,128.14Z"/><path class="cls-3" d="M828.7,78.73c.47.43,1,.86,1.43,1.29l.91.86-.91-.86-1.43-1.29c-.41-.36-.8-.73-1.22-1.09l-.76-.65c.25.21.51.43.75.65C827.9,78,828.3,78.37,828.7,78.73Z"/><path class="cls-3" d="M837.87,87.88l.57.64.53.6.2.23-.73-.84-1.05-1.18-.33-.36.33.36C837.56,87.51,837.71,87.7,837.87,87.88Z"/><path class="cls-3" d="M851.1,106.51c0,.08.08.16.13.23l-.13-.23c-.16-.31-.33-.62-.5-.93l.45.84Z"/><path class="cls-3" d="M859.68,134.26c0-.27,0-.54-.08-.81l-.09-.88c0,.29.06.58.09.89S859.66,134,859.68,134.26Z"/><path class="cls-3" d="M525.23,66.27c76.11-44.23,200.38-44.24,277,0,37.12,21.43,56.34,49.36,57.65,77.5.06-1.15.1-2.31.09-3.47,0-.46,0-.93,0-1.39s0-.89,0-1.34,0-.93-.08-1.39-.05-.9-.09-1.34v-.05c0-.44-.09-.89-.14-1.33s-.09-.91-.15-1.35c0-.25-.07-.5-.1-.75s-.06-.43-.1-.65c-.06-.41-.11-.83-.18-1.25v-.07c-.08-.47-.17-.94-.26-1.4s-.16-.88-.25-1.32c0-.25-.11-.49-.17-.73s-.09-.45-.15-.67,0-.17-.05-.25c-.09-.36-.16-.72-.25-1.07s-.11-.39-.16-.59,0-.12,0-.18-.11-.4-.17-.61c-.11-.44-.22-.88-.37-1.33,0-.19-.11-.37-.17-.55s-.17-.54-.25-.82-.2-.65-.31-1c0-.12-.07-.24-.11-.35l-.18-.51c-.1-.29-.2-.58-.31-.87s-.17-.47-.25-.71-.14-.4-.22-.6-.08-.2-.12-.31l-.42-1.06v0c-.16-.39-.31-.79-.48-1.18l0-.09c-.14-.35-.3-.69-.45-1-.05-.11-.1-.23-.16-.34-.18-.44-.37-.87-.58-1.29l-.4-.85c-.09-.17-.17-.35-.26-.53-.21-.42-.41-.85-.63-1.28l-.49-.92-.24-.44-.05-.09c-.2-.39-.41-.78-.63-1.18l-.12-.21-.67-1.15-.48-.83c-.09-.15-.18-.29-.26-.44s-.28-.44-.42-.67l-.42-.67c-.08-.12-.16-.24-.23-.36l-.52-.82,0-.06c-.29-.46-.59-.9-.9-1.34s-.56-.84-.85-1.25-.48-.67-.73-1l-.23-.31-.15-.21c-.25-.35-.49-.69-.75-1l-1-1.32c-.18-.25-.37-.48-.55-.72l-.09-.11-.3-.39c-.3-.37-.61-.73-.92-1.1l-.18-.23-1-1.18c-.2-.24-.41-.47-.62-.71l-.53-.6-.57-.64c-.16-.18-.31-.37-.48-.54s-.42-.46-.63-.68l-.57-.61c-.37-.4-.73-.79-1.11-1.18s-.84-.86-1.27-1.28l-.64-.65-.5-.5c-.44-.44-.91-.87-1.35-1.29L830.12,80c-.45-.43-1-.86-1.43-1.28s-.78-.73-1.22-1.1l-.86-.75-.62-.52c-.42-.36-.84-.73-1.27-1.08l-.43-.35L823.15,74l-.4-.33c-.3-.25-.6-.5-.9-.73-.46-.34-.9-.69-1.35-1l-.27-.2-.3-.23-1.07-.82-.35-.26-.17-.12-1.24-.89c-.45-.34-.88-.66-1.34-1l-.6-.43-1.25-.86,0,0-1.06-.73-.25-.17L810.65,65c-.22-.14-.44-.28-.65-.43l-.77-.5-2.3-1.43L806,62l-.16-.11-3.55-2.1a214.43,214.43,0,0,0-30.78-14.51c-5.31-2-10.76-3.87-16.31-5.57l-.4-.13c-.93-.29-1.91-.49-2.85-.77a310.27,310.27,0,0,0-66.45-11.42c-7.28-.47-14.59-.77-21.9-.77h-.26c-50.07,0-100.06,11.1-138,33.17-.62.36-1.22.73-1.82,1.09l-1.68,1-.2.12-.84.53-1.88,1.18-.47.3-.14.09c-.38.24-.75.49-1.12.74-.68.44-1.36.88-2,1.33l-1.34.93-.09.06L512,68.29l-.12.08c-.46.32-.88.65-1.32,1s-.55.39-.83.59l-.91.67-.64.49-.72.55-1.59,1.23-.76.61-.55.46c-.5.41-1,.81-1.52,1.24l-.54.45-.13.11-.57.5-.5.42-1,.86-.77.68-.44.4-.3.27-1.11,1L496.57,81l-1.32,1.26-.72.73-.43.44-.43.43c-.27.28-.55.55-.81.83l-.27.28-.18.2c-.21.24-.43.47-.64.7-.4.41-.8.85-1.18,1.26l-.32.37c-.25.27-.49.55-.73.83s-.76.85-1.12,1.28l-.68.82-.31.39c-.14.15-.26.31-.39.47s-.46.54-.68.82l-.59.76-.35.46c-.33.43-.68.87-1,1.3l-.4.56-.48.66c-.31.43-.62.85-.91,1.28l0,0-.11.16c-.25.36-.51.72-.74,1.08l-.35.52c-.18.27-.36.53-.53.8s-.47.75-.7,1.12l-.08.13-.08.13c-.25.4-.51.8-.75,1.2l-.37.64-.36.64c-.26.44-.53.87-.76,1.32s-.47.86-.69,1.29-.47.89-.7,1.33-.43.86-.63,1.29a.08.08,0,0,0,0,0c-.21.43-.43.86-.63,1.3s-.38.86-.57,1.29-.37.84-.55,1.26a1,1,0,0,0,0,.1h0c-.18.43-.35.85-.51,1.28l-.35.87c-.06.17-.13.33-.19.5s-.17.47-.25.71-.15.4-.21.59c-.16.46-.34.91-.48,1.37l-.09.27c-.11.35-.23.69-.32,1l-.09.27c-.11.37-.23.74-.34,1.1s-.14.55-.22.82-.08.34-.13.5c-.13.45-.25.92-.36,1.38-.07.25-.13.52-.19.79l-.12.52c-.06.29-.13.58-.19.87s-.08.34-.11.51,0,.17-.05.26c-.07.35-.14.71-.2,1.07,0,.12-.05.24-.07.37-.06.33-.13.66-.17,1s-.09.53-.12.8-.06.36-.08.54c-.07.45-.14.91-.19,1.37,0,.23-.05.47-.08.71a.2.2,0,0,1,0,.07c0,.18,0,.36-.05.54s0,.55-.08.82l-.06.57c0,.25,0,.5-.05.75l0,.58c0,.42-.06.83-.07,1.25,0,0,0,.09,0,.13s0,.25,0,.38c0,.32,0,.64,0,1,0,1.47,0,2.94.05,4.41C469.89,115,488.79,87.45,525.23,66.27Z"/><path class="cls-3" d="M472.43,116.77c.06-.19.14-.39.21-.59-.07.2-.15.4-.21.59-.16.46-.34.91-.48,1.37l-.09.27.09-.27C472.09,117.68,472.27,117.23,472.43,116.77Z"/><path class="cls-3" d="M473.43,114.1c.16-.43.33-.85.51-1.28-.18.43-.35.86-.52,1.29l-.12.31-.22.55Z"/><path class="cls-3" d="M468.46,137.41c0,.17,0,.34,0,.51s0,.3,0,.45C468.45,138.05,468.45,137.73,468.46,137.41Z"/><path class="cls-3" d="M468.48,136.9c0-.42,0-.83.07-1.25l0-.58c0,.13,0,.27,0,.41a1,1,0,0,0,0,.17C468.52,136.07,468.49,136.49,468.48,136.9Z"/><path class="cls-3" d="M754.76,39.58l.4.13Z"/><path class="cls-3" d="M487.43,90.83l.31-.39c-.1.12-.19.24-.29.35l0,0,0,0-.35.44C487.17,91.14,487.29,91,487.43,90.83Z"/><path class="cls-3" d="M475.73,108.87a.08.08,0,0,1,0,0q.3-.64.63-1.29c.23-.44.46-.89.7-1.33s.45-.86.69-1.29.5-.88.76-1.32l.36-.64,0,0-.34.61c-.2.34-.4.68-.59,1l-.18.3-.3.56-.38.73c-.23.44-.48.89-.7,1.33l-.58,1.18-.06.11Z"/><path class="cls-3" d="M480.17,100.86l-.09.14-.07.12.08-.13Z"/><path class="cls-3" d="M468.77,132.93c0-.18,0-.36.05-.54,0,.18,0,.36-.05.54s0,.25,0,.37,0,.3,0,.45C468.72,133.48,468.74,133.2,468.77,132.93Z"/><path class="cls-3" d="M484.42,94.64c.32-.43.67-.87,1-1.3l.35-.46c-.09.12-.18.23-.26.35l-.09.11-.58.75-.42.55-.16.22-.24.34Z"/><path class="cls-3" d="M469.79,126.2c0-.17.07-.34.11-.51,0,.15-.07.31-.1.46v0s0,.07,0,.11l0,.16C469.76,126.37,469.77,126.28,469.79,126.2Z"/><path class="cls-3" d="M855.85,117.17c.11.29.21.58.31.87-.1-.29-.19-.58-.31-.87s-.17-.46-.25-.7h0C855.68,116.7,855.76,116.94,855.85,117.17Z"/><path class="cls-3" d="M857,120.69c-.08-.27-.17-.54-.25-.82s-.2-.65-.31-1c.11.32.21.64.31,1S856.93,120.42,857,120.69Z"/><path class="cls-3" d="M842.07,92.84l-.08-.1h0Z"/><path class="cls-3" d="M822.75,73.7l.4.33,1.14.91-.29-.23-.85-.68Z"/><path class="cls-3" d="M820.23,71.73l.27.2-.27-.2-.22-.17-.08-.06Z"/><path class="cls-3" d="M851.05,106.42l.05.09.24.44a2.12,2.12,0,0,1-.11-.21c-.05-.07-.08-.15-.13-.23Z"/><path class="cls-3" d="M857.77,123.36l0-.06,0-.12C857.74,123.24,857.75,123.3,857.77,123.36Z"/><path class="cls-3" d="M482.63,97.14s0,0,0,0-.07.11-.1.16l.11-.16Z"/><path class="cls-3" d="M854.83,114.46l-.15-.37-.33-.81C854.52,113.67,854.67,114.07,854.83,114.46Z"/><path class="cls-3" d="M847.26,100h0l0,.06Z"/><path class="cls-3" d="M473.94,112.81h0a1,1,0,0,1,0-.1Z"/><path class="cls-3" d="M663.3,26.62h0Z"/><path class="cls-3" d="M508.86,70.61l.91-.67-.91.67-.27.2-.37.29Z"/><path class="cls-3" d="M810,64.54c.21.15.43.29.65.43l1.9,1.24.25.17-.25-.17-.27-.18L810.65,65C810.43,64.83,810.21,64.69,810,64.54Z"/><path class="cls-3" d="M499.59,78.21l.77-.68,1-.86-.3.26-.68.59Z"/><path class="cls-3" d="M859.25,130.71c0,.22.07.43.1.65l-.09-.66c0-.12,0-.26-.06-.39,0-.29-.08-.57-.13-.85C859.14,129.88,859.19,130.3,859.25,130.71Z"/><path class="cls-3" d="M492.59,85l0,0-.14.15Z"/><path class="cls-3" d="M502.54,75.64l-.08.07,0,0Z"/><path class="cls-3" d="M839,89.12l-.53-.6-.57-.64.57.64Z"/><path class="cls-3" d="M817.1,69.41l1.24.89-1.25-.9-1.32-1-.61-.43.6.43C816.22,68.75,816.65,69.07,817.1,69.41Z"/><path class="cls-3" d="M751.91,38.81a291.58,291.58,0,0,0-29.48-6.91,324.28,324.28,0,0,0-37-4.51A310.27,310.27,0,0,1,751.91,38.81Z"/><path class="cls-3" d="M513.65,67.16l-1.08.76c-.18.12-.36.24-.53.37Z"/><path class="cls-3" d="M858.23,125.27c.06.22.1.45.15.67,0-.17-.07-.33-.1-.49a1.16,1.16,0,0,1,0-.18l0-.1,0-.15C858.19,125.1,858.22,125.19,858.23,125.27Z"/></g></g></svg>