<svg xmlns="http://www.w3.org/2000/svg" viewBox="0 0 1001.61 1001.61"><defs><style>.cls-1{fill:#26193e;}.cls-2{fill:#a38edc;}.cls-3{fill:none;stroke:#fff;stroke-linecap:round;stroke-linejoin:round;stroke-width:20px;}</style></defs><g id="Layer_2" data-name="Layer 2"><g id="v2"><circle class="cls-1" cx="500.81" cy="500.81" r="480.52"/><path class="cls-2" d="M962.25,305.87a502.42,502.42,0,1,0,39.36,194.94A499,499,0,0,0,962.25,305.87ZM500.81,981.32c-265.39,0-480.52-215.13-480.52-480.51S235.42,20.29,500.81,20.29,981.32,235.42,981.32,500.81,766.19,981.32,500.81,981.32Z"/><path class="cls-3" d="M288.85,305.91l88.2-74M336.4,416.31,477.51,297.85M407,357.13,333,269M740,754,629,621.67m-66.3,10.56h0a34.55,34.55,0,0,0,48.66,4.24l35.28-29.6a34.54,34.54,0,0,0,4.26-48.65L451.05,320.1l-88.19,74Zm22.05-63.65L629,531.45m-81.42-6.82,44.09-37m-83.23-5.31,46.23-38.79M469,440.23l48.55-40.83"/></g></g></svg>