<svg xmlns="http://www.w3.org/2000/svg" viewBox="0 0 1001.61 1001.61"><defs><style>.cls-1{fill:#26193e;}.cls-2{fill:#a38edc;}.cls-3{fill:none;stroke:#fff;stroke-linecap:round;stroke-linejoin:round;stroke-width:14px;}</style></defs><g id="Layer_2" data-name="Layer 2"><g id="Layer_1-2" data-name="Layer 1"><circle class="cls-1" cx="500.81" cy="500.81" r="480.52"/><path class="cls-2" d="M962.25,305.87a502.42,502.42,0,1,0,39.36,194.94A499,499,0,0,0,962.25,305.87ZM500.81,981.32c-265.39,0-480.52-215.13-480.52-480.51S235.42,20.29,500.81,20.29,981.32,235.42,981.32,500.81,766.19,981.32,500.81,981.32Z"/><path class="cls-3" d="M435,570.63c0,94.14,29.48,170.46,65.84,170.46s65.83-76.32,65.83-170.46V327.1a18.44,18.44,0,0,0-18.43-18.45H453.4A18.45,18.45,0,0,0,435,327.1Z"/><line class="cls-3" x1="434.97" y1="170.82" x2="566.64" y2="170.82"/><line class="cls-3" x1="434.97" y1="520.62" x2="566.64" y2="520.62"/><line class="cls-3" x1="500.81" y1="520.62" x2="500.81" y2="170.82"/><line class="cls-3" x1="434.97" y1="564.99" x2="488.87" y2="564.99"/><line class="cls-3" x1="438.68" y1="606.13" x2="483.53" y2="606.13"/><line class="cls-3" x1="440.36" y1="638.23" x2="490.93" y2="638.23"/><line class="cls-3" x1="500.81" y1="741.09" x2="500.81" y2="839.84"/></g></g></svg>