<svg xmlns="http://www.w3.org/2000/svg" viewBox="0 0 999.36 1001.93"><defs><style>.cls-1{fill:#26193e;}.cls-2{fill:#a38edc;}.cls-3{fill:none;stroke:#fff;stroke-linecap:round;stroke-linejoin:round;stroke-width:20px;}</style></defs><g id="Layer_2" data-name="Layer 2"><g id="v2"><ellipse class="cls-1" cx="499.68" cy="500.97" rx="479.44" ry="480.67"/><path class="cls-2" d="M960.09,306a499.84,499.84,0,1,0-654.91,656.6A500.06,500.06,0,0,0,999.36,501,499,499,0,0,0,960.09,306ZM499.68,981.64C234.89,981.64,20.24,766.44,20.24,501S234.89,20.3,499.68,20.3,979.12,235.5,979.12,501,764.47,981.64,499.68,981.64Z"/><path class="cls-3" d="M595.7,578.11V467.67A95.57,95.57,0,0,0,500.25,372H362.42A95.58,95.58,0,0,0,267,467.67V711.76H533.57"/><polyline class="cls-3" points="266.96 485.24 411.56 485.24 411.56 650.6 266.96 650.6"/><rect class="cls-3" x="533.57" y="578.11" width="198.83" height="216.33"/><rect class="cls-3" x="360.73" y="207.5" width="141.21" height="52.35" rx="15.92"/><path class="cls-3" d="M391.34,259.85s-37.28,53.23,0,90.6V372"/><path class="cls-3" d="M471.33,259.85s37.28,53.23,0,90.6V372"/><path class="cls-3" d="M533.57,649.36c90.65-10.36,91.8,15.25,184.79.07"/></g></g></svg>