<?xml version="1.0" encoding="UTF-8"?>
<svg width="50px" height="50px" viewBox="0 0 50 50" version="1.1" xmlns="http://www.w3.org/2000/svg" xmlns:xlink="http://www.w3.org/1999/xlink">
    <!-- Generator: Sketch 62 (91390) - https://sketch.com -->
    <title>Icon/Tips</title>
    <desc>Created with Sketch.</desc>
    <g id="Icon/Tips" stroke="none" stroke-width="1" fill="none" fill-rule="evenodd">
        <rect fill="#FFFFFF" x="0" y="0" width="50" height="50"></rect>
        <g transform="translate(5.000000, 5.000000)" fill="#E61B5B" id="Combined-Shape">
            <path d="M25.3846154,32.5 L25.3846154,33.6153846 C25.3846154,36.5892256 22.973841,39 20,39 C17.026159,39 14.6153846,36.5892256 14.6153846,33.6153846 L14.6153846,32.5 L25.3846154,32.5 Z M20.0052532,0 C23.5107508,0 26.7145263,1.20388728 29.1693551,3.19296175 L29.5436606,3.50725005 L29.92594,3.85307794 C31.8262221,5.63254044 33.1757364,7.91645594 33.7182176,10.4590894 C33.8798201,11.2001728 33.973748,11.9645406 33.9942921,12.7458891 L33.9985888,13.0730577 L33.9915129,13.0888476 L33.9916507,13.1106831 C34.0332377,13.9490237 33.924777,15.0756667 33.5462902,16.3900807 C33.0099855,18.2525666 32.0282663,20.0934423 30.5075012,21.8203817 L30.0794974,22.2882624 L29.9845427,22.3874245 C27.2890571,25.1800978 25.9466637,27.0834717 25.3693382,29.2493274 L22.9773146,29.2492707 C23.5492585,26.6087091 24.9875428,24.3765263 27.8870653,21.3177046 L28.4112988,20.7685144 C29.8831946,19.1935261 30.8063887,17.518141 31.2923872,15.8303591 C31.5736068,14.853736 31.6724545,14.0214053 31.6667075,13.4070147 L31.6540866,13.0730577 C31.6540866,7.04961894 26.4355443,2.16963204 20.000166,2.16666802 L19.7206876,2.16983833 L19.4390564,2.17930596 C13.3708059,2.45084944 8.51583256,7.06516192 8.34604409,12.8623226 L8.34152644,13.1685873 L8.3390093,13.2108554 C8.30777138,13.839006 8.39501645,14.7461233 8.70741902,15.8312383 C9.19324456,17.5187296 10.1162444,19.1937977 11.5879172,20.768503 L11.7520062,20.9412462 C14.8932749,24.1956612 16.4262154,26.501068 17.0212239,29.2490301 L14.6292365,29.249043 C14.0768109,27.1758417 12.8236231,25.3434445 10.3540291,22.7418576 L9.82589918,22.188674 C8.1136817,20.3565834 7.02792589,18.3861443 6.45348846,16.3908641 C6.10946438,15.1959132 5.98862321,14.15603 6.00083167,13.3467051 L6.01066669,13.0724349 L6.00141503,13.0730577 C6.00141503,5.96371479 12.0759105,0.177717469 19.6439612,0.00401629732 L20.0052532,0 Z M17.7146568,5.98124353 C17.9791195,6.46897786 17.8321131,7.07122177 17.3917049,7.38415714 L17.1594997,7.52554053 C17.0554885,7.59059242 16.9123403,7.68636201 16.7400241,7.81242883 C16.2983094,8.13558805 15.8549382,8.52483349 15.4426976,8.97722732 C13.7508324,10.8338846 13.0926714,13.1038684 14.0216589,15.9074199 C14.2097412,16.4750252 13.9047996,17.0885385 13.340553,17.2777402 C12.7763063,17.466942 12.1664233,17.1601853 11.9783411,16.5925801 C10.7805648,12.9778624 11.6696842,9.91130772 13.854981,7.51315729 C14.7404398,6.54145251 15.6276105,5.89239693 16.2535439,5.54894646 C16.7756882,5.26244517 17.4298508,5.45599116 17.7146568,5.98124353 Z"></path>
        </g>
    </g>
</svg>