<svg xmlns="http://www.w3.org/2000/svg" viewBox="0 0 701.42 1051.57"><defs><style>.cls-1{fill:none;}.cls-2{fill:#b11b4b;}.cls-3{fill:#d3aa75;}.cls-4{fill:#be905d;}.cls-5{fill:#e1ddcd;}.cls-6{fill:#26193e;}.cls-7{fill:#dbe2f1;}.cls-8{fill:#c52254;}.cls-9{fill:#bcd;}.cls-10{fill:#881e45;}.cls-11{fill:#fff;}.cls-12{fill:#714e36;}.cls-13{fill:#ed2c65;}.cls-14{fill:#f3fafb;}</style></defs><g id="Layer_2" data-name="Layer 2"><g id="Layer_1-2" data-name="Layer 1"><polygon class="cls-1" points="484.62 480.53 487.59 478.79 492.12 476.15 496.55 473.6 503.63 469.52 503.62 469.51 484.62 480.47 484.62 480.53"/><polygon class="cls-1" points="679.9 368.01 701.38 355.66 679.9 367.92 679.9 368.01"/><polygon class="cls-1" points="543.02 446.8 599.63 414.15 611.53 407.29 543.01 446.78 543.02 446.8"/><path class="cls-1" d="M621.8,421.86l-.15.08c0,.12-.08.24-.12.37C617.2,434.37,608,445.11,598,448.59a17.29,17.29,0,0,1-5.94,1.13,11.29,11.29,0,0,1-7.82-3,9,9,0,0,1-1.7-2l-.06-.07c-4.34,12.06-13.57,22.8-23.56,26.29a17.43,17.43,0,0,1-5.93,1.13,11.26,11.26,0,0,1-7.82-3,8.47,8.47,0,0,1-1.7-2l-.19-.19v.36a3.25,3.25,0,0,1-.28.85c-4.33,12.06-13.57,22.8-23.56,26.28a17.19,17.19,0,0,1-5.93,1.13,11.27,11.27,0,0,1-7.82-3,8.73,8.73,0,0,1-1.7-2l-.19-.19v-.76l-.22.13c-.06.22-.15.43-.22.65-3.27,9.12-9.35,17.46-16.43,22.51L584,568.09v.66l57.24-144.94a25.91,25.91,0,0,1-3.82,1.72,17.53,17.53,0,0,1-5.94,1.13,11.3,11.3,0,0,1-7.82-3,8.32,8.32,0,0,1-1.7-2l-.16-.16,0,0Z"/><path class="cls-1" d="M131.59,733.12V498.56l0,0V733.11Z"/><polygon class="cls-1" points="670.16 373.48 661.81 378.25 655.47 381.91 670.16 373.48"/><polygon class="cls-2" points="221.42 786.13 221.33 786.38 221.59 786.23 221.42 786.13"/><polygon class="cls-2" points="131.56 498.54 131.59 498.56 131.59 422.83 130.07 421.93 131.56 422.82 131.56 498.54"/><polygon class="cls-2" points="159.54 515.16 164.26 517.98 184.04 529.76 184.04 453.99 139.66 427.63 139.66 503.38 159.54 515.16"/><polygon class="cls-2" points="134.95 500.55 134.95 424.83 131.59 422.83 131.59 498.56 134.95 500.55"/><polygon class="cls-2" points="240.89 802.55 221.33 791.12 221.33 786.38 188.75 768.85 188.75 859.29 188.75 946.41 208.63 958.57 213.35 961.3 233.23 973.08 233.23 853.06 233.23 798.11 237.94 800.84 237.94 852.4 237.94 975.81 251.88 984.01 257.82 987.5 262.53 990.32 281 1001.25 281 846.37 281 825.98 240.89 802.55"/><polygon class="cls-2" points="17.5 355.06 17.7 354.95 17.27 354.69 17.08 836.92 17.08 844 36.59 855.49 36.59 821.35 36.59 442.23 36.59 419.9 36.59 366.4 17.5 355.06"/><polygon class="cls-2" points="82.45 393.64 41.29 369.19 41.29 417.16 41.29 444.96 41.29 682.82 41.29 683.44 41.29 817.59 41.29 858.22 42.05 858.69 61.18 869.9 65.89 872.64 71.19 875.76 85.77 884.32 85.77 873.71 85.77 782.09 85.77 710.39 85.77 707.67 85.77 471.34 85.77 395.61 82.45 393.64"/><path class="cls-2" d="M137.15,741.07l-5.56-3v-5h0V422.82l-1.49-.89L90.48,398.41V887.06l19.88,11.68,3,1.79,1.69,1L135,913.72V745l4.71,121.17v50.38l19.88,12.15,4.72,2.83L184,943.59V766.31l1.55.84Z"/><polygon class="cls-2" points="36.59 366.4 36.59 366.21 17.7 354.95 17.5 355.06 36.59 366.4"/><polygon class="cls-2" points="82.45 393.64 82.55 393.58 65.89 383.71 61.18 380.89 41.29 369.01 41.29 369.19 82.45 393.64"/><polygon class="cls-2" points="130.07 421.93 115.07 413.02 110.36 410.19 90.48 398.32 90.48 398.41 130.07 421.93"/><polygon class="cls-2" points="85.77 395.61 85.77 395.49 82.55 393.58 82.45 393.64 85.77 395.61"/><path class="cls-3" d="M603.89,576.06h0l10.76,6.16-4.12,2.38-145.72,84-220.17,127-3.71,2.14L281,821.23l4.27,2.5,12,7,223.43-129,133.5-77,16.17-9.33,1.12-.65L688,624.2l0,0ZM503.14,691.38,281,819.52l-1.24.71L260.2,808.8l4.05-2.33L483.71,679.86l146.91-84.75,3.11-1.79,19.79,11.32-2,1.15Z"/><polygon class="cls-3" points="306.4 583.41 306.4 583.28 306.38 583.25 306.38 590.73 306.4 590.66 306.4 583.41"/><polygon class="cls-3" points="294.55 622.04 298.13 612.56 302.47 601.08 293.29 595.56 282.04 625.4 280.15 630.4 279.64 631.75 221.42 786.13 221.59 786.23 221.59 786.24 230.51 791.47 230.64 791.12 231.64 788.47 235.44 778.42 235.53 778.19 239.14 768.63 239.95 766.49 294.07 623.29 294.55 622.04"/><path class="cls-3" d="M583.23,582.19l5.68,3.42,0-.07,3.39-8.48,2.44-6.11L663.1,399.9l-.21-.24a9,9,0,0,1-.8-.94l-.19-.19v-.08l-.77.45a3.4,3.4,0,0,0-.12.34c-3.77,10.5-11.26,20-19.73,24.57L584,568.75l-4.29,10.86-.15.39,2.82,1.7Z"/><polygon class="cls-4" points="610.53 584.6 614.65 582.22 603.89 576.06 603.49 577.07 600.46 578.83 588.94 585.54 588.91 585.61 583.23 582.19 582.42 581.7 579.6 580 579.75 579.61 445.38 657.13 250.03 769.82 249.86 770.28 245.28 782.4 245.22 782.58 233.64 789.57 230.51 791.47 221.59 786.24 221.59 786.23 221.33 786.38 221.42 786.44 221.42 786.38 240.93 797.79 244.64 795.65 464.81 668.65 610.53 584.6"/><polygon class="cls-4" points="651.52 605.79 653.52 604.64 633.73 593.32 630.62 595.11 483.71 679.86 264.25 806.47 260.2 808.8 279.76 820.23 281 819.52 503.14 691.38 651.52 605.79"/><polygon class="cls-4" points="687.96 624.2 671.49 614.77 670.37 615.42 654.2 624.75 520.7 701.8 297.27 830.75 313.94 840.5 315.67 841.51 316.82 842.18 318.74 841.08 540.13 713.32 654.2 647.49 691.27 626.1 687.96 624.2"/><polygon class="cls-2" points="221.59 476.21 221.33 475.88 221.33 476.14 221.52 476.25 221.59 476.21"/><polygon class="cls-2" points="221.33 475.85 221.33 475.86 221.33 475.86 221.33 475.85"/><polygon class="cls-2" points="302.66 600.56 302.63 600.58 302.45 601.06 302.47 601.08 302.66 600.56"/><polygon class="cls-2" points="300.66 576.02 262.84 528.26 262.83 528.27 300.66 576.03 300.66 576.02"/><polygon class="cls-2" points="221.61 476.2 221.59 476.21 262.83 528.27 262.84 528.26 221.61 476.2"/><polygon class="cls-2" points="221.61 476.2 221.33 475.86 221.33 475.86 221.33 475.88 221.59 476.21 221.61 476.2"/><polygon class="cls-2" points="300.66 576.02 300.66 576.03 306.38 583.25 306.38 583.24 300.66 576.02"/><path class="cls-5" d="M345.82,580.67l.06,0h0l0,0Z"/><path class="cls-5" d="M345.87,580.63l0,0s0,0,0,.06Z"/><path class="cls-5" d="M384.89,558.22l.28-.19-.27.16Z"/><path class="cls-5" d="M385.17,558v-.66a2.72,2.72,0,0,1-.27.82Z"/><polygon class="cls-5" points="543.26 446.89 543.15 446.95 543.26 447.1 543.26 446.89"/><path class="cls-5" d="M621.65,421.94l.15-.08v-.33h0A1.25,1.25,0,0,1,621.65,421.94Z"/><path class="cls-5" d="M621.8,421.53h0Z"/><polygon class="cls-6" points="221.33 551.87 213.35 547.1 208.63 544.37 188.75 532.49 184.04 529.76 164.26 517.98 159.54 515.16 139.66 503.38 134.95 500.55 131.59 498.56 131.59 716.74 264.06 639.75 280.15 630.4 282.04 625.4 293.29 595.56 221.33 552.36 221.33 551.87"/><polygon class="cls-6" points="306.38 598.4 306.4 598.38 306.4 590.66 306.38 590.73 306.38 598.4"/><path class="cls-6" d="M577.07,735.23l-1.21.7L417.93,827.19l-34.7,20v30.28l-.14,3.59v38.43l19.47-11.25L582.92,804.08l9.31-5.38.11-54.41,0-17.9Zm-32.55,36.39,7-3.83L559,782.41l7.51-22.89,6.37-3.5L562,789.26v15l-6.52,3.65V792.77ZM409.27,846l7-3.83v24.05c0,7.82,2.24,10.47,6.69,8a11.65,11.65,0,0,0,5-5.59,24,24,0,0,0,1.71-9.81v-24l6.82-3.75v24.32a37.13,37.13,0,0,1-3.55,16.69,24.43,24.43,0,0,1-10,10.73c-4.29,2.4-7.62,2.55-10,.43s-3.59-6.37-3.59-12.78Zm69.37,4.87L473.08,854l-7.1-8.74-7.56-9.29v26.24l-6.74,3.77V822.66l.48-.27,5.17-2.84,1.53,1.9L472,837.67V811.51l6.69-3.68v43Zm21.93-12.26-6.7,3.75V799.46l6.7-3.68v42.8Zm27.64-15.47-6.62,3.7V792.25l-5.3,2.93-3.89,2.14v-8.05l22-12.08,3-1.63v8l-9.13,5v34.51Z"/><polygon class="cls-7" points="281.33 1051.57 672.19 826.74 672.19 791.65 281.33 1016.4 281.33 1051.57"/><polygon class="cls-7" points="672.19 791.65 672.19 791.57 672.08 791.59 672.19 791.65"/><polygon class="cls-7" points="579.75 579.61 584.04 568.75 584.04 568.1 438.22 652.88 253.68 760.17 250.03 769.82 445.38 657.13 579.75 579.61"/><path class="cls-7" d="M503.82,489.86a9,9,0,0,0,1.7,2,11.29,11.29,0,0,0,7.82,3,17.29,17.29,0,0,0,5.94-1.13c10-3.48,19.22-14.22,23.55-26.28a2.92,2.92,0,0,0,.28-.85v-.36h0v-.07h0V446.8l-39.47,22.71h0v19.4h0v.76Z"/><path class="cls-7" d="M584.23,446.43a11.26,11.26,0,0,0,7.82,3,17.19,17.19,0,0,0,5.93-1.13c10-3.48,19.22-14.23,23.56-26.28,0-.13.07-.25.12-.37a1.66,1.66,0,0,0,.14-.41h0s0,0,0-.06V401.39l-2.41,1.39-.1.05-.17.1-36.39,20.93v19.67a1.18,1.18,0,0,1-.1.3c0,.14-.08.27-.14.41l0,.14h0l.07.07A8.73,8.73,0,0,0,584.23,446.43Z"/><path class="cls-7" d="M679.79,367.9l-18,10.36v20.16l.19.19a7.13,7.13,0,0,0,.8.93l.21.25a8.7,8.7,0,0,0,.68.8,11.29,11.29,0,0,0,7.82,3c.3,0,.61-.07.9-.09a17.3,17.3,0,0,0,5-1c10-3.48,19.22-14.23,23.56-26.29a3.08,3.08,0,0,0,.28-.84l.15-19.69Z"/><path class="cls-8" d="M515.27,207.22c-.32,1.14-.69,2.32-1.06,3.49a349.68,349.68,0,0,1-17,43.44c-1.55,3.31-3.11,6.63-4.76,9.88l-1.67,3.25c-2,3.82-4.06,7.57-6.17,11.28a312.69,312.69,0,0,1-23.79,36c-.7.93-1.41,1.84-2.11,2.71a237.55,237.55,0,0,1-35.29,36.6c-.77.63-1.54,1.27-2.33,1.89a169.51,169.51,0,0,1-17.76,12.51,132.27,132.27,0,0,1-19.4,9.84c-.79.32-1.58.63-2.35.91-12.51,4.75-24.4,6.64-35.38,5.88a18.37,18.37,0,0,1-2.13-.17A61.74,61.74,0,0,1,314,373.54c-.59-.4-1.14-.82-1.69-1.26-.2-.15-.38-.35-.58-.5-5.23-2.18-20-10.27-24-13.17L286,357.29a77.08,77.08,0,0,1-19.28-22.38c-.9-1.53-1.84-3-2.68-4.63-.37-.72-.72-1.44-1.09-2.16a127.18,127.18,0,0,1-10.11-32c-.51-2.76-1-5.53-1.41-8.42l-.36-2.88a141.29,141.29,0,0,1-1.2-16.33,57.41,57.41,0,0,1-.24-6.48A225.3,225.3,0,0,1,251,235.09c.12-1.21.24-2.29.36-3.37.43-3.79,1-7.59,1.57-11.4L17.7,355l18.88,11.26v0L41.29,369l19.89,11.88,4.71,2.82,16.66,9.87,3.22,1.91,4.71,2.83,19.88,11.87,4.71,2.83,15,8.91,1.52.9,3.36,2v-.22l4.71,2.82v.2L184,454v-.27l4.71,2.83v.24l32.58,19.35v-.28h0l118.29-68.22h0l3.51-2L484.62,324l12.7-7.33,0-.05,21.53-12.34L551,285.76l43.86-25.29.38.38,0,0,21.43-12.18-97.11-57.16C518.26,196.79,516.85,202,515.27,207.22Z"/><path class="cls-8" d="M637.13,392.58l-15.31,8.81h0v20.15l0,0,.16.16a8.73,8.73,0,0,0,1.7,2,11.29,11.29,0,0,0,7.82,3,17.29,17.29,0,0,0,5.94-1.13,25.84,25.84,0,0,0,3.82-1.71c8.47-4.59,16.52-14.54,20.29-25,0-.11.06-.22.11-.34a1.29,1.29,0,0,0,.17-.5V378.22Z"/><path class="cls-8" d="M543,447V467h0V467h0l.19.19a8.47,8.47,0,0,0,1.7,2,11.26,11.26,0,0,0,7.82,3,17.43,17.43,0,0,0,5.93-1.13c10-3.49,19.22-14.23,23.56-26.29h0s0-.09,0-.14.09-.27.14-.41a.88.88,0,0,0,.1-.3L582.33,424,543,446.86Z"/><path class="cls-6" d="M486.91,512.87l-.13,0c-.36.26-.73.5-1.1.74Z"/><path class="cls-8" d="M485.68,513.56l-3.36,1.91A29.75,29.75,0,0,0,485.68,513.56Z"/><path class="cls-8" d="M484.58,480.55l-20.47,11.78v20h0v.14l.19.19a8.69,8.69,0,0,0,1.69,2,11.34,11.34,0,0,0,7.82,3H474a17.44,17.44,0,0,0,5.73-1.11,24.53,24.53,0,0,0,2.57-1.07l3.36-1.91c.37-.24.74-.48,1.1-.74l.09-.06c7.08-5.05,13.16-13.39,16.43-22.51a6.23,6.23,0,0,0,.22-.65c0-.07.07-.13.07-.2l0-19.91Z"/><polygon class="cls-9" points="0 850.56 0 885.73 281.33 1051.57 281.33 1016.4 48.2 878.98 0 850.56"/><path class="cls-9" d="M566.21,728.8,388.86,831.26l-16.65,9.62-.15,97.74L606.2,803.34v-2.53l.07-48.25.07-46.95Zm26,69.9-9.31,5.38L402.55,908.29l-19.47,11.25V881.11l.14-3.59V847.24l34.7-20,157.93-91.26,1.21-.7,15.31-8.84,0,17.9Z"/><polygon class="cls-9" points="185.69 767.15 188.85 768.85 221.43 786.38 227.57 769.88 152.96 728.52 133.28 717.63 131.69 716.74 131.69 718.56 131.69 733.12 131.69 738.08 137.25 741.07 185.69 767.15"/><polygon class="cls-10" points="36.59 366.21 36.59 366.4 36.59 419.9 36.59 442.23 36.59 680.16 36.59 680.52 36.59 821.35 36.59 855.49 41.29 858.22 41.29 817.59 41.29 683.44 41.29 682.82 41.29 444.96 41.29 417.16 41.29 369.19 41.29 369.01 36.59 366.19 36.59 366.21"/><polygon class="cls-10" points="85.77 395.61 85.77 471.34 85.77 707.67 85.77 710.39 85.77 782.09 85.77 873.71 85.77 884.32 90.48 887.06 90.48 873.05 90.48 778.33 90.48 713.21 90.48 710.29 90.48 474.17 90.48 398.41 90.48 398.32 85.77 395.49 85.77 395.61"/><polygon class="cls-10" points="134.95 424.83 134.95 500.55 139.66 503.38 139.66 427.63 139.66 427.44 134.95 424.61 134.95 424.83"/><polygon class="cls-10" points="134.95 742.82 134.95 866.83 134.95 913.72 139.66 916.55 139.66 866.16 139.66 742.46 134.95 739.88 134.95 742.82"/><polygon class="cls-10" points="184.04 453.99 184.04 529.76 188.75 532.49 188.75 456.79 188.75 456.55 184.04 453.72 184.04 453.99"/><polygon class="cls-10" points="184.04 766.31 184.04 859.95 184.04 943.59 188.75 946.41 188.75 859.29 188.75 768.85 185.59 767.15 184.04 766.31"/><polygon class="cls-10" points="233.23 798.11 233.23 853.06 233.23 973.08 237.94 975.81 237.94 852.4 237.94 800.84 233.23 798.11"/><polygon class="cls-11" points="672.08 791.59 654.2 780.98 654.2 785.62 634.84 796.8 610.94 810.61 571.71 833.29 528.45 858.27 489.22 880.95 445.96 905.93 406.77 928.57 363.51 953.56 324.28 976.23 281.02 1001.22 281 1001.25 262.53 990.32 257.82 987.5 251.88 984.01 237.94 975.81 233.23 973.08 213.35 961.3 208.63 958.57 188.75 946.41 184.04 943.59 164.26 931.53 159.54 928.7 139.66 916.55 134.95 913.72 115.07 901.57 113.38 900.53 110.36 898.74 90.48 887.06 85.77 884.32 71.19 875.76 65.89 872.64 61.18 869.9 42.05 858.69 41.29 858.22 36.59 855.49 17.08 844 17.08 836.92 0 850.56 48.2 878.98 281.33 1016.4 672.19 791.65 672.08 791.59"/><polygon class="cls-11" points="363.02 835.48 362.88 933.21 372.06 938.62 372.21 840.88 388.86 831.26 566.22 728.8 606.35 705.61 597.16 700.2 557.06 723.37 364.39 834.69 363.02 835.48"/><path class="cls-11" d="M349.54,182a8.34,8.34,0,0,1,1-.67c1.35-.74,2.15-.42,2.05,1.36a12.63,12.63,0,0,1-.53,2.71c-.48,1.68-.3,2.71.19,3.3a2,2,0,0,0,2,.57c1.88-.35,2-2.8,2.11-4.85,0-.66,0-1.41.09-2.09a2.54,2.54,0,0,1,.4-1.14,1.59,1.59,0,0,1,1.07-.62s.05,0,.09,0c1.5-.19,2.34.72,2.24,3.26l0,1c-.14,5.57.15,10.85-2.59,17.06s-4.06,13.19-4.76,20c2.2-1.3,4.12-1.13,4.31,2.1a10.51,10.51,0,0,1-3.79,8.36c-2.74,2.4-3.93,4.92-1.13,6.6.09.06.2.06.29.11,2.73,1.24,7.56-1.84,6.89,6.21l1,.16c4.41-4.47,5.35,1.05,7.71,2.77,4.1,3,7.22,6.57,5.13,15.76l.67,1.08c2.93-2.49,3.77-7,5.44-10.56.64-1.37,0-3.86,1.85-4.15,2.09-.35.82,2.8,1.19,4.26,1,3.9-1.32,9.29-.58,13.22a5.76,5.76,0,0,0,.64,1.87c1.19,2,.95,4-1.11,5.37-1.54,1-4.37,4.16-3.5-1.76.24-1.66-.08-2.79-1.41-2.17-.86.4-1.34,1.55-1.76,2.71-.88,2.37-.77,4.34.53,5,2.92,1.45,2.83,4.83,1.54,9.47-.54,2-.66,4.06.28,5.39,1.54-.74,2.44-2.45,3.3-4.51s.66-5.84,3.45-5.54c2.31.25,3.21,2.17,3.2,5.7,0,3.9-.38,8.1.44,11.91a8.65,8.65,0,0,0,2.37-6.19c0-4.36,3.77-5.8,3.86-5a3.82,3.82,0,0,0,.78,2.06c1.51,1.85,4.63.05,5.54,3.32a8.22,8.22,0,0,0,1.33,2.4c.95,1.29,2.05,2.34,2.29,2.27.47-.13.95-.23,1.42-.33,4.67-1,9.33-.91,14.07-5.21.64-3.35-2.52-2.53-1.49-6.5,1.63-.46,3.63-2.11,4.07,1.55.2,1.65,1.66,3.43,0,5.17-4.57,4.8-.91,4.65,0,6.71,1.5,3.26,5.33-.09,6.4,3,.87,2.53,1.67,1.65,3.35.67,4.73-2.79,6.47-10,9.68-14.82,1.83-2.78-.71-5.3-.24-8.44.74-4.86-.94-6.47-3.54-5.64-2.19.7-4.52,3.69-6,.05-.27-.64-1.62.71-1,2.53a2.6,2.6,0,0,1-1.52,3.16c-2.44,1.27-3.44-2-5.38-2.36a2,2,0,0,0-.85,0,9.25,9.25,0,0,0,.17-3.2c-.5-3.38-4.24-1-5.64-2.65,1.25-4.67,4.58-4.62,6.14-8.32-1.31-1.44-2.81-2.33-.53-6.28,3.76-6.51,7.88-11.1,12.85-12.36,1.75-.44,3.32-1.11,3.08-4a23.91,23.91,0,0,1,1.43-9.11,71,71,0,0,0,2.1-7.35,23.05,23.05,0,0,1,1.05-4c.8-2,1.95-3.06,4-2.49,1.08.31,2.17.58,2.42-2.17.41-4.49,2.33-8.08,4.78-11.45-5-2.33-5.71-3.67-2.77-10.77,3.32-8,2.52-13-.31-16.85-.28-.39-.57-.78-.9-1.16.36,1,.16,3.47.36,6.12-3.83-3.26-7.93-1.17-11.68-1.79,2.14-2.59,3.32-9.64,4.82-7.92,1.95,2.27,4.27,2,6.22,3.21a2.42,2.42,0,0,1,.14-2.9c.13-.11.25-.25.41-.26,4.78-.27,6.9-10.28,11.5-10.63.72-.05,1.55-1.09,1.72-2.33a6.34,6.34,0,0,1,.57-1.86c.05-.11.12-.21.18-.33,1.64-3,5.16-4.07,5.08-9.22,0-.85,3.49-3.47,4.33-.25.41,1.58,1,2.41,1.69,2.7,1,.41,2.2-.33,3.43-1.87,2.52-3.14,1.62-6.25.49-8.66a4.44,4.44,0,0,0-1.63-2.07c-1.05-.58-2.29,0-3.67,2.62-1.26,2.36-2.4,3.44-3.8,2.34-1.7-1.35-.33-4.14.35-5.91,2.17-5.63,1-8.75-1.74-10-2.23-1-1.94-2.12-.51-5.12,2.33-4.93,2.71-6.74,1-8.19a9.22,9.22,0,0,0-1.87-1.17c-1.38-.68-3.08-1.78-4.46-.92-3,1.9-3.5-.86-4.26-4.65-1.17,4.24,0,7.92-2.7,9.83-1.39,1-3.34,2-4.16.56-1.14-2-.08-5.31.81-8,.73-2.23,1.11-5.8,3.45-4.85,1.17.48,1.82.61,2.64-1.6,1-2.64.2-3.42-.93-4.31-1.57-1.23-3-2.81-4.65-4.41-.87,2.1-1.52,4-2.38,5.66s-1.16,4.74-2.79,3.82-3.58-4.44-2.44-6.38c3.89-6.6-.86-10.36,1-16.11.18-.53-1.16-3.91-3.71-3.41-3.09.61-6.11,1.13-9.27,3.48.54-7.85,5.33-7.3,9.16-11.87-6.08.41-10.42-1.53-15.67,1.26-2.58,1.37-6.13,5.35-7.37-.81-.15-.71-1.38-.71-2.05.31-4.55,7-7.61,4.08-10.64.6-1.08-1.22-1.46-1.79-3.34,1.27-5.07,8.23-6.89,8.43-9.28,4-1.89-3.5-3.33-2.94-5.16,2-1.37,3.67-.89,8-3.31,11.38-.91-1-.08-4.87-1.37-3.54-2.39,2.47-5.84,1.55-7.25,6.34-2.8,9.57-8.77,13.75-13.87,19-3.2,3.26-5.14,5.58-4.3,10.56.22,1.34,1.1,3.65-.81,4.09-4.07,1-4.73,7.56-4.43,8.66,2.27,8.45-3.26,16.7-4.25,24.91-.15,1.16-.53,2.36-.74,3.53-.05.26-.11.53-.16.79a19.46,19.46,0,0,1-2.78,7.63,11,11,0,0,0-1.17,2.1,5.88,5.88,0,0,0-.47,2.53,6.78,6.78,0,0,0,.45,2.29C346.11,182.19,346.84,184.05,349.54,182Zm98.3-22.8c.56,6.17.56,6.17-5.6,8.89C444.72,164.15,446.2,161.79,447.84,159.2Zm-13.52,52.86c1.13-2.32-.16-6,2.57-7,1.1-.4,2,.87,1.1,3.09s-.09,5.34-2.55,6.46C434.29,214.61,433.71,213.29,434.32,212.06ZM411.4,245.93a2.37,2.37,0,0,1,.41.17c-.26.24-.48.47-.73.71-2.69,2.63-4.93,5.08-8.56,5.19C406,248.21,408.12,244.31,411.4,245.93ZM370.21,218.8c1.42-1.93,3.92-3.57,4.66-1.35.92,2.78,2,3.19,4.22,2.41s1.65,1.48,1.48,3.11c-.07.64-.08,1.19.15,1.41a17.2,17.2,0,0,1-1.05,7.46,5.19,5.19,0,0,1-2,2.22c-1.13.67-1.08-.84-1-1.88a7.18,7.18,0,0,0-1.88-5.91c-.26-.28-.52-.56-.8-.81-.62-.55-1.17-2-2.3-.21s-2.27,4.22-3.13,1.63C367.77,224.5,368.51,221.11,370.21,218.8Z"/><path class="cls-11" d="M352.86,222s0-.08,0-.11l-.09,0Z"/><path class="cls-11" d="M450.5,177.54a.67.67,0,0,0-.24-.36.05.05,0,0,0,0,0,3.69,3.69,0,0,0,.25.34Z"/><path class="cls-11" d="M409.27,846v24.47q0,9.62,3.59,12.78c2.4,2.12,5.73,2,10-.43a24.43,24.43,0,0,0,10-10.73,37.13,37.13,0,0,0,3.55-16.69V831.05l-6.82,3.75v24a24,24,0,0,1-1.71,9.81,11.65,11.65,0,0,1-5,5.59c-4.45,2.48-6.69-.17-6.69-8V842.14Z"/><polygon class="cls-11" points="471.95 837.67 458.86 821.45 457.33 819.55 452.16 822.39 451.68 822.66 451.68 859.44 451.68 865.93 458.43 862.16 458.43 852.73 458.43 835.92 465.98 845.21 473.08 853.95 478.64 850.84 478.64 832.62 478.64 818.68 478.64 807.83 471.95 811.51 471.95 819.62 471.95 837.67"/><polygon class="cls-11" points="493.87 817.48 493.87 842.33 500.57 838.58 500.57 815.61 500.57 810.81 500.57 795.78 493.87 799.46 493.87 816.55 493.87 817.48"/><polygon class="cls-11" points="521.59 826.81 528.21 823.11 528.21 811.74 528.21 788.6 537.34 783.57 537.34 775.56 534.37 777.19 512.4 789.27 512.4 797.32 516.29 795.17 521.59 792.25 521.59 812.67 521.59 826.81"/><polygon class="cls-11" points="561.99 804.21 561.99 789.26 572.89 756.02 566.52 759.52 559.01 782.41 551.48 767.79 544.52 771.62 555.47 792.76 555.47 807.86 561.99 804.21"/><polygon class="cls-12" points="654.2 647.49 540.13 713.32 318.74 841.08 316.82 842.18 315.67 841.51 313.94 840.5 297.27 830.75 285.27 823.73 281 821.23 240.93 797.79 221.42 786.38 221.42 786.44 221.33 786.38 221.33 791.12 240.89 802.55 281 825.98 309.14 842.43 313.94 845.23 313.94 845.23 316.82 846.92 329.57 839.56 544.2 715.74 654.2 652.29 691.09 631 691.27 626.1 654.2 647.49"/><path class="cls-12" d="M603.48,577.07l.41-1h0l68.62-172.43c-.3,0-.61.08-.9.08a11.26,11.26,0,0,1-7.82-3,8.8,8.8,0,0,1-.69-.8L594.77,571l-2.44,6.11-3.39,8.48,11.52-6.71Z"/><path class="cls-13" d="M329.57,839.56l-12.75,7.36-2.88-1.69h0l-4.8-2.8-28-16.34-.16.09v175l43.26-25,39.23-22.67,43.26-25L446,905.93l43.26-25,39.23-22.68,43.26-25,39.23-22.68,23.9-13.81,19.36-11.18V652.29l-110,63.45ZM597.16,700.2l9.19,5.41-.07,46.95-.07,48.25v2.53L372.06,938.62l-9.18-5.41.14-97.73,1.37-.79L557.06,723.37Z"/><polygon class="cls-13" points="577.26 271.41 577.11 271.21 595.24 260.9 595.2 260.85 594.82 260.47 550.96 285.76 518.81 304.3 536.66 294.07 537.06 294.56 578.31 346.57 621.76 401.36 621.82 401.32 627.6 397.99 655.47 381.91 661.81 378.25 577.26 271.41"/><polygon class="cls-13" points="458.26 339.94 484.62 373.17 499.52 391.95 543.01 446.78 582.33 424.03 538.94 369.24 497.73 317.21 497.32 316.69 484.62 324.02 343.12 405.62 378.99 385.06 379.28 385.42 420.54 437.44 464.07 492.32 484.62 480.47 503.62 469.51 484.62 445.52 460.15 414.62 418.94 362.58 418.75 362.35 458.13 339.77 458.26 339.94"/><polygon class="cls-13" points="221.33 475.88 221.33 475.86 221.32 475.86 221.33 475.88"/><polygon class="cls-13" points="306.38 583.24 306.38 583.25 306.4 583.28 306.4 583.18 308.85 581.77 310.02 581.1 313.09 579.32 345.65 560.6 326.78 536.76 319.11 527.09 302.13 505.64 260.9 453.58 260.69 453.32 300.07 430.74 300.22 430.94 337.6 478.06 341.49 482.96 345.3 487.76 384.93 537.72 385.17 537.58 385.17 537.77 425.66 514.44 424.66 515.01 381.18 460.11 363.96 438.37 356.24 428.63 339.95 408.06 339.62 407.64 221.33 475.86 221.61 476.2 262.84 528.26 300.66 576.02 306.38 583.24"/><path class="cls-13" d="M249.87,268.46a141.29,141.29,0,0,0,1.2,16.33l.36,2.88c.38,2.89.9,5.66,1.41,8.42a127.18,127.18,0,0,0,10.11,32c.37.72.72,1.44,1.09,2.16.84,1.63,1.78,3.1,2.68,4.63A77.08,77.08,0,0,0,286,357.29l1.68,1.32c4.06,2.9,18.8,11,24,13.17.2.15.38.35.58.5.55.44,1.1.86,1.69,1.26a61.74,61.74,0,0,0,30.1,11.18,18.37,18.37,0,0,0,2.13.17c11,.76,22.87-1.13,35.38-5.88.77-.28,1.56-.59,2.35-.91a132.27,132.27,0,0,0,19.4-9.84,169.51,169.51,0,0,0,17.76-12.51c.79-.62,1.56-1.26,2.33-1.89a237.55,237.55,0,0,0,35.29-36.6c.7-.87,1.41-1.78,2.11-2.71a312.69,312.69,0,0,0,23.79-36c2.11-3.71,4.18-7.46,6.17-11.28l1.67-3.25c1.65-3.25,3.21-6.57,4.76-9.88a349.68,349.68,0,0,0,17-43.44c.37-1.17.74-2.35,1.06-3.49,1.58-5.2,3-10.43,4.29-15.66a296.4,296.4,0,0,0,7.05-38.46c.14-1.15.26-2.25.37-3.38A243.36,243.36,0,0,0,528.27,123a201,201,0,0,0-1.43-23c-.11-1-.24-1.94-.38-2.92-2.12-15.48-6.09-29-11.6-40.35-.36-.73-.72-1.46-1.08-2.16-5.84-11.34-13.26-20.44-22-27l-.73-.53a2.6,2.6,0,0,0-.24-.29,38.29,38.29,0,0,0-4.74-2.89c-1.56-.93-3.14-1.82-4.77-2.61-6.77-3.66-14.8-7.88-15.86-8.65a20.36,20.36,0,0,0-1.68-1.2,62.06,62.06,0,0,0-30-11.17,13,13,0,0,0-2.16-.12c-11-.72-22.93,1.08-35.41,5.89a18.46,18.46,0,0,0-2.28,1,126.28,126.28,0,0,0-19.33,9.72,171.71,171.71,0,0,0-17.53,12.36,24.18,24.18,0,0,0-2.64,2.17A228.6,228.6,0,0,0,319.38,67.5c-.72.84-1.44,1.8-2.16,2.76a321.43,321.43,0,0,0-30,47.18c-.61,1.08-1.09,2.16-1.69,3.24-1.92,3.72-3.72,7.56-5.52,11.41-.24.6-.6,1.2-.84,1.79A368.84,368.84,0,0,0,263.8,174c-.37,1.2-.72,2.4-1.09,3.48a306,306,0,0,0-9.83,42.86c-.59,3.81-1.14,7.61-1.57,11.4-.12,1.08-.24,2.16-.36,3.37A225.3,225.3,0,0,0,249.63,262,57.41,57.41,0,0,0,249.87,268.46Zm95.34-93.52a11,11,0,0,1,1.17-2.1,19.46,19.46,0,0,0,2.78-7.63c0-.26.11-.53.16-.79.21-1.17.59-2.37.74-3.53,1-8.21,6.52-16.46,4.25-24.91-.3-1.1.36-7.7,4.43-8.66,1.91-.44,1-2.75.81-4.09-.84-5,1.1-7.3,4.3-10.56,5.1-5.22,11.07-9.4,13.87-19,1.41-4.79,4.86-3.87,7.25-6.34,1.29-1.33.46,2.52,1.37,3.54,2.42-3.4,1.94-7.71,3.31-11.38,1.83-5,3.27-5.52,5.16-2,2.39,4.44,4.21,4.24,9.28-4,1.88-3.06,2.26-2.49,3.34-1.27,3,3.48,6.09,6.39,10.64-.6.67-1,1.9-1,2.05-.31,1.24,6.16,4.79,2.18,7.37.81,5.25-2.79,9.59-.85,15.67-1.26-3.83,4.57-8.62,4-9.16,11.87,3.16-2.35,6.18-2.87,9.27-3.48,2.55-.5,3.89,2.88,3.71,3.41-1.84,5.75,2.91,9.51-1,16.11-1.14,1.94.75,5.42,2.44,6.38s2-2.3,2.79-3.82,1.51-3.56,2.38-5.66c1.65,1.6,3.08,3.18,4.65,4.41,1.13.89,1.91,1.67.93,4.31-.82,2.21-1.47,2.08-2.64,1.6-2.34-1-2.72,2.62-3.45,4.85-.89,2.74-2,6-.81,8,.82,1.47,2.77.42,4.16-.56,2.73-1.91,1.53-5.59,2.7-9.83.76,3.79,1.27,6.55,4.26,4.65,1.38-.86,3.08.24,4.46.92a9.22,9.22,0,0,1,1.87,1.17c1.73,1.45,1.35,3.26-1,8.19-1.43,3-1.72,4.16.51,5.12,2.77,1.21,3.91,4.33,1.74,10-.68,1.77-2.05,4.56-.35,5.91,1.4,1.1,2.54,0,3.8-2.34,1.38-2.58,2.62-3.2,3.67-2.62a4.44,4.44,0,0,1,1.63,2.07c1.13,2.41,2,5.52-.49,8.66-1.23,1.54-2.43,2.28-3.43,1.87-.69-.29-1.28-1.12-1.69-2.7-.84-3.22-4.34-.6-4.33.25.08,5.15-3.44,6.24-5.08,9.22-.06.12-.13.22-.18.33A6.34,6.34,0,0,0,464,161c-.17,1.24-1,2.28-1.72,2.33-4.6.35-6.72,10.36-11.5,10.63-.16,0-.28.15-.41.26a2.42,2.42,0,0,0-.14,2.9c-2-1.25-4.27-.94-6.22-3.21-1.5-1.72-2.68,5.33-4.82,7.92,3.75.62,7.85-1.47,11.68,1.79-.2-2.65,0-5.15-.36-6.12.33.38.62.77.9,1.16,2.83,3.88,3.63,8.82.31,16.85-2.94,7.1-2.22,8.44,2.77,10.77-2.45,3.37-4.37,7-4.78,11.45-.25,2.75-1.34,2.48-2.42,2.17-2-.57-3.18.45-4,2.49a23.05,23.05,0,0,0-1.05,4,71,71,0,0,1-2.1,7.35,23.91,23.91,0,0,0-1.43,9.11c.24,2.89-1.33,3.56-3.08,4-5,1.26-9.09,5.85-12.85,12.36-2.28,4-.78,4.84.53,6.28-1.56,3.7-4.89,3.65-6.14,8.32,1.4,1.65,5.14-.73,5.64,2.65a9.25,9.25,0,0,1-.17,3.2,2,2,0,0,1,.85,0c1.94.39,2.94,3.63,5.38,2.36a2.6,2.6,0,0,0,1.52-3.16c-.63-1.82.72-3.17,1-2.53,1.47,3.64,3.8.65,6-.05,2.6-.83,4.28.78,3.54,5.64-.47,3.14,2.07,5.66.24,8.44-3.21,4.87-5,12-9.68,14.82-1.68,1-2.48,1.86-3.35-.67-1.07-3.11-4.9.24-6.4-3-1-2.06-4.61-1.91,0-6.71,1.65-1.74.19-3.52,0-5.17-.44-3.66-2.44-2-4.07-1.55-1,4,2.13,3.15,1.49,6.5-4.74,4.3-9.4,4.21-14.07,5.21-.47.1-.95.2-1.42.33-.24.07-1.34-1-2.29-2.27a8.22,8.22,0,0,1-1.33-2.4c-.91-3.27-4-1.47-5.54-3.32a3.82,3.82,0,0,1-.78-2.06c-.09-.83-3.86.61-3.86,5a8.65,8.65,0,0,1-2.37,6.19c-.82-3.81-.45-8-.44-11.91,0-3.53-.89-5.45-3.2-5.7-2.79-.3-2.57,3.41-3.45,5.54s-1.76,3.77-3.3,4.51c-.94-1.33-.82-3.43-.28-5.39,1.29-4.64,1.38-8-1.54-9.47-1.3-.65-1.41-2.62-.53-5,.42-1.16.9-2.31,1.76-2.71,1.33-.62,1.65.51,1.41,2.17-.87,5.92,2,2.77,3.5,1.76,2.06-1.39,2.3-3.35,1.11-5.37a5.76,5.76,0,0,1-.64-1.87c-.74-3.93,1.58-9.32.58-13.22-.37-1.46.9-4.61-1.19-4.26-1.82.29-1.21,2.78-1.85,4.15-1.67,3.6-2.51,8.07-5.44,10.56l-.67-1.08c2.09-9.19-1-12.77-5.13-15.76-2.36-1.72-3.3-7.24-7.71-2.77l-1-.16c.67-8.05-4.16-5-6.89-6.21-.09,0-.2,0-.29-.11-2.8-1.68-1.61-4.2,1.13-6.6a10.51,10.51,0,0,0,3.79-8.36c-.19-3.23-2.11-3.4-4.31-2.1,0,0,0,.07,0,.11l-.08-.07.09,0c.7-6.78,2-13.73,4.76-20s2.45-11.49,2.59-17.06l0-1c.1-2.54-.74-3.45-2.24-3.26,0,0-.05,0-.09,0a1.59,1.59,0,0,0-1.07.62,2.54,2.54,0,0,0-.4,1.14c-.08.68-.05,1.43-.09,2.09-.15,2.05-.23,4.5-2.11,4.85a2,2,0,0,1-2-.57c-.49-.59-.67-1.62-.19-3.3a12.63,12.63,0,0,0,.53-2.71c.1-1.78-.7-2.1-2.05-1.36a8.34,8.34,0,0,0-1,.67c-2.7,2.05-3.43.19-4.35-2.24a6.78,6.78,0,0,1-.45-2.29A5.88,5.88,0,0,1,345.21,174.94Z"/><path class="cls-13" d="M411.81,246.1a2.37,2.37,0,0,0-.41-.17c-3.28-1.62-5.41,2.28-8.88,6.07,3.63-.11,5.87-2.56,8.56-5.19C411.33,246.57,411.55,246.34,411.81,246.1Z"/><path class="cls-13" d="M435.44,214.6c2.46-1.12,1.67-4.32,2.55-6.46s0-3.49-1.1-3.09c-2.73,1-1.44,4.69-2.57,7C433.71,213.29,434.29,214.61,435.44,214.6Z"/><path class="cls-13" d="M447.84,159.2c-1.64,2.59-3.12,5-5.6,8.89C448.4,165.37,448.4,165.37,447.84,159.2Z"/><path class="cls-13" d="M371.7,225.25c1.13-1.82,1.68-.34,2.3.21.28.25.54.53.8.81a7.18,7.18,0,0,1,1.88,5.91c-.06,1-.11,2.55,1,1.88a5.19,5.19,0,0,0,2-2.22,17.2,17.2,0,0,0,1.05-7.46c-.23-.22-.22-.77-.15-1.41.17-1.63.71-3.88-1.48-3.11s-3.3.37-4.22-2.41c-.74-2.22-3.24-.58-4.66,1.35-1.7,2.31-2.44,5.7-1.64,8.08C369.43,229.47,370.63,227,371.7,225.25Z"/><polygon class="cls-14" points="280.15 630.4 264.06 639.75 131.59 716.74 133.18 717.63 152.87 728.52 227.41 769.81 227.34 770.02 227.47 770.09 279.64 631.75 280.15 630.4"/><polygon class="cls-14" points="302.13 505.64 319.11 527.09 326.78 536.76 345.65 560.6 345.68 560.62 345.69 560.65 345.69 560.61 384.93 537.72 345.3 487.76 341.49 482.96 337.6 478.06 300.22 430.94 300.07 430.74 260.69 453.32 260.9 453.58 302.13 505.64"/><polygon class="cls-14" points="385.2 538.08 385.17 538.04 385.17 538.09 385.2 538.08"/><polygon class="cls-14" points="339.95 408.06 356.24 428.63 363.96 438.37 381.18 460.11 424.66 515.01 425.66 514.44 437.39 507.71 464.13 492.39 464.08 492.33 464.07 492.32 420.54 437.44 379.28 385.42 378.99 385.06 343.12 405.62 339.62 407.63 339.62 407.64 339.95 408.06"/><polygon class="cls-14" points="460.15 414.62 484.62 445.52 503.62 469.51 503.63 469.52 503.79 469.71 503.79 469.53 543.15 446.95 543.02 446.8 543.01 446.78 499.52 391.95 484.62 373.17 458.26 339.94 458.13 339.77 418.75 362.35 418.94 362.58 460.15 414.62"/><path class="cls-6" d="M463.86,513a51.24,51.24,0,0,1-9,15.58l-.24.29a42,42,0,0,1-5.94,5.72l33.67-19.07a24.53,24.53,0,0,1-2.57,1.07,17.44,17.44,0,0,1-5.73,1.11h-.21a11.34,11.34,0,0,1-7.82-3,8.69,8.69,0,0,1-1.69-2l-.19-.19v-.14h0v-.11a1.79,1.79,0,0,1-.16.44C463.91,512.76,463.89,512.86,463.86,513Z"/><path class="cls-7" d="M448.65,534.54l-8.2,4.64A29.37,29.37,0,0,0,448.65,534.54Z"/><path class="cls-7" d="M464.12,492.33,424.69,515h0v.11l-.1,6.77-.19,12.6v.35l0,0,.08.08.09.09a11.77,11.77,0,0,0,9.8,5.33h.11c.17,0,.35-.05.53-.05a17.9,17.9,0,0,0,5.3-1.07l.14-.06,8.2-4.64a42,42,0,0,0,5.94-5.72l.24-.29a51.24,51.24,0,0,0,9-15.58c0-.09.05-.19.09-.28a1.79,1.79,0,0,0,.16-.44s0-.05,0-.07,0,0,0,0h0V492.31Z"/><polygon class="cls-14" points="621.76 401.36 578.31 346.57 537.06 294.56 536.66 294.07 518.81 304.3 497.29 316.64 497.32 316.69 497.73 317.21 538.94 369.24 582.33 424.03 603.42 411.94 611.53 407.29 621.79 401.4 621.78 401.38 621.76 401.36"/><polygon class="cls-14" points="616.67 248.72 595.24 260.9 577.11 271.21 577.26 271.41 661.81 378.25 670.16 373.48 679.9 367.92 701.38 355.66 616.67 248.72"/><path class="cls-1" d="M395,563l-.37,0a11.29,11.29,0,0,1-7.82-3,9,9,0,0,1-1.7-2l-.15-.16a5,5,0,0,1-.26.7v0a50.6,50.6,0,0,1-11,17.68c-.43.45-.86.91-1.31,1.34l-.44.4L400.44,562a18.25,18.25,0,0,1-4.5,1C395.63,563,395.31,563,395,563Z"/><path class="cls-14" d="M486.91,512.87c-1,.74-37.87,21.61-77.73,44.16a29.9,29.9,0,0,1-8.61,4.9l-.13.05L372,578.06a31.68,31.68,0,0,1-10.84,6.86,17.76,17.76,0,0,1-2.12.59c-.12,0-.25.06-.38.09l-24.42,13.79c-.21.22-.43.44-.65.65a32.47,32.47,0,0,1-11.52,7.5,19.26,19.26,0,0,1-2.4.67c-.5.11-1,.18-1.47.25l-9.1,5.13-.44,1.16L254.46,758.13l-.78,2L438.22,652.88,584,568.09Z"/><path class="cls-8" d="M384.93,557.88l0,0a.5.5,0,0,0,0-.12v-20.1l-.05,0v20.16Z"/><path class="cls-7" d="M358.42,585.65l.22,0c.13,0,.26-.05.38-.09a17.76,17.76,0,0,0,2.12-.59A31.68,31.68,0,0,0,372,578.06l.28-.25Z"/><path class="cls-6" d="M384.69,558.64a50.6,50.6,0,0,1-11,17.68c-.43.45-.86.91-1.31,1.34l-.16.15,27.66-15.67a18.48,18.48,0,0,1-4,.8c-.31,0-.63.08-.94.09l-.37,0a11.29,11.29,0,0,1-7.82-3,9,9,0,0,1-1.7-2l-.15-.16a5,5,0,0,1-.26.7Z"/><path class="cls-6" d="M384.93,557.88l0,0a.5.5,0,0,0,0-.12v-8.85l-.05,0v8.91Z"/><path class="cls-6" d="M345.64,580.39a.14.14,0,0,0,0,.06h0c-.06.23-.15.45-.23.67a50.52,50.52,0,0,1-6.41,12.7,48.63,48.63,0,0,1-3.63,4.39c-.34.37-.69.73-1,1.08l24.11-13.65c-.36.08-.72.15-1.08.2a15.81,15.81,0,0,1-2.14.21,11.3,11.3,0,0,1-7.82-3,8.32,8.32,0,0,1-1.7-2h0l0,0s0-.07,0-.11v-5.14h0v4.5S345.64,580.36,345.64,580.39Z"/><path class="cls-12" d="M306.4,603.52v-5.14l0,0v5h0v.06Z"/><path class="cls-6" d="M317.65,608.52c-.52.06-4.9-.23-6.38-.91a11.42,11.42,0,0,1-3-2,9.88,9.88,0,0,1-.66-.77,8.61,8.61,0,0,1-1-1.21l-.14-.14v.05l.19.19a8.61,8.61,0,0,0,1,1.21,8.11,8.11,0,0,0,.66.77,11.42,11.42,0,0,0,3,2l-2.23,5.89,9.06-5.13Z"/><path class="cls-12" d="M308.29,605.74a8.11,8.11,0,0,1-.66-.77,8.61,8.61,0,0,1-1-1.21l-.19-.19v-.05l0,0v-.06l-.6-.36-3.28-2-4.34,11.49L294.54,622l-.47,1.25L240,766.49l-.81,2.14-3.62,9.56-.08.23-3.8,10.05-1,2.64-.13.36,3.13-1.9,11.58-7,.06-.18,4.58-12.11.17-.47,3.65-9.65.78-2,54.18-143.38.44-1.16,2.23-5.89A11.42,11.42,0,0,1,308.29,605.74Z"/><path class="cls-2" d="M345.67,575.78l0-15.17-35.78,20.58-3.52,2h0L300.66,576l-37.83-47.76-41.24-52.06-.07,0-.19-.11-32.58-19.35v75.7l19.89,11.88,4.71,2.73,8,4.77v.49l72,43.2,9.16,5.5h0l3.88,2.34v.06l.19.19a8.61,8.61,0,0,0,1,1.21,9.88,9.88,0,0,0,.66.77,11.42,11.42,0,0,0,3,2c1.48.68,5.86,1,6.38.91l.49-.06h0c.48-.07,1-.14,1.47-.25a19.26,19.26,0,0,0,2.4-.67,32.47,32.47,0,0,0,11.52-7.5c.22-.21.44-.43.65-.65l.09-.09c.35-.35.7-.71,1-1.08a48.63,48.63,0,0,0,3.63-4.39,50.52,50.52,0,0,0,6.41-12.7c.08-.22.17-.44.23-.67h0a.14.14,0,0,1,0-.06s0-.07,0-.11Z"/><path class="cls-7" d="M384.93,557.88V537.72l-39.25,22.92v20.27s0,.08,0,.11l0,0h0a8.32,8.32,0,0,0,1.7,2,11.3,11.3,0,0,0,7.82,3,15.81,15.81,0,0,0,2.14-.21c.36-.05.72-.12,1.08-.2l13.84-7.84.16-.15c.45-.43.88-.89,1.31-1.34a50.6,50.6,0,0,0,11-17.68v0a5,5,0,0,0,.26-.7Z"/><path class="cls-6" d="M414.9,551.46c-.2.24-.39.48-.6.71a42.71,42.71,0,0,1-4.61,4.44l30.76-17.43-.14.06a17.9,17.9,0,0,1-5.3,1.07c-.18,0-.36.05-.53.05h-.11a11.77,11.77,0,0,1-9.8-5.33l-.09-.09-.08-.08h0a4,4,0,0,1-.27.78A51,51,0,0,1,414.9,551.46Z"/><path class="cls-8" d="M399.92,562.14l.52-.16.13-.05a29.9,29.9,0,0,0,8.61-4.9l.51-.42Z"/><path class="cls-8" d="M384.93,537.72h0l.05,0v20.1a.5.5,0,0,1,0,.12l.15.16a9,9,0,0,0,1.7,2,11.29,11.29,0,0,0,7.82,3l.37,0c.31,0,.63-.07.94-.09a18.48,18.48,0,0,0,4-.8l9.77-5.53a42.71,42.71,0,0,0,4.61-4.44c.21-.23.4-.47.6-.71a51,51,0,0,0,9.22-15.82,4,4,0,0,0,.27-.78h0v-.14l.27-19.71Z"/></g></g></svg>