<svg xmlns="http://www.w3.org/2000/svg" viewBox="0 0 916.17 661.47"><defs><style>.cls-1{fill:#ed2c65;}.cls-2{fill:#26193e;}.cls-3{fill:#fff;}.cls-4{fill:none;}</style></defs><g id="Layer_2" data-name="Layer 2"><g id="Layer_1-2" data-name="Layer 1"><path class="cls-1" d="M710.72,331.54c1.94,23.17-6.65,122.69-281.67,182.92-119.19,26.1-231.69,19.63-308.87,8.49,68,69.28,179.57,136.88,299.16,137.56,194.31,1.1,496.41-123.76,496.83-198.34C916.39,423,825.36,371.68,710.72,331.54Z"/><path class="cls-2" d="M710.72,331.54a32.17,32.17,0,0,0-.73-4.94C678.47,207.85,655.44,52.74,514.85,11.23,474.3-.74,408.51,1.81,345.11,10a6.58,6.58,0,0,1,.32,1.38c.9,8.13-13.6,16.4-32.39,18.49-17.25,1.91-32.08-2.06-35.11-9-38.52,7.45-71.55,16-90.89,23C14.2,106.67-29,312.34,17.35,501.57c0,0,39.55,12.25,102.83,21.38,77.18,11.14,189.68,17.61,308.87-8.49C704.07,454.23,712.66,354.71,710.72,331.54Z"/><path class="cls-1" d="M345.11,10C342.65,2.75,327.47-1.48,309.77.48,291,2.57,276.47,10.85,277.37,19a6.89,6.89,0,0,0,.56,1.93c3,7,17.86,10.92,35.11,9,18.79-2.09,33.29-10.36,32.39-18.49A6.58,6.58,0,0,0,345.11,10Z"/><path class="cls-3" d="M567.49,379.08c-6,3.78-12.38,5.45-19.22,4-9.48-2-15.88-7.67-18.57-17.08-1.76-6.17-3.33-12.4-4.85-18.62-.41-1.7-1.06-2-2.64-1.49-3.53,1-7.09,2-10.69,2.78-1.84.4-2,1.15-1.53,2.79,3,11.4,6,22.83,9,34.25a7.46,7.46,0,0,1-2.88,8.16,7.78,7.78,0,0,1-8.69.23,7.54,7.54,0,0,1-3.17-4.77c-2.9-11.26-5.88-22.51-8.76-33.77-.42-1.61-.81-2.37-2.82-2.14a6.41,6.41,0,0,1-3.22-12.2c1.81-.83,1.91-1.7,1.42-3.34-1-3.53-1.9-7.1-2.81-10.67a7.44,7.44,0,0,1,5.12-9.25,7.64,7.64,0,0,1,9.49,5.25c1.08,3.78,2.07,7.6,3,11.42.34,1.46.92,1.64,2.27,1.27,6.36-1.73,12.76-3.36,19.14-5a22.1,22.1,0,0,1,2.24-.54c5-.78,7.8,1,9.12,5.92,2.18,8.19,4.25,16.4,6.44,24.58a8.61,8.61,0,0,0,12.33,5.7c3.8-1.75,5.64-5.89,4.5-10.35-2.06-8-4.21-16.05-6.27-24.08-1.49-5.84,1.91-10.21,7.93-10.33a7.14,7.14,0,0,1,7,4.62,15.57,15.57,0,0,1,.69,2.2q6.21,23.71,12.38,47.42c2.35,9,.46,17.09-5.94,24a23.72,23.72,0,0,1-13.65,7.09,7.39,7.39,0,0,1-8-4.73c-1.49-3.83-.43-7.76,2.73-9.76a11.92,11.92,0,0,1,2.8-1.25c5.68-1.82,8.06-6.33,6.14-12.26"/><path class="cls-3" d="M459.79,384.91q2,7.81,4.08,15.64a7.25,7.25,0,0,1-5.12,9,7.67,7.67,0,0,1-9.39-4.66c-.63-1.86-1-3.8-1.53-5.7-1.88-6.93-3.42-14-5.69-20.77a34.72,34.72,0,0,0-1.49-3.82c-2.84-6-9.26-7.49-14.47-3.29a11.84,11.84,0,0,0-4.38,8.92c-.28,4.49.57,8.84,1.5,13.19a48,48,0,0,1,1.05,8.11,22.36,22.36,0,0,1-14.2,21.94,34.18,34.18,0,0,1-14,2.86c-9.51-.32-16-5.35-20-13.71a87.31,87.31,0,0,1-5-15.06c-1.45-5.37-2.84-10.75-4.22-16.13-1.18-4.59,1.08-8.65,5.42-9.81s8.34,1.24,9.55,5.81c2,7.35,3.83,14.73,5.79,22.09a30.29,30.29,0,0,0,2.75,7.15c2.56,4.56,6.83,6.11,12,4.43,4.67-1.5,7.2-5.48,6.73-10.47a38.72,38.72,0,0,0-1.13-6q-2.94-11.16-5.84-22.34c-1-3.94.19-7.43,3.18-9.19,3.45-2,7.07-1.6,10,1.48,1,1.08,1.33.69,2-.2,3.53-4.55,7.68-8.16,13.48-9.64,11.38-2.89,21,2.34,24.36,13.64,1.64,5.49,2.93,11.08,4.38,16.62Z"/><path class="cls-1" d="M458.47,337.11c6.35,3.71,12.16,7.12,18,10.5a2.66,2.66,0,0,1,1.12,1.92c3.88,14.89,7.8,29.77,11.64,44.68,1.05,4.06-1.41,7.82-5.61,8.92s-8.13-1-9.14-4.83c-5.3-20.17-10.55-40.35-16-61.19"/><path class="cls-4" d="M433,282.84c.07-.07.16-.12.22-.19l0,0A1.37,1.37,0,0,1,433,282.84Z"/><path class="cls-4" d="M421.69,275.28l.9.06h0Z"/><path class="cls-4" d="M419.39,258.26l.11,0-.1,0Z"/><path class="cls-4" d="M419.76,258.35a1.21,1.21,0,0,1,.43.78c.15.75.35,1.48.47,2.22-.12-.74-.31-1.47-.47-2.22A1.21,1.21,0,0,0,419.76,258.35Z"/><path class="cls-4" d="M437.21,285.05a1,1,0,0,1,.22.52h0A1,1,0,0,0,437.21,285.05Z"/><path class="cls-4" d="M434.3,280.16h0a.65.65,0,0,0,0,.13s0-.09.05-.13a1,1,0,0,0,0-.47A.9.9,0,0,1,434.3,280.16Z"/><path class="cls-4" d="M436.06,281.25c.11.74,0,1.53.17,2.25-.15-.69-.06-1.44-.15-2.14C436.08,281.32,436.06,281.29,436.06,281.25Z"/><path class="cls-4" d="M416.38,238.35c.51-.41,1.06-.8,1.59-1.2-.53.4-1.08.79-1.59,1.19a9.52,9.52,0,0,0-.78.67l.06,0A7.88,7.88,0,0,1,416.38,238.35Z"/><path class="cls-4" d="M413.88,243.69a2.17,2.17,0,0,0-.1,1.07s0,0,0-.06A2.06,2.06,0,0,1,413.88,243.69Z"/><path class="cls-4" d="M424,231c.13-.09.21-.1.28,0h0c-.07-.06-.15-.05-.27,0a3.27,3.27,0,0,1-1.07.49l.19-.06A2.53,2.53,0,0,0,424,231Z"/><path class="cls-4" d="M418.49,259.27a.59.59,0,0,0,0,.13s0,.07,0,.1l0-.23a.36.36,0,0,1,0-.1v0A.31.31,0,0,0,418.49,259.27Z"/><path class="cls-4" d="M414.45,248.6a.28.28,0,0,0,0-.09,16.39,16.39,0,0,0-.59,3.83,4.29,4.29,0,0,1,0,.71,4.29,4.29,0,0,0,0-.71A15.16,15.16,0,0,1,414.45,248.6Z"/><path class="cls-4" d="M417,260.47l.13,0h0Z"/><path class="cls-4" d="M435.71,286.71c-.35,0-.63-.18-.65-1a1.08,1.08,0,0,0-.1-.27,1.25,1.25,0,0,1,.1.27C435.08,286.53,435.36,286.74,435.71,286.71Z"/><path class="cls-4" d="M465.66,290.52l.06.1a2.05,2.05,0,0,1-.43-1,1.55,1.55,0,0,0-.06-.31,1.55,1.55,0,0,1,.06.31A1.81,1.81,0,0,0,465.66,290.52Z"/><path class="cls-4" d="M464.65,288.12a1.91,1.91,0,0,0-1.5-.27h0A1.9,1.9,0,0,1,464.65,288.12Z"/><path class="cls-4" d="M459.55,289.38a1.18,1.18,0,0,0,.5-.29l0,0a1.13,1.13,0,0,1-.53.32,1.46,1.46,0,0,1-.83,0h0A1.46,1.46,0,0,0,459.55,289.38Z"/><path class="cls-4" d="M461.9,288.22c.33-.09.66-.21,1-.3-.86.23-1.66.77-2.53-.14a1.64,1.64,0,0,0,.61.44A1.52,1.52,0,0,0,461.9,288.22Z"/><path class="cls-4" d="M460.12,287.68h0l-.07.05Z"/><path class="cls-4" d="M456.31,290.92s.08.12.13.17-.09-.14-.13-.17Z"/><polygon class="cls-4" points="424.32 231.02 424.32 231.01 424.32 231.01 424.32 231.02"/><path class="cls-4" d="M434.87,287.55l.19.1-.14-.07Z"/><path class="cls-4" d="M433.65,285.76a1.63,1.63,0,0,1,.18-.43,2.08,2.08,0,0,0-.19.43A1.08,1.08,0,0,0,434,287a1,1,0,0,1-.11-.1A1.11,1.11,0,0,1,433.65,285.76Z"/><path class="cls-4" d="M436.12,291.46l0,0h0Z"/><path class="cls-4" d="M455.7,292.34h0a1.69,1.69,0,0,0-.25-.2l.09.08A.67.67,0,0,1,455.7,292.34Z"/><path class="cls-4" d="M454.69,290.94c0,.08,0,.12,0,.2,0-.08-.06-.12,0-.21l.74-.14-.74.14Z"/><path class="cls-4" d="M455.9,292.9h0a.66.66,0,0,0-.17-.47s0,0,0,.06A.68.68,0,0,1,455.9,292.9Z"/><path class="cls-4" d="M431.71,226.92c.48-.69.72-.76,1.06-.6l.25.15c-.49-.3-.73-.38-1.31.45-.85,1.21-1.48,1.83-2.08,2a1.7,1.7,0,0,0,.46-.21A6.47,6.47,0,0,0,431.71,226.92Z"/><path class="cls-4" d="M468.89,248.56l.13,0c-.07,0-.14,0-.23-.07h0Z"/><path class="cls-4" d="M472.22,247.19a.53.53,0,0,1,.12,0,1.33,1.33,0,0,0-.84-.15l.08,0A1.15,1.15,0,0,1,472.22,247.19Z"/><path class="cls-4" d="M468.49,246.74l-.09.23.09-.23a2.09,2.09,0,0,0-.26-2.22A2.09,2.09,0,0,1,468.49,246.74Z"/><polygon class="cls-4" points="460.39 237.57 460.38 237.56 460.38 237.56 460.39 237.57 460.39 237.57"/><path class="cls-4" d="M461,238.5l.05.05c-.06-.07-.12-.12-.18-.2h0C460.9,238.41,461,238.44,461,238.5Z"/><path class="cls-4" d="M459.87,240.53c.72-.36.65-.95.55-1.64.1.69.17,1.28-.56,1.64a4.37,4.37,0,0,1-.77.28,2.45,2.45,0,0,0,.29-.08Z"/><polygon class="cls-4" points="425.54 228.67 425.54 228.68 425.54 228.68 425.54 228.67 425.54 228.67"/><path class="cls-4" d="M466.87,253.51a1.14,1.14,0,0,1,.09-.5,1.14,1.14,0,0,0-.09.5Z"/><path class="cls-4" d="M434.81,285.08h0Z"/><path class="cls-4" d="M460.3,287.73h0Z"/><path class="cls-4" d="M458.35,240.88a.87.87,0,0,1-.43-.21h0A.87.87,0,0,0,458.35,240.88Z"/><path class="cls-4" d="M465.86,267.09a12.27,12.27,0,0,1-1.45-.51,11.65,11.65,0,0,0,1.45.51Z"/><path class="cls-4" d="M444,291.43h0Z"/><path class="cls-4" d="M436.25,291.65c.07,0,.1-.08.16-.11s-.09.09-.16.11Z"/><path class="cls-4" d="M468.32,247.19v0Z"/><path class="cls-4" d="M456.41,288.54a1.68,1.68,0,0,0-.28-1.2,1.68,1.68,0,0,1,.28,1.2Z"/><path class="cls-4" d="M434.26,227.17c-.31-.16-.63-.34-.94-.53l.23.14C433.79,226.92,434,227.05,434.26,227.17Z"/><path class="cls-4" d="M437.22,227.18a2.92,2.92,0,0,1-.37.24,2.46,2.46,0,0,0,.34-.22Z"/><path class="cls-4" d="M428.88,228.85l.12,0a1.38,1.38,0,0,1-.27-.08h0Z"/><path class="cls-4" d="M429.37,228.93h0Z"/><path class="cls-4" d="M438.51,226.15s0,0-.06,0h0S438.49,226.15,438.51,226.15Z"/><path class="cls-4" d="M446.38,229.71h0a2,2,0,0,1,.18-1.35h0A2,2,0,0,0,446.38,229.71Z"/><path class="cls-4" d="M452.5,230.38l0,.13a1.75,1.75,0,0,1,0-.79h0A1.65,1.65,0,0,0,452.5,230.38Z"/><path class="cls-4" d="M447.53,229.24a7,7,0,0,0-1.11.46h0A6.94,6.94,0,0,1,447.53,229.24Z"/><path class="cls-4" d="M455,236.5c.8.23.74-.69,1-1.14a13,13,0,0,0,.68-1.66v0a14.24,14.24,0,0,1-.69,1.68c-.25.46-.18,1.43-1,1.14a3.38,3.38,0,0,1-1.22-.78,3.38,3.38,0,0,0,1.22.78Z"/><path class="cls-4" d="M445.06,226.11h0Z"/><path class="cls-4" d="M438.76,226.2c-.07,0-.11-.07-.21-.07.09,0,.13.05.2.07Z"/><path class="cls-4" d="M457.53,238.84s0,.07,0,.11c0-.24.1-.48.16-.71v0C457.62,238.43,457.57,238.63,457.53,238.84Z"/><path class="cls-4" d="M457.14,292.09l.06.09v0Z"/><path class="cls-4" d="M463.47,271.09a2.54,2.54,0,0,0-.94,0,1,1,0,0,0-.54.32c.27-.32.73-.44,1.48-.29a1.47,1.47,0,0,0,.74,0h0A1.47,1.47,0,0,1,463.47,271.09Z"/><path class="cls-4" d="M463.93,255.72a4.73,4.73,0,0,1-1.39,1.29c-.08,0-.16.1-.25.14,1.6-.59,2-2.9,3.94-2.95a.66.66,0,0,0,.45-.21.66.66,0,0,1-.46.21A3.09,3.09,0,0,0,463.93,255.72Z"/><path class="cls-4" d="M454.89,282.43a1.35,1.35,0,0,0-.17.38.77.77,0,0,0,.13.95c-.31-.29-.42-.66,0-1.33a9.46,9.46,0,0,1,.95-1.2,11.17,11.17,0,0,0-.73.91C455,282.24,455,282.32,454.89,282.43Z"/><path class="cls-4" d="M473.89,249.64v0Z"/><path class="cls-4" d="M471.25,250.46a1.48,1.48,0,0,0,.91.49.86.86,0,0,1-.21-.07A1.49,1.49,0,0,1,471.25,250.46Z"/><path class="cls-4" d="M461.67,272a4.77,4.77,0,0,0-.1.91c-.08,1.62-1.08,3.14-.4,4.89a.9.9,0,0,1,.08.53h0a.9.9,0,0,0-.08-.53c-.67-1.74.32-3.27.4-4.89a2.75,2.75,0,0,1,.39-1.56A1.69,1.69,0,0,0,461.67,272Z"/><path class="cls-4" d="M464.31,266.55c-.78-.36-1.09-.76-1-1.46h0C463.22,265.79,463.52,266.19,464.31,266.55Z"/><path class="cls-4" d="M455.91,281.14a7,7,0,0,1,2.22-1.6,6.6,6.6,0,0,0-1.63,1.08A5.78,5.78,0,0,0,455.91,281.14Z"/><path class="cls-4" d="M463.67,263.8a6,6,0,0,0-.33,1.12s0,0,0,.06a5,5,0,0,1,.35-1.18,4.6,4.6,0,0,0,.34-2.21c0,.05,0,.09,0,.14A4.69,4.69,0,0,1,463.67,263.8Z"/><path class="cls-3" d="M460.8,278.79a.66.66,0,0,0,.45-.42h0A.66.66,0,0,1,460.8,278.79Z"/><path class="cls-3" d="M457.32,262.44h0c1.75.23,3.48-.25,5.45.6C460.79,262.19,459.07,262.66,457.32,262.44Z"/><path class="cls-3" d="M445.81,282.54c.86-.74,1.49-1.46,2.41-1.53C447.3,281.08,446.67,281.8,445.81,282.54Z"/><path class="cls-3" d="M457.8,261.69a.49.49,0,0,0,0-.11A.49.49,0,0,1,457.8,261.69Z"/><path class="cls-3" d="M460.86,238.35h0c-.15-.23-.31-.49-.47-.78h0C460.55,237.86,460.71,238.12,460.86,238.35Z"/><polygon class="cls-3" points="428.74 228.8 428.73 228.8 428.73 228.8 428.74 228.8"/><path class="cls-3" d="M457.56,240.15a1.26,1.26,0,0,0,.35.52,1.45,1.45,0,0,0,1.47.06,2.45,2.45,0,0,1-.29.08,1.73,1.73,0,0,1-.74.07.87.87,0,0,1-.43-.21h0A1.26,1.26,0,0,1,457.56,240.15Z"/><path class="cls-3" d="M424.32,231h0a.25.25,0,0,0,0-.07h0A.25.25,0,0,1,424.32,231Z"/><path class="cls-3" d="M433.15,226.54l.4.24-.23-.14-.17-.1-.13-.07-.25-.15Z"/><path class="cls-3" d="M434.3,280.16a9.89,9.89,0,0,1-1.14,2.52l0,0a9.64,9.64,0,0,0,1.06-2.36.65.65,0,0,1,0-.13Z"/><path class="cls-3" d="M449.4,281.22l-.52.36.52-.36a2.74,2.74,0,0,0-.88-.16A2.74,2.74,0,0,1,449.4,281.22Z"/><path class="cls-3" d="M458.94,236.79a.8.8,0,0,0-.79.13.8.8,0,0,1,.79-.13,2.07,2.07,0,0,0,.55.08A2.07,2.07,0,0,1,458.94,236.79Z"/><path class="cls-3" d="M434.27,287.23a1,1,0,0,1-.42-.37,1,1,0,0,0,.11.1c.11.09.16.22.31.27a3,3,0,0,1,.6.32l.05,0A2.83,2.83,0,0,0,434.27,287.23Z"/><path class="cls-3" d="M430.09,228.7a1.7,1.7,0,0,1-.46.21,2.28,2.28,0,0,1-.26,0h-.18a1.06,1.06,0,0,1-.19-.06l-.12,0A1.3,1.3,0,0,0,430.09,228.7Z"/><path class="cls-3" d="M437.35,285.77c0-.07.08-.13.08-.2h0C437.43,285.64,437.37,285.7,437.35,285.77Z"/><path class="cls-3" d="M455,236.5h0Z"/><path class="cls-3" d="M435.92,280.69a3.53,3.53,0,0,1,.14.56s0,.07,0,.11A3.11,3.11,0,0,0,435.92,280.69Z"/><path class="cls-3" d="M457.39,271.29a.77.77,0,0,1,0,.15.37.37,0,0,0,0,.27.37.37,0,0,1,0-.27A.77.77,0,0,0,457.39,271.29Z"/><path class="cls-3" d="M458,269.38c-.09,0-.11.07-.18.1s.09-.08.18-.1a.66.66,0,0,1,.77.94c-.19.47.11,1.14-.18,1.57.29-.43,0-1.1.18-1.57A.66.66,0,0,0,458,269.38Z"/><path class="cls-3" d="M463.29,265.09h0l0-.11s0,0,0-.06A.84.84,0,0,1,463.29,265.09Z"/><path class="cls-3" d="M461.66,258.34c-.44-.28-.52-.61-.43-.83-.09.22,0,.55.43.83a4.24,4.24,0,0,1,2.38,3.39c0-.05,0-.09,0-.14A4.33,4.33,0,0,0,461.66,258.34Z"/><path class="cls-3" d="M426.39,227.45c-.35.09-.62.49-.85,1.22h0C425.77,228,426,227.54,426.39,227.45Z"/><path class="cls-3" d="M462.47,261.4a8.28,8.28,0,0,1,.39,1.19A8.28,8.28,0,0,0,462.47,261.4Z"/><path class="cls-3" d="M460.08,236.32h0a1,1,0,0,0,0-.23,1,1,0,0,1,0,.23Z"/><path class="cls-3" d="M469.89,248.48a1,1,0,0,1-.87.12l-.13,0A1,1,0,0,0,469.89,248.48Z"/><path class="cls-3" d="M468.32,248.15a1,1,0,0,0,.47.38h0A1,1,0,0,1,468.32,248.15Z"/><path class="cls-3" d="M468.83,250.84a1.61,1.61,0,0,1-.12.39A1.61,1.61,0,0,0,468.83,250.84Z"/><path class="cls-3" d="M415.09,239.68a2.61,2.61,0,0,1,.57-.72l-.06,0A2.54,2.54,0,0,0,415.09,239.68Z"/><path class="cls-3" d="M464.46,270.48a3.31,3.31,0,0,1,.23-1.61,3.31,3.31,0,0,0-.23,1.61c.05.41-.06.59-.25.65h0C464.4,271.07,464.51,270.89,464.46,270.48Z"/><path class="cls-3" d="M461.67,272a1.69,1.69,0,0,1,.29-.65h0a1,1,0,0,1,.54-.32A1.13,1.13,0,0,0,461.67,272Z"/><path class="cls-3" d="M418.94,258.15h0a1.29,1.29,0,0,1,.45.11h0A1.35,1.35,0,0,0,418.94,258.15Z"/><path class="cls-3" d="M466,242.72a.8.8,0,0,0,0,.37A.8.8,0,0,1,466,242.72Z"/><path class="cls-3" d="M449.78,226.16c-.57,0-1.1,0-1.62,0,.52,0,1,0,1.62,0Z"/><path class="cls-3" d="M466,243.25s-.07-.07-.08-.1S466,243.21,466,243.25Z"/><path class="cls-3" d="M471.58,247.05l-.08,0a.38.38,0,0,0-.13,0A.83.83,0,0,1,471.58,247.05Z"/><path class="cls-3" d="M413.88,245.11a1.23,1.23,0,0,1-.11-.41s0,0,0,.06a2.13,2.13,0,0,0,.09.35,4.35,4.35,0,0,1,.59,3.4.28.28,0,0,1,0,.09A4.42,4.42,0,0,0,413.88,245.11Z"/><path class="cls-3" d="M414.33,258.67a.81.81,0,0,1-.31-.06A.81.81,0,0,0,414.33,258.67Z"/><path class="cls-3" d="M417.08,260.51h0a1.31,1.31,0,0,0,.41.13A1.23,1.23,0,0,1,417.08,260.51Z"/><path class="cls-3" d="M418.47,259.19v0a.19.19,0,0,1,0-.08S418.46,259.16,418.47,259.19Z"/><path class="cls-3" d="M457.19,294.69a3.59,3.59,0,0,1-.68-.4A3.59,3.59,0,0,0,457.19,294.69Z"/><path class="cls-3" d="M462.21,296.52a1.24,1.24,0,0,1-.47.1A1.24,1.24,0,0,0,462.21,296.52Z"/><path class="cls-3" d="M460.26,295.67a3.64,3.64,0,0,0-.68-.07A3.64,3.64,0,0,1,460.26,295.67Z"/><path class="cls-3" d="M423.13,231.41l-.19.06c-.27.08-.52.18-.77.28C422.48,231.63,422.8,231.52,423.13,231.41Z"/><polygon class="cls-3" points="432.24 282.83 432.4 282.97 432.24 282.83 432.24 282.83"/><path class="cls-3" d="M455.76,287.08l.05,0Z"/><path class="cls-3" d="M458.71,260a.42.42,0,0,1,.28.08,7.58,7.58,0,0,0,2.54.84,7.58,7.58,0,0,1-2.54-.84A.42.42,0,0,0,458.71,260Z"/><path class="cls-3" d="M422.55,275.34h0l.27,0A1.63,1.63,0,0,0,422.55,275.34Z"/><path class="cls-3" d="M466.29,241.93c.8-1.67.59-2.08-1.26-2.63a12.33,12.33,0,0,0-1.3-.35,12.33,12.33,0,0,1,1.3.35C466.88,239.85,467.09,240.26,466.29,241.93Z"/><path class="cls-3" d="M472,250.88a.86.86,0,0,0,.21.07,1.39,1.39,0,0,0,.68-.16A1.25,1.25,0,0,1,472,250.88Z"/><path class="cls-3" d="M473,247.73c.1.1.19.22.29.33-.1-.11-.19-.23-.29-.33a3.3,3.3,0,0,0-.65-.51.53.53,0,0,0-.12,0A2.64,2.64,0,0,1,473,247.73Z"/><path class="cls-3" d="M453.33,234.57a.49.49,0,0,0,0,.36.49.49,0,0,1,0-.36c1.12-1.66-.49-2.74-.79-4.06l0-.13C452.71,231.76,454.49,232.85,453.33,234.57Z"/><path class="cls-3" d="M461.36,238.92a1.67,1.67,0,0,1-.32-.37l-.05-.05A3.08,3.08,0,0,0,461.36,238.92Z"/><path class="cls-3" d="M418.22,260.55c.36-.19.36-.62.3-1.05,0,0,0-.07,0-.1C418.58,259.86,418.61,260.34,418.22,260.55Z"/><path class="cls-3" d="M456.71,233.66c.92.49,1.73,1,2.58,1.35a2.35,2.35,0,0,1,.61.37,2.35,2.35,0,0,0-.61-.37c-.85-.38-1.66-.86-2.58-1.35v0Z"/><path class="cls-3" d="M457.14,293c-.1.07-.15.13-.23.19.08-.06.13-.12.23-.19.36-.27.25-.57.05-.87v0C457.4,292.47,457.49,292.76,457.14,293Z"/><polygon class="cls-3" points="446.56 228.36 446.56 228.36 446.56 228.36 446.56 228.36"/><path class="cls-3" d="M462.54,257a4.73,4.73,0,0,0,1.39-1.29A4.73,4.73,0,0,1,462.54,257Z"/><path class="cls-3" d="M431.39,272.93a1.58,1.58,0,0,1-.93-.44A1.58,1.58,0,0,0,431.39,272.93Z"/><path class="cls-3" d="M469,249.85a1.94,1.94,0,0,1,.8-.23A1.94,1.94,0,0,0,469,249.85Z"/><path class="cls-3" d="M413.13,257.78s-.06-.1-.1-.16.06.11.1.16a3.37,3.37,0,0,0,.8.77A3.37,3.37,0,0,1,413.13,257.78Z"/><path class="cls-3" d="M456.5,280.62a9.24,9.24,0,0,0-1.39,1.52,11.17,11.17,0,0,1,.73-.91l.07-.09A5.78,5.78,0,0,1,456.5,280.62Z"/><polygon class="cls-3" points="456.31 290.92 456.31 290.92 456.31 290.92 456.31 290.92"/><path class="cls-3" d="M455.75,292.49s0,0,0-.06,0-.07,0-.09h0S455.73,292.45,455.75,292.49Z"/><path class="cls-3" d="M439.39,226.84c1,1,2.14,0,3.1-.31a7.75,7.75,0,0,1,2.46-.42h-.06a7.67,7.67,0,0,0-2.4.42C441.53,226.88,440.37,227.84,439.39,226.84Z"/><path class="cls-3" d="M431.76,272.93l-.18,0Z"/><path class="cls-3" d="M455.54,292.22l-.09-.08a1.31,1.31,0,0,1-.72-1c0-.08-.05-.12,0-.2C454.58,291.69,455.15,291.89,455.54,292.22Z"/><path class="cls-3" d="M468.86,250.73a1.62,1.62,0,0,0-.07-.63h0A1.62,1.62,0,0,1,468.86,250.73Z"/><path class="cls-3" d="M437.11,286.05a1.28,1.28,0,0,1-.31.2l-.25.13a1.42,1.42,0,0,1,.25-.12A1.66,1.66,0,0,0,437.11,286.05Z"/><path class="cls-3" d="M466.23,291.57a2.86,2.86,0,0,0-.51-.95l-.06-.1A3.64,3.64,0,0,1,466.23,291.57Z"/><path class="cls-3" d="M435.14,287.69a1.66,1.66,0,0,1,.16.21A1.66,1.66,0,0,0,435.14,287.69Z"/><path class="cls-3" d="M460.05,289.09a.38.38,0,0,0,.12-.29.38.38,0,0,1-.09.26Z"/><polygon class="cls-3" points="456.41 288.54 456.42 288.54 456.42 288.54 456.41 288.54 456.41 288.54"/><path class="cls-3" d="M457.19,288.66a16.29,16.29,0,0,0,1.53.72h0A16.29,16.29,0,0,1,457.19,288.66Z"/><path class="cls-3" d="M442.23,292.35a1.45,1.45,0,0,1-.41,1.55,1.46,1.46,0,0,0,.41-1.55,1.07,1.07,0,0,1,.54-1.27A1.07,1.07,0,0,0,442.23,292.35Z"/><path class="cls-3" d="M460.3,287.73a1.59,1.59,0,0,0,.68.49,1.64,1.64,0,0,1-.61-.44l-.07,0h0a.22.22,0,0,0-.16,0h0A.19.19,0,0,1,460.3,287.73Z"/><path class="cls-3" d="M454.72,282.81a1.35,1.35,0,0,1,.17-.38h0A1.35,1.35,0,0,0,454.72,282.81Z"/><path class="cls-3" d="M454.12,286.88a1.57,1.57,0,0,1-.74-.21h0A1.57,1.57,0,0,0,454.12,286.88Z"/><path class="cls-3" d="M446.38,229.72l.05,0h0l0,0h0Z"/><path class="cls-3" d="M463.16,287.85h0a2.33,2.33,0,0,0-.25.07c-.34.09-.67.21-1,.3A12.28,12.28,0,0,1,463.16,287.85Z"/><path class="cls-3" d="M439,226.28a2.71,2.71,0,0,0,.35.48,2.71,2.71,0,0,1-.35-.48c0-.05-.14-.05-.22-.08h0C438.83,226.22,439,226.22,439,226.28Z"/><path class="cls-3" d="M430.1,272.1h0c-.5-.65-1.47-.23-2,.29C428.63,271.87,429.6,271.45,430.1,272.1Z"/><path class="cls-3" d="M433,273.26c.09.36,0,.84.27,1a3.18,3.18,0,0,1,.09,2.18,1.33,1.33,0,0,1-.73.62.41.41,0,0,1-.28,0,.41.41,0,0,0,.28,0,1.33,1.33,0,0,0,.73-.62,3.18,3.18,0,0,0-.09-2.18C433.06,274.1,433.13,273.62,433,273.26Z"/><path class="cls-3" d="M428,274.77a1.82,1.82,0,0,1-.34-1,1.82,1.82,0,0,0,.34,1c.3.38.54.4.74.26C428.49,275.17,428.25,275.15,428,274.77Z"/><path class="cls-3" d="M429.25,274.34l-.09.14.09-.14a.53.53,0,0,1,.28-.22A.53.53,0,0,0,429.25,274.34Z"/><path class="cls-3" d="M436.25,291.65c-.06,0-.06-.11-.11-.16h0c0,.05,0,.11.1.15s.1-.08.16-.11a1.39,1.39,0,0,0,.51-.32A1.59,1.59,0,0,1,436.25,291.65Z"/><path class="cls-3" d="M457.55,240.14a2.27,2.27,0,0,1,0-1.19s0-.08,0-.11A2.38,2.38,0,0,0,457.55,240.14Z"/><path class="cls-3" d="M438.05,226.37a.63.63,0,0,1,.41-.19h0a.63.63,0,0,0-.4.19,3.92,3.92,0,0,1-.83.81l0,0A3.68,3.68,0,0,0,438.05,226.37Z"/><path class="cls-3" d="M419.13,270.43a.77.77,0,0,1-.23-.1A.77.77,0,0,0,419.13,270.43Z"/><path class="cls-3" d="M419.71,270.21a.85.85,0,0,1-.29.12.9.9,0,0,0,.28-.09Z"/><path class="cls-3" d="M415.23,269a3.38,3.38,0,0,0-.67,1.83,4.37,4.37,0,0,1-.28,1,4,4,0,0,0,.28-1A3.34,3.34,0,0,1,415.23,269Z"/><polygon class="cls-3" points="419.65 270.38 419.7 270.24 419.7 270.24 419.65 270.38"/><path class="cls-3" d="M413.24,273.65c-.16.27-.32.53-.46.8a5,5,0,0,0-.28.76,4.93,4.93,0,0,1,.28-.75C412.92,274.18,413.08,273.92,413.24,273.65Z"/><path class="cls-3" d="M419.51,271.28a4.2,4.2,0,0,1-1,2.34A4.17,4.17,0,0,0,419.51,271.28Z"/><path class="cls-3" d="M420,274.52a1,1,0,0,1-.06-.16.64.64,0,0,0,.24.39A.9.9,0,0,1,420,274.52Z"/><path class="cls-3" d="M417,268.89c-.74-.34-1.3-.36-1.7,0C415.64,268.53,416.2,268.55,417,268.89Z"/><path class="cls-3" d="M417.35,277.19c.63-.88-.9-2,.24-2.84C416.44,275.16,418,276.3,417.35,277.19Z"/><path class="cls-3" d="M418.7,270.23a3.39,3.39,0,0,1-.36-.39A3.39,3.39,0,0,0,418.7,270.23Z"/><path class="cls-3" d="M420.23,273.65a1,1,0,0,0-.34.56h0A1,1,0,0,1,420.23,273.65Z"/><path class="cls-3" d="M412.39,276a2.19,2.19,0,0,0,1,1.86,2.55,2.55,0,0,0,.7.32,2.33,2.33,0,0,1-.7-.33A2.19,2.19,0,0,1,412.39,276Z"/><path class="cls-3" d="M419.42,270.33a1.43,1.43,0,0,1-.29.1.77.77,0,0,1-.23-.1,1.86,1.86,0,0,1-.2-.1,3.39,3.39,0,0,1-.36-.39,1.37,1.37,0,0,0-.34-.34,7.14,7.14,0,0,0-1.05-.61c-.75-.34-1.31-.36-1.7,0l0,0a3.34,3.34,0,0,0-.67,1.82,4,4,0,0,1-.28,1,11.42,11.42,0,0,1-1,1.88c-.16.27-.32.53-.46.81a4.93,4.93,0,0,0-.28.75,2.78,2.78,0,0,0-.11.79,2.19,2.19,0,0,0,1,1.85,2.33,2.33,0,0,0,.7.33,3.47,3.47,0,0,0,2.8-.62,1.46,1.46,0,0,0,.45-.37c.62-.89-.91-2,.24-2.84.06-.05.09-.09.16-.14a2.79,2.79,0,0,0,.75-.59,4.2,4.2,0,0,0,1-2.34,3.29,3.29,0,0,0,.06-.71l.08-.19.05-.14A.9.9,0,0,1,419.42,270.33Z"/><polygon class="cls-3" points="419.71 270.2 419.7 270.24 419.7 270.24 419.72 270.2 419.71 270.2"/><path class="cls-3" d="M419.89,274.2h0c0,.05,0,.1.05.15a1,1,0,0,0,.06.16C420,274.41,419.87,274.31,419.89,274.2Z"/><path class="cls-3" d="M465.29,234.7a1.23,1.23,0,0,1-1.33-.81c-.36-.86.82-3.36,1.58-3.48,1.11-.18,1.6.45,1.95,1.36-.35-.91-.84-1.54-1.94-1.36-.77.12-2,2.62-1.6,3.49A1.22,1.22,0,0,0,465.29,234.7Z"/><path class="cls-3" d="M467.68,232.31h0a.41.41,0,0,1,0,.08A.41.41,0,0,0,467.68,232.31Z"/><path class="cls-3" d="M465.54,230.41c-.76.12-1.94,2.62-1.58,3.48a1.23,1.23,0,0,0,1.33.81c.47,0,1-.17,1.37-.18,1.64-.05.65-1.47,1-2.13a.41.41,0,0,0,0-.08c-.06-.2-.13-.37-.19-.54C467.14,230.86,466.65,230.23,465.54,230.41Z"/><path class="cls-3" d="M456.07,229.65a.59.59,0,0,0-.46.18A.59.59,0,0,1,456.07,229.65Z"/><path class="cls-3" d="M456.42,231.65c.1,0,.21,0,.32.06a2.06,2.06,0,0,0,.43,0,2,2,0,0,1-.42,0Z"/><path class="cls-3" d="M458,231.36a2.11,2.11,0,0,0,.34-.49,1.13,1.13,0,0,0-.89-.46,1.16,1.16,0,0,1,.89.46A1.91,1.91,0,0,1,458,231.36Z"/><path class="cls-3" d="M455.19,231a1.49,1.49,0,0,0,1.23.64l.33.06a2,2,0,0,0,.42,0,1.22,1.22,0,0,0,.82-.36,1.91,1.91,0,0,0,.34-.49,1.16,1.16,0,0,0-.89-.46,2.13,2.13,0,0,1-.5-.11c-.3-.13-.53-.59-.87-.65a.59.59,0,0,0-.46.18s-.06,0-.09,0A1,1,0,0,0,455.19,231Z"/><path class="cls-1" d="M415.09,239.68a2.54,2.54,0,0,1,.51-.67,1.77,1.77,0,0,0-.36,2.4c.08.15.2.33.28.51-.08-.18-.19-.36-.27-.51A1.81,1.81,0,0,1,415.09,239.68Z"/><path class="cls-1" d="M461.23,257.51c-.09.22,0,.55.43.83a4.33,4.33,0,0,1,2.36,3.25,4.32,4.32,0,0,0-2.35-3.25c-.62-.38-.57-.88-.26-1A.29.29,0,0,0,461.23,257.51Z"/><path class="cls-1" d="M457.55,240.14h0a1.26,1.26,0,0,0,.35.52h0a1.74,1.74,0,0,1-.41-1.72A2.27,2.27,0,0,0,457.55,240.14Z"/><path class="cls-1" d="M463.73,239a12.33,12.33,0,0,1,1.3.35c1.85.55,2.06,1,1.26,2.63,0,.08-.05.13-.09.21a4.81,4.81,0,0,0-.25.58.8.8,0,0,0,0,.37s0,0,0,.06.06.06.08.1a.46.46,0,0,1,.07.07c-.25-.26-.17-.6.13-1.17.94-1.9.77-2.27-1.17-2.86a3.93,3.93,0,0,0-2.23-.3,1.71,1.71,0,0,1-.74.16,1.76,1.76,0,0,0,.73-.15A1.7,1.7,0,0,1,463.73,239Z"/><path class="cls-1" d="M413.87,245.11a2.13,2.13,0,0,1-.09-.35,1.44,1.44,0,0,0,.09.35,4.39,4.39,0,0,1,.59,3.4A4.35,4.35,0,0,0,413.87,245.11Z"/><path class="cls-1" d="M453.33,234.57a.49.49,0,0,0,0,.36s0,0,0,0a.49.49,0,0,1,0-.36c1.11-1.66-.48-2.75-.79-4.07C452.84,231.83,454.45,232.91,453.33,234.57Z"/><path class="cls-1" d="M433.32,226.64l-.16-.09a.5.5,0,0,0-.14-.08l.13.07Z"/><path class="cls-1" d="M462,239.17a1,1,0,0,1-.45-.18A1.18,1.18,0,0,0,462,239.17Z"/><path class="cls-1" d="M446.42,229.7h0Z"/><path class="cls-1" d="M460.08,236.32h0a1.86,1.86,0,0,1-.1.2,1.23,1.23,0,0,0,.1-.2,1.47,1.47,0,0,0,.05-.34.36.36,0,0,1,0,.11A1,1,0,0,1,460.08,236.32Z"/><path class="cls-1" d="M459.29,235a2.35,2.35,0,0,1,.61.37s.08.05.11.09a1.82,1.82,0,0,0-.71-.46c-.87-.37-1.67-.87-2.58-1.36v0C457.63,234.15,458.44,234.63,459.29,235Z"/><path class="cls-1" d="M458.94,236.79a.8.8,0,0,0-.79.13,1.3,1.3,0,0,0-.39.82c.1-.58.26-1.18,1.18-.94a1.41,1.41,0,0,0,.71.06.43.43,0,0,1-.16,0A2.07,2.07,0,0,1,458.94,236.79Z"/><path class="cls-1" d="M459.09,240.81a1.73,1.73,0,0,1-.74.07A1.73,1.73,0,0,0,459.09,240.81Z"/><path class="cls-1" d="M421.29,270.14a1.83,1.83,0,0,1,.24.13A1.83,1.83,0,0,0,421.29,270.14Z"/><path class="cls-1" d="M426.39,227.45c.28-.08.63.1,1,.41-.93-.71-1.49-.5-1.89.81h0C425.77,227.94,426,227.54,426.39,227.45Z"/><path class="cls-1" d="M421,270a1.69,1.69,0,0,0-.32,0A1.69,1.69,0,0,1,421,270Z"/><path class="cls-1" d="M439.33,226.76l.06.08c1,1,2.14,0,3.1-.31a7.67,7.67,0,0,1,2.4-.42,7.73,7.73,0,0,0-2.41.42c-1.09.4-2.44,1.6-3.5-.26,0-.05-.14,0-.22-.07.08,0,.19,0,.22.08A2.71,2.71,0,0,0,439.33,226.76Z"/><path class="cls-1" d="M463.29,265.09l0-.11Z"/><path class="cls-1" d="M469,249.85c-.14.09-.22.19-.2.25a1.62,1.62,0,0,1,.07.63.45.45,0,0,1,0,.11,1.61,1.61,0,0,1-.12.39,1.85,1.85,0,0,1-.3.39,1.4,1.4,0,0,0,.39-1.51c-.07-.21.83-.69,1.55-.42a1.19,1.19,0,0,0-.56-.07A1.94,1.94,0,0,0,469,249.85Z"/><path class="cls-1" d="M461.36,238.92a2,2,0,0,1-.32-.37,1.67,1.67,0,0,0,.32.37Z"/><path class="cls-1" d="M438.05,226.37a.63.63,0,0,1,.4-.19.73.73,0,0,0-.41.18,3.53,3.53,0,0,1-.82.82A3.92,3.92,0,0,0,438.05,226.37Z"/><path class="cls-1" d="M429.19,228.94a1.06,1.06,0,0,1-.19-.06A1.06,1.06,0,0,0,429.19,228.94Z"/><path class="cls-1" d="M428.73,228.8l-.07,0,.07,0Z"/><path class="cls-1" d="M420.12,270.05c.1,0,.2-.06.29-.07C420.32,270,420.22,270,420.12,270.05Z"/><path class="cls-1" d="M449.78,226.16h0c-1.09,1-2.66,1.19-3.22,2.2h0c.56-1,2.13-1.17,3.23-2.2-.68,0-1.32,0-1.94,0h.31C448.68,226.17,449.21,226.18,449.78,226.16Z"/><path class="cls-1" d="M422.17,231.75c.25-.1.5-.2.77-.28-.72.22-1.42.44-1.66,1.22A1.46,1.46,0,0,1,422.17,231.75Z"/><path class="cls-1" d="M473.28,248.06a2.81,2.81,0,0,1,.52.8,3.71,3.71,0,0,0-.8-1.13,3.67,3.67,0,0,0-.66-.51,3.3,3.3,0,0,1,.65.51C473.09,247.83,473.18,248,473.28,248.06Z"/><path class="cls-1" d="M437.42,290.4a2.69,2.69,0,0,1-.5.82,1.39,1.39,0,0,1-.51.32,1.87,1.87,0,0,0,1-1.14c.18-.46,0-1.19.46-1.47C437.42,289.21,437.6,289.94,437.42,290.4Z"/><path class="cls-1" d="M455.7,292.34s0,.07,0,.09S455.72,292.36,455.7,292.34Z"/><path class="cls-1" d="M466.07,292.17h0c-.05.06-.08.13-.13.19S466,292.23,466.07,292.17Z"/><path class="cls-1" d="M455.9,292.91h0a7.12,7.12,0,0,1-2.64.89A7.21,7.21,0,0,0,455.9,292.91Z"/><path class="cls-1" d="M460.3,287.73h0l.07,0Z"/><path class="cls-1" d="M439.77,289.34s.06,0,.07,0S439.79,289.36,439.77,289.34Z"/><path class="cls-1" d="M463.15,287.85a2.33,2.33,0,0,0-.25.07,2.33,2.33,0,0,1,.25-.07Z"/><path class="cls-1" d="M424.28,230.94a.25.25,0,0,1,0,.07A.25.25,0,0,0,424.28,230.94Z"/><path class="cls-1" d="M442.77,291.08a1.07,1.07,0,0,0-.54,1.27,1.46,1.46,0,0,1-.41,1.55l-.2.22a5.55,5.55,0,0,1-.4-1,5.5,5.5,0,0,0,.39,1,1.54,1.54,0,0,0,.63-1.77,1.13,1.13,0,0,1,1.24-1.42A1,1,0,0,0,442.77,291.08Z"/><path class="cls-1" d="M434.24,285c-.09,0-.12.09-.19.14s.11-.12.19-.14Z"/><path class="cls-1" d="M425.41,230c0-.24,0-.49,0-.73C425.43,229.48,425.41,229.73,425.41,230Z"/><path class="cls-1" d="M435.14,287.69h0a1.87,1.87,0,0,1,.32.42l-.16-.21A1.66,1.66,0,0,0,435.14,287.69Z"/><path class="cls-1" d="M434,287c.11.09.15.22.31.27a3,3,0,0,1,.6.32,3,3,0,0,0-.6-.32C434.12,287.18,434.07,287.05,434,287Z"/><path class="cls-1" d="M436.25,291.65h0c-.06,0-.06-.1-.1-.15S436.19,291.61,436.25,291.65Z"/><path class="cls-1" d="M456.91,293.22c.08-.06.13-.12.23-.19.35-.27.26-.56.06-.85.19.29.29.58-.06.85a2.13,2.13,0,0,0-.75.77A1.91,1.91,0,0,1,456.91,293.22Z"/><path class="cls-1" d="M460.12,287.68a.22.22,0,0,1,.16,0A.18.18,0,0,0,460.12,287.68Z"/><path class="cls-1" d="M429.37,228.93a2.28,2.28,0,0,0,.26,0A2.28,2.28,0,0,1,429.37,228.93Z"/><path class="cls-1" d="M466.23,291.57c0,.1-.06.21-.09.31a1.56,1.56,0,0,0-.42-1.26A2.86,2.86,0,0,1,466.23,291.57Z"/><path class="cls-1" d="M457.19,294.69a3.59,3.59,0,0,1-.68-.4.4.4,0,0,1-.13-.48c-.24.6.85.75,1.3,1.22a1.63,1.63,0,0,0,.77.44,1.63,1.63,0,0,1-.77-.44A2.24,2.24,0,0,0,457.19,294.69Z"/><path class="cls-1" d="M453.38,286.67a1.57,1.57,0,0,0,.74.21,5.72,5.72,0,0,1,1.64.2l.05,0a.87.87,0,0,1,.31.22c-.6-.71-2-.19-2.73-.67.22-1.36,1.79-1.29,2.24-2.35h0C455.18,285.39,453.6,285.3,453.38,286.67Z"/><path class="cls-1" d="M457.19,288.66a16.29,16.29,0,0,0,1.53.72c-.78-.21-1.43-.94-2.31-.84h0A1.71,1.71,0,0,1,457.19,288.66Z"/><path class="cls-1" d="M460.17,288.8s0,0,0-.05a.37.37,0,0,1-.07.31A.38.38,0,0,0,460.17,288.8Z"/><path class="cls-1" d="M461.74,296.62c-.25,0-.48-.14-.78-.53a1.17,1.17,0,0,0-.7-.42,3.64,3.64,0,0,0-.68-.07,4.89,4.89,0,0,1-1.08-.11c.88.22,1.89-.11,2.45.61s.87.57,1.44.36l-.18.06A1.24,1.24,0,0,1,461.74,296.62Z"/><path class="cls-1" d="M455.45,292.14c-.33-.25-.69-.49-.72-1A1.31,1.31,0,0,0,455.45,292.14Z"/><path class="cls-1" d="M460.58,278.88h0Z"/><path class="cls-1" d="M456.15,290.87c.05,0,.11,0,.16.05h0C456.26,290.88,456.2,290.89,456.15,290.87Z"/><path class="cls-1" d="M421.87,270.83a.54.54,0,0,0-.09-.15c0,.05.07.08.09.14a1.81,1.81,0,0,1-.51,1.95h0A1.8,1.8,0,0,0,421.87,270.83Z"/><path class="cls-1" d="M455.84,281.23l.07-.09Z"/><path class="cls-1" d="M466.8,253.69a.62.62,0,0,1-.12.3A.62.62,0,0,0,466.8,253.69Z"/><path class="cls-1" d="M435.64,288.43s0-.07,0-.1S435.63,288.4,435.64,288.43Z"/><path class="cls-1" d="M418.59,258.25a.74.74,0,0,1,.35-.09,1.29,1.29,0,0,1,.45.1,1.29,1.29,0,0,0-.45-.11A.86.86,0,0,0,418.59,258.25Z"/><path class="cls-1" d="M469.89,248.48a2,2,0,0,0,.56-.63,1.48,1.48,0,0,1,.92-.74.38.38,0,0,1,.13,0,1.41,1.41,0,0,0-1.06.79c-.37.62-.79.91-1.42.74A1,1,0,0,0,469.89,248.48Z"/><path class="cls-1" d="M462,271.39h0Z"/><path class="cls-1" d="M433.2,282.65a8.8,8.8,0,0,0,1.06-2.36A9.64,9.64,0,0,1,433.2,282.65Z"/><path class="cls-1" d="M432.24,282.83h0a3.73,3.73,0,0,0-.9-3,3.73,3.73,0,0,1,.9,3l.18.15h0Z"/><path class="cls-1" d="M422.86,275.37l-.27,0a1.77,1.77,0,0,1,1.93,1.76l.33,0-.33,0A1.7,1.7,0,0,0,422.86,275.37Z"/><path class="cls-1" d="M426.09,276.71c1,0,1.69,1,2.59,1.39l.48.25-.47-.25C427.78,277.69,427.08,276.67,426.09,276.71Z"/><path class="cls-1" d="M420.36,264.5a11.14,11.14,0,0,0-.61,5.33h0A11.31,11.31,0,0,1,420.36,264.5Z"/><path class="cls-1" d="M414.33,258.67a.81.81,0,0,1-.31-.06l-.09-.06a3.37,3.37,0,0,1-.8-.77s-.06-.1-.1-.16a2.31,2.31,0,0,1-.19-.28,2.61,2.61,0,0,0,.29.45c.59.71,1.06,1.26,2.12.7a2.29,2.29,0,0,1,.62-.25,2.65,2.65,0,0,0-.63.24A1.38,1.38,0,0,1,414.33,258.67Z"/><path class="cls-1" d="M413.14,255.78a.13.13,0,0,0,0,.05.13.13,0,0,1,0-.05Z"/><path class="cls-1" d="M468.79,248.53h0a.84.84,0,0,1-.53-.65.82.82,0,0,0,.06.27A1,1,0,0,0,468.79,248.53Z"/><path class="cls-1" d="M418.22,260.55a.67.67,0,0,1-.31.11,1.89,1.89,0,0,1-.41,0,1.31,1.31,0,0,1-.41-.13,1.51,1.51,0,0,0,.82.15c.72-.07.69-.64.61-1.17C418.58,259.93,418.58,260.36,418.22,260.55Z"/><path class="cls-1" d="M464.46,270.48c.05.41-.06.59-.25.65.19-.06.31-.24.26-.65a3.67,3.67,0,0,1,.74-2.6,4.7,4.7,0,0,0-.52,1A3.31,3.31,0,0,0,464.46,270.48Z"/><path class="cls-1" d="M418.45,259.09a.19.19,0,0,0,0,.08c-.07-.33-.21-.7,0-.89C418.27,258.46,418.37,258.79,418.45,259.09Z"/><path class="cls-1" d="M460.39,237.57h0c.16.29.32.55.47.78C460.71,238.12,460.55,237.86,460.39,237.57Z"/><path class="cls-1" d="M435.71,280.25c-.27-.41,0-1.21-.76-1.25.74.05.49.84.76,1.26a2.35,2.35,0,0,1,.35,1,3.53,3.53,0,0,0-.14-.56A2.53,2.53,0,0,0,435.71,280.25Z"/><path class="cls-1" d="M447.68,226.15h0Z"/><path class="cls-1" d="M460.8,278.79l-.1,0c.28-.08.5-.21.55-.46A.66.66,0,0,1,460.8,278.79Z"/><path class="cls-1" d="M436.8,286.25a1.28,1.28,0,0,0,.31-.2.77.77,0,0,0,.24-.28c0-.07.08-.13.08-.2,0,.27-.21.5-.64.68l-.59.3.35-.17Z"/><path class="cls-1" d="M434.34,279.45a.41.41,0,0,1,.35-.42A.41.41,0,0,0,434.34,279.45Z"/><path class="cls-1" d="M472.84,250.79a1.39,1.39,0,0,1-.68.16,1.72,1.72,0,0,0,1.28-.58,1.21,1.21,0,0,0,.24-.38,1.49,1.49,0,0,1-.24.38A2.33,2.33,0,0,1,472.84,250.79Z"/><polygon class="cls-1" points="419.77 270.15 419.77 270.15 419.77 270.15 419.77 270.15 419.77 270.15"/><polygon class="cls-1" points="419.77 270.15 419.77 270.16 419.77 270.15 419.77 270.15 419.77 270.15"/><polygon class="cls-1" points="419.77 270.15 419.77 270.14 419.77 270.14 419.77 270.15 419.77 270.15"/><path class="cls-1" d="M418.34,269.84a1.6,1.6,0,0,0-.33-.35,8.74,8.74,0,0,0-1.06-.6,7.14,7.14,0,0,1,1.05.61A1.37,1.37,0,0,1,418.34,269.84Z"/><path class="cls-1" d="M414.1,278.18a3.48,3.48,0,0,0,2.79-.61,1.41,1.41,0,0,0,.46-.38,1.46,1.46,0,0,1-.45.37A3.47,3.47,0,0,1,414.1,278.18Z"/><path class="cls-1" d="M419.51,271.28a4.05,4.05,0,0,0,.07-.7l.07-.2-.08.19A3.29,3.29,0,0,1,419.51,271.28Z"/><path class="cls-1" d="M418.9,270.33a1.86,1.86,0,0,1-.2-.1A1.86,1.86,0,0,0,418.9,270.33Z"/><path class="cls-1" d="M417.59,274.35c.06,0,.08-.09.16-.13a2.83,2.83,0,0,0,.75-.6,2.79,2.79,0,0,1-.75.59C417.68,274.26,417.65,274.3,417.59,274.35Z"/><path class="cls-1" d="M419.42,270.33a1.43,1.43,0,0,1-.29.1A1.43,1.43,0,0,0,419.42,270.33Z"/><path class="cls-1" d="M415.23,269l0,0Z"/><path class="cls-1" d="M413.24,273.65a11.42,11.42,0,0,0,1-1.88A11.85,11.85,0,0,1,413.24,273.65Z"/><path class="cls-1" d="M412.39,276a2.78,2.78,0,0,1,.11-.79A2.74,2.74,0,0,0,412.39,276Z"/><path class="cls-1" d="M419.77,270.15h0Z"/><path class="cls-1" d="M419.73,270.16h0l0,.06h0Z"/><path class="cls-1" d="M419.72,270.2l.06,0,0,0Z"/><path class="cls-1" d="M419.78,270.18h0l-.06,0,0,0,.08-.05v0Z"/><path class="cls-1" d="M419.78,270.18h0v0h0Z"/><path class="cls-1" d="M419.77,270.14c0-.1,0-.2,0-.3h0c0,.11,0,.21,0,.31Z"/><path class="cls-1" d="M421.36,272.77l-.09.07.09-.07Z"/><path class="cls-1" d="M419.94,274.36c0-.05-.06-.1-.05-.15S419.93,274.31,419.94,274.36Z"/><path class="cls-1" d="M467.69,232.31c-.06-.2-.14-.37-.2-.54.06.17.13.34.19.54Z"/><path class="cls-1" d="M466.66,234.52c-.41,0-.9.15-1.37.18.47,0,1-.16,1.37-.17,1.64-.06.65-1.47,1-2.14C467.31,233.05,468.3,234.47,466.66,234.52Z"/><path class="cls-1" d="M495,233.83a56.37,56.37,0,0,0-75.74-26.64c-19.64,9.46-30.62,25.63-32.14,47.25s7.07,39.31,25.34,51.1c16.38,10.58,33.57,19.91,50.41,29.78a6.91,6.91,0,0,0,1,.32c-1.84-7-3.56-13.75-5.37-20.44-.37-1.39-.38-2.12,1.32-2.49a39.52,39.52,0,0,0,8.14-3.09A56.62,56.62,0,0,0,495,233.83Zm-29.48-3.42c1.1-.18,1.59.45,1.94,1.36.06.17.14.34.2.54h0a.41.41,0,0,1,0,.08c-.34.67.65,2.08-1,2.14-.41,0-.9.15-1.37.17a1.22,1.22,0,0,1-1.34-.8C463.59,233,464.78,230.53,465.55,230.41Zm-10-.53s.06,0,.09,0a.59.59,0,0,1,.46-.18c.34.06.57.51.88.64a1.6,1.6,0,0,0,.49.12,1.13,1.13,0,0,1,.89.46,2.11,2.11,0,0,1-.34.49,1.22,1.22,0,0,1-.82.36,2.06,2.06,0,0,1-.43,0c-.11,0-.22-.05-.32-.06a1.51,1.51,0,0,1-1.23-.63A1,1,0,0,1,455.52,229.88ZM473.68,250a1.21,1.21,0,0,1-.24.38,1.72,1.72,0,0,1-1.28.58,1.48,1.48,0,0,1-.91-.49,2.32,2.32,0,0,1-.37-.39,1,1,0,0,0-.53-.38c-.72-.27-1.62.21-1.55.42a1.4,1.4,0,0,1-.39,1.51c-.48.48-1.2.81-1.45,1.39a1.14,1.14,0,0,0-.09.5h0c0,.07-.05.12-.07.18a.62.62,0,0,1-.12.3h0a.66.66,0,0,1-.45.21c-1.92.05-2.34,2.36-3.94,2.95a2.57,2.57,0,0,1-.76.14s-.08,0-.12,0c-.31.13-.36.63.26,1a4.32,4.32,0,0,1,2.35,3.25,4.6,4.6,0,0,1-.34,2.21,5,5,0,0,0-.35,1.18l0,.11c-.07.7.24,1.1,1,1.46l.1,0a12.27,12.27,0,0,0,1.45.51h0a7.76,7.76,0,0,0-.65.79,3.67,3.67,0,0,0-.74,2.6c0,.41-.07.59-.26.65a1.47,1.47,0,0,1-.74,0c-.75-.15-1.21,0-1.48.29h0a2.75,2.75,0,0,0-.39,1.56c-.08,1.62-1.07,3.15-.4,4.89a.9.9,0,0,1,.08.53c-.05.25-.27.38-.55.46a.43.43,0,0,1-.12.05h0a4.51,4.51,0,0,1-.55.09,6.6,6.6,0,0,0-1.89.56,7,7,0,0,0-2.22,1.6l-.07.09a9.46,9.46,0,0,0-.95,1.2c-.46.67-.35,1,0,1.33a5,5,0,0,0,.77.56h0c-.45,1.06-2,1-2.24,2.35.71.48,2.13,0,2.73.67h0a1.68,1.68,0,0,1,.28,1.2c.88-.1,1.53.63,2.31.84a1.46,1.46,0,0,0,.83,0,1.13,1.13,0,0,0,.53-.32.37.37,0,0,0,.07-.31.52.52,0,0,0-.12-.28c-.29-.37-.16-.64,0-.74l.07-.05a.18.18,0,0,1,.16,0h0l.07,0c.87.91,1.67.37,2.53.14a2.33,2.33,0,0,1,.25-.07h0a1.91,1.91,0,0,1,1.5.27,1.69,1.69,0,0,1,.58,1.19,1.55,1.55,0,0,1,.06.31,2.05,2.05,0,0,0,.43,1,1.56,1.56,0,0,1,.42,1.26c0,.1,0,.19-.07.29h0c-.05.06-.08.13-.13.19-1,1.38-1.38,3.33-3.34,4l-.21.08c-.57.21-.88.33-1.44-.36s-1.57-.39-2.45-.61l-.05,0a1.63,1.63,0,0,1-.77-.44c-.45-.47-1.54-.62-1.3-1.22h0a2.13,2.13,0,0,1,.75-.77c.35-.27.25-.56.06-.85l-.06-.09a4.07,4.07,0,0,1-.41-.61,1.24,1.24,0,0,0-.29-.39c-.05,0-.09-.14-.13-.17s-.11,0-.16-.05a1.18,1.18,0,0,0-.72-.08l-.74.14c0,.09,0,.13,0,.21,0,.51.39.75.72,1a1.69,1.69,0,0,1,.25.2s0,.07,0,.09a.66.66,0,0,1,.17.47h0a7.21,7.21,0,0,1-2.65.88c-1.39.22-2.82.21-4.2.39a5.49,5.49,0,0,1-2.05-1.47c-.74-1.08-2.24-.42-3.05-1.28h0a1.52,1.52,0,0,1-.3-.47s-.1,0-.16,0a1.13,1.13,0,0,0-1.24,1.42,1.54,1.54,0,0,1-.63,1.77,5.5,5.5,0,0,1-.39-1c-.31-.85-.51-1.71-.73-2.54a2.47,2.47,0,0,0-.65-1.22s0,0-.07,0a2.13,2.13,0,0,0-1.19-.5,1.09,1.09,0,0,0-.7.09c-.45.28-.28,1-.46,1.47a1.87,1.87,0,0,1-1,1.14c-.06,0-.09.09-.16.11h0c-.06,0-.06-.1-.1-.15l0,0a1.59,1.59,0,0,1-.41-1.41,3.1,3.1,0,0,0-.07-1.62s0-.07,0-.1-.12-.15-.16-.22a1.87,1.87,0,0,0-.32-.42s-.06,0-.08,0l-.19-.1a3,3,0,0,0-.6-.32c-.16-.05-.2-.18-.31-.27a1.08,1.08,0,0,1-.32-1.2,2.08,2.08,0,0,1,.19-.43.82.82,0,0,1,.22-.19c.07-.05.1-.12.19-.14h0a.62.62,0,0,1,.57.08h0a.72.72,0,0,1,.11.3,1.08,1.08,0,0,1,.1.27c0,.87.3,1.08.65,1a1.65,1.65,0,0,0,.49-.16l.59-.3c.43-.18.63-.41.64-.68a1,1,0,0,0-.22-.52,1.9,1.9,0,0,0-.31-.35,2.09,2.09,0,0,1-.67-1.2c-.15-.72-.06-1.51-.17-2.25a2.35,2.35,0,0,0-.35-1c-.27-.42,0-1.21-.76-1.26-.05,0-.06,0-.12,0s-.08,0-.14.06a.41.41,0,0,0-.35.42,1,1,0,0,0,0,.24,1,1,0,0,1,0,.47s0,.09-.05.13a8.8,8.8,0,0,1-1.06,2.36c-.06.07-.15.12-.22.19a1.8,1.8,0,0,1-.35.32l-.21-.18-.18-.15a3.73,3.73,0,0,0-.9-3,7,7,0,0,0-2.18-1.47l-.48-.25c-.9-.41-1.6-1.43-2.59-1.39a2,2,0,0,0-1.11.44l-.13,0-.33,0a1.77,1.77,0,0,0-1.93-1.76l-.9-.06-.44,0a3,3,0,0,1-.45-.11,2.15,2.15,0,0,1-.62-.37.64.64,0,0,1-.24-.39c0-.05-.06-.1-.05-.15a1,1,0,0,1,.34-.56,3.41,3.41,0,0,1,.57-.44,3,3,0,0,0,.47-.37l.09-.07a1.81,1.81,0,0,0,.51-1.95c0-.06-.07-.09-.09-.14a1.79,1.79,0,0,0-.25-.41,1.83,1.83,0,0,0-.24-.13A1.65,1.65,0,0,0,421,270a1.69,1.69,0,0,0-.32,0,1,1,0,0,0-.3,0c-.09,0-.19,0-.29.07l-.13,0-.22.06h0v0l-.08.05-.05.15-.07.2a4.05,4.05,0,0,1-.07.7,4.17,4.17,0,0,1-1,2.34,2.83,2.83,0,0,1-.75.6c-.08,0-.1.09-.16.13-1.14.82.39,2-.24,2.84a1.41,1.41,0,0,1-.46.38,3.48,3.48,0,0,1-2.79.61,2.55,2.55,0,0,1-.7-.32,2.19,2.19,0,0,1-1-1.86,2.74,2.74,0,0,1,.11-.79,5,5,0,0,1,.28-.76c.14-.27.3-.53.46-.8a11.85,11.85,0,0,0,1-1.88,4.37,4.37,0,0,0,.28-1,3.38,3.38,0,0,1,.67-1.83l0,0c.4-.38,1-.36,1.7,0a8.74,8.74,0,0,1,1.06.6,1.6,1.6,0,0,1,.33.35,3.39,3.39,0,0,0,.36.39,1.86,1.86,0,0,0,.2.1.77.77,0,0,0,.23.1,1.43,1.43,0,0,0,.29-.1.85.85,0,0,0,.29-.12l0-.06h0c0-.1,0-.2,0-.31a11.14,11.14,0,0,1,.61-5.33l0-.12a5.17,5.17,0,0,0,.27-3c-.12-.74-.32-1.47-.47-2.22a1.21,1.21,0,0,0-.43-.78c-.07-.05-.18,0-.26-.06l-.11,0a1.29,1.29,0,0,0-.45-.1.74.74,0,0,0-.35.09s-.08,0-.1,0c-.23.19-.09.56,0,.89a.36.36,0,0,0,0,.1l0,.23c.08.53.11,1.1-.61,1.17a1.51,1.51,0,0,1-.82-.15l-.13,0a.88.88,0,0,1-.32-1c.19-1.07-.15-1.41-.77-1.27a2.29,2.29,0,0,0-.62.25c-1.06.56-1.53,0-2.12-.7a2.61,2.61,0,0,1-.29-.45,1.26,1.26,0,0,1,.27-1.51.13.13,0,0,1,0-.05,3.71,3.71,0,0,0,.67-2.42c0-.1,0-.21,0-.31a4.29,4.29,0,0,0,0-.71,16.39,16.39,0,0,1,.59-3.83,4.39,4.39,0,0,0-.59-3.4,1.44,1.44,0,0,1-.09-.35,2.17,2.17,0,0,1,.1-1.07,1.51,1.51,0,0,1,1.32-1.09c.52-.07.47-.37.32-.68s-.2-.36-.28-.51a1.77,1.77,0,0,1,.36-2.4,9.52,9.52,0,0,1,.78-.67c.51-.4,1.06-.79,1.59-1.19,1.46-1.08,2.84-2.27,3.23-4.32,0-.06.06-.08.08-.14.24-.78.94-1,1.66-1.22A3.27,3.27,0,0,0,424,231c.12-.09.2-.1.27,0a.25.25,0,0,1,0,.07h0c.16.23.23.8.57,1a2.84,2.84,0,0,0,.51-2.06c0-.24,0-.49,0-.73a2.62,2.62,0,0,1,.09-.56h0c.4-1.31,1-1.52,1.89-.81a2.74,2.74,0,0,1,.31.23,4.69,4.69,0,0,0,.92.67l.07,0a1.38,1.38,0,0,0,.27.08,1.06,1.06,0,0,0,.19.06h.18a2.28,2.28,0,0,0,.26,0c.6-.16,1.23-.78,2.08-2,.58-.83.82-.75,1.31-.45a.5.5,0,0,1,.14.08l.16.09c.31.19.63.37.94.53a2.83,2.83,0,0,0,2.59.25,2.92,2.92,0,0,0,.37-.24,3.53,3.53,0,0,0,.82-.82.73.73,0,0,1,.41-.18s0,0,.06,0l0,0c.1,0,.14.05.21.07s.19,0,.22.07c1.06,1.86,2.41.66,3.5.26a7.73,7.73,0,0,1,2.41-.42h.17c.84,0,1.69,0,2.62,0h.17c.62,0,1.26,0,1.94,0-1.1,1-2.67,1.2-3.23,2.2a2,2,0,0,0-.18,1.35h0a7,7,0,0,1,1.11-.46,16.38,16.38,0,0,1,3-.55,2.07,2.07,0,0,1,2,1h0a1.75,1.75,0,0,0,0,.79c.31,1.32,1.9,2.41.79,4.07a.49.49,0,0,0,0,.36,1.5,1.5,0,0,0,.46.78,3.38,3.38,0,0,0,1.22.78c.85.29.78-.68,1-1.14a14.24,14.24,0,0,0,.69-1.68v0c.91.49,1.71,1,2.58,1.36a1.82,1.82,0,0,1,.71.46.75.75,0,0,1,.12.51,1.47,1.47,0,0,1-.05.34,1.23,1.23,0,0,1-.1.2.61.61,0,0,1-.33.34,1.41,1.41,0,0,1-.71-.06c-.92-.24-1.08.36-1.18.94,0,.16-.05.33-.09.47v0c-.06.23-.12.47-.16.71a1.74,1.74,0,0,0,.41,1.72.87.87,0,0,0,.43.21,1.73,1.73,0,0,0,.74-.07,4.37,4.37,0,0,0,.77-.28c.73-.36.66-.95.56-1.64a4.18,4.18,0,0,1,0-1.33h0c.16.29.32.55.47.78s.12.13.18.2a2,2,0,0,0,.32.37c.05,0,.11,0,.17.07a1,1,0,0,0,.45.18l.09,0a1.71,1.71,0,0,0,.74-.16,3.93,3.93,0,0,1,2.23.3c1.94.59,2.11,1,1.17,2.86-.3.57-.38.91-.13,1.17a1.64,1.64,0,0,0,.77.38,2.75,2.75,0,0,1,1.38.82,2.09,2.09,0,0,1,.26,2.22l-.09.23-.08.22v0a1.53,1.53,0,0,0-.06.67.84.84,0,0,0,.53.65c.09,0,.16,0,.23.07.63.17,1.05-.12,1.42-.74a1.41,1.41,0,0,1,1.06-.79,1.33,1.33,0,0,1,.84.15,3.67,3.67,0,0,1,.66.51,3.71,3.71,0,0,1,.8,1.13,1.32,1.32,0,0,1,.09.78v0A1.75,1.75,0,0,1,473.68,250Z"/><path class="cls-1" d="M457.44,230.41a1.6,1.6,0,0,1-.49-.12c-.31-.13-.54-.58-.88-.64.34.06.57.52.87.65A2.13,2.13,0,0,0,457.44,230.41Z"/><path class="cls-1" d="M457.17,231.72a1.22,1.22,0,0,0,.82-.36A1.22,1.22,0,0,1,457.17,231.72Z"/><path class="cls-1" d="M456.42,231.65a1.49,1.49,0,0,1-1.23-.64,1,1,0,0,1,.33-1.13s.06,0,.09,0-.06,0-.09,0a1,1,0,0,0-.33,1.14A1.51,1.51,0,0,0,456.42,231.65Z"/><path class="cls-3" d="M435.62,288.32l0-.05Z"/><path class="cls-3" d="M435.72,290.06a3.16,3.16,0,0,0-.07-1.58,3.25,3.25,0,0,1,.06,1.57,1.59,1.59,0,0,0,.41,1.41l0,0A1.55,1.55,0,0,1,435.72,290.06Z"/><path class="cls-3" d="M421.25,275.23h0l.44,0,.86.06C422.11,275.31,421.66,275.3,421.25,275.23Z"/><path class="cls-3" d="M466.07,292.16c.08-.09.05-.18.07-.28a.62.62,0,0,1-.07.29Z"/><path class="cls-3" d="M434.3,280.16h0a.9.9,0,0,0,.05-.47,1.09,1.09,0,0,1,0-.18A1.54,1.54,0,0,1,434.3,280.16Z"/><path class="cls-3" d="M432.63,283.15l-.21-.17.21.18a1.8,1.8,0,0,0,.35-.32,1.37,1.37,0,0,0,.18-.16A2.2,2.2,0,0,1,432.63,283.15Z"/><path class="cls-3" d="M460.68,278.84l-.1,0Z"/><path class="cls-3" d="M455.54,292.22a.67.67,0,0,1,.16.12A.67.67,0,0,0,455.54,292.22Z"/><path class="cls-3" d="M434.92,287.58l.14.07s.06,0,.08,0Z"/><path class="cls-3" d="M460.51,278.9l-.5.08a6.32,6.32,0,0,0-3.51,1.64A6.63,6.63,0,0,1,460,279Z"/><path class="cls-3" d="M433.85,286.86a1.1,1.1,0,0,1-.2-1.1,1.6,1.6,0,0,1,.27-.52s-.07.05-.09.09a1.63,1.63,0,0,0-.18.43A1.11,1.11,0,0,0,433.85,286.86Z"/><path class="cls-3" d="M435.05,285.67c.05,1.21.58,1.14,1.11.9a1.77,1.77,0,0,1-.45.14c-.35,0-.63-.18-.65-1a1.25,1.25,0,0,0-.1-.27.72.72,0,0,0-.11-.3h0a.66.66,0,0,0-.48-.07C434.8,284.94,435,285.22,435.05,285.67Z"/><path class="cls-3" d="M436.08,281.36c.09.7,0,1.45.15,2.14a2.18,2.18,0,0,0,.27.72C436,283.38,436.2,282.32,436.08,281.36Z"/><path class="cls-3" d="M436.91,284.7a1.75,1.75,0,0,1-.36-.42,1.9,1.9,0,0,0,.35.42,1.9,1.9,0,0,1,.31.35,1,1,0,0,1,.22.52A1.21,1.21,0,0,0,436.91,284.7Z"/><path class="cls-3" d="M456.41,288.53h0a1.68,1.68,0,0,0-.28-1.2h0A1.61,1.61,0,0,1,456.41,288.53Z"/><path class="cls-3" d="M473.86,249a1.26,1.26,0,0,1-.14,1c0-.09.14-.18.17-.27v0A1.27,1.27,0,0,0,473.86,249Z"/><path class="cls-3" d="M424.88,277.14h.1a2.11,2.11,0,0,1,.78-.37,2.11,2.11,0,0,0-.78.37Z"/><path class="cls-3" d="M459.86,288.09a.74.74,0,0,0,.17.38.52.52,0,0,1,.12.27.52.52,0,0,0-.12-.27A.7.7,0,0,1,459.86,288.09Z"/><path class="cls-3" d="M447,292.7a2.71,2.71,0,0,0,.41.44,2.71,2.71,0,0,1-.41-.44c-.84-1.22-2.68-.19-3.35-1.74,0,0-.08,0-.11,0s.09,0,.1,0a1.52,1.52,0,0,0,.3.47h0C444.76,292.29,446.26,291.63,447,292.7Z"/><path class="cls-3" d="M461.9,288.22a1.52,1.52,0,0,1-.92,0A1.52,1.52,0,0,0,461.9,288.22Z"/><path class="cls-3" d="M462.6,296.38l-.18.06.18-.06c1.88-.67,2.28-2.49,3.24-3.86C464.88,293.88,464.48,295.71,462.6,296.38Z"/><path class="cls-3" d="M455.8,290.75a2.09,2.09,0,0,1,.23.08A2.09,2.09,0,0,0,455.8,290.75Z"/><path class="cls-3" d="M418.5,258.28h0Z"/><path class="cls-3" d="M437.88,288.93a1.09,1.09,0,0,1,.7-.09,2.13,2.13,0,0,1,1.16.49,2.14,2.14,0,0,0-1.16-.5A1.15,1.15,0,0,0,437.88,288.93Z"/><path class="cls-3" d="M459.86,288.09a.39.39,0,0,1,.26-.41l-.07.05A.37.37,0,0,0,459.86,288.09Z"/><path class="cls-3" d="M429.45,278.5a6.5,6.5,0,0,1,1.89,1.32A6.5,6.5,0,0,0,429.45,278.5Z"/><path class="cls-3" d="M448.25,293.77a2.85,2.85,0,0,0,.8.41c1.15-.15,2.34-.15,3.51-.27-1.16.12-2.35.12-3.51.27A3,3,0,0,1,448.25,293.77Z"/><path class="cls-3" d="M463.67,263.8a6,6,0,0,0-.33,1.12,6,6,0,0,1,.33-1.12,4.69,4.69,0,0,0,.37-2.07A4.69,4.69,0,0,1,463.67,263.8Z"/><path class="cls-3" d="M454.72,282.81c-.32.76.2,1.08.8,1.45a3.65,3.65,0,0,1-.67-.5A.77.77,0,0,1,454.72,282.81Z"/><path class="cls-3" d="M456.73,291.48a1.37,1.37,0,0,0-.42-.56s.08.12.13.17a1.24,1.24,0,0,1,.29.39,4.07,4.07,0,0,0,.41.61l.05.07A5.1,5.1,0,0,1,456.73,291.48Z"/><path class="cls-3" d="M454.69,290.92v0h0l.74-.14.27,0C455.37,290.77,455,290.88,454.69,290.92Z"/><path class="cls-3" d="M455.89,292.9h0a.68.68,0,0,0-.15-.41A.62.62,0,0,1,455.89,292.9Z"/><path class="cls-3" d="M463.48,271.09a2.39,2.39,0,0,0-1,0,2.54,2.54,0,0,1,.94,0,1.47,1.47,0,0,0,.74,0A1.54,1.54,0,0,1,463.48,271.09Z"/><path class="cls-3" d="M454.89,282.43c.07-.11.15-.19.22-.29-.07.1-.15.18-.22.29Z"/><path class="cls-3" d="M463.19,287.85a1.66,1.66,0,0,1,2.1,1.78,1.81,1.81,0,0,0,.37.89,1.81,1.81,0,0,1-.37-.9,1.55,1.55,0,0,0-.06-.31,1.69,1.69,0,0,0-.58-1.19A1.9,1.9,0,0,0,463.19,287.85Z"/><path class="cls-3" d="M459.56,289.38a1.21,1.21,0,0,0,.49-.29,1.18,1.18,0,0,1-.5.29,1.46,1.46,0,0,1-.83,0A1.41,1.41,0,0,0,459.56,289.38Z"/><path class="cls-3" d="M461.17,277.83a.93.93,0,0,1,.08.54.9.9,0,0,0-.08-.53c-.68-1.75.32-3.27.4-4.89a4.77,4.77,0,0,1,.1-.91,4.77,4.77,0,0,0-.1.91C461.49,274.58,460.49,276.09,461.17,277.83Z"/><path class="cls-3" d="M439.84,289.37a2.56,2.56,0,0,1,.66,1.22c.2.79.39,1.61.68,2.43-.28-.82-.47-1.64-.68-2.42A2.55,2.55,0,0,0,439.84,289.37Z"/><path class="cls-3" d="M461.52,257.28l-.08,0a.24.24,0,0,1,.09,0,2.57,2.57,0,0,0,.76-.14c.09,0,.17-.1.25-.14A2.14,2.14,0,0,1,461.52,257.28Z"/><path class="cls-3" d="M431.7,226.93c.49-.69.73-.77,1.07-.61-.34-.16-.58-.09-1.06.6a6.47,6.47,0,0,1-1.62,1.78A6.39,6.39,0,0,0,431.7,226.93Z"/><path class="cls-3" d="M437.19,227.2a2.46,2.46,0,0,1-.34.22,2.83,2.83,0,0,1-2.59-.25c-.24-.12-.47-.25-.71-.39C434.78,227.52,436,228,437.19,227.2Z"/><path class="cls-3" d="M457.66,238.24c0,.19-.09.39-.13.6,0-.21.09-.41.14-.6v0c0-.11.05-.23.07-.35A3.61,3.61,0,0,1,457.66,238.24Z"/><path class="cls-3" d="M420.06,270.07l-.07,0h0Z"/><path class="cls-3" d="M424.28,230.94c-.07-.06-.15-.05-.28,0a2.53,2.53,0,0,1-.87.43A2.8,2.8,0,0,0,424,231C424.13,230.89,424.22,230.89,424.28,230.94Z"/><path class="cls-3" d="M446.38,229.71h0a2,2,0,0,1,.18-1.35A2,2,0,0,0,446.38,229.71Z"/><path class="cls-3" d="M425.54,228.67h0a1.93,1.93,0,0,0-.07.49A2.08,2.08,0,0,1,425.54,228.67Z"/><path class="cls-3" d="M456,235.37a17,17,0,0,0,.67-1.67,13,13,0,0,1-.68,1.66c-.25.45-.19,1.37-1,1.14C455.83,236.73,455.77,235.81,456,235.37Z"/><path class="cls-3" d="M459.65,236.86a.58.58,0,0,0,.32-.32A.58.58,0,0,1,459.65,236.86Z"/><path class="cls-3" d="M460.13,236a.69.69,0,0,0-.12-.49A.69.69,0,0,1,460.13,236Z"/><path class="cls-3" d="M459.87,240.53l-.49.2a3.14,3.14,0,0,0,.49-.21c1.16-.57.29-1.68.52-3h0a4.18,4.18,0,0,0,0,1.33C460.52,239.58,460.59,240.17,459.87,240.53Z"/><path class="cls-3" d="M438.75,226.2c-.07,0-.11-.07-.2-.07l0,0s0,0-.05,0A.56.56,0,0,1,438.75,226.2Z"/><path class="cls-3" d="M453.3,234.94A2.64,2.64,0,0,0,455,236.5h0a3.38,3.38,0,0,1-1.22-.78A1.56,1.56,0,0,1,453.3,234.94Z"/><path class="cls-3" d="M418.51,259.4a.59.59,0,0,1,0-.13.31.31,0,0,1,0-.08.19.19,0,0,0,0,.08A.59.59,0,0,0,418.51,259.4Z"/><path class="cls-3" d="M421.53,270.27a1.2,1.2,0,0,1,.16.27A1.2,1.2,0,0,0,421.53,270.27Z"/><path class="cls-3" d="M421,270c.06,0,.11.07.18.1S421.09,270,421,270Z"/><path class="cls-3" d="M420.42,270a1.77,1.77,0,0,1,.23,0A1.77,1.77,0,0,0,420.42,270Z"/><path class="cls-3" d="M450.51,228.69a2.08,2.08,0,0,1,2,1,1.84,1.84,0,0,0,0,.66,1.65,1.65,0,0,1,0-.66h0a2.08,2.08,0,0,0-2-1,17.47,17.47,0,0,0-3,.55,6.94,6.94,0,0,0-1.1.46A11.77,11.77,0,0,1,450.51,228.69Z"/><path class="cls-3" d="M415.92,258.22a.72.72,0,0,1,.49,0A.72.72,0,0,0,415.92,258.22Z"/><path class="cls-3" d="M466.22,254.2a3.06,3.06,0,0,0-2.29,1.52,3.09,3.09,0,0,1,2.29-1.52.66.66,0,0,0,.46-.21h0A.73.73,0,0,1,466.22,254.2Z"/><path class="cls-3" d="M447.08,226.12c-.7,0-1.37,0-2,0H445C445.63,226.08,446.34,226.09,447.08,226.12Z"/><path class="cls-3" d="M468.34,251.68c-.61.56-1.51.92-1.47,1.83,0,.06-.05.1-.06.15s.06-.09.06-.15a1.14,1.14,0,0,1,.09-.5C467.2,252.45,467.86,252.13,468.34,251.68Z"/><path class="cls-3" d="M424.9,232a2.27,2.27,0,0,0,.49-1.45,2.24,2.24,0,0,1-.49,1.44c-.34-.21-.41-.78-.57-1h0C424.49,231.24,424.56,231.82,424.9,232Z"/><path class="cls-3" d="M413,256a1.2,1.2,0,0,0-.14,1.3A1.2,1.2,0,0,1,413,256Z"/><path class="cls-3" d="M415.66,239c.21-.2.45-.4.72-.61,1.73-1.38,3.78-2.55,4.56-4.84a7.68,7.68,0,0,1-3,3.64c-.53.4-1.08.79-1.59,1.2A7.88,7.88,0,0,0,415.66,239Z"/><path class="cls-3" d="M413.77,244.7a1.69,1.69,0,0,1,1.44-2.09c.45-.07.47-.31.37-.58.1.27.08.51-.38.58a1.5,1.5,0,0,0-1.32,1.08A2.06,2.06,0,0,0,413.77,244.7Z"/><path class="cls-3" d="M472.22,247.19a1.15,1.15,0,0,0-.64-.14A1.35,1.35,0,0,1,472.22,247.19Z"/><path class="cls-3" d="M472,250.88a1.76,1.76,0,0,1-1.07-.82,1,1,0,0,0-.48-.34,1.07,1.07,0,0,1,.48.35,2.32,2.32,0,0,0,.37.39A1.49,1.49,0,0,0,472,250.88Z"/><path class="cls-3" d="M428.26,228.52a2.79,2.79,0,0,0,.33.19A2.79,2.79,0,0,1,428.26,228.52Z"/><path class="cls-3" d="M413.45,255.13a4.68,4.68,0,0,0,.36-1.78c0-.32.08-.67.07-1a15.14,15.14,0,0,1,.57-3.74,15.16,15.16,0,0,0-.58,3.74,4.29,4.29,0,0,1,0,.71c0,.1,0,.21,0,.31A4.82,4.82,0,0,1,413.45,255.13Z"/><path class="cls-3" d="M468.89,248.56l-.1,0h0Z"/><path class="cls-3" d="M460.86,238.35c0,.06.09.09.13.15S460.9,238.41,460.86,238.35Z"/><path class="cls-3" d="M466.09,243.34a1.72,1.72,0,0,0,.75.37,2.08,2.08,0,0,1,1.64,3,2.64,2.64,0,0,0-.23,1.1,1.51,1.51,0,0,1,.07-.63v0l.08-.22.09-.23a2.09,2.09,0,0,0-.26-2.22,2.75,2.75,0,0,0-1.38-.82A1.62,1.62,0,0,1,466.09,243.34Z"/><path class="cls-3" d="M428.73,228.8l.15,0Z"/><path class="cls-3" d="M416.65,259.5c.1-.61,0-1-.19-1.14.2.18.29.53.18,1.15a.88.88,0,0,0,.32,1l.12,0A.84.84,0,0,1,416.65,259.5Z"/><path class="cls-3" d="M461.47,239s-.08,0-.11,0S461.44,238.94,461.47,239Z"/><path class="cls-3" d="M434.8,279h0Z"/><path class="cls-3" d="M427.74,228.09s-.05,0-.07-.06l.08.06Z"/><path class="cls-3" d="M463.29,265.09c-.1,1.05.62,1.43,2.56,2-.22.25-.43.5-.62.76a8.74,8.74,0,0,1,.63-.76,11.65,11.65,0,0,1-1.45-.51l-.1,0C463.52,266.19,463.22,265.79,463.29,265.09Z"/><path class="cls-3" d="M420.39,264.38s0,.07,0,.09,0-.06,0-.09c.81-1.88.15-3.52-.2-5.25a1.06,1.06,0,0,0-.8-.87l.1,0c.08,0,.19,0,.26.06a1.21,1.21,0,0,1,.43.78c.16.75.35,1.48.47,2.22A5.17,5.17,0,0,1,420.39,264.38Z"/><path class="cls-3" d="M419.89,274.2c0-.32.39-.66.91-1a3.86,3.86,0,0,0,.38-.3,3.86,3.86,0,0,1-.38.3,3.41,3.41,0,0,0-.57.44A1,1,0,0,0,419.89,274.2Z"/><path class="cls-3" d="M420,274.52a.9.9,0,0,0,.18.23,2.15,2.15,0,0,0,.62.37,3,3,0,0,0,.45.11h0a2.12,2.12,0,0,1-.45-.12A1.41,1.41,0,0,1,420,274.52Z"/><path class="cls-3" d="M419.77,270.15l.22-.06h0a2.25,2.25,0,0,0-.22.05Z"/><path class="cls-3" d="M473.86,249a2.81,2.81,0,0,0-.58-.91c-.1-.11-.19-.23-.29-.33a2.64,2.64,0,0,0-.77-.54,1.35,1.35,0,0,0-.64-.14.83.83,0,0,0-.21.06,1.47,1.47,0,0,0-.92.75,1.9,1.9,0,0,1-.56.62,1,1,0,0,1-1,.08l-.09,0h0a1,1,0,0,1-.47-.38.7.7,0,0,1-.07-.31,2.64,2.64,0,0,1,.23-1.1,2.08,2.08,0,0,0-1.64-3,1.72,1.72,0,0,1-.75-.37l-.08-.09s-.07-.07-.08-.1,0,0,0-.06a.8.8,0,0,1,0-.37,4.81,4.81,0,0,1,.25-.58c0-.08.05-.13.09-.21.8-1.67.59-2.08-1.26-2.63a12.33,12.33,0,0,0-1.3-.35,1.7,1.7,0,0,0-.93.05,1.29,1.29,0,0,1-1.33,0s-.08,0-.11,0h0a3.08,3.08,0,0,1-.37-.42c0-.06-.09-.09-.13-.15-.15-.23-.31-.49-.47-.78-.23,1.27.64,2.38-.52,3a3.14,3.14,0,0,1-.49.21,1.45,1.45,0,0,1-1.47-.06,1.26,1.26,0,0,1-.35-.52h0a2.38,2.38,0,0,1,0-1.3c0-.21.09-.41.13-.6a3.61,3.61,0,0,0,.08-.38,1.44,1.44,0,0,1,.41-.94.8.8,0,0,1,.79-.13,2.07,2.07,0,0,0,.55.08.43.43,0,0,0,.16,0,.58.58,0,0,0,.32-.32.9.9,0,0,0,.11-.22h0a1,1,0,0,0,0-.23.59.59,0,0,0,0-.13.69.69,0,0,0-.12-.49s-.08-.06-.11-.09a2.35,2.35,0,0,0-.61-.37c-.85-.38-1.66-.86-2.58-1.35v0a17,17,0,0,1-.67,1.67c-.26.44-.2,1.36-1,1.13h0a2.64,2.64,0,0,1-1.69-1.56h0a.49.49,0,0,1,0-.36c1.16-1.72-.62-2.81-.83-4.19a1.84,1.84,0,0,1,0-.66,2.08,2.08,0,0,0-2-1,11.77,11.77,0,0,0-4.08,1l-.05,0h0a2,2,0,0,1,.18-1.35h0c.56-1,2.13-1.17,3.22-2.2-.57,0-1.1,0-1.62,0s-.73,0-1.08,0c-.74,0-1.45,0-2.13,0a7.75,7.75,0,0,0-2.46.42c-1,.36-2.12,1.31-3.1.31l-.06-.08a2.71,2.71,0,0,1-.35-.48c0-.06-.15-.06-.23-.08a.56.56,0,0,0-.29,0,.63.63,0,0,0-.41.19,3.68,3.68,0,0,1-.86.83c-1.19.82-2.41.32-3.64-.42l-.4-.24-.38-.22c-.34-.16-.58-.08-1.07.61a6.39,6.39,0,0,1-1.61,1.77,1.3,1.3,0,0,1-1.21.15l-.15,0h0l-.14-.09a2.79,2.79,0,0,1-.33-.19c-.16-.12-.33-.27-.51-.43l-.08-.06c-.53-.46-.95-.67-1.28-.58s-.62.5-.85,1.22a2.08,2.08,0,0,0-.07.5c-.06.46-.06.94-.08,1.42a2.27,2.27,0,0,1-.49,1.45c-.34-.22-.41-.8-.58-1a.25.25,0,0,0,0-.07c-.06-.05-.15-.05-.26.05a2.8,2.8,0,0,1-.89.42c-.33.11-.65.22-1,.34a1.43,1.43,0,0,0-1,1.08,4.57,4.57,0,0,1-.26.68c-.78,2.29-2.83,3.46-4.56,4.84-.27.21-.51.41-.72.61a2.61,2.61,0,0,0-.57.72,1.83,1.83,0,0,0,.16,1.73c.09.18.25.41.33.62s.08.51-.37.58a1.69,1.69,0,0,0-1.44,2.09,1.23,1.23,0,0,0,.11.41,4.42,4.42,0,0,1,.57,3.49,15.14,15.14,0,0,0-.57,3.74c0,.34-.06.69-.07,1a4.68,4.68,0,0,1-.36,1.78,2.29,2.29,0,0,1-.31.65,2.79,2.79,0,0,0-.17.25,1.2,1.2,0,0,0-.14,1.3,2.17,2.17,0,0,0,.2.29c0,.06.06.11.1.16a3.37,3.37,0,0,0,.8.77l.09.06a.81.81,0,0,0,.31.06,1.38,1.38,0,0,0,.91-.19,2.66,2.66,0,0,1,.68-.26.72.72,0,0,1,.49,0s0,.07,0,.09c.2.18.29.53.19,1.14a.84.84,0,0,0,.43,1,1.23,1.23,0,0,0,.42.14,1.89,1.89,0,0,0,.41,0,.67.67,0,0,0,.31-.11c.39-.21.36-.69.29-1.15a.59.59,0,0,1,0-.13.19.19,0,0,1,0-.08s0-.06,0-.1c-.08-.3-.18-.63.05-.81h0a.72.72,0,0,1,.39-.12h0a1.35,1.35,0,0,1,.46.11,1.06,1.06,0,0,1,.8.87c.35,1.73,1,3.37.2,5.25,0,0,0,.06,0,.09a11.43,11.43,0,0,0-.61,5.37c0,.1,0,.2,0,.3a2.25,2.25,0,0,1,.22-.05l.07,0a2.42,2.42,0,0,1,.36-.1,1.77,1.77,0,0,1,.23,0,1.59,1.59,0,0,1,.38,0c.06,0,.11.07.18.1a1.41,1.41,0,0,1,.32.17,1.2,1.2,0,0,1,.16.27,1,1,0,0,1,.18.29,1.8,1.8,0,0,1-.51,1.94c-.05.05-.12.09-.18.14a3.86,3.86,0,0,1-.38.3c-.52.33-.87.67-.91,1,0,.11.06.21.11.32a1.41,1.41,0,0,0,.8.59,2.12,2.12,0,0,0,.45.12c.41.07.86.08,1.3.11a1.63,1.63,0,0,1,.31,0,1.7,1.7,0,0,1,1.66,1.72l.36.05h.1a2.11,2.11,0,0,1,.78-.37c1.17-.31,1.93.87,2.93,1.32.27.13.51.27.76.4a6.5,6.5,0,0,1,1.89,1.32,3.72,3.72,0,0,1,.9,3l.16.14h0l.21.17a2.2,2.2,0,0,0,.53-.47,9.89,9.89,0,0,0,1.14-2.52,1.54,1.54,0,0,0,0-.65c0-.26.06-.48.46-.53h.08c.86,0,.55.84.83,1.27a2.53,2.53,0,0,1,.21.44,3.11,3.11,0,0,1,.16.67c.12,1-.1,2,.42,2.86l.05.06a1.75,1.75,0,0,0,.36.42,1.21,1.21,0,0,1,.52.87c0,.07-.06.13-.08.2a.77.77,0,0,1-.24.28,1.66,1.66,0,0,1-.31.21,1.42,1.42,0,0,0-.25.12l-.39.19c-.53.24-1.06.31-1.11-.9,0-.45-.25-.73-.72-.66,0,0-.05,0-.09,0a.64.64,0,0,0-.32.24,1.6,1.6,0,0,0-.27.52,1.1,1.1,0,0,0,.2,1.1,1,1,0,0,0,.42.37,2.83,2.83,0,0,1,.65.35l.22.11h0a1.66,1.66,0,0,1,.16.21,2,2,0,0,1,.28.37l0,.05a.9.9,0,0,1,0,.16,3.16,3.16,0,0,1,.07,1.58,1.55,1.55,0,0,0,.42,1.43c.05.05.05.11.11.16a1.59,1.59,0,0,0,.67-.43,2.43,2.43,0,0,0,.49-.83c.18-.45,0-1.19.47-1.46a1.15,1.15,0,0,1,.7-.1,2.14,2.14,0,0,1,1.16.5s.08,0,.1,0a2.55,2.55,0,0,1,.66,1.23c.21.78.4,1.6.68,2.42a6,6,0,0,0,.44,1.1l.2-.22a1.45,1.45,0,0,0,.41-1.55,1.07,1.07,0,0,1,.54-1.27,1,1,0,0,1,.77-.14s.1,0,.11,0c.67,1.55,2.51.52,3.35,1.74a2.71,2.71,0,0,0,.41.44,7.36,7.36,0,0,0,.84.63,3,3,0,0,0,.8.41c1.16-.15,2.35-.15,3.51-.27a7.68,7.68,0,0,0,3.33-1,.62.62,0,0,0-.14-.41s0-.11-.05-.15a.67.67,0,0,0-.16-.12c-.39-.33-1-.53-.85-1.28v0c.34,0,.68-.15,1-.16h.1a2.09,2.09,0,0,1,.23.08.61.61,0,0,1,.28.09h0a1.37,1.37,0,0,1,.42.56,5.1,5.1,0,0,0,.46.68c.2.3.31.6-.05.87-.1.07-.15.13-.23.19-.63.53-.65.84-.4,1.07a3.59,3.59,0,0,0,.68.4,2.24,2.24,0,0,1,.49.34,2.48,2.48,0,0,0,1.9.57,3.64,3.64,0,0,1,.68.07,1.17,1.17,0,0,1,.7.42c.3.39.53.53.78.53a1.24,1.24,0,0,0,.47-.1l.21-.08.18-.06c1.88-.67,2.28-2.5,3.24-3.86a3,3,0,0,1,.23-.35.62.62,0,0,0,.07-.29c0-.1.11-.21.09-.31a3.64,3.64,0,0,0-.57-1.05,1.81,1.81,0,0,1-.37-.89,1.66,1.66,0,0,0-2.1-1.78h0a12.28,12.28,0,0,0-1.26.37,1.52,1.52,0,0,1-.92,0,1.59,1.59,0,0,1-.68-.49.19.19,0,0,0-.18-.05.39.39,0,0,0-.26.41h0a.7.7,0,0,0,.17.38.52.52,0,0,1,.12.27s0,0,0,.06a.38.38,0,0,1-.12.29,1.21,1.21,0,0,1-.49.29,1.41,1.41,0,0,1-.84,0,16.29,16.29,0,0,1-1.53-.72,1.71,1.71,0,0,0-.78-.12h0a1.61,1.61,0,0,0-.29-1.19.87.87,0,0,0-.31-.22l-.05,0a6.09,6.09,0,0,0-1.64-.2,1.57,1.57,0,0,1-.74-.21h0c.22-1.37,1.8-1.28,2.24-2.35l-.1-.06c-.6-.37-1.12-.69-.8-1.45a1.35,1.35,0,0,1,.17-.38h0c.07-.11.15-.19.22-.29a9.24,9.24,0,0,1,1.39-1.52A6.32,6.32,0,0,1,460,279l.5-.08.07,0,.1,0,.12,0a.66.66,0,0,0,.45-.42.93.93,0,0,0-.08-.54c-.68-1.74.32-3.25.4-4.88a4.77,4.77,0,0,1,.1-.91,1.13,1.13,0,0,1,.86-1,2.39,2.39,0,0,1,1,0,1.54,1.54,0,0,0,.73,0c.19-.06.3-.24.25-.65a3.31,3.31,0,0,1,.23-1.61,4.54,4.54,0,0,1,.54-1c.19-.26.4-.51.62-.76-1.94-.57-2.66-.95-2.56-2a.84.84,0,0,0,0-.17,6,6,0,0,1,.33-1.12,4.69,4.69,0,0,0,.37-2.07,4.24,4.24,0,0,0-2.38-3.39c-.44-.28-.52-.61-.43-.83a.31.31,0,0,1,.21-.19l.08,0a2.14,2.14,0,0,0,1-.27,4.73,4.73,0,0,0,1.39-1.29,3.06,3.06,0,0,1,2.29-1.52.73.73,0,0,0,.46-.21.7.7,0,0,0,.13-.33s.06-.09.06-.15c0-.91.86-1.27,1.47-1.83a1.74,1.74,0,0,0,.37-.45,1.61,1.61,0,0,0,.12-.39.45.45,0,0,0,0-.11,1.62,1.62,0,0,0-.07-.63h0c0-.06.06-.16.2-.25a1.94,1.94,0,0,1,.8-.23,1.18,1.18,0,0,1,.61.1,1,1,0,0,1,.48.34,1.76,1.76,0,0,0,1.07.82,1.25,1.25,0,0,0,.89-.09,2.33,2.33,0,0,0,.6-.42,1.65,1.65,0,0,0,.28-.43A1.26,1.26,0,0,0,473.86,249ZM433.4,276.41a1.33,1.33,0,0,1-.73.62.41.41,0,0,1-.28,0c-.23-.06-.29-.37-.33-.6a2.77,2.77,0,0,0-1.74-2c-.25-.13-.51-.41-.79-.32a.53.53,0,0,0-.28.22l-.09.14a2.37,2.37,0,0,1-.47.55c-.2.14-.44.12-.74-.26a1.82,1.82,0,0,1-.34-1,1.86,1.86,0,0,1,.47-1.36s0,0,0,0c.51-.52,1.48-.94,2-.29h0a3.53,3.53,0,0,0,.36.39,1.58,1.58,0,0,0,.93.44c.06,0,.12,0,.19,0l.18,0a4,4,0,0,0,.46-.05c.57-.12.74.1.82.38s0,.84.27,1A3.18,3.18,0,0,1,433.4,276.41Zm15.48,5.17a5.07,5.07,0,0,1-3.36,1.21c.11-.08.19-.17.29-.25.86-.74,1.49-1.46,2.41-1.53.09,0,.21.05.3.05a2.74,2.74,0,0,1,.88.16Zm10.78-25.86c.76,1.87.76,1.87-2,2.61Zm-.85,14.6c-.19.47.11,1.14-.18,1.57a.9.9,0,0,1-.53.33.75.75,0,0,1-.77-.51.37.37,0,0,1,0-.27.77.77,0,0,0,0-.15c.18-.62-.3-1.47.47-1.81.07,0,.09-.08.18-.1A.66.66,0,0,1,458.81,270.32Zm2.72-9.36a4.44,4.44,0,0,1,.71.21.46.46,0,0,1,.23.23,8.28,8.28,0,0,1,.39,1.19q.08.27.18.54c-.1-.05-.19-.05-.28-.09-2-.85-3.7-.37-5.45-.6h0a2.36,2.36,0,0,0,.48-.75.49.49,0,0,0,0-.11c.3-.71.47-1.51.87-1.54a.42.42,0,0,1,.28.08A7.58,7.58,0,0,0,461.53,261Z"/><path class="cls-3" d="M458.5,295.49l-.05,0Z"/><path class="cls-3" d="M473.89,249.64a1.32,1.32,0,0,0-.09-.78.6.6,0,0,0,.06.11A1.27,1.27,0,0,1,473.89,249.64Z"/><path class="cls-3" d="M468.4,247l-.08.22Z"/><path class="cls-3" d="M421.78,270.68a.85.85,0,0,0-.09-.14,1.2,1.2,0,0,0-.16-.27h0A1.79,1.79,0,0,1,421.78,270.68Z"/><path class="cls-3" d="M464.31,266.55l.1,0Z"/><path class="cls-3" d="M473.68,250a1.75,1.75,0,0,0,.21-.32c0,.09-.13.18-.17.27Z"/><path class="cls-3" d="M456.38,293.81h0Z"/><path class="cls-3" d="M421.29,270.14l-.08,0c-.07,0-.12-.08-.18-.1h0A1.65,1.65,0,0,1,421.29,270.14Z"/><path class="cls-3" d="M420.06,270.07l-.07,0h0l.13,0Z"/><path class="cls-3" d="M464.65,288.12a1.69,1.69,0,0,1,.58,1.19A1.69,1.69,0,0,0,464.65,288.12Z"/><path class="cls-3" d="M447.76,226.15h0Z"/><path class="cls-3" d="M420.71,270h-.06a1.77,1.77,0,0,0-.23,0h0A1,1,0,0,1,420.71,270Z"/><path class="cls-3" d="M434.85,285.09a.72.72,0,0,1,.11.3A.72.72,0,0,0,434.85,285.09Z"/><path class="cls-3" d="M438.51,226.15l0,0Z"/><path class="cls-3" d="M434.35,279.69a1,1,0,0,1,0-.24s0,0,0,.06A1.09,1.09,0,0,0,434.35,279.69Z"/><path class="cls-3" d="M457.67,238.21c0-.14.06-.31.09-.47a.5.5,0,0,0,0,.12C457.72,238,457.7,238.1,457.67,238.21Z"/><path class="cls-3" d="M421.25,275.23l.44,0-.44,0Z"/><path class="cls-3" d="M460.38,237.56h0a4.18,4.18,0,0,0,0,1.33A4.18,4.18,0,0,1,460.38,237.56Z"/><path class="cls-3" d="M433.92,285.24a.57.57,0,0,1,.13-.1.82.82,0,0,0-.22.19S433.89,285.27,433.92,285.24Z"/><path class="cls-3" d="M460.58,278.88h0a.43.43,0,0,0,.12-.05h0Z"/><path class="cls-3" d="M467,253c.25-.58,1-.91,1.45-1.39l-.07.06C467.86,252.13,467.2,252.45,467,253Z"/><path class="cls-3" d="M436.16,286.57l0,0a1.65,1.65,0,0,1-.49.16A1.77,1.77,0,0,0,436.16,286.57Z"/><path class="cls-3" d="M468.25,247.84v0a1.53,1.53,0,0,1,.06-.67A1.51,1.51,0,0,0,468.25,247.84Z"/><path class="cls-3" d="M462.07,239.15l-.09,0Z"/><path class="cls-3" d="M427.74,228.09h0a5.84,5.84,0,0,0,.51.43,2.79,2.79,0,0,0,.33.19l.07,0a4.69,4.69,0,0,1-.92-.67,2.74,2.74,0,0,0-.31-.23,2.73,2.73,0,0,1,.24.17S427.71,228.06,427.74,228.09Z"/><path class="cls-3" d="M466.85,243.7a2.75,2.75,0,0,1,1.38.82,2.75,2.75,0,0,0-1.38-.82,1.64,1.64,0,0,1-.77-.38v0A1.62,1.62,0,0,0,466.85,243.7Z"/><path class="cls-3" d="M435.06,287.65s.06,0,.08,0h0S435.08,287.67,435.06,287.65Z"/><path class="cls-3" d="M460,279a6.6,6.6,0,0,0-1.89.56A6.6,6.6,0,0,1,460,279a4.51,4.51,0,0,0,.55-.09h-.06Z"/><path class="cls-3" d="M461.47,239l.06,0c-.06,0-.12,0-.17-.07h0S461.44,238.94,461.47,239Z"/><path class="cls-3" d="M470.4,249.72l0,0a1,1,0,0,1,.53.38,2.32,2.32,0,0,0,.37.39,2.32,2.32,0,0,1-.37-.39A1.07,1.07,0,0,0,470.4,249.72Z"/><path class="cls-3" d="M434.81,285.08a.62.62,0,0,0-.57-.08h0s.05,0,.09,0A.66.66,0,0,1,434.81,285.08Z"/><polygon class="cls-3" points="466.68 253.99 466.68 253.99 466.68 253.99 466.68 253.99"/><path class="cls-3" d="M425.76,276.78a2.11,2.11,0,0,0-.78.37h-.13l.13,0a2,2,0,0,1,1.11-.44A1.3,1.3,0,0,0,425.76,276.78Z"/><path class="cls-3" d="M460.13,236v0a.75.75,0,0,0-.12-.51h0A.69.69,0,0,1,460.13,236Z"/><path class="cls-3" d="M432.42,283h0l.21.18a1.8,1.8,0,0,0,.35-.32,1.8,1.8,0,0,1-.35.32Z"/><path class="cls-3" d="M429.45,278.5l-.29-.15a7,7,0,0,1,2.18,1.47h0A6.5,6.5,0,0,0,429.45,278.5Z"/><path class="cls-3" d="M452.52,229.71a2.07,2.07,0,0,0-2-1,16.38,16.38,0,0,0-3,.55,17.47,17.47,0,0,1,3-.55A2.08,2.08,0,0,1,452.52,229.71Z"/><path class="cls-3" d="M466.8,253.69c0-.06.07-.11.07-.18h0c0,.06-.05.1-.06.15Z"/><path class="cls-3" d="M459.65,236.86h0a.61.61,0,0,0,.33-.34v0A.58.58,0,0,1,459.65,236.86Z"/><path class="cls-3" d="M436.85,227.42a2.83,2.83,0,0,1-2.59-.25A2.83,2.83,0,0,0,436.85,227.42Z"/><path class="cls-3" d="M413,256a2.43,2.43,0,0,1,.14-.2,1.26,1.26,0,0,0-.27,1.51h0A1.2,1.2,0,0,1,413,256Z"/><path class="cls-3" d="M436.55,284.28l-.05-.06a2.18,2.18,0,0,1-.27-.72,2.09,2.09,0,0,0,.67,1.2,1.9,1.9,0,0,1,.31.35,1.9,1.9,0,0,0-.31-.35A1.9,1.9,0,0,1,436.55,284.28Z"/><path class="cls-3" d="M447.08,226.12l.6,0c-.93,0-1.78-.07-2.62,0C445.71,226.09,446.38,226.09,447.08,226.12Z"/><path class="cls-3" d="M461.44,257.32h0s.07,0,.12,0a2.57,2.57,0,0,0,.76-.14,2.57,2.57,0,0,1-.76.14A.24.24,0,0,0,461.44,257.32Z"/><path class="cls-3" d="M434.83,279h0a.37.37,0,0,0-.11,0c.06,0,.07,0,.14-.06s.07,0,.12,0l-.07,0Z"/><path class="cls-3" d="M453.77,235.72a1.5,1.5,0,0,1-.46-.78h0A1.56,1.56,0,0,0,453.77,235.72Z"/><path class="cls-3" d="M455.8,290.75h-.1l-.27,0a1.18,1.18,0,0,1,.72.08l-.12,0A2.09,2.09,0,0,0,455.8,290.75Z"/><path class="cls-3" d="M416.46,258.36s0-.07,0-.09a.72.72,0,0,0-.49,0l-.05,0c.62-.14,1,.2.77,1.27a.88.88,0,0,0,.32,1,.88.88,0,0,1-.32-1C416.75,258.89,416.66,258.54,416.46,258.36Z"/><path class="cls-3" d="M460,288.47a.74.74,0,0,1-.17-.38h0a.37.37,0,0,1,.19-.36c-.18.1-.31.37,0,.74a.52.52,0,0,1,.12.28h0A.52.52,0,0,0,460,288.47Z"/><path class="cls-3" d="M456.44,291.09a1.24,1.24,0,0,1,.29.39,4.07,4.07,0,0,0,.41.61,4.07,4.07,0,0,1-.41-.61A1.24,1.24,0,0,0,456.44,291.09Z"/><path class="cls-3" d="M449.05,294.18a2.85,2.85,0,0,1-.8-.41,7.36,7.36,0,0,1-.84-.63,2.71,2.71,0,0,1-.41-.44c-.74-1.07-2.24-.41-3.05-1.27.81.86,2.31.2,3.05,1.28a5.49,5.49,0,0,0,2.05,1.47c1.38-.18,2.81-.17,4.2-.39-.23,0-.46.09-.69.12C451.39,294,450.2,294,449.05,294.18Z"/><polygon class="cls-3" points="455.89 292.9 455.9 292.9 455.9 292.9 455.89 292.9 455.89 292.9"/><path class="cls-3" d="M418.5,258.28h0s.08,0,.1,0l0,0Z"/><path class="cls-3" d="M415.2,242.61c.46-.07.48-.31.38-.58l-.06-.11c.15.31.2.61-.32.68a1.51,1.51,0,0,0-1.32,1.09A1.5,1.5,0,0,1,415.2,242.61Z"/><path class="cls-3" d="M465.21,267.88a7.76,7.76,0,0,1,.65-.79h0a8.74,8.74,0,0,0-.63.76Z"/><path class="cls-3" d="M420.39,264.38a5.17,5.17,0,0,0,.27-3,5.17,5.17,0,0,1-.27,3l0,.12v0S420.38,264.41,420.39,264.38Z"/><path class="cls-3" d="M455.62,284.32h0a5,5,0,0,1-.77-.56,3.65,3.65,0,0,0,.67.5Z"/><path class="cls-3" d="M462.6,296.38l-.18.06,0,0,.21-.08c2-.69,2.3-2.64,3.34-4a1.4,1.4,0,0,1-.1.16C464.88,293.89,464.48,295.71,462.6,296.38Z"/><path class="cls-3" d="M413.45,255.13a4.82,4.82,0,0,0,.36-1.77c0-.1,0-.21,0-.31,0,.1,0,.21,0,.31a3.71,3.71,0,0,1-.67,2.42h0A2,2,0,0,0,413.45,255.13Z"/><path class="cls-3" d="M466.07,292.16h0c.08-.1.05-.19.07-.29h0C466.12,292,466.15,292.07,466.07,292.16Z"/><path class="cls-3" d="M443.54,290.94h-.06c.06,0,.15,0,.16,0a1.52,1.52,0,0,0,.3.47,1.52,1.52,0,0,1-.3-.47S443.57,291,443.54,290.94Z"/><path class="cls-3" d="M425.39,230.59c0-.2,0-.41,0-.62a2.84,2.84,0,0,1-.51,2.06c-.34-.21-.41-.78-.57-1,.16.23.23.8.57,1A2.24,2.24,0,0,0,425.39,230.59Z"/><path class="cls-3" d="M438.58,288.84a1.09,1.09,0,0,0-.7.09h0a1.09,1.09,0,0,1,.7-.09,2.13,2.13,0,0,1,1.19.5h0A2.13,2.13,0,0,0,438.58,288.84Z"/><path class="cls-3" d="M419.5,258.29c.08,0,.19,0,.26.06S419.58,258.32,419.5,258.29Z"/><path class="cls-3" d="M435.58,288.27c0-.06-.09-.11-.12-.16s.13.13.16.22h0Z"/><path class="cls-3" d="M425.54,228.68h0a2.62,2.62,0,0,0-.09.56.64.64,0,0,1,0-.07A1.93,1.93,0,0,1,425.54,228.68Z"/><path class="cls-3" d="M435.65,288.48a.07.07,0,0,0,0-.05,3.1,3.1,0,0,1,.07,1.62,1.59,1.59,0,0,0,.41,1.41,1.59,1.59,0,0,1-.41-1.41A3.25,3.25,0,0,0,435.65,288.48Z"/><path class="cls-3" d="M420.94,233.51a4.57,4.57,0,0,0,.26-.68c0-.06.06-.08.08-.14s-.07.08-.08.14c-.39,2-1.77,3.24-3.23,4.32A7.68,7.68,0,0,0,420.94,233.51Z"/><path class="cls-3" d="M440.5,290.59a2.56,2.56,0,0,0-.66-1.22h0a2.47,2.47,0,0,1,.65,1.22c.22.83.42,1.69.73,2.54,0,0,0-.08,0-.11C440.89,292.2,440.7,291.38,440.5,290.59Z"/><polygon class="cls-3" points="456.13 287.34 456.12 287.34 456.12 287.34 456.13 287.34"/><path class="cls-3" d="M427.75,228.09h0c.18.16.35.31.51.43A5.84,5.84,0,0,1,427.75,228.09Z"/><path class="cls-3" d="M428.69,278.1c-1-.45-1.76-1.63-2.93-1.32a1.3,1.3,0,0,1,.33-.07c1,0,1.69,1,2.6,1.39l.47.25.29.15C429.2,278.37,429,278.23,428.69,278.1Z"/><path class="cls-3" d="M412.83,257.33h0a2.31,2.31,0,0,0,.19.28A2.17,2.17,0,0,1,412.83,257.33Z"/><path class="cls-3" d="M415.24,258.48a1.38,1.38,0,0,1-.91.19,1.38,1.38,0,0,0,.91-.19,2.65,2.65,0,0,1,.63-.24l.05,0A2.66,2.66,0,0,0,415.24,258.48Z"/><path class="cls-3" d="M436.55,284.28l-.05-.06Z"/><path class="cls-3" d="M418.93,258.15a.72.72,0,0,0-.39.12l0,0a.86.86,0,0,1,.35-.1Z"/><path class="cls-3" d="M419.75,269.84h0a11.43,11.43,0,0,1,.61-5.37v0A11.31,11.31,0,0,0,419.75,269.84Z"/><path class="cls-3" d="M414,258.61l-.09-.06Z"/><path class="cls-3" d="M418.45,259.09c-.08-.3-.18-.63,0-.81h0C418.27,258.46,418.37,258.79,418.45,259.09Z"/><path class="cls-3" d="M424.52,277.09a1.7,1.7,0,0,0-1.66-1.72,1.7,1.7,0,0,1,1.66,1.72l.33,0h0Z"/><path class="cls-3" d="M460.68,278.84h0l.1,0Z"/><path class="cls-3" d="M457.68,295a2.24,2.24,0,0,0-.49-.34,2.24,2.24,0,0,1,.49.34,1.63,1.63,0,0,0,.77.44l.05,0a4.89,4.89,0,0,0,1.08.11A2.48,2.48,0,0,1,457.68,295Z"/><path class="cls-3" d="M452.56,293.91c.23,0,.46-.09.69-.12a7.12,7.12,0,0,0,2.64-.89h0A7.68,7.68,0,0,1,452.56,293.91Z"/><path class="cls-3" d="M456.51,294.29c-.25-.23-.23-.54.4-1.07a1.91,1.91,0,0,0-.52.58h0A.4.4,0,0,0,456.51,294.29Z"/><path class="cls-3" d="M456,290.83l.12,0c.05,0,.11,0,.16.05A.61.61,0,0,0,456,290.83Z"/><path class="cls-3" d="M442.77,291.08a1,1,0,0,1,.71-.15h.06A1,1,0,0,0,442.77,291.08Z"/><path class="cls-3" d="M439.74,289.33h0s.06,0,.07,0h0S439.76,289.35,439.74,289.33Z"/><path class="cls-3" d="M441.82,293.9l-.2.22a6,6,0,0,1-.44-1.1s0,.07,0,.11a5.55,5.55,0,0,0,.4,1Z"/><path class="cls-3" d="M460.15,288.74h0s0,0,0,.05S460.15,288.76,460.15,288.74Z"/><path class="cls-3" d="M456.12,287.34h0a.87.87,0,0,0-.31-.22A.87.87,0,0,1,456.12,287.34Z"/><path class="cls-3" d="M437.41,290.39a2.43,2.43,0,0,1-.49.83,2.69,2.69,0,0,0,.5-.82c.18-.46,0-1.19.46-1.47h0C437.42,289.2,437.59,289.94,437.41,290.39Z"/><path class="cls-3" d="M455.62,284.32c-.44,1.07-2,1-2.24,2.35h0c.22-1.37,1.8-1.28,2.24-2.35l-.1-.06Z"/><path class="cls-3" d="M465.84,292.52a1.4,1.4,0,0,0,.1-.16c.05-.06.08-.13.13-.19h0A3,3,0,0,0,465.84,292.52Z"/><path class="cls-3" d="M459.86,288.09Z"/><path class="cls-3" d="M466.23,291.57c0,.1-.06.21-.09.31h0C466.17,291.78,466.25,291.67,466.23,291.57Z"/><path class="cls-3" d="M462.21,296.52l.18-.06,0,0Z"/><path class="cls-3" d="M468.86,250.73a.45.45,0,0,1,0,.11A.45.45,0,0,0,468.86,250.73Z"/><path class="cls-3" d="M434.34,279.51s0,0,0-.06a.41.41,0,0,1,.35-.42.37.37,0,0,1,.11,0C434.4,279,434.33,279.25,434.34,279.51Z"/><path class="cls-3" d="M435.71,280.25a2.53,2.53,0,0,1,.21.44,2.53,2.53,0,0,0-.21-.44c-.28-.43,0-1.29-.83-1.27l.07,0C435.69,279,435.44,279.84,435.71,280.25Z"/><polygon class="cls-3" points="432.4 282.97 432.42 282.98 432.42 282.98 432.4 282.97"/><path class="cls-3" d="M454.12,286.88a6.09,6.09,0,0,1,1.64.2A5.72,5.72,0,0,0,454.12,286.88Z"/><path class="cls-3" d="M435.62,288.32h0s0,.07,0,.1a.07.07,0,0,1,0,.05A.9.9,0,0,0,435.62,288.32Z"/><path class="cls-3" d="M432.24,282.83h0a3.72,3.72,0,0,0-.9-3h0A3.73,3.73,0,0,1,432.24,282.83Z"/><path class="cls-3" d="M460.51,278.9h.07Z"/><polygon class="cls-3" points="435.14 287.69 435.14 287.69 435.14 287.69 435.14 287.69"/><path class="cls-3" d="M435.3,287.9l.16.21c0,.05.09.1.12.16A2,2,0,0,0,435.3,287.9Z"/><path class="cls-3" d="M436.55,286.38l-.35.17,0,0Z"/><path class="cls-3" d="M473.44,250.37a2.33,2.33,0,0,1-.6.42,2.33,2.33,0,0,0,.6-.42,1.49,1.49,0,0,0,.24-.38l0-.05A1.65,1.65,0,0,1,473.44,250.37Z"/><path class="cls-3" d="M434.24,285s.05,0,.09,0-.05,0-.09,0-.12.09-.19.14a.57.57,0,0,0-.13.1A.64.64,0,0,1,434.24,285Z"/><path class="cls-3" d="M459.49,236.87a.43.43,0,0,0,.16,0h0A.43.43,0,0,1,459.49,236.87Z"/><path class="cls-3" d="M457.74,237.86a.5.5,0,0,1,0-.12,1.3,1.3,0,0,1,.39-.82A1.44,1.44,0,0,0,457.74,237.86Z"/><path class="cls-3" d="M413.14,255.78a2.29,2.29,0,0,0,.31-.65,2,2,0,0,1-.31.64h0a.13.13,0,0,0,0,.05,2.43,2.43,0,0,0-.14.2A2.79,2.79,0,0,1,413.14,255.78Z"/><path class="cls-3" d="M468.34,251.68l.07-.06a1.85,1.85,0,0,0,.3-.39A1.74,1.74,0,0,1,468.34,251.68Z"/><path class="cls-3" d="M420.41,270h0a2.42,2.42,0,0,0-.36.1l.06,0C420.22,270,420.32,270,420.41,270Z"/><path class="cls-3" d="M455.7,290.76h0Z"/><path class="cls-3" d="M447.41,293.14a7.36,7.36,0,0,0,.84.63A7.36,7.36,0,0,1,447.41,293.14Z"/><path class="cls-3" d="M437.35,285.77a.77.77,0,0,1-.24.28A.77.77,0,0,0,437.35,285.77Z"/><path class="cls-3" d="M421.53,270.27h0a1.41,1.41,0,0,0-.32-.17l.08,0A1.83,1.83,0,0,1,421.53,270.27Z"/><path class="cls-3" d="M460.11,236.09a.36.36,0,0,0,0-.11v0A.59.59,0,0,1,460.11,236.09Z"/><path class="cls-3" d="M421,270h0a1.59,1.59,0,0,0-.38,0h.06A1.69,1.69,0,0,1,421,270Z"/><polygon class="cls-3" points="461.36 238.92 461.36 238.92 461.36 238.92 461.36 238.92"/><path class="cls-3" d="M473.86,249a.6.6,0,0,1-.06-.11,2.81,2.81,0,0,0-.52-.8A2.81,2.81,0,0,1,473.86,249Z"/><path class="cls-3" d="M468.32,248.15a.82.82,0,0,1-.06-.27v0A.7.7,0,0,0,468.32,248.15Z"/><path class="cls-3" d="M457.19,288.66a1.71,1.71,0,0,0-.78-.12h0A1.71,1.71,0,0,1,457.19,288.66Z"/><path class="cls-3" d="M468.79,250.1h0c0-.06.06-.16.2-.25C468.85,249.94,468.77,250,468.79,250.1Z"/><path class="cls-3" d="M466.09,243.34v0a.46.46,0,0,0-.07-.07Z"/><path class="cls-3" d="M469.79,249.62a1.19,1.19,0,0,1,.56.07l0,0A1.18,1.18,0,0,0,469.79,249.62Z"/><path class="cls-3" d="M460,235.47h0s-.08-.06-.11-.09S460,235.43,460,235.47Z"/><path class="cls-3" d="M460.26,295.67a1.17,1.17,0,0,1,.7.42c.3.39.53.53.78.53-.25,0-.48-.14-.78-.53A1.17,1.17,0,0,0,460.26,295.67Z"/><path class="cls-3" d="M462.8,239a1.7,1.7,0,0,1,.93-.05,1.7,1.7,0,0,0-.93.05,1.76,1.76,0,0,1-.73.15l-.09,0a1.18,1.18,0,0,1-.45-.18l-.06,0A1.29,1.29,0,0,0,462.8,239Z"/><path class="cls-3" d="M460,236.54v0a1.86,1.86,0,0,0,.1-.2A.9.9,0,0,1,460,236.54Z"/><path class="cls-3" d="M461.23,257.51a.29.29,0,0,1,.18-.18h0A.31.31,0,0,0,461.23,257.51Z"/><path class="cls-3" d="M420.94,233.51a4.57,4.57,0,0,0,.26-.68,1.43,1.43,0,0,1,1-1.08,1.46,1.46,0,0,0-.89.94c0,.06-.07.08-.08.14A4.57,4.57,0,0,1,420.94,233.51Z"/><path class="cls-3" d="M466,242.72a4.81,4.81,0,0,1,.25-.58c0-.08.05-.13.09-.21,0,.08-.05.13-.09.21A4.81,4.81,0,0,0,466,242.72Z"/><path class="cls-3" d="M421.87,270.83a1.8,1.8,0,0,1-.51,1.94h0a1.8,1.8,0,0,0,.51-1.94,1,1,0,0,0-.18-.29.85.85,0,0,1,.09.14A.54.54,0,0,1,421.87,270.83Z"/><path class="cls-3" d="M428.73,228.8l-.07,0-.07,0Z"/><path class="cls-3" d="M425.47,229.17a.64.64,0,0,0,0,.07c0,.24,0,.49,0,.73s0,.42,0,.62C425.41,230.11,425.41,229.63,425.47,229.17Z"/><path class="cls-3" d="M464.69,268.87a4.7,4.7,0,0,1,.52-1l0,0A4.54,4.54,0,0,0,464.69,268.87Z"/><path class="cls-3" d="M465.93,243.15s0,0,0-.06S465.92,243.13,465.93,243.15Z"/><path class="cls-3" d="M457.55,240.14h0Z"/><path class="cls-3" d="M470.45,247.86a1.47,1.47,0,0,1,.92-.75,1.48,1.48,0,0,0-.92.74,2,2,0,0,1-.56.63A1.9,1.9,0,0,0,470.45,247.86Z"/><path class="cls-3" d="M415.25,241.41a1.83,1.83,0,0,1-.16-1.73,1.81,1.81,0,0,0,.16,1.73c.08.15.19.33.27.51l.06.11C415.5,241.82,415.34,241.59,415.25,241.41Z"/><path class="cls-3" d="M426.39,227.45c.33-.09.75.12,1.28.58a2.73,2.73,0,0,0-.24-.17C427,227.55,426.67,227.37,426.39,227.45Z"/><path class="cls-3" d="M466.68,254h0a.62.62,0,0,0,.12-.3v0A.7.7,0,0,1,466.68,254Z"/><path class="cls-3" d="M416.41,258.27s0,.07,0,.09S416.44,258.29,416.41,258.27Z"/><path class="cls-3" d="M417.5,260.65a1.89,1.89,0,0,0,.41,0,.67.67,0,0,0,.31-.11.67.67,0,0,1-.31.11A1.89,1.89,0,0,1,417.5,260.65Z"/><path class="cls-3" d="M453.3,234.94h0s0,0,0,0Z"/><path class="cls-3" d="M448.16,226.15h-.48l-.6,0C447.43,226.14,447.79,226.14,448.16,226.15Z"/><path class="cls-3" d="M446.56,228.36c.56-1,2.13-1.17,3.22-2.2h0C448.69,227.19,447.12,227.35,446.56,228.36Z"/><path class="cls-3" d="M439.39,226.84l-.06-.08Z"/><path class="cls-3" d="M419.77,270.15h0l.22-.06h0Z"/><path class="cls-3" d="M421.18,272.91l.09-.07a3,3,0,0,1-.47.37,3.41,3.41,0,0,0-.57.44,3.41,3.41,0,0,1,.57-.44A3.86,3.86,0,0,0,421.18,272.91Z"/><path class="cls-3" d="M420.8,275.12a2.15,2.15,0,0,1-.62-.37,2.15,2.15,0,0,0,.62.37,3,3,0,0,0,.45.11h0A3,3,0,0,1,420.8,275.12Z"/><polygon class="cls-3" points="419.77 270.15 419.77 270.14 419.77 270.14 419.77 270.15 419.77 270.15"/><polygon class="cls-3" points="419.77 270.15 419.77 270.15 419.77 270.15 419.77 270.15"/><polygon class="cls-3" points="419.77 270.15 419.77 270.15 419.77 270.15 419.77 270.15 419.77 270.15"/><polygon class="cls-3" points="419.73 270.16 419.73 270.16 419.74 270.16 419.73 270.16"/><path class="cls-3" d="M419.73,270.16h0l0,0h0v0h0Z"/><polygon class="cls-3" points="419.78 270.18 419.78 270.18 419.77 270.18 419.78 270.18"/><path class="cls-3" d="M421.36,272.77h0l-.09.07-.09.07C421.24,272.86,421.31,272.82,421.36,272.77Z"/><path class="cls-3" d="M419.75,269.84h0c0,.1,0,.2,0,.3h0C419.76,270,419.76,269.94,419.75,269.84Z"/><path class="cls-1" d="M433.4,276.41a3.18,3.18,0,0,0-.09-2.18c-.25-.13-.18-.61-.27-1s-.25-.5-.83-.38a3.87,3.87,0,0,1-.45.05l-.18,0c-.07,0-.13,0-.19,0a1.58,1.58,0,0,1-.93-.44,2.77,2.77,0,0,1-.36-.39c-.5-.65-1.47-.23-2,.29,0,0,0,0,0,0a1.86,1.86,0,0,0-.47,1.36,1.82,1.82,0,0,0,.34,1c.3.38.54.4.74.26a2.37,2.37,0,0,0,.47-.55l.09-.14a.53.53,0,0,1,.28-.22c.28-.09.54.19.79.32a2.77,2.77,0,0,1,1.74,2c0,.23.1.54.33.6a.41.41,0,0,0,.28,0A1.33,1.33,0,0,0,433.4,276.41Z"/><path class="cls-1" d="M429.16,274.48a2.37,2.37,0,0,1-.47.55A2.37,2.37,0,0,0,429.16,274.48Z"/><path class="cls-1" d="M432.06,276.46a2.77,2.77,0,0,0-1.74-2c-.25-.13-.51-.41-.79-.32.28-.09.54.19.79.32a2.77,2.77,0,0,1,1.74,2c0,.23.1.54.33.6C432.16,277,432.1,276.69,432.06,276.46Z"/><path class="cls-1" d="M428.08,272.42s0,0,0,0,0,0,0,0a1.86,1.86,0,0,0-.47,1.36A1.86,1.86,0,0,1,428.08,272.42Z"/><path class="cls-1" d="M431.58,273c-.07,0-.13,0-.19,0S431.51,273,431.58,273Z"/><path class="cls-1" d="M430.1,272.1h0a2.77,2.77,0,0,0,.36.39A3.53,3.53,0,0,1,430.1,272.1Z"/><path class="cls-1" d="M433,273.26c-.08-.28-.25-.5-.82-.38a4,4,0,0,1-.46.05,3.87,3.87,0,0,0,.45-.05C432.79,272.76,433,273,433,273.26Z"/><path class="cls-1" d="M458.71,260c-.4,0-.57.83-.87,1.54a.49.49,0,0,1,0,.11,2.36,2.36,0,0,1-.48.75c1.75.22,3.47-.25,5.44.6.09,0,.18,0,.28.09q-.1-.27-.18-.54a8.28,8.28,0,0,0-.39-1.19.46.46,0,0,0-.23-.23,4.44,4.44,0,0,0-.71-.21,7.58,7.58,0,0,1-2.54-.84A.42.42,0,0,0,458.71,260Z"/><path class="cls-1" d="M462.76,263c.09,0,.18,0,.28.09q-.1-.27-.18-.54.08.27.18.54C462.94,263.08,462.85,263.08,462.76,263Z"/><path class="cls-1" d="M462.47,261.4a.46.46,0,0,0-.23-.23,4.44,4.44,0,0,0-.71-.21,4.44,4.44,0,0,1,.71.21A.46.46,0,0,1,462.47,261.4Z"/><path class="cls-1" d="M457.32,262.44h0a2.36,2.36,0,0,0,.48-.75A2.36,2.36,0,0,1,457.32,262.44Z"/><path class="cls-1" d="M458.71,260c-.4,0-.57.83-.87,1.54C458.14,260.87,458.31,260.07,458.71,260Z"/><path class="cls-1" d="M459.66,255.72l-2,2.61C460.42,257.59,460.42,257.59,459.66,255.72Z"/><path class="cls-1" d="M458.81,270.32a.66.66,0,0,0-.77-.94c-.09,0-.11.07-.18.1-.77.34-.29,1.19-.47,1.81a.77.77,0,0,1,0,.15.37.37,0,0,0,0,.27.75.75,0,0,0,.77.51.9.9,0,0,0,.53-.33C458.92,271.46,458.62,270.79,458.81,270.32Z"/><path class="cls-1" d="M457.86,269.48c-.77.34-.29,1.19-.47,1.81C457.57,270.67,457.09,269.82,457.86,269.48Z"/><path class="cls-1" d="M457.33,271.71a.75.75,0,0,0,.77.51.9.9,0,0,0,.53-.33.9.9,0,0,1-.53.33A.75.75,0,0,1,457.33,271.71Z"/><path class="cls-1" d="M448.52,281.06c-.09,0-.21-.06-.3-.05-.92.07-1.55.79-2.41,1.53-.1.08-.18.17-.29.25a5.07,5.07,0,0,0,3.36-1.21l.52-.36A2.74,2.74,0,0,0,448.52,281.06Z"/><path class="cls-1" d="M445.81,282.54c-.1.08-.18.17-.29.25a5.07,5.07,0,0,0,3.36-1.21,5.07,5.07,0,0,1-3.36,1.21C445.63,282.71,445.71,282.62,445.81,282.54Z"/><path class="cls-1" d="M448.22,281c.09,0,.21.05.3.05C448.43,281.06,448.31,281,448.22,281Z"/><path class="cls-4" d="M710.72,332.5a32.17,32.17,0,0,0-.73-4.94C678.47,208.81,655.44,53.7,514.85,12.19,474.3.22,408.51,2.77,345.11,11c-2.46-7.29-17.64-11.53-35.34-9.56C291,3.52,276.47,11.8,277.37,19.93a6.89,6.89,0,0,0,.56,1.93c-38.52,7.44-71.55,16-90.89,23C14.2,107.63-29,313.3,17.35,502.52c0,0,39.54,12.26,102.83,21.39,68,69.28,179.57,136.88,299.16,137.55,194.31,1.1,496.41-123.75,496.83-198.34C916.39,424,825.36,372.64,710.72,332.5Z"/></g></g></svg>