<svg xmlns="http://www.w3.org/2000/svg" viewBox="0 0 1001.61 1001.61"><defs><style>.cls-1{fill:#26193e;}.cls-2{fill:#a38edc;}.cls-3{fill:none;stroke:#fff;stroke-linecap:round;stroke-linejoin:round;stroke-width:14px;}</style></defs><g id="Layer_2" data-name="Layer 2"><g id="Layer_1-2" data-name="Layer 1"><circle class="cls-1" cx="500.81" cy="500.81" r="480.52"/><path class="cls-2" d="M962.25,305.87a502.42,502.42,0,1,0,39.36,194.94A499,499,0,0,0,962.25,305.87ZM500.81,981.32c-265.39,0-480.52-215.13-480.52-480.51S235.42,20.29,500.81,20.29,981.32,235.42,981.32,500.81,766.19,981.32,500.81,981.32Z"/><rect class="cls-3" x="345.94" y="361.53" width="255.16" height="446.53" rx="47.62"/><path class="cls-3" d="M601.1,416.54c25.28,0,54.57,20.11,54.57,44.91v20.41c0,24.8-29.29,47.78-54.57,47.78"/><rect class="cls-3" x="392.93" y="308.8" width="71.03" height="52.73"/><polyline class="cls-3" points="402.08 308.8 402.08 193.55 454.8 193.55 454.8 308.8"/><rect class="cls-3" x="393.56" y="430.61" width="57.24" height="306.06"/><line class="cls-3" x1="393.56" y1="536.66" x2="450.81" y2="524.64"/></g></g></svg>