<svg xmlns="http://www.w3.org/2000/svg" viewBox="0 0 1001.61 1001.61"><defs><style>.cls-1{fill:#26193e;}.cls-2{fill:#a38edc;}.cls-3{fill:none;stroke:#fff;stroke-linecap:round;stroke-linejoin:round;stroke-width:20px;}</style></defs><g id="Layer_2" data-name="Layer 2"><g id="v2"><circle class="cls-1" cx="500.81" cy="500.81" r="480.52"/><path class="cls-2" d="M962.25,305.87a502.42,502.42,0,1,0,39.36,194.94A499,499,0,0,0,962.25,305.87ZM500.81,981.32c-265.39,0-480.52-215.13-480.52-480.51S235.42,20.29,500.81,20.29,981.32,235.42,981.32,500.81,766.19,981.32,500.81,981.32Z"/><rect class="cls-3" x="382.86" y="372.05" width="235.89" height="412.81" rx="44.03"/><rect class="cls-3" x="426.3" y="323.3" width="65.67" height="48.75"/><polyline class="cls-3" points="434.76 323.3 434.76 216.75 483.5 216.75 483.5 323.3"/><rect class="cls-3" x="433.4" y="435.91" width="52.92" height="282.95"/><line class="cls-3" x1="433.4" y1="533.95" x2="486.32" y2="522.84"/></g></g></svg>