<svg xmlns="http://www.w3.org/2000/svg" viewBox="0 0 419.08 811.57"><defs><style>.cls-1{fill:#e82e66;}.cls-2{fill:#d2a976;}.cls-3{fill:#f8eccb;}.cls-4{fill:#fac554;}</style></defs><g id="Layer_2" data-name="Layer 2"><g id="Layer_1-2" data-name="Layer 1"><path class="cls-1" d="M141.48,94.76c.38.25.76.51,1.15.74C142.24,95.27,141.86,95,141.48,94.76Z"/><path class="cls-1" d="M139.08,93.05c.4.32.83.62,1.25.92C139.91,93.67,139.48,93.37,139.08,93.05Z"/><path class="cls-1" d="M132.68,86.82l.69.79Z"/><path class="cls-1" d="M134.18,88.51c.25.26.49.52.74.77C134.67,89,134.43,88.77,134.18,88.51Z"/><path class="cls-1" d="M137.38,91.63c.28.25.58.49.87.74C138,92.12,137.66,91.88,137.38,91.63Z"/><path class="cls-1" d="M131.24,85c.21.28.43.55.64.82C131.67,85.59,131.45,85.32,131.24,85Z"/><path class="cls-1" d="M127.42,79.61c.11.17.21.34.32.5C127.63,80,127.53,79.78,127.42,79.61Z"/><path class="cls-1" d="M129.86,83.21l.59.81Z"/><path class="cls-1" d="M128.56,81.34l.51.76Z"/><path class="cls-1" d="M124.13,74l.19.35Z"/><path class="cls-1" d="M123,71.82l.28.53Z"/><path class="cls-1" d="M120.77,67.38l.24.49Z"/><path class="cls-1" d="M119.75,65.2l.15.33Z"/><path class="cls-1" d="M121.85,69.6c.09.19.18.37.28.56C122,70,121.94,69.79,121.85,69.6Z"/><path class="cls-1" d="M136.54,90.86c-.27-.24-.53-.49-.79-.74C136,90.37,136.27,90.62,136.54,90.86Z"/><path class="cls-1" d="M136.54,90.86c.28.26.55.52.84.77C137.09,91.38,136.82,91.12,136.54,90.86Z"/><path class="cls-1" d="M135.75,90.12c-.28-.27-.56-.56-.83-.84C135.19,89.56,135.47,89.85,135.75,90.12Z"/><path class="cls-1" d="M140.33,94c.38.27.76.54,1.15.79C141.09,94.51,140.71,94.24,140.33,94Z"/><path class="cls-1" d="M133.37,87.61q.4.47.81.9Q133.77,88.07,133.37,87.61Z"/><path class="cls-1" d="M124.32,74.36c1,1.81,2,3.57,3.1,5.25C126.35,77.93,125.32,76.17,124.32,74.36Z"/><path class="cls-1" d="M123.25,72.35c.29.55.58,1.11.88,1.66C123.83,73.46,123.54,72.9,123.25,72.35Z"/><path class="cls-1" d="M138.25,92.37l.83.68Z"/><path class="cls-1" d="M119.9,65.53l.87,1.85Z"/><path class="cls-1" d="M121,67.87c.27.58.56,1.16.84,1.73C121.57,69,121.28,68.45,121,67.87Z"/><path class="cls-1" d="M122.13,70.16l.84,1.66Z"/><path class="cls-1" d="M127.74,80.11c.27.42.54.83.82,1.23C128.28,80.94,128,80.53,127.74,80.11Z"/><path class="cls-1" d="M113.84,51.6h0c1.93,4.6,3.86,9.18,5.91,13.6C117.71,60.79,115.77,56.2,113.84,51.6Z"/><path class="cls-1" d="M131.88,85.86l.8,1Z"/><path class="cls-1" d="M130.45,84l.79,1Z"/><path class="cls-1" d="M129.07,82.1c.26.38.52.74.79,1.11C129.59,82.84,129.33,82.48,129.07,82.1Z"/><path class="cls-1" d="M241.25,187.15s3.85,9.57,10.15,24.34h0c-6.29-14.76-10.15-24.34-10.15-24.34-13.9-34.93-27.14-99.28-79.55-86.78h0C214.11,87.86,227.35,152.21,241.25,187.15Z"/><path class="cls-1" d="M153.71,282.25a232.91,232.91,0,0,0,97.69-70.76c-6.3-14.77-10.15-24.34-10.15-24.34-13.9-34.94-27.14-99.29-79.56-86.79h-.23c-.8,0-1.59,0-2.36,0-.32,0-.63,0-.94-.06-.53,0-1-.07-1.56-.13-.35,0-.7-.08-1-.13s-.92-.12-1.37-.2-.7-.14-1.05-.21l-1.26-.28c-.35-.08-.69-.18-1-.27s-.8-.23-1.19-.36-.67-.21-1-.33l-1.13-.43-1-.4-1.09-.5c-.31-.15-.62-.29-.92-.45L143.48,96l-.85-.49c-.39-.23-.77-.49-1.15-.74s-.77-.52-1.15-.79-.85-.6-1.25-.92l-.83-.68c-.29-.25-.59-.49-.87-.74s-.56-.51-.84-.77-.53-.49-.79-.74-.56-.56-.83-.84-.49-.51-.74-.77-.54-.59-.81-.9l-.69-.79-.8-1c-.21-.27-.43-.54-.64-.82l-.79-1-.59-.81c-.27-.37-.53-.73-.79-1.11l-.51-.76c-.28-.4-.55-.81-.82-1.23-.11-.16-.21-.33-.32-.5-1.07-1.68-2.1-3.44-3.1-5.25l-.19-.35c-.3-.55-.59-1.11-.88-1.66l-.28-.53-.84-1.66c-.1-.19-.19-.37-.28-.56-.28-.57-.57-1.15-.84-1.73l-.24-.49-.87-1.85-.15-.33c-2-4.42-4-9-5.91-13.6C101.11,21.27,88.53-9.74,46.78,2.89,6.2,17.48,16.09,60.38,31.3,90.56,62,192-45.73,124.64,23.93,270.44c0,0,8.74,24.22,8.5,24.26A232.86,232.86,0,0,0,153.71,282.25Z"/><path class="cls-2" d="M308.36,788.07a36.9,36.9,0,0,0,34.77,23.5c.81,0,1.61-.06,2.42-.13s1.4-.13,2.1-.23a36.07,36.07,0,0,0,8-2.05,36.67,36.67,0,0,0,22.89-27.69c.11-.58.2-1.17.28-1.75a35.08,35.08,0,0,0,.32-5.33,33.44,33.44,0,0,0-.23-3.59c-.06-.6-.15-1.2-.24-1.8a37,37,0,0,0-1.94-7.13L327.17,632.55A404.62,404.62,0,0,1,258.5,658Z"/><path class="cls-3" d="M416,524.94l-.36-.63-.23-.4-.4-.74-.24-.45-.42-.81c-.07-.14-.15-.28-.22-.43q-.76-1.53-1.56-3.33c-.05-.1-.09-.2-.14-.31l-.52-1.18c0-.12-.1-.25-.16-.37-.18-.42-.35-.84-.54-1.28a.69.69,0,0,0-.05-.13c-.61-1.47-1.24-3-1.88-4.69a1.34,1.34,0,0,0-.07-.18l-.63-1.64-.06-.16c-3.47-9.16-7.31-20.59-11.5-32.95l-2.16-6.36-.05-.15c-9.54-28-20.73-59.39-33.16-79.11A234,234,0,0,1,68.1,500.09a48.27,48.27,0,0,0,2.7,10.8l48.91,127.6c4.56,12.79,15.48,21.13,30.57,25.77,26.9,8.28,67.07,4.79,108.22-6.3h0a404.62,404.62,0,0,0,68.67-25.42h0C386.55,604.08,431.48,563,416,524.94Z"/><path class="cls-4" d="M237.48,500.81A233.17,233.17,0,0,0,361.64,389.64c-1.57-2.5-3.17-4.8-4.78-6.9l-.18-.23c-.34-.44-.68-.87-1-1.29-.1-.13-.2-.25-.31-.37q-.48-.59-1-1.14l-.38-.43-.93-1-.43-.43c-.3-.32-.6-.63-.91-.93l-.18-.17c-.57-.54-1.13-1.05-1.7-1.53l-.78-.65-.6-.46-.82-.6-.58-.39-.86-.55-.55-.32-.93-.49c-.16-.08-.32-.17-.49-.24-.35-.17-.71-.32-1.07-.46l-.36-.14c-.48-.18-1-.34-1.45-.47s-.72-.34-1.09-.54l-.14-.08a21,21,0,0,1-2.28-1.45l-.12-.08c-.79-.58-1.6-1.23-2.42-1.95l-.08-.06c-.84-.75-1.7-1.56-2.58-2.45l0,0c-25.37-25.7-63.26-110.18-81.23-152.31a233.85,233.85,0,0,1-219,83.21c10.46,30.6,27.87,84.2,36.5,125.72l0,.15q.6,2.9,1.14,5.7c0,.13.05.26.07.4.35,1.8.67,3.57,1,5.31,0,.19.06.38.1.57q.25,1.45.48,2.88l.09.57.24,1.5c0,.24.07.49.11.73.12.81.24,1.61.35,2.4l.12.83.18,1.33c0,.3.08.61.11.91.09.67.17,1.34.25,2,0,.33.07.65.11,1l.12,1.16c0,.38.08.76.11,1.14s.1,1,.15,1.56c0,.35.06.7.08,1.05s0,.67.08,1c0,.53.07,1,.1,1.56,0,.32,0,.64,0,1s0,.72,0,1.08,0,.57,0,.85q0,.81,0,1.59v.74c0,.36,0,.72,0,1.08s0,.47,0,.7c0,.51,0,1,0,1.5,0,.21,0,.42,0,.63l-.06,1.06c0,.19,0,.38,0,.56,0,.47-.09.93-.14,1.38l-.06.53-.15,1-.06.41c-.07.43-.15.84-.24,1.25l-.09.44c-.08.34-.16.67-.25,1a2,2,0,0,1-.07.26c-.1.38-.22.75-.34,1.1a3.62,3.62,0,0,1-.13.35c-.11.33-.24.64-.37.94a.42.42,0,0,1,0,.1l-.09.21c-.24.56-.48,1.12-.7,1.69-.11.26-.21.53-.31.79s-.27.75-.41,1.12-.23.64-.33,1v0c-.35,1.06-.67,2.13-.94,3.21v0a48.56,48.56,0,0,0-1.07,18.37A233.23,233.23,0,0,0,237.48,500.81Z"/></g></g></svg>