<svg xmlns="http://www.w3.org/2000/svg" viewBox="0 0 1001.61 1001.61"><defs><style>.cls-1{fill:#26193e;}.cls-2{fill:#a38edc;}.cls-3,.cls-4{fill:none;stroke:#fff;}.cls-3{stroke-linecap:round;stroke-linejoin:round;stroke-width:14px;}.cls-4{stroke-miterlimit:10;}</style></defs><g id="Layer_2" data-name="Layer 2"><g id="Layer_1-2" data-name="Layer 1"><circle class="cls-1" cx="501.18" cy="501.36" r="480.52"/><path class="cls-2" d="M962.25,305.87a502.42,502.42,0,1,0,39.36,194.94A499,499,0,0,0,962.25,305.87ZM500.81,981.32c-265.39,0-480.52-215.13-480.52-480.51S235.42,20.29,500.81,20.29,981.32,235.42,981.32,500.81,766.19,981.32,500.81,981.32Z"/><line class="cls-3" x1="335.39" y1="712.54" x2="461.71" y2="712.54"/><line class="cls-3" x1="398.55" y1="562.16" x2="398.55" y2="712.54"/><path class="cls-3" d="M329.38,368.47H467.72a0,0,0,0,1,0,0V493a69.17,69.17,0,0,1-69.17,69.17h0A69.17,69.17,0,0,1,329.38,493V368.47A0,0,0,0,1,329.38,368.47Z"/><path class="cls-3" d="M329.38,428.63c1.31,1.48,17.72,20.45,36.09,20.45,18,0,22.85-27.67,54.13-27.67s48.12,27.67,48.12,27.67"/><path class="cls-3" d="M564.34,367.5A78.35,78.35,0,0,0,514.64,441V789.53h157.6V441c0-33.56-21.36-62.21-50.92-73.57"/><line class="cls-3" x1="621.32" y1="285.62" x2="621.32" y2="364.56"/><polyline class="cls-3" points="564.34 242.76 564.34 212.08 621.32 212.08 621.32 242.81"/><line class="cls-3" x1="564.34" y1="364.56" x2="564.34" y2="285.47"/><rect class="cls-3" x="552.84" y="242.76" width="80.75" height="42.86" rx="13.47"/><path class="cls-4" d="M467.72,449.08v44a65.47,65.47,0,0,1-65.48,65.47h-9.65c-34.91,0-63.21-28.3-62.84-62.65V429.18"/></g></g></svg>