<svg xmlns="http://www.w3.org/2000/svg" viewBox="0 0 1000.94 1000.94"><defs><style>.cls-1{fill:#26193e;}.cls-2{fill:#a38edc;}.cls-3{fill:none;stroke:#fff;stroke-linecap:round;stroke-linejoin:round;stroke-width:20px;}</style></defs><g id="Layer_2" data-name="Layer 2"><g id="v2"><path class="cls-1" d="M500.47,990.94C229.52,990.77,10,771,10.18,500A490.59,490.59,0,0,1,309.56,48.54C559.37-56.39,846.94,61.06,951.87,310.87,1056.5,560,940,846.76,691.38,952.4A487.38,487.38,0,0,1,500.47,990.94Z"/><path class="cls-2" d="M500.47,20c265.43.18,480.45,215.5,480.28,480.92A480.6,480.6,0,0,1,687.47,943.19c-245,102-526.38-14-628.38-259C-42.15,440.93,71.31,161.54,313.47,57.75A477.62,477.62,0,0,1,500.47,20m0-20C224.07,0,0,224.07,0,500.47s224.07,500.47,500.47,500.47,500.47-224.07,500.47-500.47S776.87,0,500.47,0Z"/><path class="cls-3" d="M628.86,724.23c-32.67,0-63.19,15.28-89.16,41.78H718C692.06,739.51,661.54,724.23,628.86,724.23Z"/><line class="cls-3" x1="628.86" y1="724.23" x2="628.86" y2="580.71"/><path class="cls-3" d="M729.81,469.37a101,101,0,1,1-201.89,2q0-1,0-2l25-135.12H704.83Z"/><path class="cls-3" d="M536.48,423.07c90.65-10.36,91.8,15.25,184.79.07"/><rect class="cls-3" x="326.95" y="173.99" width="81.12" height="46.9"/><path class="cls-3" d="M342.23,220.89c0,190.9-72,167.78-72,343.19V766h194.6V564.08c0-175.41-72.05-152.29-72.05-343.19"/><polyline class="cls-3" points="270.19 694.5 388.14 694.5 388.14 509.86 272.93 509.86"/></g></g></svg>