<svg xmlns="http://www.w3.org/2000/svg" viewBox="0 0 914.01 842.71"><defs><style>.cls-1{fill:#2089ca;}.cls-2{fill:#32a5de;}.cls-3{fill:#ed2c65;}</style></defs><g id="Layer_2" data-name="Layer 2"><g id="Layer_1-2" data-name="Layer 1"><path class="cls-1" d="M913.49,315.12c-2.14,7.27-1,14.77-1.36,22.12-1.83,36.71-19,67.68-41.22,96.8-35.14,46.15-81.9,79.84-135.34,106.2-69.74,34.4-144.69,52.47-223,58.39-98.09,7.42-193.51-4.58-285.12-38.73-62.39-23.26-117.53-56.57-162.58-103.2-24-24.81-42.87-52.58-55-84-5.87-15.21-5.11-31.4-8-47.07-.22,4.24-.6,8.48-.63,12.72C.92,386.5,1.18,434.71.13,482.89c-.71,32.42,1.39,64.37,11.23,95.6C37.43,661.21,93.83,722.77,171.5,767.58c127.44,73.52,265.89,91,411.36,61.44C683.66,808.51,771,764.93,838,690.7c39.93-44.26,66.71-94.77,72.1-152.47C917,464.05,912.49,389.5,913.49,315.12Z"/><path class="cls-2" d="M1.9,325.59C-7.52,222.79,44.24,148.08,130.09,89.76,194.64,45.93,268.21,21.3,346.57,8.93,459.22-8.85,569.72-.49,676.7,37.69,752.16,64.63,818,104.44,865.76,166.36c34.27,44.46,51,93.94,47.73,148.76-2.14,7.27-1,14.77-1.36,22.12-1.83,36.71-19,67.68-41.22,96.8-35.14,46.15-81.9,79.84-135.34,106.2-69.74,34.4-144.69,52.47-223,58.39-98.09,7.42-193.51-4.58-285.12-38.73-62.39-23.26-117.53-56.57-162.58-103.2-24-24.81-42.87-52.58-55-84C4,357.45,4.75,341.26,1.9,325.59Z"/><path class="cls-3" d="M278.62,247.69c.4-19.27,10.22-34.3,26.91-44.59,44.88-27.69,91.91-28.67,139.3-5.88,9.63,4.63,15.94,4.88,25.8.21,46.62-22.08,93.28-21.39,137.4,5.7,36.71,22.55,39.08,63.88,4.12,88.65-40.44,28.66-82.94,54.82-124.55,82.06-.62.41-1.25.83-1.9,1.2-10.4,5.82-19,17.52-30.84,17.06-11.19-.43-19.88-11.12-29.55-17.43q-51.26-33.45-102.12-67.39a192.84,192.84,0,0,1-31.28-26.46C282.94,271.57,278.21,260.42,278.62,247.69Z"/></g></g></svg>