<svg xmlns="http://www.w3.org/2000/svg" viewBox="0 0 1001.61 1001.61"><defs><style>.cls-1{fill:#26193e;}.cls-2{fill:#a38edc;}.cls-3{fill:none;stroke:#fff;stroke-linecap:round;stroke-linejoin:round;stroke-width:20px;}</style></defs><g id="Layer_2" data-name="Layer 2"><g id="v2"><circle class="cls-1" cx="500.81" cy="500.81" r="480.52"/><path class="cls-2" d="M962.25,305.87a502.42,502.42,0,1,0,39.36,194.94A499,499,0,0,0,962.25,305.87ZM500.81,981.32c-265.39,0-480.52-215.13-480.52-480.51S235.42,20.29,500.81,20.29,981.32,235.42,981.32,500.81,766.19,981.32,500.81,981.32Z"/><path class="cls-3" d="M596,324a53.63,53.63,0,0,1-53.52-53.75v-.06l-82.32-.2A53.62,53.62,0,1,1,353,269.74h0l-82.32-.2-.2,82.31a53.63,53.63,0,0,1-.25,107.26l-.2,82.31a53.63,53.63,0,0,1-.25,107.26L269.55,731l82.31.19a53.63,53.63,0,0,1,107.26.26h0l82.31.19a53.62,53.62,0,1,1,107.24.25l82.31.2.21-82.32a53.63,53.63,0,1,1,.24-107.25h0l.21-82.32a53.63,53.63,0,1,1,.24-107.25h0l.19-82.32-82.31-.18A53.56,53.56,0,0,1,596.22,324Z"/><circle class="cls-3" cx="500.82" cy="500.88" r="92.21"/></g></g></svg>