<svg xmlns="http://www.w3.org/2000/svg" viewBox="0 0 1001.61 1001.61"><defs><style>.cls-1{fill:#26193e;}.cls-2{fill:#a38edc;}.cls-3{fill:none;stroke:#fff;stroke-linecap:round;stroke-linejoin:round;stroke-width:14px;}</style></defs><g id="Layer_2" data-name="Layer 2"><g id="Layer_1-2" data-name="Layer 1"><circle class="cls-1" cx="500.81" cy="500.81" r="480.52"/><path class="cls-2" d="M962.25,305.87a502.42,502.42,0,1,0,39.36,194.94A499,499,0,0,0,962.25,305.87ZM500.81,981.32c-265.39,0-480.52-215.13-480.52-480.51S235.42,20.29,500.81,20.29,981.32,235.42,981.32,500.81,766.19,981.32,500.81,981.32Z"/><rect class="cls-3" x="345.34" y="340.01" width="312.71" height="322.68"/><ellipse class="cls-3" cx="502.06" cy="521.33" rx="80.8" ry="60.87"/><ellipse class="cls-3" cx="501.73" cy="521.01" rx="24" ry="31.68"/><line class="cls-3" x1="406.07" y1="433.07" x2="439.83" y2="482.5"/><line class="cls-3" x1="465.29" y1="402.55" x2="476.75" y2="463.5"/><line class="cls-3" x1="598.05" y1="433.07" x2="564.29" y2="482.5"/><line class="cls-3" x1="538.83" y1="402.55" x2="527.37" y2="463.5"/><path class="cls-3" d="M279.17,722.39V659.86h.1c16.27,0,29.46-12.72,29.46-28.41s-13.19-28.4-29.46-28.4h-.1l.05-30.29h0c16.27,0,29.46-12.72,29.46-28.4S295.54,516,279.27,516h-.1l.05-30.29h0c16.27,0,29.46-12.71,29.46-28.4s-13.19-28.41-29.46-28.41h-.1l.05-30.28h0c16.27,0,29.46-12.72,29.46-28.41s-13.19-28.4-29.46-28.4h-.1V279.28h62.54v.1c0,16.27,12.71,29.45,28.4,29.45s28.41-13.18,28.41-29.45v-.1l30.29.05v.05c0,16.27,12.71,29.45,28.4,29.45s28.4-13.18,28.4-29.45v-.1l30.29.05v.05c0,16.27,12.72,29.45,28.41,29.45s28.4-13.18,28.4-29.45v-.1l30.29.05v.05c0,16.27,12.72,29.45,28.41,29.45s28.4-13.18,28.4-29.45v-.1h62.53v62.53h-.09c-16.27,0-29.46,12.71-29.46,28.4s13.19,28.4,29.46,28.4h.09l0,30.28h0c-16.27,0-29.46,12.72-29.46,28.4s13.19,28.4,29.46,28.4h.09l0,30.29h0c-16.27,0-29.46,12.71-29.46,28.4s13.19,28.4,29.46,28.4h.09l0,30.28h0c-16.27,0-29.46,12.72-29.46,28.4s13.19,28.41,29.46,28.41h.09v62.52H659.9v-.09c0-16.27-12.72-29.46-28.41-29.46S603.1,706,603.1,722.3v.09l-30.29,0v0c0-16.27-12.72-29.46-28.41-29.46S516,706,516,722.3v.09l-30.29,0v0c0-16.27-12.72-29.46-28.4-29.46S428.9,706,428.9,722.3v.09l-30.29,0v0c0-16.27-12.71-29.46-28.4-29.46S341.8,706,341.8,722.3v.09H279.27"/></g></g></svg>