<svg xmlns="http://www.w3.org/2000/svg" viewBox="0 0 1001.61 1001.61"><defs><style>.cls-1{fill:#26193e;}.cls-2{fill:#a38edc;}.cls-3{fill:none;stroke:#fff;stroke-linecap:round;stroke-linejoin:round;stroke-width:14px;}.cls-4{fill:#fff;}</style></defs><g id="Layer_2" data-name="Layer 2"><g id="Layer_1-2" data-name="Layer 1"><circle class="cls-1" cx="500.81" cy="500.81" r="480.52"/><path class="cls-2" d="M962.25,305.87a502.42,502.42,0,1,0,39.36,194.94A499,499,0,0,0,962.25,305.87ZM500.81,981.32c-265.39,0-480.52-215.13-480.52-480.51S235.42,20.29,500.81,20.29,981.32,235.42,981.32,500.81,766.19,981.32,500.81,981.32Z"/><rect class="cls-3" x="301.61" y="225.61" width="398.39" height="550.38"/><line class="cls-3" x1="301.61" y1="321.21" x2="700" y2="321.21"/><line class="cls-3" x1="301.61" y1="365.56" x2="700" y2="365.56"/><line class="cls-3" x1="301.61" y1="408.63" x2="700" y2="408.63"/><circle class="cls-3" cx="508.9" cy="269.75" r="16.8"/><path class="cls-4" d="M301.61,522.41S346.41,640,438.81,640,580.4,776,580.4,776H301.61Z"/></g></g></svg>