<svg xmlns="http://www.w3.org/2000/svg" viewBox="0 0 1001.61 1001.61"><defs><style>.cls-1{fill:#26193e;}.cls-2{fill:#a38edc;}.cls-3,.cls-4{fill:none;stroke:#fff;stroke-linecap:round;stroke-linejoin:round;}.cls-3{stroke-width:20px;}.cls-4{stroke-width:20px;}</style></defs><g id="Layer_2" data-name="Layer 2"><g id="v2"><circle class="cls-1" cx="500.81" cy="500.81" r="480.52"/><path class="cls-2" d="M962.25,305.87a502.42,502.42,0,1,0,39.36,194.94A499,499,0,0,0,962.25,305.87ZM500.81,981.32c-265.39,0-480.52-215.13-480.52-480.51S235.42,20.29,500.81,20.29,981.32,235.42,981.32,500.81,766.19,981.32,500.81,981.32Z"/><line class="cls-3" x1="319.79" y1="393.75" x2="634.28" y2="338.3"/><rect class="cls-4" x="341.13" y="272.7" width="319.35" height="456.21" transform="translate(-79.36 94.57) rotate(-10)"/><path class="cls-3" d="M355.48,596.15l60.35-3.33L466.61,607l26.91-20.21s38.08,13.81,39.85,14.06S559,625.5,559,625.5l53.37-20.1,42.53,3.19L681.12,604"/></g></g></svg>