<svg xmlns="http://www.w3.org/2000/svg" viewBox="0 0 913.19 385.54"><defs><style>.cls-1{fill:#ed2c65;}.cls-2{fill:#fcc753;}.cls-3{fill:#faeecf;}</style></defs><g id="Layer_2" data-name="Layer 2"><g id="Layer_1-2" data-name="Layer 1"><path class="cls-1" d="M853.68,138.87l-38.74-7a13.82,13.82,0,0,0-6.19.35c-33-26.21-85.41-42-145.2-52.81-66.25-11.92-126.24-14.92-167,3.67A50.74,50.74,0,0,1,440.12,73c-31.72-31.63-89-49.73-155.25-61.65C225.63.65,171.48-2.77,131.5,9.86a13.87,13.87,0,0,0-4.56-1.73l-38.75-7a72.3,72.3,0,0,0-84,58.36l-4,22.3a13.83,13.83,0,0,0,11.15,16l51.75,9.31C57.67,190.47,100.33,285.65,201,303.76,317.32,324.69,359,264.83,412.8,224c24.23-18.43,40.45-15.51,56.74,10.21,36.13,57,65,129.61,170.71,148.63C740.91,400.9,814.07,326.55,838,246.57l54,9.72a13.81,13.81,0,0,0,16-11.15l4-22.31A72.3,72.3,0,0,0,853.68,138.87Z"/><path class="cls-2" d="M403,151C390.56,220.34,287.7,284.52,206.23,269.86S95.53,167.26,108,98s81.46-73.77,162.92-59.11S415.49,81.72,403,151Z"/><path class="cls-2" d="M508.3,170c-12.47,69.31,61.57,165.32,143,180s139.51-57.58,152-126.89-50.63-97.54-132.1-112.2S520.77,100.66,508.3,170Z"/><path class="cls-3" d="M124.38,208.93,341.54,58C321.11,49.63,297,43.52,270.93,38.84q-14.43-2.6-28.24-4.29L105.36,130C105.45,157.26,111.61,185.11,124.38,208.93Z"/><path class="cls-3" d="M403.07,119.83c-3.1-15.74-11.22-28.69-23.35-39.34L148.73,241a109.66,109.66,0,0,0,43.42,25.39Z"/><path class="cls-3" d="M674.86,111.56,513.49,223.72c7.48,22.76,21,45.48,38.48,65.41L764.6,141.34C741.41,127.29,710,118.1,674.86,111.56Z"/><path class="cls-3" d="M625.73,342.46,803.84,218.67c2.66-19.55-.73-35.8-9.13-49.23L581.88,317.37A177.68,177.68,0,0,0,625.73,342.46Z"/></g></g></svg>