<svg id="Layer_1" data-name="Layer 1" xmlns="http://www.w3.org/2000/svg" viewBox="0 0 1000 1000"><defs><style>.cls-1{fill:#26193e;}.cls-2{fill:#a38edc;}.cls-3{fill:none;stroke:#fff;stroke-linecap:round;stroke-linejoin:round;stroke-width:20px;}</style></defs><title>1.alcohol</title><path class="cls-1" d="M500.47,990.94A490.6,490.6,0,0,1,309.56,48.54,490.6,490.6,0,0,1,691.38,952.4,487.43,487.43,0,0,1,500.47,990.94Z"/><path class="cls-2" d="M500.47,20a480.6,480.6,0,0,1,187,923.19,480.6,480.6,0,0,1-374-885.44A477.48,477.48,0,0,1,500.47,20m0-20C224.07,0,0,224.07,0,500.47s224.07,500.47,500.47,500.47,500.47-224.07,500.47-500.47S776.87,0,500.47,0Z"/><path class="cls-3" d="M628.86,724.23c-32.67,0-63.19,15.28-89.16,41.78H718C692.06,739.51,661.54,724.23,628.86,724.23Z"/><line class="cls-3" x1="628.86" y1="724.23" x2="628.86" y2="570.32"/><path class="cls-3" d="M729.81,469.37a100.95,100.95,0,1,1-201.89,0l25-135.12H704.83Z"/><path class="cls-3" d="M536.48,423.07c90.65-10.36,91.8,15.25,184.79.07"/><rect class="cls-3" x="326.95" y="173.99" width="81.12" height="46.9"/><path class="cls-3" d="M342.23,220.89c0,190.9-72,167.78-72,343.19V766H464.83V564.08c0-175.41-72.05-152.29-72.05-343.19"/><polyline class="cls-3" points="270.19 694.5 388.14 694.5 388.14 509.86 272.93 509.86"/></svg>