<svg id="Layer_1" data-name="Layer 1" xmlns="http://www.w3.org/2000/svg" viewBox="0 0 1000 1000"><defs><style>.cls-1,.cls-3{fill:#26193e;}.cls-2{fill:#a38edc;}.cls-3{stroke:#fff;stroke-linecap:round;stroke-linejoin:round;stroke-width:20px;}</style></defs><title>2.wiet</title><path class="cls-1" d="M500.47,990.94A490.6,490.6,0,0,1,309.56,48.54,490.6,490.6,0,0,1,691.38,952.4,487.43,487.43,0,0,1,500.47,990.94Z"/><path class="cls-2" d="M500.47,20a480.6,480.6,0,0,1,187,923.19,480.6,480.6,0,0,1-374-885.44A477.48,477.48,0,0,1,500.47,20m0-20C224.07,0,0,224.07,0,500.47s224.07,500.47,500.47,500.47,500.47-224.07,500.47-500.47S776.87,0,500.47,0Z"/><path class="cls-3" d="M632.23,646.36c-57.08-15.3-122,15.84-122,15.84s40.68,59.43,97.77,74.73,122-15.84,122-15.84S689.32,661.65,632.23,646.36Z"/><path class="cls-3" d="M367.77,646.36C310.68,661.65,270,721.09,270,721.09S335,752.23,392,736.93,489.8,662.2,489.8,662.2,424.85,631.06,367.77,646.36Z"/><rect class="cls-3" x="473.43" y="624.61" width="53.14" height="171.46"/><path class="cls-3" d="M623.3,546.08C566.77,572.6,522,616.42,500,640.56c-22-24.14-66.77-68-123.3-94.48C295.59,508,202.48,511.3,202.48,511.3s57,73.7,138.1,111.76c53.06,24.89,111.24,32.1,145.15,34.1l-.53.67s5.43.19,14.8-.05c9.37.24,14.8.05,14.8.05l-.53-.67c33.91-2,92.09-9.21,145.15-34.1C740.53,585,797.52,511.3,797.52,511.3S704.41,508,623.3,546.08Z"/><path class="cls-3" d="M570.2,457.1C535,501,512.93,552.44,500,590.62,487.07,552.44,465,501,429.8,457.1c-65.38-81.6-166.08-124.87-166.08-124.87S284,440,349.36,521.55c43.9,54.81,103.74,92.32,138.31,111.05-2.15,8.76-3.11,13.83-3.11,13.83s5.78-2.49,15.44-7.37c9.66,4.88,15.44,7.37,15.44,7.37s-1-5.07-3.11-13.83c34.57-18.73,94.41-56.24,138.31-111.05C716,440,736.28,332.23,736.28,332.23S635.58,375.5,570.2,457.1Z"/><path class="cls-3" d="M500,183.93s-63.18,112.2-63.18,233.47S500,650.87,500,650.87s63.18-112.2,63.18-233.47S500,183.93,500,183.93Z"/></svg>