<svg id="Layer_1" data-name="Layer 1" xmlns="http://www.w3.org/2000/svg" viewBox="0 0 1000 1000"><defs><style>.cls-1{fill:#26193e;}.cls-2{fill:#a38edc;}.cls-3{fill:none;stroke:#fff;stroke-linecap:round;stroke-linejoin:round;stroke-width:20px;}</style></defs><title>3.GHB</title><path class="cls-1" d="M500.47,990.94A490.6,490.6,0,0,1,309.56,48.54,490.6,490.6,0,0,1,691.38,952.4,487.43,487.43,0,0,1,500.47,990.94Z"/><path class="cls-2" d="M500.47,20a480.6,480.6,0,0,1,187,923.19,480.6,480.6,0,0,1-374-885.44A477.48,477.48,0,0,1,500.47,20m0-20C224.07,0,0,224.07,0,500.47s224.07,500.47,500.47,500.47,500.47-224.07,500.47-500.47S776.87,0,500.47,0Z"/><rect class="cls-3" x="440.47" y="355.47" width="120" height="420"/><rect class="cls-3" x="420.47" y="225.47" width="160" height="130"/><line class="cls-3" x1="460.47" y1="355.47" x2="460.47" y2="225.47"/><line class="cls-3" x1="500.47" y1="355.47" x2="500.47" y2="225.47"/><line class="cls-3" x1="540.47" y1="355.47" x2="540.47" y2="225.47"/></svg>