<svg id="Layer_1" data-name="Layer 1" xmlns="http://www.w3.org/2000/svg" viewBox="0 0 1000 1000"><defs><style>.cls-1,.cls-4{fill:#26193e;}.cls-2{fill:#a38edc;}.cls-3{fill:none;}.cls-3,.cls-4{stroke:#fff;stroke-linecap:round;stroke-linejoin:round;stroke-width:20px;}</style></defs><title>4.cocaine</title><path class="cls-1" d="M500.47,990.94A490.6,490.6,0,0,1,309.56,48.54,490.6,490.6,0,0,1,691.38,952.4,487.43,487.43,0,0,1,500.47,990.94Z"/><path class="cls-2" d="M500.47,20a480.6,480.6,0,0,1,187,923.19,480.6,480.6,0,0,1-374-885.44A477.48,477.48,0,0,1,500.47,20m0-20C224.07,0,0,224.07,0,500.47s224.07,500.47,500.47,500.47,500.47-224.07,500.47-500.47S776.87,0,500.47,0Z"/><rect class="cls-3" x="277.9" y="292.54" width="444.2" height="287.42" rx="50" transform="translate(-128.89 224.55) rotate(-22.5)"/><rect class="cls-3" x="262.72" y="369.6" width="444.2" height="60" transform="translate(-116.02 215.95) rotate(-22.5)"/><path class="cls-4" d="M744.25,664.23a49.64,49.64,0,0,0-12.87,1.7,65.2,65.2,0,0,0-113.61-4.3,49.38,49.38,0,0,0-76-16.46,83.84,83.84,0,0,0-150-5.27A56.34,56.34,0,0,0,291.5,663.72a69.44,69.44,0,0,0-84.58,42.48H793.08A49.39,49.39,0,0,0,744.25,664.23Z"/></svg>