<svg id="Layer_1" data-name="Layer 1" xmlns="http://www.w3.org/2000/svg" viewBox="0 0 1000 1000"><defs><style>.cls-1,.cls-4{fill:#26193e;}.cls-2{fill:#a38edc;}.cls-3{fill:none;}.cls-3,.cls-4,.cls-5{stroke:#fff;stroke-linecap:round;stroke-linejoin:round;stroke-width:20px;}.cls-5{fill:#584998;}</style></defs><title>5.XTC</title><path class="cls-1" d="M500.47,990.94A490.6,490.6,0,0,1,309.56,48.54,490.6,490.6,0,0,1,691.38,952.4,487.43,487.43,0,0,1,500.47,990.94Z"/><path class="cls-2" d="M500.47,20a480.6,480.6,0,0,1,187,923.19,480.6,480.6,0,0,1-374-885.44A477.48,477.48,0,0,1,500.47,20m0-20C224.07,0,0,224.07,0,500.47s224.07,500.47,500.47,500.47,500.47-224.07,500.47-500.47S776.87,0,500.47,0Z"/><ellipse class="cls-3" cx="621.18" cy="479.77" rx="177.16" ry="101.82"/><path class="cls-3" d="M798.34,570.68c0,56.24-79.32,101.83-177.16,101.83S444,626.92,444,570.68"/><line class="cls-3" x1="798.34" y1="479.77" x2="798.34" y2="570.68"/><line class="cls-3" x1="444.02" y1="479.77" x2="444.02" y2="570.68"/><path class="cls-3" d="M670.39,449c-13.59-9.49-35.62-9.49-49.21,0-13.58-9.49-35.61-9.49-49.2,0s-13.59,24.89,0,34.38l49.2,34.38,49.21-34.38C684,473.84,684,458.45,670.39,449Z"/><path class="cls-4" d="M231.13,644.39l84.16,34.39c52,21.28,124.26-34.89,161.28-125.46s24.82-181.24-27.23-202.52l-84.16-34.39"/><ellipse class="cls-4" cx="298.16" cy="480.4" rx="177.16" ry="101.82" transform="translate(-259.34 574.64) rotate(-67.77)"/><line class="cls-5" x1="308.2" y1="630.25" x2="286.43" y2="331.69"/></svg>