<svg id="Layer_1" data-name="Layer 1" xmlns="http://www.w3.org/2000/svg" viewBox="0 0 1000 1000"><defs><style>.cls-1,.cls-4{fill:#26193e;}.cls-2{fill:#a38edc;}.cls-3{fill:none;}.cls-3,.cls-4{stroke:#fff;stroke-linecap:round;stroke-linejoin:round;stroke-width:20px;}</style></defs><title>6.speed</title><path class="cls-1" d="M500.47,990.94A490.6,490.6,0,0,1,309.56,48.54,490.6,490.6,0,0,1,691.38,952.4,487.43,487.43,0,0,1,500.47,990.94Z"/><path class="cls-2" d="M500.47,20a480.6,480.6,0,0,1,187,923.19,480.6,480.6,0,0,1-374-885.44A477.48,477.48,0,0,1,500.47,20m0-20C224.07,0,0,224.07,0,500.47s224.07,500.47,500.47,500.47,500.47-224.07,500.47-500.47S776.87,0,500.47,0Z"/><path class="cls-3" d="M393,753.53h-117V676.79L492.45,460.41a167.3,167.3,0,1,1,96.91,96.81l-54.08,54.07H492.65v42.63H459.43v33.22H416.8v42.63ZM724,325.63a37.9,37.9,0,1,0,0,53.6A37.9,37.9,0,0,0,724,325.63Z"/><polygon class="cls-4" points="262.93 698.6 326.15 698.6 373.05 651.65 320.91 609.37 302.08 566.6 266.95 601.81 233.69 601.81 233.69 665.06 262.93 698.6"/><line class="cls-3" x1="413.76" y1="616.33" x2="515.54" y2="515.55"/></svg>