<svg id="Layer_1" data-name="Layer 1" xmlns="http://www.w3.org/2000/svg" viewBox="0 0 1000 1000"><defs><style>.cls-1{fill:#26193e;}.cls-2{fill:#a38edc;}.cls-3{fill:none;stroke:#fff;stroke-linecap:round;stroke-linejoin:round;stroke-width:20px;}</style></defs><title>7.psychedelica</title><path class="cls-1" d="M500.47,990.94A490.6,490.6,0,0,1,309.56,48.54,490.6,490.6,0,0,1,691.38,952.4,487.43,487.43,0,0,1,500.47,990.94Z"/><path class="cls-2" d="M500.47,20a480.6,480.6,0,0,1,187,923.19,480.6,480.6,0,0,1-374-885.44A477.48,477.48,0,0,1,500.47,20m0-20C224.07,0,0,224.07,0,500.47s224.07,500.47,500.47,500.47,500.47-224.07,500.47-500.47S776.87,0,500.47,0Z"/><path class="cls-3" d="M652.45,387.89a31.05,31.05,0,0,1,36-25.19l8.28-46.93a31,31,0,1,1,10.78-61.14l8.28-46.93-46.93-8.28a31,31,0,1,1-61.15-10.78l-46.93-8.28a31,31,0,1,1-61.15-10.78l-46.93-8.27-8.27,46.93a31,31,0,0,1-10.79,61.15l-8.27,46.93a31,31,0,0,1-10.78,61.14l-8.28,46.93,46.93,8.28a31,31,0,0,1,61.15,10.78l46.93,8.28a31,31,0,1,1,61.15,10.78l46.93,8.27,8.27-46.93A31,31,0,0,1,652.45,387.89Z"/><circle class="cls-3" cx="561.01" cy="316.05" r="53.38"/><path class="cls-3" d="M320.77,365.07C307.51,328.63,272.24,308,242,319s-44,49.47-30.73,85.92c5.93,16.27,16.24,29.39,28.53,37.94l83.52-30.39C327.23,398,326.7,381.35,320.77,365.07Z"/><path class="cls-3" d="M398.38,707.1l-26.71,9.72a21.34,21.34,0,0,1-27.53-13.28l-85.6-267.49,46-16.75L410.94,679.23A21.34,21.34,0,0,1,398.38,707.1Z"/><path class="cls-3" d="M436.75,803.58,557.53,623.06,604.19,650,508.25,844.87a24.75,24.75,0,0,1-34.58,10.5l-28.73-16.59A24.75,24.75,0,0,1,436.75,803.58Z"/><path class="cls-3" d="M690.89,685.21c23.12-40.05-4.51-99.3-61.73-132.33s-122.34-27.35-145.47,12.71l-.06.11a12.86,12.86,0,0,0,4.83,17.48l184.81,106.7a12.86,12.86,0,0,0,17.55-4.55Z"/></svg>