<svg id="Layer_1" data-name="Layer 1" xmlns="http://www.w3.org/2000/svg" viewBox="0 0 1000 1000"><defs><style>.cls-1{fill:#26193e;}.cls-2{fill:#a38edc;}.cls-3{fill:none;stroke:#fff;stroke-linecap:round;stroke-linejoin:round;stroke-width:20px;}</style></defs><title>8.ketamine</title><path class="cls-1" d="M500.47,990.94A490.61,490.61,0,0,1,309.56,48.54,490.6,490.6,0,0,1,691.38,952.4,487.43,487.43,0,0,1,500.47,990.94Z"/><path class="cls-2" d="M500.47,20a480.6,480.6,0,0,1,187,923.19,480.6,480.6,0,0,1-374-885.44A477.48,477.48,0,0,1,500.47,20m0-20C224.07,0,0,224.07,0,500.47s224.07,500.47,500.47,500.47,500.47-224.07,500.47-500.47S776.87,0,500.47,0Z"/><line class="cls-3" x1="339.68" y1="495.62" x2="614.88" y2="220.42"/><line class="cls-3" x1="660.32" y1="265.86" x2="385.12" y2="541.06"/><circle class="cls-3" cx="637.6" cy="243.14" r="32.13"/><path class="cls-3" d="M385.12,541.06a32.13,32.13,0,0,1-45.44-45.44"/><polygon class="cls-3" points="726.29 664.23 713.41 665.93 655.4 630.49 599.8 661.63 555.34 633.75 523.76 645.17 447.47 596.05 373.77 639.9 328.94 617.68 273.54 663.72 254.08 660.93 188.96 706.2 775.12 706.2 726.29 664.23"/></svg>