<svg id="Layer_1" data-name="Layer 1" xmlns="http://www.w3.org/2000/svg" viewBox="0 0 1000 1000"><defs><style>.cls-1{fill:#26193e;}.cls-2{fill:#a38edc;}.cls-3{fill:none;stroke:#fff;stroke-linecap:round;stroke-linejoin:round;stroke-width:20px;}</style></defs><title>9.overig</title><path class="cls-1" d="M500.47,990.94A490.61,490.61,0,0,1,309.56,48.54,490.6,490.6,0,0,1,691.38,952.4,487.43,487.43,0,0,1,500.47,990.94Z"/><path class="cls-2" d="M500.47,20a480.6,480.6,0,0,1,187,923.19,480.6,480.6,0,0,1-374-885.44A477.48,477.48,0,0,1,500.47,20m0-20C224.07,0,0,224.07,0,500.47s224.07,500.47,500.47,500.47,500.47-224.07,500.47-500.47S776.87,0,500.47,0Z"/><path class="cls-3" d="M782.55,383.45l76.61,64.28m-163.87-7L817.86,543.62m3-128-64.28,76.6M563.74,722l-96.42,114.9M794.88,524.33l-76.61-64.28L544.72,666.89a30,30,0,0,0,3.7,42.26l30.64,25.71a30,30,0,0,0,42.27-3.69ZM602.31,676l38.3,32.14m-6.16-70.44,38.3,32.14m-6.16-70.44,38.3,32.14m-6.16-70.44L737,593.28"/><line class="cls-3" x1="199.69" y1="386.73" x2="444.32" y2="343.6"/><rect class="cls-3" x="216.29" y="292.57" width="248.41" height="354.87" transform="translate(-76.44 66.27) rotate(-10)"/><path class="cls-3" d="M227.45,544.17l46.95-2.59,39.5,11,20.93-15.72s29.62,10.74,31,10.94S385.77,567,385.77,567l41.52-15.63,33.08,2.48,20.39-3.6"/><circle class="cls-3" cx="546.42" cy="223.7" r="25.55"/><circle class="cls-3" cx="617.38" cy="284.15" r="25.55"/><rect class="cls-3" x="544.14" y="358.69" width="42.88" height="119.05" rx="21.44" transform="translate(-133.33 338.82) rotate(-30)"/><line class="cls-3" x1="547.01" y1="428.93" x2="584.14" y2="407.49"/></svg>