<svg xmlns="http://www.w3.org/2000/svg" viewBox="0 0 1001.61 1001.61"><defs><style>.cls-1{fill:#26193e;}.cls-2{fill:#a38edc;}.cls-3{fill:none;stroke:#fff;stroke-linecap:round;stroke-linejoin:round;stroke-width:20px;}</style></defs><g id="Layer_2" data-name="Layer 2"><g id="v2"><circle class="cls-1" cx="500.81" cy="500.81" r="480.52"/><path class="cls-2" d="M962.25,305.87a502.42,502.42,0,1,0,39.36,194.94A499,499,0,0,0,962.25,305.87ZM500.81,981.32c-265.39,0-480.52-215.13-480.52-480.51S235.42,20.29,500.81,20.29,981.32,235.42,981.32,500.81,766.19,981.32,500.81,981.32Z"/><path class="cls-3" d="M415.34,499.11H655.5a0,0,0,0,1,0,0V717.74A25.27,25.27,0,0,1,630.23,743H440.61a25.27,25.27,0,0,1-25.27-25.27V499.11A0,0,0,0,1,415.34,499.11Z"/><path class="cls-3" d="M172.43,358.92h243.9a0,0,0,0,1,0,0v118a20.51,20.51,0,0,1-20.51,20.51H192.94a20.51,20.51,0,0,1-20.51-20.51v-118A0,0,0,0,1,172.43,358.92Z" transform="translate(518.01 -40.85) rotate(60)"/><rect class="cls-3" x="455.15" y="413.02" width="163.34" height="86.09"/><path class="cls-3" d="M581.57,343.85a49,49,0,1,1-90,1"/><polyline class="cls-3" points="492.04 343.96 536 247.99 581.61 343.96"/><path class="cls-3" d="M510,571.29a37.9,37.9,0,1,0,53.6,0,37.9,37.9,0,0,0-53.6,0Z"/></g></g></svg>