<svg xmlns="http://www.w3.org/2000/svg" viewBox="0 0 1001.61 1001.61"><defs><style>.cls-1{fill:#26193e;}.cls-2{fill:#a38edc;}.cls-3{fill:none;stroke:#fff;stroke-linecap:round;stroke-linejoin:round;stroke-width:14px;}</style></defs><g id="Layer_2" data-name="Layer 2"><g id="Layer_1-2" data-name="Layer 1"><circle class="cls-1" cx="500.81" cy="500.81" r="480.52"/><path class="cls-2" d="M962.25,305.87a502.42,502.42,0,1,0,39.36,194.94A499,499,0,0,0,962.25,305.87ZM500.81,981.32c-265.39,0-480.52-215.13-480.52-480.51S235.42,20.29,500.81,20.29,981.32,235.42,981.32,500.81,766.19,981.32,500.81,981.32Z"/><rect class="cls-3" x="421.65" y="393.7" width="158.31" height="408.79" rx="36.43"/><line class="cls-3" x1="500.81" y1="393.7" x2="500.81" y2="802.49"/><path class="cls-3" d="M434.75,328.64h53a13.1,13.1,0,0,1,13.1,13.1v52a0,0,0,0,1,0,0H421.65a0,0,0,0,1,0,0v-52A13.1,13.1,0,0,1,434.75,328.64Z"/><rect class="cls-3" x="500.81" y="354.43" width="76.89" height="39.26"/><path class="cls-3" d="M421.65,568.27s21.42,35.79,39.58,35.79,34.43-39,62.89-39,53.58,39,53.58,39"/><path class="cls-3" d="M461.23,200.27c-1.28-6.58-39.58,15.46-39.58,57.74s39.58,43.92,39.58,43.92,39.58,3.25,39.58-42.29S465,219.79,461.23,200.27Z"/></g></g></svg>